<svg xmlns="http://www.w3.org/2000/svg" width="100" height="100" fill="none" viewBox="0 0 100 100"><g clip-path="url(#a)"><path fill="#009345" d="M85.123 35.698c-.053-2.528-.122-5.133-1.144-7.446-.346-.783-.797-1.521-1.079-2.33-.882-2.539.004-5.454-.962-7.963-.205-.532-.717-1.12-1.237-.885-.393.177-.461.697-.469 1.128a51 51 0 0 0 .406 7.342c.193 1.507.39 3.236-.63 4.361-.196.216-.436.407-.542.677-.241.613.294 1.238.414 1.885.167.9-.431 2.023.24 2.645.297.274.733.315 1.136.341l3.407.223z"/><path fill="#009345" d="M61.351 12.718c-1.511.038-2.107 2.21-1.33 3.507s2.275 1.93 3.6 2.659 2.683 1.842 2.74 3.352c.092 2.39-3.115 4.363-2.203 6.573.283.685.927 1.182 1.162 1.885.475 1.426-.88 2.73-1.962 3.773s-1.985 2.924-.835 3.892c.627.529 1.547.444 2.362.353a45.5 45.5 0 0 1 14.778.774c4.731 1.039 9.88 3.456 11.154 8.129.34 1.244.355 2.616-.192 3.783-.756 1.612-2.409 2.562-3.857 3.596a22.56 22.56 0 0 0-8.133 10.852c-1.842 5.28-1.89 11.57-5.886 15.483-2.14 2.096-5.086 3.125-7.963 3.957a97 97 0 0 1-10.86 2.47c-3.286.55-6.662.928-9.936.31-3.273-.617-6.467-2.36-8.163-5.226-2.28-3.856-1.853-9.485-5.603-11.937-3.89-2.544-9.334.38-13.657-1.329-1.966-.777-3.44-2.42-4.833-4.01-2.547-2.908-5.249-6.795-3.636-10.308.838-1.824 2.642-2.963 4.114-4.327s2.727-3.427 1.989-5.293c-1.099-2.78-5.504-2.719-6.946-5.336-1.037-1.88.015-4.32 1.65-5.713 1.633-1.394 9.28-3.529 11.155-4.577 4.698-2.626 10.33-9.723 14.434-13.206s2.417-1.78 6.652 1.543c.758.595 1.42 1.347 2.308 1.72 2.423 1.018 4.877-1.148 6.922-2.798a22.24 22.24 0 0 1 10-4.559z"/><path fill="#0b3335" d="m22.292 24.371 6.705-3.448c2.114-1.087 4.166-2.327 6.328-3.316.373-.17.767-.335 1.179-.377.454-.047.5-.037.89.1.333.117.959.561 1.313.87 1.068.933 1.966 2.04 3.04 2.966 1.106.95 2.449 1.76 3.931 1.865 2.352.169 4.385-1.757 6.189-3.003 2.02-1.394 4.052-2.773 6.059-4.186.481-.34.958-.686 1.444-1.019q.29-.201.591-.382c.267-.158.47-.24.552-.266.206-.065.073-.045.005-.034.108-.017.229-.009.338-.004q.16.008.32.033c-.051-.008-.246-.056-.019.009.42.12.676.21 1.16.467 2.136 1.135 3.714 3.175 5.208 5.031a61 61 0 0 1 4.373 6.199c.9 1.456 3.222.103 2.298-1.344a64 64 0 0 0-4.148-5.761c-1.471-1.824-3.174-3.452-4.639-5.277-.748-.932-1.254-1.972-2.256-2.685-1.102-.784-2.44-1-3.744-.64-1.172.325-2.15 1.051-3.133 1.731-1.088.753-2.164 1.522-3.243 2.287-2.097 1.486-4.226 2.936-6.293 4.462-.447.33-.707.516-1.214.844.01-.006-.306.164-.147.092.149-.067-.123.042-.16.052-.144.037-.492.062-.17.053-.157.005-.309.009-.466-.001.028.002-.055-.022.021.017a6.4 6.4 0 0 1-.858-.518 8 8 0 0 1-.596-.516c-.273-.255-.537-.52-.8-.787-.533-.539-1.057-1.088-1.63-1.586-1.249-1.086-2.758-1.962-4.457-2.003-1.41-.033-2.678.53-3.895 1.173-1.251.66-2.505 1.319-3.747 1.995-2.62 1.427-5.215 2.902-7.822 4.353-1.67.93-.193 3.421 1.493 2.554"/><path fill="#0b3335" d="M10.347 37.394c3.411-2.252 6.975-3.755 10.793-5.013 4.355-1.435 8.844-2.456 13.364-3.207 4.385-.73 8.904-1.306 13.416-1.291 4.052.014 8.09-.018 12.128.389.145.015.946.076.416.034.357.029.715.095 1.072.135.294.033-.37-.054-.081-.01l.371.052c.236.034.474.064.707.117.169.038.804.309.34.071.2.102.403.25.607.337.24.103-.211-.24-.043-.035.081.098.195.19.289.28.263.248.025.04-.021-.037.088.148.178.286.25.442-.054-.117-.078-.343-.025-.004.008.053.091.545.068.28-.023-.27-.008.167-.008.225-.002.23-.044.456.02.102a5 5 0 0 1-.066.318c-.045.178-.234.495.023.046-.113.197-.2.405-.305.604-.04.076-.086.149-.127.224-.037.067-.27.349-.062.102.197-.233-.197.196-.27.266-.39.378-.792.651-1.112 1.103l.608-.607c-1.483.823-2.828 1.844-3.292 3.56-.08.298-.12.613-.154.918a4 4 0 0 0-.033.347q.079-.472.024-.213c-.075.254.243-.392.013-.043-.12.184.332-.242-.001-.017-.227.153-.087.056.06-.03-.113.067-.218.146-.333.21-.124.07-.254.127-.38.191.437-.223-.021.004-.128.042-.59.209-1.203.352-1.819.465-.17.032-.34.058-.51.087-.485.082.102-.003-.188.029-.323.035-.646.074-.97.1a22 22 0 0 1-1.498.08c-.174.002-.35-.007-.524-.004-.027 0-.146-.026-.166-.01.108-.083.657.15.729.203l.764.995v-.005l-.428 1.618c-.023.025-1.002.497-.657.403.235-.064-.919.1-.044.01.564-.058 1.127-.126 1.691-.184a130 130 0 0 1 10.442-.644c4.614-.099 9.234.049 13.833.442 3.663.313 8.069.464 11.083 2.855 1.159.919 1.837 2.355 2.175 3.813.108.463.147.729.18 1.087.042.475.054.97-.006 1.444.041-.327-.1.457-.088.405-.057.235-.125.47-.21.697.117-.31-.168.338-.158.321-.035.065-.462.764-.243.45a5.4 5.4 0 0 1-1.529 1.452c-.187.115-.383.211-.575.32-.562.315.323-.092-.276.125q-.697.253-1.418.426c-.813.196-1.618.437-2.42.679q-.2.06-.399.123c-.143.047-1.01.29-.493.164-.36.087-.716.21-1.061.344-3.395 1.315-5.665 4.057-6.428 7.625-.405 1.891-.302 3.837-.646 5.723-.315 1.733-.636 3.635-1.478 5.105a9 9 0 0 1-.351.567c.007-.01-.413.559-.184.269-.253.32-.536.622-.826.91q-.421.416-.877.795-.222.185-.449.364c.364-.29-.233.174-.319.238a50 50 0 0 1-5.195 3.387 40 40 0 0 1-3.702 1.842c-.717.312.415-.154-.309.127-.294.114-.587.232-.883.343a38 38 0 0 1-5.347 1.575q-.671.144-1.348.26c-.224.039-.45.072-.675.11-.74.121.496-.05-.25.034-.975.111-1.952.195-2.934.224a32 32 0 0 1-4.968-.238q.416.057-.022-.006c-1.737-.264-3.497-.578-5.152-1.183-.066-.024-.694-.3-.206-.074-.194-.09-.388-.181-.577-.282a8 8 0 0 1-1.118-.703c.375.286-.216-.204-.23-.216-.183-.16-.364-.319-.536-.49-.141-.14-.273-.288-.407-.434a6 6 0 0 1-.181-.214q.235.31.002-.007c-.464-.708-.969-1.386-1.37-2.134-.403-.754-.583-1.568-.656-2.433-.068-.805-.067-1.629.067-2.427.2-1.19.538-2.369.408-3.586-.09-.84-.208-1.742-.66-2.482a4 4 0 0 0-.63-.782 3.6 3.6 0 0 0-.58-.454 2 2 0 0 0-.234-.144q.454.39-.223-.154c-1.582-.925-3.832-.034-5.411.397-2.297.628-4.577 1.308-6.86 1.986-2.027.602-4.046 1.29-6.098 1.799q-.693.171-1.397.29c.5-.084-.25.026-.292.03q-.346.029-.695.034c-.231.003-.46-.01-.69-.017-.467-.015-.164-.005-.05.011a6 6 0 0 1-.68-.139c-.082-.021-.902-.3-.542-.15-.336-.14-.99-.399-1.208-.7.32.444.192.151.016-.008a7 7 0 0 1-.34-.33c-.232-.24-.438-.502-.658-.752-.385-.436.272.418-.06-.08-.135-.203-.278-.4-.407-.607a13 13 0 0 1-.73-1.34c-.023-.047-.28-.64-.097-.195-.338-.822-.6-1.666-.764-2.54-.215-1.158-.233-2.959.073-4.193.217-.872.345-1.224.786-1.952.095-.157.201-.307.304-.459.309-.457-.241.228.132-.16.234-.245.458-.493.712-.718a8 8 0 0 1 .378-.315c-.337.263.097-.06.14-.09q.401-.274.819-.522c.603-.36 1.242-.665 1.818-1.068a22 22 0 0 0 1.644-1.252c.295-.25.571-.532.735-.675q.459-.403.853-.872c1.168-1.384 2.064-3.068 2.057-4.92-.012-3.165-2.787-5.408-5.842-5.31-.248.008-.49.009-.738.004-.094-.002-.402-.056-.05.004a6 6 0 0 1-.416-.084c-.14-.035-.275-.08-.412-.123.557.178-.647-.32-.121-.05-.129-.066-.257-.13-.38-.206a4 4 0 0 1-.24-.162q.244.185.02-.01c-.037-.044-.337-.414-.113-.094a4 4 0 0 1-.239-.397c.176.33-.042-.132-.059-.187-.051-.17-.1-.344-.127-.52.042.277 0-.146-.003-.21a6 6 0 0 1 .01-.542c.014-.22.109-.6.263-.971-.148.356.071-.071.087-.115.119-.332-.191.147.05-.08.103-.095.648-.538.255-.268.232-.16.459-.321.681-.496-.529.416.263-.198.284-.217.627-.542.556-1.612 0-2.168-.62-.621-1.539-.543-2.167 0 .409-.353.208-.158.07-.078l.774-.21c-4.153.555-5.092 6.637-2.127 9.12 1.485 1.245 3.267 1.435 5.12 1.174-.322.046.05 0 .179-.004a4 4 0 0 1 .485.014c-.278-.023.14.028.232.05q.106.025.21.055c-.006-.002.356.12.24.073.442.178.9.592 1.089 1.055.802 1.97-.879 3.709-2.318 4.829l.665-.387c-.387.147-.736.342-1.104.526a15 15 0 0 1-.449.214q-.112.051-.226.101c-.258.117.222-.09-.033.016-.723.301-1.426.615-2.119.978-1.33.696-2.633 1.544-3.603 2.707C3.025 58.158 2.606 62.2 3.3 65.94c.636 3.437 2.118 7.091 5.346 8.847 4.217 2.294 8.858.652 13.049-.788 2.253-.774 4.535-1.493 6.762-2.338 1.115-.423 2.235-.85 3.363-1.238.268-.092.537-.145.81-.215-.451.115-.037.083.038.02-.012.01.372-.036.021-.02-.34.016.284.04.278.04.214.022.597-.09.783-.035l-.306.006q-.49-.03-.24.022a.7.7 0 0 1 .197.058c.007.008-.277-.175-.109-.036.053.043.13.062.18.11-.024-.022-.185-.166-.06-.023.114.13.023.008.004-.021.056.089.152.193.18.295.214.755-.261 1.894-.45 2.64-.524 2.073-.344 4.126-.062 6.14.147 1.046.267 2.1.67 3.086.407.996.958 1.847 1.629 2.687 1.317 1.65 3.306 2.67 5.273 3.33 3.687 1.237 7.755 1.656 11.627 1.436 8.485-.482 16.394-4.091 22.821-9.568 1.39-1.184 2.672-2.553 3.496-4.2.978-1.955 1.34-4.032 1.347-6.203.006-1.926.11-3.883.54-5.769.388-1.695 1.069-3.015 2.315-4.1.103-.09.31-.244.63-.44q.468-.284.97-.507c.19-.086-.022.01-.052.022q.114-.045.23-.086c.152-.052.304-.106.459-.153.152-.047.306-.086.459-.13.075-.022.153-.035.228-.056-.21.06-.187.021.02 0 .919-.093 1.844-.132 2.757-.264 1.052-.152 2.055-.479 3.027-.902 4.181-1.82 6.325-6.695 4.786-11.014-1.437-4.033-4.837-6.788-8.94-7.836-2.043-.521-4.178-.692-6.271-.89-2.349-.223-4.697-.426-7.053-.545-4.75-.24-9.512-.22-14.26.062-2.312.137-4.63.318-6.93.597-.797.097-1.535.38-1.777 1.26-.281 1.025.47 1.965 1.464 2.101 1.772.241 3.78-.079 5.505-.447 1.013-.217 2.103-.533 2.96-1.134.493-.346.945-.753 1.227-1.296q.195-.371.281-.777c.05-.232.044-.471.082-.704-.044.269.055-.181.077-.263q.03-.106.07-.21c-.01.025-.123.24-.028.082.069-.115.135-.23.207-.344.101-.16-.053.073-.065.086.045-.046.083-.1.131-.141.095-.084.188-.174.281-.26.138-.128-.077.058-.09.067.053-.037.104-.077.158-.11.11-.069.217-.142.327-.21.242-.147.49-.282.738-.42l-.855.231c.945-.056 1.963-.547 2.728-1.098 1.227-.884 1.766-2.068 1.933-3.544.315-2.802-1.533-5.282-4.181-6.059-.964-.282-2.039-.312-3.038-.4a68 68 0 0 0-2.924-.19 90 90 0 0 0-6.476-.049c-2.365.063-4.712.314-7.07.509-2.54.21-5.076.502-7.602.852-4.89.678-9.752 1.654-14.485 3.065-4.778 1.424-9.55 3.28-13.72 6.05-.725.48-1.037 1.424-.579 2.207.422.721 1.477 1.06 2.207.578M79.489 14.894q0 .24-.028.478l.038-.287a3.8 3.8 0 0 1-.266.97l.112-.267a4 4 0 0 1-.455.778l.18-.233q-.26.338-.59.608l.239-.185a.5.5 0 0 1-.09.055c-.445.243-.708.863-.55 1.352q.098.297.308.528c.228.247.532.31.847.35.566.072 1.142.015 1.712-.006q.856-.03 1.713-.064c.434-.016.796-.19 1.06-.532.28-.363.313-.734.242-1.176-.1-.617-.62-.938-1.038-1.321a7 7 0 0 1-.812-.886l.217.28c-.241-.316-.434-.669-.707-.959-.165-.176-.297-.358-.513-.486-.256-.152-.521-.168-.804-.204-.353-.044-.707.229-.882.506-.19.3-.286.632-.238.988.026.196.082.373.15.558.092.254.202.472.358.687q.228.314.475.613c.464.563 1.014 1.001 1.591 1.443l-.275-.213c.053.043.1.086.145.137l-.212-.274q.03.036.05.08l-.135-.323a.3.3 0 0 1 .027.091l1.301-1.708-1.746.162c-.666.062-1.35.086-1.998.257l1.165 2c.09-.109.2-.201.293-.307.154-.173.296-.358.43-.547.216-.307.368-.643.508-.99a4.4 4.4 0 0 0 .302-1.953c-.023-.285-.104-.543-.311-.75-.185-.185-.487-.324-.752-.312-.573.026-1.064.467-1.061 1.062"/><path fill="#0b3335" d="M79.833 19.58c-.955.049-1.57 1.022-2.097 1.707-.237.31-.137.824.078 1.102.264.343.632.413 1.042.356q.101-.014.202-.03l.036-.002q.151-.016.303-.031.354-.032.709-.05c.44-.022.881-.033 1.322-.05.972-.036 1.939-.094 2.867-.405.635-.213.85-.838.58-1.425-.25-.541-.756-.863-1.27-1.125-.096-.049-.194-.096-.287-.152-.117-.07-.087-.13.03.037-.025-.037-.077-.068-.11-.1-.08-.083-.304-.4-.086-.07-.102-.155.037.114.047.12a.7.7 0 0 0-.079-.214 3 3 0 0 0-.088-.205c-.205-.44-.787-.65-1.232-.59-.507.069-.858.412-1.027.886-.164.46-.008 1.014.264 1.4.31.442.714.699 1.227.855.239.073.492.085.737.13q.091.013.182.037l.069.021q.13.049.009.002-.118-.05.003.011l.058.037-.096-.07-.027-.03.58-1.426-.236.035q-.15.013-.299.028c-.159.017-.316.044-.475.066.206-.029-.19.022-.227.026-.438.045-.878.071-1.318.094-.966.051-1.943.09-2.895.276l1.12 1.458q.15-.219.307-.433c.028-.038.132-.175.053-.073q.09-.115.181-.227c.282-.346.564-.787.568-1.251.003-.377-.335-.744-.725-.724"/><path fill="#0b3335" d="M80.322 23.866a8 8 0 0 0-1.595.672c-.54.308-.967.872-1.304 1.38-.416.626.136 1.447.834 1.454.655.007 1.305-.116 1.941-.26a9.5 9.5 0 0 1 1.737-.217c1.294-.053 2.6-.029 3.89-.133 1.049-.084 1.393-1.337.526-1.94-.613-.426-1.22-.918-1.943-1.25q-.161-.073-.326-.142c-.082-.034-.446-.255-.121-.052l.421.573-.023-.092c.004-.097-.034-.206-.048-.302-.033-.206-.049-.423-.116-.62-.187-.55-.557-.828-1.079-1.046-.428-.178-1 .041-1.307.346-.661.654-.466 1.433-.265 2.227.174.689.611 1.304 1.342 1.463.257.057.54.07.803.071.23.001-.044-.023.093.005q.155.029.308.063c.38.09.767.197 1 .391l.736-1.777c-1.292-.01-2.6.086-3.89.15-.65.033-1.3.095-1.936.23-.579.122-1.15.338-1.743.379l.835 1.454c.236-.425.519-.708.819-1.095.26-.335.54-.534.919-.728.664-.34.204-1.42-.508-1.204"/><path fill="#0b3335" d="M80.524 27.464c-1.744.625-3.42 1.438-4.924 2.525-.822.594-.797 1.949.294 2.246.967.264 1.927.116 2.903.004a66 66 0 0 1 3.192-.287c2.092-.138 4.194-.172 6.29-.178 1.254-.004 1.61-1.629.617-2.278-.99-.648-1.987-1.295-3.04-1.837a21 21 0 0 0-1.684-.76c-.512-.21-.992-.479-1.637-.336-.38.084-.7.43-.798.798-.442 1.68 1.612 2.018 2.732 2.484 1.13.471 2.206 1.039 3.193 1.762l.617-2.278a51 51 0 0 0-6.053.086q-1.48.104-2.957.274c-.88.102-1.84.343-2.722.176l.542 2.054c1.202-1.204 2.546-2.183 4.088-2.907.86-.405.251-1.873-.653-1.548"/><path fill="#0b3335" d="M78.73 31.596a21 21 0 0 0-.002 1.872c.01.212.032.423.016.634-.022.283.13.56.315.76.23.25.579.34.903.297.626-.084 1.076-.715.894-1.343-.018-.062-.037-.122-.046-.187l.037.279a21 21 0 0 1-.154-2.312 1.02 1.02 0 0 0-.287-.694c-.17-.17-.45-.298-.695-.287a1 1 0 0 0-.98.981M84.02 30.362c-.057.106-.116.206-.163.317a1.3 1.3 0 0 0-.09.354l-.077.573c-.038.274-.052.54-.062.816-.008.205-.04.426-.015.63a.9.9 0 0 0 .1.452.9.9 0 0 0 .244.378c.204.204.538.358.831.345.636-.029 1.178-.517 1.176-1.176-.001-.278-.077-.579-.12-.857-.032-.195-.052-.396-.099-.588-.045-.184-.097-.367-.146-.55-.04-.152-.076-.306-.151-.445-.048-.088-.117-.167-.175-.249-.15-.215-.355-.36-.626-.36a.72.72 0 0 0-.627.36"/><path fill="#0b3335" d="M83.024 35.232a54 54 0 0 1 1.73-.052c.579-.008 1.158.013 1.735 0 .54-.01 1.058-.466 1.033-1.032-.024-.542-.454-1.053-1.033-1.032-.59.021-1.182.095-1.769.158q-.966.106-1.929.242c-.192.027-.434.236-.522.401a.9.9 0 0 0-.104.558c.055.41.422.778.859.757M48.878 70.18c.54-.836 1.428-1.354 2.41-1.48 1.06-.136 1.858.266 2.718.842.957.64 1.92 1.32 3.1 1.441 1.143.117 2.115-.38 3.006-1.043.58-.43 1.124-1.088 1.841-.717.925.478 1.677 1.148 2.791 1.102 1.371-.057 1.922-1.121 2.892-1.86.962-.73 2.053-.508 3.163-.503 1.345.005 1.567-1.639.632-2.34-1.107-.831-2.756-.73-4.006-.272a5.8 5.8 0 0 0-1.738 1c-.395.327-.695.852-1.123 1.12q.353.04-.017-.04a3 3 0 0 0-.212-.122c-.256-.136-.487-.322-.733-.476-.468-.294-.97-.54-1.517-.639-1.333-.242-2.364.416-3.326 1.262-.826.725-1.318 1.254-2.4.666-1.096-.596-2.053-1.41-3.302-1.683-2.316-.505-4.793.634-5.92 2.72-.621 1.15 1.036 2.112 1.74 1.021M43.885 64.841c.88-.496 1.79-.949 2.743-1.303q.665-.244 1.346-.445c.058-.017.587-.16.424-.148-.06.005-.104-.04-.148-.07.54.35.855 1.13 1.491 1.546.738.483 1.636.583 2.483.323.78-.24 1.315-.796 1.969-1.23.653-.433 1.29-.028 1.973.228 1.569.587 3.847.56 4.659-1.134.334-.697.208-1.528-.535-1.942-.657-.366-1.681-.181-2.038.51-.2.384-.016.026.08.012.087-.013-.2.026-.17.032-.272-.054-.52-.057-.8-.156-.903-.322-1.719-.764-2.715-.767-.978-.002-1.786.43-2.53.987-.202.151-.518.32-.678.512-.187.224-.166.036.044.16-.33-.196-.678-.882-1.092-1.236-.743-.636-1.675-.847-2.649-.647-1.822.374-3.67 1.64-5.125 2.703-.542.395-.816 1.025-.45 1.636.335.56 1.137.757 1.718.43M23.943 50.85c1.608-.832 2.745-2.578 4.415-3.243 1.624-.646 2.86 1.037 4.349 1.464 1.497.429 3.327-.257 4.419-1.324-.06.057.296-.093.098-.07-.105.011.191.045.29.08.449.164.88.303 1.36.306 1.234.006 1.972-1.054 2.119-2.253.065-.532-.32-1.013-.689-1.29-.655-.49-1.29-.098-1.824.353l.644-.404c.113-.042.02.125-.142-.007-.119-.096-.002-.044-.442-.218-.386-.153-.804-.255-1.217-.243-.822.024-1.568.356-2.254.824-.427.291-.997.87-1.476.904-.53.037-1.18-.44-1.65-.669-1.703-.825-3.323-.918-5.003.059-1.573.913-2.697 2.485-4.289 3.355-1.476.807-.18 3.137 1.292 2.375M24.034 42.41c.992.136 1.843-.956 2.815-.78.411.075.716.508 1.047.74.506.356 1.09.571 1.7.619 1.157.09 2.254-.379 3.2-1.033.894-.618 1.615-1.228 2.735-1.247 2.082-.036 4.064.882 6.16.831 2.077-.051 4.186-.821 5.103-2.904.351-.796.283-1.71-.435-2.267-.623-.483-1.676-.546-2.222.137-.956 1.196-2.587 1.283-3.976 1.094-2.222-.303-4.47-1.028-6.679-.215-1.032.379-1.785 1.056-2.684 1.666-.258.175-.707.526-1.052.433-.384-.104-.823-.66-1.21-.852-1.077-.532-2.286-.332-3.334.171-.867.417-2.003 1.182-2.179 2.228-.129.766.294 1.28 1.011 1.378"/></g><defs><clipPath id="a"><path fill="#fff" d="M3 10h93.814v80H3z"/></clipPath></defs></svg>