<svg width="100" height="100" viewBox="0 0 100 100" fill="none" xmlns="http://www.w3.org/2000/svg">
<g clip-path="url(#clip0_2575_2346)">
<path d="M85.1231 35.6982C85.0701 33.1701 85.0008 30.5651 83.979 28.2521C83.6329 27.4688 83.1818 26.7308 82.9005 25.9219C82.0179 23.383 82.9042 20.4676 81.9384 17.9592C81.7334 17.4269 81.2207 16.8388 80.7009 17.0737C80.3079 17.2513 80.2397 17.7712 80.2324 18.2024C80.1913 20.6552 80.3271 23.111 80.6385 25.5442C80.8313 27.0511 81.0277 28.7796 80.0073 29.9051C79.8118 30.1207 79.5724 30.3116 79.4658 30.5824C79.2247 31.1946 79.7601 31.8202 79.88 32.4671C80.0469 33.3676 79.4489 34.49 80.1208 35.1122C80.4167 35.3863 80.8535 35.4267 81.256 35.453C82.3918 35.5272 83.5275 35.6014 84.6633 35.6756L85.1231 35.6982Z" fill="#009345"/>
<path d="M61.3511 12.7178C59.8399 12.7556 59.2438 14.9288 60.0212 16.2252C60.7987 17.5217 62.2962 18.1557 63.621 18.8839C64.9457 19.6122 66.3041 20.7256 66.3619 22.2363C66.4532 24.6251 63.2465 26.5991 64.158 28.8091C64.4406 29.4941 65.0855 29.9909 65.3197 30.6939C65.7948 32.1199 64.4401 33.4237 63.3582 34.4671C62.2763 35.5104 61.3731 37.3907 62.5227 38.3591C63.15 38.8876 64.0703 38.8034 64.8854 38.7121C69.8095 38.1604 74.8239 38.4229 79.6634 39.4858C84.3941 40.5248 89.5434 42.9417 90.8171 47.6147C91.1562 48.8589 91.1721 50.231 90.6245 51.3985C89.8687 53.0097 88.2165 53.9601 86.7681 54.9941C83.0304 57.6625 80.1473 61.5092 78.6349 65.8455C76.793 71.1267 76.7443 77.4154 72.7485 81.3291C70.6085 83.4253 67.6634 84.4542 64.7856 85.2859C61.217 86.3174 57.5888 87.1426 53.9251 87.756C50.6399 88.3061 47.2637 88.6843 43.9905 88.0668C40.7173 87.4493 37.5235 85.7067 35.8275 82.8399C33.5463 78.9839 33.9737 73.3554 30.224 70.9035C26.3336 68.3595 20.8898 71.2838 16.5672 69.5744C14.6008 68.7968 13.1276 67.1543 11.7343 65.5637C9.18707 62.6558 6.48497 58.7685 8.0985 55.2555C8.9359 53.4323 10.74 52.2926 12.2116 50.9289C13.6832 49.5653 14.9387 47.5016 14.2009 45.6359C13.102 42.8569 8.69745 42.9171 7.25451 40.3001C6.2175 38.4194 7.27039 35.9809 8.90417 34.5868C10.538 33.1927 18.1849 31.0583 20.0595 30.0103C24.7579 27.3836 30.3906 20.2873 34.4944 16.8041C38.5983 13.3209 36.9109 15.0244 41.1458 18.3471C41.904 18.9419 42.5659 19.6941 43.4544 20.0673C45.8767 21.0846 48.3306 18.9185 50.3757 17.2691C53.2575 14.9448 56.7318 13.3611 60.3765 12.7104L61.3511 12.7178Z" fill="#009345"/>
<path d="M22.2922 24.3713L28.9972 20.9231C31.1112 19.836 33.1632 18.5955 35.3251 17.6069C35.698 17.4364 36.0915 17.2718 36.504 17.2295C36.9577 17.1829 37.0043 17.1933 37.3936 17.3297C37.7273 17.4465 38.3526 17.8912 38.707 18.2007C39.7745 19.133 40.673 20.2405 41.7479 21.1655C42.8531 22.1165 44.1956 22.9253 45.6782 23.0314C48.0295 23.1998 50.0626 21.2737 51.8668 20.0282C53.8868 18.6338 55.9189 17.2553 57.9257 15.842C58.4073 15.5029 58.884 15.1564 59.3698 14.8233C59.5635 14.6904 59.7591 14.5603 59.9613 14.4407C60.2285 14.2827 60.4317 14.2002 60.5129 14.1746C60.7188 14.1099 60.586 14.1304 60.5178 14.141C60.6262 14.1241 60.7466 14.1324 60.8557 14.1375C60.9634 14.1426 61.0704 14.1532 61.1769 14.1703C61.1246 14.1619 60.9296 14.1142 61.1575 14.1789C61.5776 14.2982 61.8334 14.3893 62.3161 14.6459C64.4525 15.7814 66.0314 17.8209 67.5252 19.6771C69.1125 21.6494 70.5677 23.7217 71.8977 25.8757C72.7972 27.3324 75.1204 25.979 74.1961 24.5322C72.9212 22.5363 71.5355 20.6143 70.0482 18.771C68.5766 16.9472 66.8744 15.3194 65.4094 13.4944C64.6608 12.5619 64.1548 11.5222 63.1532 10.8094C62.0513 10.0253 60.7127 9.80847 59.4088 10.1695C58.2374 10.4939 57.2593 11.2204 56.2761 11.9004C55.1882 12.6529 54.112 13.4223 53.0326 14.1871C50.9359 15.6729 48.8073 17.1227 46.7397 18.6488C46.2932 18.9784 46.0328 19.165 45.5264 19.4932C45.5361 19.487 45.2197 19.6574 45.3794 19.585C45.5277 19.5178 45.2556 19.6273 45.2189 19.6367C45.0754 19.6736 44.727 19.6994 45.0497 19.6901C44.8925 19.6947 44.74 19.6988 44.5828 19.6889C44.6108 19.6907 44.528 19.6673 44.6043 19.7063C44.305 19.5533 44.0187 19.3853 43.7462 19.1876C43.6158 19.0929 43.3775 18.8841 43.1502 18.6719C42.8767 18.4166 42.6126 18.1513 42.3497 17.8851C41.8171 17.3463 41.2929 16.7969 40.7206 16.2995C39.4711 15.2134 37.9619 14.3372 36.2634 14.2964C34.8537 14.2626 33.5854 14.8256 32.3677 15.4686C31.1168 16.1292 29.8635 16.7878 28.621 17.4643C26.0008 18.8907 23.406 20.3662 20.7994 21.8174C19.1284 22.7478 20.6058 25.2385 22.2922 24.3713Z" fill="#0B3335"/>
<path d="M10.3473 37.3943C13.7581 35.1418 17.3217 33.6388 21.1404 32.3807C25.4951 30.9459 29.9837 29.9254 34.5039 29.1738C38.889 28.4446 43.4081 27.8679 47.9202 27.8829C51.9717 27.8965 56.0107 27.8652 60.0482 28.2719C60.1928 28.2865 60.9942 28.3484 60.4637 28.3064C60.8214 28.3347 61.1789 28.4009 61.5359 28.4411C61.8298 28.4741 61.1656 28.3868 61.4545 28.4301C61.5782 28.4486 61.7023 28.4648 61.826 28.4828C62.0621 28.5172 62.3002 28.5469 62.5331 28.5997C62.7016 28.6379 63.3366 28.9087 62.8734 28.671C63.0727 28.7733 63.2762 28.9215 63.4795 29.0083C63.7206 29.1113 63.2687 28.7675 63.4373 28.9729C63.5182 29.0713 63.6318 29.1637 63.7258 29.2525C63.9888 29.501 63.7506 29.2928 63.7049 29.2164C63.7932 29.3638 63.8826 29.5019 63.9559 29.658C63.9009 29.541 63.8768 29.3154 63.9301 29.6543C63.9383 29.7067 64.021 30.1992 63.9979 29.9333C63.9745 29.6647 63.9905 30.101 63.9899 30.1588C63.9876 30.3884 63.9465 30.6154 64.0098 30.2613C63.9908 30.3677 63.9709 30.4739 63.9444 30.5788C63.8993 30.7568 63.7099 31.0736 63.9667 30.625C63.8542 30.8215 63.7679 31.0302 63.6618 31.2294C63.6214 31.3053 63.5763 31.3777 63.5346 31.4528C63.4976 31.5195 63.2648 31.802 63.4729 31.5555C63.6705 31.3215 63.2755 31.751 63.2031 31.8211C62.8129 32.1991 62.4112 32.4725 62.0912 32.9244L62.6989 32.3167C61.2163 33.1397 59.8714 34.1615 59.4068 35.8774C59.3261 36.1752 59.2869 36.4903 59.253 36.7953C59.2376 36.9103 59.2267 37.0257 59.2204 37.1417C59.2726 36.8275 59.2805 36.7564 59.2441 36.9286C59.1692 37.183 59.4866 36.5369 59.2573 36.8865C59.1368 37.0701 59.5888 36.6438 59.2559 36.8688C59.0292 37.022 59.1692 36.9253 59.316 36.8387C59.2028 36.9055 59.0976 36.9849 58.9826 37.0499C58.8588 37.1198 58.7292 37.1758 58.6029 37.2404C59.0399 37.017 58.5816 37.2439 58.4749 37.2817C57.8847 37.4908 57.2715 37.6335 56.6564 37.7472C56.4868 37.7785 56.3164 37.8049 56.1463 37.8337C55.6606 37.916 56.2479 37.8306 55.9577 37.8627C55.6346 37.8984 55.3121 37.9366 54.988 37.9638C54.49 38.0057 53.99 38.0349 53.4902 38.0422C53.3156 38.0447 53.1407 38.0361 52.9664 38.0389C52.939 38.0394 52.8203 38.013 52.7998 38.0287C52.9081 37.9458 53.4569 38.1798 53.5287 38.2325L54.2932 39.2266L54.2923 39.222L53.8646 40.8405C53.8418 40.8649 52.8631 41.3374 53.2084 41.2428C53.4427 41.1786 52.2895 41.3431 53.1643 41.2529C53.7283 41.1947 54.2913 41.1267 54.8554 41.0692C56.076 40.9446 57.2983 40.8371 58.5219 40.747C60.7769 40.5809 63.0363 40.4735 65.297 40.4251C69.9113 40.3264 74.5311 40.4738 79.1297 40.8666C82.793 41.1795 87.1987 41.3306 90.2132 43.7217C91.3719 44.6408 92.0497 46.0767 92.3883 47.5348C92.4957 47.9975 92.5351 48.264 92.5674 48.6221C92.6103 49.0972 92.6222 49.5913 92.5619 50.0655C92.6034 49.739 92.4613 50.5227 92.4738 50.4708C92.4166 50.7063 92.3491 50.9416 92.2633 51.1684C92.381 50.8572 92.0964 51.5064 92.1056 51.4893C92.0707 51.554 91.6445 52.2534 91.8625 51.9383C91.4168 52.5823 90.811 53.0972 90.3344 53.3906C90.1467 53.5062 89.9506 53.6023 89.7588 53.7101C89.1973 54.0255 90.0816 53.6193 89.4826 53.8363C89.0176 54.0048 88.5463 54.1457 88.0654 54.2618C87.2518 54.4582 86.4466 54.6992 85.6449 54.9408C85.5118 54.9809 85.3781 55.0202 85.2461 55.0638C85.1031 55.111 84.2355 55.3536 84.7533 55.228C84.393 55.3154 84.0369 55.4388 83.6915 55.5725C80.2969 56.8868 78.0265 59.6291 77.2638 63.1967C76.8594 65.0883 76.9621 67.034 76.6184 68.9204C76.3026 70.6531 75.9816 72.5545 75.1402 74.0255C75.0299 74.2183 74.9126 74.4071 74.7889 74.5916C74.7955 74.5817 74.3763 75.1507 74.605 74.8607C74.3524 75.1809 74.0686 75.4831 73.7794 75.7704C73.4991 76.0488 73.2048 76.3127 72.902 76.5664C72.7544 76.6902 72.6039 76.8104 72.4532 76.9304C72.8167 76.6409 72.2205 77.1036 72.1341 77.1676C70.4752 78.3971 68.738 79.5416 66.9387 80.5552C66.1572 80.9954 65.3613 81.4103 64.5521 81.7974C64.1173 82.0054 63.6783 82.2041 63.2365 82.3969C62.5205 82.7093 63.6516 82.2428 62.9281 82.5238C62.6338 82.638 62.3412 82.7562 62.0455 82.8668C60.3064 83.517 58.5139 84.053 56.6981 84.4422C56.2507 84.5381 55.8014 84.6249 55.3504 84.7024C55.1257 84.741 54.9002 84.7739 54.6752 84.8111C53.9344 84.9335 55.1706 84.7618 54.4258 84.8464C53.4497 84.9572 52.4731 85.0406 51.4909 85.07C50.6624 85.0948 49.833 85.0878 49.0051 85.0482C48.5529 85.0266 48.1012 84.9952 47.6502 84.9543C47.4244 84.9338 47.1988 84.9109 46.9735 84.8855C46.8231 84.8686 46.6727 84.8506 46.5225 84.8316C46.801 84.8699 46.7937 84.8681 46.5008 84.8264C44.7644 84.5623 43.0042 84.2484 41.3489 83.6434C41.2832 83.6194 40.6552 83.3429 41.1431 83.5694C40.9487 83.4792 40.7555 83.3877 40.5661 83.2871C40.1784 83.081 39.7977 82.8504 39.4482 82.5839C39.8234 82.87 39.2322 82.3805 39.2181 82.3682C39.0355 82.208 38.8541 82.0491 38.6817 81.8777C38.5408 81.7375 38.4092 81.59 38.2749 81.4438C38.2127 81.3739 38.1523 81.3026 38.0936 81.2297C38.2508 81.4375 38.2515 81.4353 38.0958 81.2232C37.6317 80.515 37.1271 79.8373 36.7265 79.089C36.3227 78.3347 36.1433 77.521 36.0703 76.6556C36.0024 75.8506 36.0029 75.0274 36.1367 74.2293C36.3362 73.0396 36.6748 71.8603 36.5451 70.6427C36.4555 69.8022 36.3366 68.9011 35.8841 68.1611C35.7132 67.8815 35.4906 67.607 35.2553 67.3785C35.0813 67.2095 34.8804 67.0535 34.6752 66.9246C34.5998 66.872 34.5216 66.8239 34.4406 66.7806C34.7436 67.0406 34.6694 66.9895 34.2177 66.627C32.6365 65.7017 30.3857 66.5927 28.8068 67.0242C26.5099 67.6518 24.2301 68.3325 21.9471 69.0105C19.92 69.6125 17.9013 70.2996 15.8491 70.8088C15.3869 70.9234 14.9216 71.0203 14.4521 71.0993C14.9523 71.0152 14.2013 71.1253 14.1603 71.1287C13.9291 71.1478 13.6973 71.1601 13.4653 71.1632C13.234 71.1663 13.005 71.1536 12.7742 71.1462C12.308 71.1312 12.611 71.1411 12.7258 71.1571C12.4974 71.1253 12.2692 71.0754 12.0459 71.0182C11.9629 70.9969 11.143 70.7178 11.5029 70.8686C11.167 70.7279 10.5123 70.4694 10.2947 70.1678C10.6149 70.6115 10.4872 70.319 10.311 70.1599C10.1937 70.0539 10.0805 69.9434 9.97077 69.8296C9.73921 69.5895 9.53346 69.3277 9.31297 69.0778C8.92843 68.6419 9.58491 69.4965 9.25303 68.9988C9.11754 68.7955 8.9754 68.5979 8.84571 68.3906C8.67857 68.1234 8.52203 67.8497 8.37507 67.5709C8.28479 67.3996 8.19829 67.2262 8.11529 67.0513C8.09292 67.0041 7.83566 66.4101 8.01933 66.8558C7.68056 66.0338 7.41843 65.19 7.25547 64.3161C7.03957 63.1583 7.02207 61.3572 7.32837 60.1235C7.54502 59.251 7.67333 58.8991 8.11369 58.171C8.20867 58.0139 8.31519 57.8642 8.41792 57.7122C8.72686 57.2552 8.17672 57.9399 8.55019 57.5512C8.78445 57.3074 9.00816 57.0594 9.26209 56.8345C9.3849 56.7258 9.51074 56.6199 9.64009 56.519C9.30339 56.7818 9.73651 56.4598 9.78022 56.4296C10.0466 56.2453 10.321 56.0727 10.5989 55.9066C11.2019 55.5462 11.8411 55.2416 12.4169 54.8385C12.9807 54.4438 13.5365 54.0326 14.0613 53.587C14.3562 53.3367 14.6321 53.0552 14.7955 52.9122C15.1014 52.6443 15.387 52.3511 15.6492 52.0403C16.8168 50.6563 17.7131 48.9718 17.706 47.1195C17.6938 43.9546 14.9191 41.7121 11.8642 41.8097C11.6165 41.8176 11.3738 41.8187 11.1261 41.8136C11.0316 41.8116 10.7239 41.7584 11.076 41.8182C10.9363 41.7945 10.7976 41.7679 10.6601 41.7335C10.5205 41.6986 10.385 41.6546 10.2482 41.611C10.8051 41.7886 9.60131 41.2917 10.1267 41.5607C9.99807 41.4948 9.87027 41.4311 9.74724 41.3548C9.66516 41.3039 9.58525 41.2498 9.50759 41.1925C9.66957 41.3157 9.67588 41.3127 9.52669 41.1835C9.49032 41.1395 9.18987 40.7693 9.41438 41.0889C9.32501 40.9617 9.24844 40.8292 9.1753 40.6922C9.35117 41.0217 9.13274 40.5596 9.11628 40.5051C9.06477 40.3348 9.01607 40.1615 8.98917 39.9852C9.03139 40.2622 8.98808 39.8388 8.98613 39.7753C8.98074 39.5944 8.98378 39.4139 8.99582 39.2332C9.01045 39.0134 9.10458 38.633 9.25916 38.2619C9.11094 38.6178 9.33017 38.1906 9.34566 38.1473C9.46468 37.8147 9.15488 38.2937 9.39654 38.0679C9.49858 37.9724 10.0442 37.529 9.6507 37.799C9.88318 37.6395 10.11 37.4779 10.3323 37.3034C9.80328 37.7187 10.5947 37.1045 10.6165 37.0856C11.243 36.5439 11.1719 35.4736 10.6165 34.9182C9.99532 34.297 9.0771 34.3751 8.44913 34.9182C8.85782 34.5648 8.65683 34.7601 8.51991 34.8399L9.29341 34.6307C5.13975 35.1852 4.20082 41.2666 7.16581 43.7507C8.65069 44.9946 10.4327 45.1848 12.2857 44.9244C11.9637 44.9697 12.3364 44.9232 12.4647 44.9197C12.6267 44.9153 12.7885 44.9209 12.95 44.9342C12.6724 44.9114 13.0907 44.9623 13.182 44.984C13.2527 45.0008 13.3231 45.0188 13.3927 45.0392C13.3855 45.0371 13.7483 45.1592 13.6312 45.1125C14.0743 45.2896 14.5315 45.7036 14.7206 46.1675C15.5233 48.1362 13.8422 49.8759 12.4031 50.9959L13.0675 50.6086C12.6813 50.7562 12.3315 50.9511 11.9636 51.1352C11.8155 51.2093 11.6659 51.2802 11.5154 51.3492C11.4402 51.3836 11.3643 51.4162 11.2891 51.4504C11.0314 51.5674 11.5108 51.3603 11.2558 51.4664C10.5335 51.7671 9.83024 52.0809 9.13699 52.4439C7.80687 53.1403 6.5044 53.988 5.53444 55.1506C3.02518 58.1581 2.60645 62.2007 3.29873 65.9403C3.93513 69.3784 5.41743 73.0323 8.64547 74.7882C12.8622 77.082 17.5028 75.4402 21.6935 74.0004C23.9466 73.2263 26.2291 72.5066 28.4561 71.6618C29.5709 71.2389 30.6908 70.8112 31.8185 70.4239C32.0868 70.3318 32.3557 70.2788 32.6291 70.209C32.1775 70.3243 32.5924 70.2921 32.6669 70.2294C32.6546 70.2398 33.0388 70.1934 32.6882 70.2092C32.3485 70.2245 32.9719 70.2498 32.9663 70.2492C33.1802 70.271 33.5628 70.1586 33.749 70.2142L33.4425 70.2197C33.1161 70.1992 33.0362 70.2066 33.2028 70.2419C33.2155 70.234 33.3906 70.2874 33.3999 70.2996C33.4066 70.3085 33.1225 70.125 33.2911 70.2637C33.344 70.3073 33.4209 70.3264 33.4712 70.3748C33.4474 70.352 33.2862 70.2082 33.411 70.3505C33.5254 70.481 33.4335 70.3588 33.4152 70.3298C33.4712 70.4187 33.5667 70.5229 33.5955 70.6248C33.8087 71.3796 33.334 72.5192 33.1453 73.2655C32.6211 75.3382 32.8013 77.3906 33.083 79.4041C33.2295 80.4507 33.3496 81.5056 33.7526 82.4913C34.1598 83.4871 34.7112 84.3381 35.3817 85.1778C36.6993 86.8275 38.6875 87.848 40.6547 88.5078C44.3415 89.7445 48.4104 90.1643 52.2821 89.9444C60.7673 89.4624 68.6759 85.8525 75.1033 80.3765C76.4931 79.1924 77.7755 77.8231 78.5988 76.1768C79.5769 74.2212 79.9396 72.1439 79.9462 69.9729C79.9521 68.0472 80.0556 66.0898 80.4865 64.2043C80.8739 62.509 81.5545 61.1891 82.8009 60.104C82.9037 60.0145 83.1112 59.8604 83.431 59.6647C83.7426 59.474 84.0672 59.3064 84.4001 59.1568C84.5916 59.0709 84.379 59.1679 84.3494 59.1792C84.4256 59.1503 84.5013 59.1199 84.5784 59.0933C84.731 59.0406 84.8831 58.9873 85.0375 58.9398C85.1897 58.893 85.3438 58.8544 85.4966 58.8103C85.5721 58.7885 85.6501 58.7755 85.7255 58.7537C85.5158 58.8143 85.5375 58.7753 85.7459 58.7542C86.6637 58.6613 87.5887 58.6223 88.5022 58.4901C89.5536 58.3379 90.5565 58.0112 91.5286 57.5881C95.7101 55.768 97.8544 50.8933 96.3153 46.574C94.8782 42.541 91.4783 39.7864 87.3746 38.7383C85.3319 38.2167 83.1967 38.0462 81.1036 37.8478C78.755 37.6252 76.4074 37.4222 74.0508 37.303C69.3014 37.0626 64.539 37.0835 59.7919 37.3651C57.4785 37.5023 55.1613 37.6834 52.8602 37.9622C52.0635 38.0587 51.326 38.3415 51.0843 39.2219C50.8029 40.2471 51.5531 41.1875 52.5483 41.323C54.3199 41.5643 56.3281 41.244 58.0529 40.8755C59.0662 40.6589 60.1564 40.3425 61.013 39.7416C61.506 39.3958 61.9583 38.9888 62.2403 38.446C62.3691 38.1981 62.4638 37.9401 62.5211 37.6691C62.5703 37.4367 62.5646 37.1977 62.6028 36.965C62.5587 37.234 62.6583 36.784 62.6799 36.7018C62.6986 36.6307 62.7244 36.5607 62.7495 36.4917C62.7404 36.5168 62.6274 36.7318 62.7218 36.5742C62.7908 36.4591 62.857 36.3438 62.9289 36.2303C63.0302 36.0705 62.8764 36.3032 62.8642 36.3158C62.9087 36.27 62.9469 36.2167 62.995 36.1746C63.0903 36.0914 63.1834 36.0007 63.2763 35.9145C63.4137 35.7871 63.1986 35.9731 63.1862 35.9818C63.2388 35.9451 63.2897 35.9052 63.3442 35.8713C63.454 35.803 63.5606 35.7296 63.671 35.6623C63.9127 35.515 64.1614 35.3795 64.4089 35.2421L63.5539 35.4734C64.4987 35.4168 65.5172 34.926 66.2819 34.3749C67.5089 33.4908 68.0483 32.3065 68.2145 30.8305C68.5299 28.0295 66.6821 25.5487 64.0335 24.7724C63.0698 24.49 61.9951 24.4601 60.9962 24.3719C60.0234 24.2859 59.0474 24.2262 58.0718 24.182C55.9149 24.0844 53.754 24.0762 51.5958 24.1333C49.2309 24.1957 46.8835 24.447 44.5268 24.6418C41.9853 24.8519 39.4502 25.1442 36.9244 25.4944C32.0343 26.1725 27.1724 27.1481 22.4388 28.559C17.6607 29.9832 12.8898 31.8392 8.71883 34.6085C7.9938 35.0899 7.6824 36.0332 8.14007 36.8158C8.56213 37.5373 9.61703 37.8766 10.3473 37.3943Z" fill="#0B3335"/>
<path d="M79.4887 14.894C79.4894 15.0542 79.48 15.213 79.4608 15.372L79.4994 15.0849C79.4539 15.42 79.3638 15.7434 79.2325 16.0549L79.3451 15.7881C79.2235 16.065 79.072 16.3244 78.8903 16.5662L79.0702 16.3334C78.896 16.5582 78.6998 16.7607 78.4794 16.9406L78.7186 16.7558C78.6912 16.7778 78.6614 16.7963 78.6296 16.8113C78.1836 17.0539 77.9213 17.6736 78.0796 18.1627C78.1435 18.3602 78.247 18.538 78.3873 18.6908C78.6146 18.9384 78.9189 19.0016 79.2335 19.0413C79.8003 19.1127 80.3761 19.0564 80.9464 19.0354C81.5173 19.0143 82.0883 18.9927 82.6593 18.9711C83.0926 18.9547 83.4546 18.7817 83.7191 18.4393C83.9999 18.0758 84.0324 17.7049 83.9606 17.2628C83.8605 16.646 83.3412 16.325 82.923 15.9418C82.6268 15.6705 82.3567 15.373 82.1108 15.0556L82.3277 15.3363C82.087 15.0204 81.8936 14.6674 81.6212 14.3771C81.4558 14.2009 81.3235 14.0191 81.1082 13.8913C80.8522 13.7393 80.5866 13.7231 80.3038 13.6874C79.9505 13.6429 79.5973 13.916 79.4216 14.1934C79.2321 14.4927 79.1359 14.8251 79.1836 15.1809C79.21 15.377 79.2665 15.5541 79.3338 15.7393C79.4261 15.9932 79.536 16.2108 79.6924 16.4259C79.8443 16.6347 80.0026 16.8396 80.1667 17.0388C80.6308 17.6018 81.1815 18.04 81.7585 18.4818L81.4834 18.2693C81.5356 18.3118 81.5835 18.3552 81.6278 18.4059L81.4159 18.1317C81.436 18.1565 81.453 18.1833 81.4668 18.2121L81.3305 17.8891C81.3443 17.9181 81.3534 17.9485 81.3578 17.9803L82.6592 16.272C82.077 16.3258 81.4949 16.3796 80.9127 16.434C80.2466 16.4963 79.5633 16.5205 78.9153 16.6908L80.0796 18.691C80.1695 18.582 80.2791 18.4898 80.3732 18.384C80.5269 18.2114 80.6691 18.0257 80.8023 17.8371C81.019 17.5303 81.1707 17.1943 81.3115 16.8471C81.5581 16.2394 81.6635 15.5475 81.6126 14.8941C81.5904 14.609 81.5091 14.3508 81.3015 14.1431C81.1174 13.959 80.8151 13.8202 80.5505 13.8321C79.9771 13.8578 79.4862 14.2986 79.4887 14.894Z" fill="#0B3335"/>
<path d="M79.8333 19.5805C78.8781 19.6288 78.2625 20.6023 77.7359 21.2873C77.4985 21.5961 77.5988 22.1113 77.8135 22.3891C78.0782 22.7318 78.4461 22.8016 78.8562 22.7446C78.9234 22.7356 78.9905 22.726 79.0575 22.7157C78.9601 22.7289 78.9724 22.7278 79.0942 22.7127C79.1951 22.7025 79.2958 22.6909 79.3968 22.6818C79.6328 22.6604 79.8693 22.6451 80.1059 22.6329C80.5463 22.6103 80.9872 22.5994 81.4278 22.5827C82.3997 22.5458 83.3667 22.4881 84.2949 22.1771C84.9304 21.9642 85.1453 21.3393 84.8746 20.7522C84.6249 20.2108 84.1189 19.8885 83.6055 19.6273C83.5089 19.5781 83.4107 19.5314 83.3179 19.4752C83.2015 19.4047 83.2314 19.3447 83.3486 19.5124C83.3225 19.4751 83.2707 19.4442 83.2383 19.4112C83.1574 19.3291 82.9341 19.0118 83.152 19.3423C83.0499 19.1873 83.1892 19.4562 83.1989 19.4625C83.1851 19.3869 83.159 19.3154 83.1204 19.2479C83.0934 19.1786 83.0638 19.1105 83.0318 19.0434C82.8267 18.6027 82.2445 18.3936 81.8003 18.4534C81.2925 18.5216 80.9419 18.8652 80.7728 19.3387C80.6086 19.7983 80.7652 20.3527 81.0367 20.7395C81.3465 21.1808 81.7506 21.4377 82.2638 21.5944C82.5028 21.6675 82.7555 21.6795 83.0006 21.7232C83.0613 21.734 83.1232 21.7444 83.1827 21.7606L83.2519 21.7824C83.3384 21.8147 83.3414 21.8153 83.2609 21.7843C83.1823 21.7506 83.1833 21.7543 83.2638 21.7953L83.3216 21.8324L83.2259 21.7628C83.2983 21.8391 83.2895 21.8285 83.1994 21.7311L83.7791 20.3063C83.7122 20.3178 83.6451 20.3286 83.5778 20.3384C83.6751 20.3256 83.6635 20.3265 83.5428 20.3411C83.4434 20.3503 83.3434 20.3579 83.2441 20.3686C83.0851 20.3857 82.9276 20.4128 82.7694 20.4354C82.9747 20.4061 82.5786 20.4568 82.5417 20.4607C82.1038 20.5064 81.664 20.5321 81.2244 20.5552C80.2576 20.6061 79.2811 20.6444 78.3287 20.8313L79.4489 22.2886C79.549 22.1426 79.651 21.9981 79.7563 21.8559C79.7843 21.8181 79.8881 21.6808 79.809 21.7832C79.8682 21.7065 79.9292 21.6309 79.9905 21.5557C80.272 21.2102 80.5537 20.7688 80.5578 20.3049C80.561 19.9278 80.223 19.5608 79.8333 19.5805Z" fill="#0B3335"/>
<path d="M80.3222 23.8662C79.7934 24.0274 79.2073 24.2625 78.7269 24.5375C78.1876 24.8462 77.76 25.4096 77.4228 25.9178C77.007 26.5443 77.559 27.3651 78.2575 27.3724C78.9119 27.3791 79.5625 27.2555 80.1983 27.1111C80.7774 26.9797 81.3422 26.9193 81.9354 26.8949C83.2291 26.8417 84.5352 26.8661 85.8257 26.7622C86.8739 26.6779 87.2176 25.4252 86.3511 24.8223C85.7378 24.3956 85.1301 23.9035 84.4084 23.5715C84.3007 23.5219 84.1912 23.4765 84.0819 23.4304C83.9996 23.3957 83.6364 23.1753 83.9609 23.3781L84.3821 23.9515L84.3591 23.8592C84.363 23.762 84.3254 23.6526 84.3105 23.5567C84.2785 23.3505 84.2625 23.1342 84.1951 22.9363C84.0077 22.3864 83.638 22.1095 83.1161 21.8915C82.6878 21.7126 82.1167 21.9321 81.8087 22.2371C81.1479 22.8914 81.3433 23.6701 81.5442 24.4642C81.7184 25.1527 82.1552 25.7676 82.8861 25.9274C83.143 25.9836 83.4252 25.997 83.6889 25.9983C83.9193 25.9994 83.6448 25.9753 83.782 26.003C83.8848 26.0238 83.9881 26.0418 84.0903 26.0658C84.4707 26.1551 84.8573 26.263 85.0896 26.4572L85.8257 24.6801C84.5338 24.6692 83.2259 24.7662 81.9354 24.8307C81.2869 24.8631 80.6361 24.9249 80.0001 25.0594C79.4215 25.1818 78.8492 25.3984 78.2575 25.439L79.0922 26.8935C79.3282 26.4685 79.6105 26.1851 79.911 25.798C80.171 25.463 80.451 25.2644 80.8299 25.0702C81.4943 24.7296 81.0343 23.6493 80.3222 23.8662Z" fill="#0B3335"/>
<path d="M80.524 27.4636C78.7801 28.0894 77.1037 28.9022 75.5999 29.9892C74.7783 30.5831 74.8025 31.9376 75.8935 32.2353C76.8606 32.4992 77.8212 32.3507 78.7973 32.2391C79.8588 32.1176 80.9232 32.022 81.9893 31.952C84.0811 31.8145 86.1835 31.7802 88.2794 31.7738C89.5327 31.77 89.8889 30.1453 88.8964 29.4957C87.9066 28.8478 86.9091 28.201 85.8561 27.6593C85.3078 27.3773 84.7427 27.1329 84.1723 26.8993C83.6597 26.6894 83.18 26.4204 82.5354 26.5628C82.1556 26.6468 81.8344 26.9922 81.7373 27.361C81.2948 29.041 83.3491 29.3786 84.469 29.8453C85.5986 30.316 86.6746 30.8837 87.6624 31.6069L88.2794 29.3288C86.2573 29.2287 84.2457 29.273 82.2263 29.4149C81.2387 29.4843 80.2527 29.5754 79.2693 29.689C78.3894 29.7907 77.4297 30.0325 76.5469 29.8654L77.0892 31.9194C78.2911 30.715 79.6351 29.7359 81.1766 29.0118C82.0378 28.6073 81.4285 27.1391 80.524 27.4636Z" fill="#0B3335"/>
<path d="M78.7302 31.5963C78.7115 32.0152 78.7044 32.4345 78.7104 32.8539C78.7134 33.0586 78.7193 33.2633 78.7284 33.4678C78.7379 33.6799 78.76 33.8906 78.7438 34.1024C78.7222 34.3848 78.8743 34.6618 79.0588 34.8629C79.2883 35.1128 79.6378 35.2023 79.9623 35.1587C80.5884 35.0745 81.0383 34.4439 80.8564 33.8165C80.8383 33.7542 80.8186 33.6936 80.8099 33.6292L80.8473 33.9077C80.7537 33.1405 80.7024 32.369 80.6929 31.5963C80.6898 31.3427 80.5856 31.0825 80.4055 30.9023C80.2353 30.7322 79.956 30.604 79.7115 30.6149C79.1602 30.6396 78.7547 31.0461 78.7302 31.5963Z" fill="#0B3335"/>
<path d="M84.0196 30.362C83.9634 30.4677 83.9039 30.5677 83.8571 30.6785C83.8047 30.8027 83.7853 30.902 83.7675 31.0332C83.7416 31.2243 83.7158 31.4154 83.6898 31.6065C83.6524 31.8804 83.6375 32.1466 83.6277 32.4221C83.6203 32.6269 83.5885 32.8478 83.6127 33.0511C83.6066 33.213 83.6403 33.364 83.7139 33.5041C83.7613 33.6498 83.8423 33.776 83.957 33.8824C84.1609 34.0864 84.4954 34.2399 84.7883 34.2268C85.4235 34.1983 85.9663 33.7101 85.964 33.0511C85.963 32.7727 85.8872 32.472 85.8432 32.1945C85.8123 31.9994 85.7919 31.7982 85.745 31.6065C85.6999 31.4223 85.6479 31.2395 85.5994 31.0561C85.5593 30.9045 85.5233 30.7501 85.4476 30.6109C85.3996 30.5226 85.3307 30.4444 85.2733 30.362C85.1237 30.1472 84.9182 30.0024 84.6465 30.0024C84.3989 30.0024 84.138 30.1388 84.0196 30.362Z" fill="#0B3335"/>
<path d="M83.0237 35.2324C83.6004 35.2057 84.1775 35.1877 84.7548 35.1796C85.3328 35.1715 85.9118 35.193 86.4894 35.1809C87.029 35.1697 87.5473 34.7141 87.5219 34.1484C87.4976 33.6056 87.0676 33.095 86.4894 33.1159C85.8996 33.1371 85.3067 33.211 84.7201 33.2743C84.0758 33.3437 83.4331 33.4263 82.7913 33.5159C82.5987 33.5428 82.3567 33.7517 82.2691 33.9175C82.1758 34.094 82.1387 34.276 82.1654 34.4747C82.2205 34.8852 82.5874 35.2526 83.0237 35.2324Z" fill="#0B3335"/>
<path d="M48.8778 70.1792C49.4179 69.3437 50.3055 68.826 51.2872 68.7C52.3478 68.5638 53.1463 68.9659 54.0061 69.5417C54.9634 70.1827 55.9268 70.8627 57.1059 70.983C58.2488 71.0996 59.2208 70.6027 60.1124 69.9401C60.6915 69.5097 61.2355 68.8523 61.9534 69.2234C62.8782 69.7015 63.6305 70.3705 64.7441 70.3246C66.1155 70.2681 66.6659 69.2036 67.6364 68.4659C68.5979 67.735 69.6894 67.9572 70.7993 67.9618C72.1445 67.9672 72.3656 66.3234 71.4313 65.6221C70.3239 64.7907 68.6748 64.8911 67.4246 65.3497C66.7813 65.5856 66.2138 65.9143 65.6871 66.3501C65.292 66.6769 64.9919 67.2015 64.5641 67.4697C64.7992 67.4965 64.7934 67.483 64.5467 67.4291C64.478 67.3857 64.4075 67.3453 64.3352 67.3079C64.079 67.1716 63.8475 66.9856 63.602 66.8316C63.1339 66.538 62.6315 66.2921 62.0854 66.193C60.7521 65.9512 59.7212 66.6089 58.7586 67.4549C57.9332 68.1804 57.4406 68.7092 56.3594 68.1214C55.2632 67.5253 54.3055 66.7111 53.0566 66.4384C50.7414 65.933 48.2639 67.0717 47.1365 69.1588C46.5158 70.3081 48.1728 71.2698 48.8778 70.1792Z" fill="#0B3335"/>
<path d="M43.8846 64.8413C44.7645 64.3452 45.6742 63.8921 46.6279 63.5382C47.0705 63.3739 47.5202 63.2281 47.9737 63.0934C48.0324 63.076 48.5607 62.9326 48.3976 62.9453C48.3373 62.95 48.2938 62.9041 48.2496 62.8755C48.7904 63.2257 49.1052 64.005 49.7411 64.4208C50.4791 64.9036 51.3775 65.0043 52.2237 64.744C53.0042 64.504 53.5391 63.9484 54.1928 63.5144C54.8459 63.0806 55.4828 63.4863 56.1662 63.742C57.7347 64.3288 60.0127 64.3014 60.8248 62.6079C61.1589 61.9111 61.0334 61.08 60.2902 60.6659C59.6327 60.2996 58.609 60.4849 58.2515 61.1751C58.0522 61.5598 58.2364 61.2016 58.3329 61.1878C58.4195 61.1753 58.1316 61.2142 58.1626 61.2204C57.8901 61.1658 57.6424 61.1633 57.3628 61.0636C56.4594 60.7415 55.6433 60.2996 54.6468 60.2972C53.6692 60.2949 52.8608 60.7262 52.1169 61.2836C51.9149 61.435 51.5991 61.6038 51.4385 61.7964C51.2525 62.0195 51.273 61.8317 51.4833 61.9562C51.1525 61.7604 50.805 61.0745 50.3905 60.7198C49.6481 60.0843 48.7162 59.8728 47.7421 60.0726C45.9196 60.4466 44.0726 61.7133 42.6171 62.7756C42.0748 63.1714 41.8013 63.8006 42.1666 64.4121C42.5016 64.9728 43.3041 65.1686 43.8846 64.8413Z" fill="#0B3335"/>
<path d="M23.9432 50.8494C25.5513 50.018 26.6882 48.2716 28.3581 47.6071C29.9823 46.9609 31.2176 48.6437 32.7068 49.0706C34.2044 49.4999 36.0337 48.8142 37.1255 47.7468C37.0668 47.8042 37.4219 47.6538 37.224 47.6763C37.1193 47.6882 37.415 47.7216 37.5134 47.7575C37.9628 47.9213 38.3932 48.0603 38.8744 48.0626C40.1081 48.0687 40.8456 47.009 40.9927 45.8099C41.0579 45.2781 40.673 44.7968 40.3045 44.5204C39.6494 44.0292 39.0135 44.422 38.4798 44.8728L39.1239 44.4694C39.2369 44.4271 39.1446 44.5942 38.9821 44.4625C38.863 44.3659 38.9802 44.4176 38.5402 44.2436C38.154 44.0909 37.7361 43.9888 37.3227 44.001C36.5009 44.0252 35.755 44.3574 35.0688 44.8254C34.6423 45.1163 34.0718 45.6947 33.5935 45.7286C33.0629 45.7663 32.4138 45.2888 31.9428 45.0604C30.2397 44.2348 28.6204 44.1425 26.9397 45.1186C25.3669 46.0321 24.2428 47.6044 22.6513 48.4739C21.1747 49.2807 22.4705 51.6107 23.9432 50.8494Z" fill="#0B3335"/>
<path d="M24.034 42.4094C25.0259 42.5464 25.8774 41.4542 26.849 41.6302C27.2601 41.7046 27.5648 42.1378 27.896 42.3705C28.4024 42.7263 28.9852 42.941 29.5966 42.9888C30.7528 43.0793 31.8497 42.6103 32.796 41.9562C33.6896 41.3384 34.4108 40.7281 35.531 40.7087C37.6131 40.6729 39.5952 41.5914 41.6902 41.54C43.7682 41.489 45.8767 40.719 46.7945 38.636C47.1451 37.8402 47.0767 36.9262 46.3586 36.369C45.7362 35.886 44.6833 35.8234 44.1369 36.5064C43.1809 37.7015 41.5503 37.7895 40.1606 37.6001C37.9387 37.2974 35.6914 36.5722 33.4821 37.3845C32.4502 37.7639 31.6968 38.4405 30.7979 39.0509C30.5395 39.2264 30.0912 39.5775 29.7459 39.4841C29.3617 39.3803 28.9232 38.8233 28.5362 38.632C27.4588 38.0996 26.2498 38.2996 25.2023 38.8031C24.335 39.2198 23.1993 39.9853 23.023 41.0312C22.894 41.7969 23.3171 42.3103 24.034 42.4094Z" fill="#0B3335"/>
</g>
<defs>
<clipPath id="clip0_2575_2346">
<rect width="93.8137" height="80" fill="white" transform="translate(3 10)"/>
</clipPath>
</defs>
</svg>
