<svg xmlns="http://www.w3.org/2000/svg" viewBox="0 0 720 624">
  <path fill="#8a7a68" d="M272.064819 231.016266c-20.164688-8.88588-40.032608-17.520966-57.850753-30.084885-6.175965-4.354782-11.565339-9.589187-16.031678-15.648605-15.282867-20.733994-8.284118-46.977463 15.229081-58.07782 9.764938-4.609917 20.085937-6.816727 30.664321-8.475883 13.587937-2.131188 27.61229-2.023957 40.518204-7.848618 7.018036-3.167374 13.579193-7.102264 19.990357-11.28492 16.536224-10.788261 34.811431-12.438057 53.76474-10.378448 48.384857 5.257843 87.935852 28.982391 124.06073 59.712265 13.964935 11.879394 27.246673 24.508896 39.890533 37.790405 2.169556 2.278915 3.91864 4.958145 6.170837 7.179138 3.124817-1.753036 3.73108-4.028564 4.858338-5.747421 7.303039-11.1353 14.885376-22.109985 20.285461-34.380768.927918-2.10852 2.234925-4.118759 3.688965-5.913315 3.28717-4.056854 7.220215-4.608276 11.388611-1.427795 2.494995 1.903595 4.902405 4.098541 6.794678 6.584579 7.777771 10.218491 16.321045 19.781846 24.816772 29.38208 2.903198 3.280655 3.959717 6.693482 3.077881 10.985444-3.524902 17.156326-3.282288 34.748733-5.936523 52.020172-2.295105 14.934372-10.642151 24.294296-24.911805 28.73677-17.719055 5.516419-35.932373 6.874512-54.308532 6.083893-17.452759-.750854-34.930725-1.270019-52.323639-3.0849-16.809693-1.754028-33.115845-5.752472-48.968262-11.522186-4.419891-1.608673-6.008881-.834564-6.824036 4.056274-1.965912 11.794739-2.916778 23.805237-6.894958 35.224671-5.845917 16.780853-16.09082 24.563568-30.515381 23.355774-9.943268-.83255-17.91153-5.452912-25.17334-11.89682-14.139618-12.54715-24.63977-27.928345-34.398193-43.880097-5.549835-9.072143-11.715698-17.869842-14.099121-28.521698-.478852-2.140045-2.366059-2.63678-4.036957-3.33902-7.520355-3.16069-15.049774-6.299896-22.926331-9.598266m140.302643 18.459885c-.082764 2.82994-.053467 5.669174-.287109 8.486618-.159912 1.928253.180542 3.176086 2.298095 3.685882 20.874177 5.02533 41.77298 9.810639 63.300263 11.255585 15.452728 1.03717 30.97525.970123 46.374939 2.289978 16.289978 1.396149 31.883911-1.046082 47.270325-5.634155 11.021972-3.286683 18.157959-10.49466 20.711242-22.145035 1.326966-6.054535 1.497071-12.201325 2.562256-18.253372.554016-3.147889-1.179504-4.322449-4.026001-5.101548-10.441711-2.857879-19.54248-8.204895-27.937012-15.028137-8.180664-6.649383-15.490356-13.995895-21.035827-23.5047-3.226013 3.958466-6.611695 7.0905-8.89325 11.23819 6.615662 7.791687 14.277954 14.353058 20.518067 22.485153-2.72406 1.317536-3.801636-.411895-4.964844-1.341262-5.333862-4.261582-10.80658-8.395249-15.77832-13.056015-16.891358-15.834809-33.425141-32.053101-50.406708-47.789093-22.547516-20.893738-47.753388-37.743332-76.482788-49.118073-21.621948-8.560699-43.904663-13.383736-67.231995-12.623894-9.437836.307419-18.29126 2.81704-26.739136 7.949654 3.321625 5.736374 6.517823 11.144409 9.60608 16.613426 5.930145 10.501732 10.5625 21.511604 12.67926 33.45797 2.074066 11.70552-2.962006 19.332-14.508789 21.35376-9.34668 1.63655-16.917786-2.735428-23.591126-8.519669-11.498108-9.966171-22.008606-21.037247-30.168915-33.844467-4.433502-6.958176-8.771606-10.240105-17.112411-8.057411-6.755173 1.767753-13.976212 1.676422-20.899933 4.456901 8.025177 11.300156 7.150543 23.473602 5.869385 35.629517-1.363327 12.935653-6.730087 23.547607-19.803238 30.333236 25.776413 19.275544 55.200867 29.056076 83.247162 41.838562 1.493194-2.380004 1.499481-4.392044 1.799652-6.338302 2.12207-13.758377 12.244903-24.860565 25.905945-27.346161 20.135559-3.663605 39.680267-.76239 58.885101 6.00621 16.200012 5.709549 29.811127 18.693009 28.83963 40.620652m-58.612457 41.717453c-8.746491-1.761384-17.049011-4.282105-22.483765-12.279633 1.769287-1.473419 2.82486-.796356 3.830841-.268097 22.575531 11.855347 44.666321 8.59137 66.579132-2.007324 2.350159-1.136719 3.575562-2.678101 3.965454-5.218872 1.261872-8.223114 2.497956-16.437424 2.158814-24.800995-.560211-13.813675-6.583283-24.550003-19.086639-30.511398-22.146515-10.559082-45.390534-12.016129-69.148682-6.442078-4.216858.989349-6.450287 3.702835-6.528137 8.233139-.083405 4.855957.611297 9.618088 1.171722 14.408585 3.044647 26.025985 12.12384 49.679519 27.964996 70.607864 5.975861 7.894897 12.891205 14.856995 22.157197 18.9487 12.875946 5.68576 25.098266 1.404175 31.648925-10.954315 3.154541-5.951386 5.026734-12.294464 5.975678-18.929016.56784-3.970124 2.228454-7.860169 1.198425-12.623291-15.28009 8.970336-31.222107 13.370666-49.403961 11.836731m-83.513031-160.920426c6.315277 7.288193 12.539856 14.657639 18.973358 21.839951 5.572937 6.221603 11.601685 11.990051 19.549439 15.139724 5.317718 2.107438 10.758514 2.745224 15.636474-1.061935 5.036865-3.931183 5.358002-9.720978 3.986389-15.072113-4.156707-16.216644-13.084228-30.330322-20.604767-45.597252-13.540985 7.97094-27.304596 14.204681-43.185272 17.110657 2.279541 3.10794 3.739685 5.098663 5.644379 7.640968m-65.511917 10.964279c-13.011521 16.002838-10.146164 39.211304 6.086639 49.847321 11.045761-5.920029 16.521317-15.364243 17.958985-27.583527 1.376495-11.699463-.243577-22.932022-3.737305-34.224624-7.950287 2.48822-14.560745 5.79808-20.308319 11.96083m375.510177 59.047409c4.012329 1.599076 8.017823 3.215775 12.040406 4.788681 1.633606.63881 3.633972 1.099793 4.162841-1.090408 1.695069-7.01918 3.247559-14.283859-1.906799-20.530884-8.465454-10.259994-17.175476-20.321319-25.917847-30.348266-3.83374-4.397034-7.480102-3.84375-10.122314 1.397049-2.54303 5.044067-4.821472 10.220901-7.291382 15.302826-.656067 1.349746-.734436 2.453674.287415 3.64653 8.421142 9.830413 16.080505 20.465164 28.74768 26.834472m-19.500671 1.47377c9.693787 8.861054 21.075439 14.733857 33.546265 19.506989.32727-1.699738.548889-2.818893.757751-3.94043 1.213806-6.519775 1.226074-6.592743-5.15918-7.754593-6.705139-1.220077-12.595153-4.268554-18.02478-8.153656-9.403992-6.729034-19.162475-13.169189-23.790832-24.64656-3.187134 2.47876-3.149781 4.608688-1.463929 7.360534 3.851136 6.286011 8.431885 11.946274 14.134705 17.627716m-255.83963 45.784317c2.258148 7.147645 11.43515 23.696976 15.703827 28.030961-8.8443-16.856018-11.352295-34.862717-13.374481-53.771409-4.865693 8.563004-4.876191 16.657898-2.329346 25.740448m-30.399262 149.031693c12.462525 18.470428 11.329102 37.72403 4.330475 57.188263-8.166443 22.712036-21.929748 42.149445-36.741073 60.907379-2.992829 3.790283-5.920533 7.632813-8.95401 11.390015-1.645417 2.037964-3.583664 3.045288-5.945404.922119-8.902543-8.003174-18.085099-15.719116-26.648133-24.070282-13.493667-13.159943-26.454864-26.788635-34.097885-44.528809-10.40126-24.142364-4.988647-51.973755 13.70668-70.580841 10.081192-10.0336 21.551651-17.168213 35.849869-19.221832 16.316773-2.343597 30.628052 2.642059 43.518738 12.211487 5.755188 4.272369 10.759094 9.454651 14.980743 15.782501m-4.38916 52.114075c3.383423-9.477021 5.623657-18.936737 3.672455-29.254059-4.333008-22.911286-26.251083-41.951019-49.275452-42.162354-27.832779-.255493-54.821273 26.40506-55.142166 54.789612-.188019 16.6315 7.183823 30.532379 17.034134 43.26059 12.361939 15.973663 28.32547 28.513336 41.942093 44.083374 3.389282-4.879212 6.475113-9.3573 9.597244-13.809906 12.418305-17.710297 25.66272-34.949646 32.171692-56.907257"/>
  <path fill="#8a7a68" d="M268.18457 264.692261c-4.78125-8.649445-8.496002-17.317017-10.136505-26.755081-.254455-1.463883-.315216-2.972306-.339966-4.462204-.024871-1.494751-.079254-3.209244 1.965912-3.427109 1.691864-.180191 2.232208 1.233703 2.559601 2.531601 3.802612 15.075897 13.387085 26.927521 21.890228 39.386627 2.059296 3.017334 4.060791 6.076569 6.00232 9.170837.959808 1.529663 2.193054 3.265534.42279 4.934632-2.021332 1.905822-3.75473.30899-5.226837-.962769-6.709137-5.795868-12.326294-12.533844-17.137543-20.416534m154.589478 256.063843c3.792572-1.417359 7.193054-2.773072 10.647095-3.974549 1.625518-.565491 3.512207-.727051 4.409393 1.102661.966278 1.970581-.624176 3.096375-2.093262 3.929749-16.253082 9.220215-33.509826 14.515747-52.413544 13.183288-1.91687-.135131-4.441955-.007202-4.379394-2.861572.054626-2.491089 2.32959-2.359863 4.129547-2.585388 13.377319-1.675842 26.57608-4.164429 39.700165-8.794189m38.670898-123.149018c1.453125 1.846405 2.728028 3.384461 3.869843 5.015686.77298 1.104218 1.432434 2.401825.271881 3.627106-1.188629 1.254883-2.46518.576202-3.597931-.181427-1.520294-1.016846-3.023254-2.069275-4.459412-3.200592-8.766479-6.905884-17.992096-13.155213-27.350647-19.21695-.697998-.452087-1.409942-.898101-2.041565-1.433929-1.334594-1.132111-3.569335-2.053436-2.435577-4.267242.980866-1.915406 2.932343-.890381 4.49884-.528138 5.736268 1.326599 11.026612 3.714447 15.952698 6.90268 5.618653 3.636383 10.66864 7.946533 15.29187 13.282806m-130.186523-66.858795c7.127838 6.315277 14.619385 11.530609 22.390228 16.370972 1.616425 1.006897 4.125397 1.884338 3.033173 4.387573-1.197541 2.744629-3.567139 1.651245-5.591156.798767-12.682678-5.341858-23.035675-13.758026-31.833313-24.20694-1.353699-1.607788-2.43927-3.48587-.542084-5.280761 2.101349-1.988007 3.990479-.646668 5.621918.958068 2.250488 2.213654 4.442718 4.486603 6.921234 6.972321m156.099304 124.850464c-.818054-5.717713-1.566101-10.988037-2.406891-16.911896 12.964356 7.913544 10.121094 48.749481-3.239349 58.161316-2.329712-1.865723-.768494-3.836426-.085541-5.699768 4.15509-11.336639 6.817291-22.913727 5.731781-35.549652m-154.562744 79.561096c-.627838 2.285217-2.330933 2.681641-3.950226 2.914978-11.47876 1.65387-22.941437 3.538757-34.600098 3.269043-1.732574-.040039-4.237915.610962-4.577972-1.78418-.407898-2.873046 2.316284-2.613647 4.193787-2.96643 11.088562-2.083069 22.218292-3.809998 33.528411-4.118531 2.215973-.060424 4.404542-.372497 5.406098 2.68512m-90.331238-9.955139c5.807022.814453 11.227707 1.659363 16.6521 2.479797 2.263733.342346 3.884765 1.44812 3.590545 3.894532-.279174 2.32135-2.073211 3.522277-4.281738 3.359008-5.851791-.432495-11.611038-1.574341-16.749573-4.507629-2.824905-1.61261-3.512741-3.763794.788666-5.225708m222.520386-294.103119c1.906769-7.89624 7.462952-11.061859 14.454254-12.169373 5.500855-.871429 8.664734 2.16829 8.399261 7.524231-.024078.485627.075593.979538.13797 1.467026 1.031983 8.066513-1.153717 12.121491-7.195556 13.342102-7.710022 1.557663-13.756806-2.179138-15.795929-10.163986m10.51593-6.119827c-3.165619 1.551864-6.670227 3.085724-5.737946 7.490829.757447 3.579254 6.47818 5.571289 10.999573 4.223328 3.70871-1.105683 5.085785-4.748367 3.7193-9.422852-1.49466-5.113144-4.878846-3.827667-8.980927-2.291305M365.35498 193.141907c-7.947479-2.422928-11.417175-7.32901-10.644378-14.287751.802673-7.227844 9.420837-12.231246 14.979889-6.647644.692016.695069 1.623321 1.146042 2.410614 1.753052 4.303375 3.317917 6.227142 8.344071 4.652923 12.640351-1.865081 5.090133-5.792633 6.952575-11.399048 6.541992m3.527863-4.56276c3.840485-1.571136 4.969055-4.593048 3.295929-8.065719-1.524628-3.164444-3.299316-7.065552-7.784576-6.468491-3.616852.481506-5.089722 3.428604-5.114045 6.956803-.029693 4.310119 2.29773 6.763732 6.370972 7.676879.790924.177292 1.648834.056076 3.23172-.099472m59.514465 32.229111c-4.835846-.985428-8.437042-3.264008-10.962433-7.012939-2.676696-3.97345-2.312072-7.874863.93631-11.404877 3.663361-3.980942 10.415955-4.691879 16.729431-1.326157 4.032593 2.149781 4.641358 6.241333 4.313355 10.432221-.473877 6.055404-3.808563 8.973175-11.016663 9.311752m-3.204315-17.55098c-3.39743.853348-5.188965 2.922455-4.52359 6.500824.645996 3.474152 5.36734 7.105622 8.839661 6.834595 3.446686-.269028 5.341858-2.480896 6.058624-5.665466 1.299408-5.773438-1.344177-7.883743-10.374695-7.669953m-8.622986-68.888412c5.922577 4.689011 11.561585 9.157349 17.408692 13.790543-2.564728 2.013092-3.581391.487289-4.601868-.393998-14.576874-12.587936-30.923157-21.931785-49.495819-27.278648-2.514954-.72403-5.124237-1.44191-7.277679-3.708565 1.792449-1.771873 3.71997-.914558 5.523742-.58696 14.310089 2.598961 26.293854 10.154946 38.442932 18.177628m-106.646118 16.490845c-1.98172 2.475113-3.493744 4.891525-5.826599 6.563476-.987579.707779-2.085175 1.189209-3.137756.176834-.8284-.796768-.70636-1.856262-.258606-2.776565 2.865539-5.890198 7.243805-10.64502 11.690368-15.331192.707062-.745148 1.830964-.97142 2.760834-.375519 1.281067.820984.921784 2.052231.307037 3.065155-1.717559 2.830048-3.536132 5.598801-5.535278 8.677811m-14.622803-19.537445c2.623505-2.232438 3.241974-6.294304 8.33783-6.592026-2.953613 6.156036-7.086426 10.137039-12.362183 14.805817-.026702-4.342164 2.561097-5.789719 4.024353-8.213791m-93.704147 274.228332c14.246124-11.384918 27.604416-10.883118 40.214096-.780151 11.468689 9.18869 14.476349 26.16391 7.417282 39.419555-5.703201 10.709565-19.307068 15.744629-33.437958 12.699799-11.316558-2.438416-19.48233-8.38443-22.95314-19.723846-3.724518-12.168396-.565124-22.59961 8.75972-31.615357m9.219009-1.236786c-1.322021 1.011536-2.746261 1.914948-3.949478 3.052216-7.817093 7.388519-11.502334 16.205444-8.839142 26.995148 2.619568 10.613067 10.177247 15.765625 20.410965 17.03775 8.866562 1.102203 17.910584 1.312958 24.24823-6.790192 7.962632-10.180908 6.592759-26.288788-2.76892-35.168213-7.454468-7.070465-21.347016-9.763427-29.101655-5.126709"/>
</svg>
