<svg viewBox="0 0 720 624" xmlns="http://www.w3.org/2000/svg"><path fill="#8a7a68" opacity="1.000" stroke="none" d=" M272.064819,231.016266   C251.900131,222.130386 232.032211,213.495300 214.214066,200.931381   C208.038101,196.576599 202.648727,191.342194 198.182388,185.282776   C182.899521,164.548782 189.898270,138.305313 213.411469,127.204956   C223.176407,122.595039 233.497406,120.388229 244.075790,118.729073   C257.663727,116.597885 271.688080,116.705116 284.593994,110.880455   C291.612030,107.713081 298.173187,103.778191 304.584351,99.595535   C321.120575,88.807274 339.395782,87.157478 358.349091,89.217087   C406.733948,94.474930 446.284943,118.199478 482.409821,148.929352   C496.374756,160.808746 509.656494,173.438248 522.300354,186.719757   C524.469910,188.998672 526.218994,191.677902 528.471191,193.898895   C531.596008,192.145859 532.202271,189.870331 533.329529,188.151474   C540.632568,177.016174 548.214905,166.041489 553.614990,153.770706   C554.542908,151.662186 555.849915,149.651947 557.303955,147.857391   C560.591125,143.800537 564.524170,143.249115 568.692566,146.429596   C571.187561,148.333191 573.594971,150.528137 575.487244,153.014175   C583.265015,163.232666 591.808289,172.796021 600.304016,182.396255   C603.207214,185.676910 604.263733,189.089737 603.381897,193.381699   C599.856995,210.538025 600.099609,228.130432 597.445374,245.401871   C595.150269,260.336243 586.803223,269.696167 572.533569,274.138641   C554.814514,279.655060 536.601196,281.013153 518.225037,280.222534   C500.772278,279.471680 483.294312,278.952515 465.901398,277.137634   C449.091705,275.383606 432.785553,271.385162 416.933136,265.615448   C412.513245,264.006775 410.924255,264.780884 410.109100,269.671722   C408.143188,281.466461 407.192322,293.476959 403.214142,304.896393   C397.368225,321.677246 387.123322,329.459961 372.698761,328.252167   C362.755493,327.419617 354.787231,322.799255 347.525421,316.355347   C333.385803,303.808197 322.885651,288.427002 313.127228,272.475250   C307.577393,263.403107 301.411530,254.605408 299.028107,243.953552   C298.549255,241.813507 296.662048,241.316772 294.991150,240.614532   C287.470795,237.453842 279.941376,234.314636 272.064819,231.016266  M412.367462,249.476151   C412.284698,252.306091 412.313995,255.145325 412.080353,257.962769   C411.920441,259.891022 412.260895,261.138855 414.378448,261.648651   C435.252625,266.673981 456.151428,271.459290 477.678711,272.904236   C493.131439,273.941406 508.653961,273.874359 524.053650,275.194214   C540.343628,276.590363 555.937561,274.148132 571.323975,269.560059   C582.345947,266.273376 589.481934,259.065399 592.035217,247.415024   C593.362183,241.360489 593.532288,235.213699 594.597473,229.161652   C595.151489,226.013763 593.417969,224.839203 590.571472,224.060104   C580.129761,221.202225 571.028992,215.855209 562.634460,209.031967   C554.453796,202.382584 547.144104,195.036072 541.598633,185.527267   C538.372620,189.485733 534.986938,192.617767 532.705383,196.765457   C539.321045,204.557144 546.983337,211.118515 553.223450,219.250610   C550.499390,220.568146 549.421814,218.838715 548.258606,217.909348   C542.924744,213.647766 537.452026,209.514099 532.480286,204.853333   C515.588928,189.018524 499.055145,172.800232 482.073578,157.064240   C459.526062,136.170502 434.320190,119.320908 405.590790,107.946167   C383.968842,99.385468 361.686127,94.562431 338.358795,95.322273   C328.920959,95.629692 320.067535,98.139313 311.619659,103.271927   C314.941284,109.008301 318.137482,114.416336 321.225739,119.885353   C327.155884,130.387085 331.788239,141.396957 333.904999,153.343323   C335.979065,165.048843 330.942993,172.675323 319.396210,174.697083   C310.049530,176.333633 302.478424,171.961655 295.805084,166.177414   C284.306976,156.211243 273.796478,145.140167 265.636169,132.332947   C261.202667,125.374771 256.864563,122.092842 248.523758,124.275536   C241.768585,126.043289 234.547546,125.951958 227.623825,128.732437   C235.649002,140.032593 234.774368,152.206039 233.493210,164.361954   C232.129883,177.297607 226.763123,187.909561 213.689972,194.695190   C239.466385,213.970734 268.890839,223.751266 296.937134,236.533752   C298.430328,234.153748 298.436615,232.141708 298.736786,230.195450   C300.858856,216.437073 310.981689,205.334885 324.642731,202.849289   C344.778290,199.185684 364.322998,202.086899 383.527832,208.855499   C399.727844,214.565048 413.338959,227.548508 412.367462,249.476151  M353.755005,291.193604   C345.008514,289.432220 336.705994,286.911499 331.271240,278.913971   C333.040527,277.440552 334.096100,278.117615 335.102081,278.645874   C357.677612,290.501221 379.768402,287.237244 401.681213,276.638550   C404.031372,275.501831 405.256775,273.960449 405.646667,271.419678   C406.908539,263.196564 408.144623,254.982254 407.805481,246.618683   C407.245270,232.805008 401.222198,222.068680 388.718842,216.107285   C366.572327,205.548203 343.328308,204.091156 319.570160,209.665207   C315.353302,210.654556 313.119873,213.368042 313.042023,217.898346   C312.958618,222.754303 313.653320,227.516434 314.213745,232.306931   C317.258392,258.332916 326.337585,281.986450 342.178741,302.914795   C348.154602,310.809692 355.069946,317.771790 364.335938,321.863495   C377.211884,327.549255 389.434204,323.267670 395.984863,310.909180   C399.139404,304.957794 401.011597,298.614716 401.960541,291.980164   C402.528381,288.010040 404.188995,284.119995 403.158966,279.356873   C387.878876,288.327209 371.936859,292.727539 353.755005,291.193604  M270.241974,130.273178   C276.557251,137.561371 282.781830,144.930817 289.215332,152.113129   C294.788269,158.334732 300.817017,164.103180 308.764771,167.252853   C314.082489,169.360291 319.523285,169.998077 324.401245,166.190918   C329.438110,162.259735 329.759247,156.469940 328.387634,151.118805   C324.230927,134.902161 315.303406,120.788483 307.782867,105.521553   C294.241882,113.492493 280.478271,119.726234 264.597595,122.632210   C266.877136,125.740150 268.337280,127.730873 270.241974,130.273178  M204.730057,141.237457   C191.718536,157.240295 194.583893,180.448761 210.816696,191.084778   C221.862457,185.164749 227.338013,175.720535 228.775681,163.501251   C230.152176,151.801788 228.532104,140.569229 225.038376,129.276627   C217.088089,131.764847 210.477631,135.074707 204.730057,141.237457  M580.240234,200.284866   C584.252563,201.883942 588.258057,203.500641 592.280640,205.073547   C593.914246,205.712357 595.914612,206.173340 596.443481,203.983139   C598.138550,196.963959 599.691040,189.699280 594.536682,183.452255   C586.071228,173.192261 577.361206,163.130936 568.618835,153.103989   C564.785095,148.706955 561.138733,149.260239 558.496521,154.501038   C555.953491,159.545105 553.675049,164.721939 551.205139,169.803864   C550.549072,171.153610 550.470703,172.257538 551.492554,173.450394   C559.913696,183.280807 567.573059,193.915558 580.240234,200.284866  M560.739563,201.758636   C570.433350,210.619690 581.815002,216.492493 594.285828,221.265625   C594.613098,219.565887 594.834717,218.446732 595.043579,217.325195   C596.257385,210.805420 596.269653,210.732452 589.884399,209.570602   C583.179260,208.350525 577.289246,205.302048 571.859619,201.416946   C562.455627,194.687912 552.697144,188.247757 548.068787,176.770386   C544.881653,179.249146 544.919006,181.379074 546.604858,184.130920   C550.455994,190.416931 555.036743,196.077194 560.739563,201.758636  M304.899933,247.542953   C307.158081,254.690598 316.335083,271.239929 320.603760,275.573914   C311.759460,258.717896 309.251465,240.711197 307.229279,221.802505   C302.363586,230.365509 302.353088,238.460403 304.899933,247.542953  z"/><path fill="#8a7a68" opacity="1.000" stroke="none" d=" M274.500671,396.574646   C286.963196,415.045074 285.829773,434.298676 278.831146,453.762909   C270.664703,476.474945 256.901398,495.912354 242.090073,514.670288   C239.097244,518.460571 236.169540,522.303101 233.136063,526.060303   C231.490646,528.098267 229.552399,529.105591 227.190659,526.982422   C218.288116,518.979248 209.105560,511.263306 200.542526,502.912140   C187.048859,489.752197 174.087662,476.123505 166.444641,458.383331   C156.043381,434.240967 161.455994,406.409576 180.151321,387.802490   C190.232513,377.768890 201.702972,370.634277 216.001190,368.580658   C232.317963,366.237061 246.629242,371.222717 259.519928,380.792145   C265.275116,385.064514 270.279022,390.246796 274.500671,396.574646  M270.111511,448.688721   C273.494934,439.211700 275.735168,429.751984 273.783966,419.434662   C269.450958,396.523376 247.532883,377.483643 224.508514,377.272308   C196.675735,377.016815 169.687241,403.677368 169.366348,432.061920   C169.178329,448.693420 176.550171,462.594299 186.400482,475.322510   C198.762421,491.296173 214.725952,503.835846 228.342575,519.405884   C231.731857,514.526672 234.817688,510.048584 237.939819,505.595978   C250.358124,487.885681 263.602539,470.646332 270.111511,448.688721  z"/><path fill="#8a7a68" opacity="1.000" stroke="none" d=" M268.184570,264.692261   C263.403320,256.042816 259.688568,247.375244 258.048065,237.937180   C257.793610,236.473297 257.732849,234.964874 257.708099,233.474976   C257.683228,231.980225 257.628845,230.265732 259.674011,230.047867   C261.365875,229.867676 261.906219,231.281570 262.233612,232.579468   C266.036224,247.655365 275.620697,259.506989 284.123840,271.966095   C286.183136,274.983429 288.184631,278.042664 290.126160,281.136932   C291.085968,282.666595 292.319214,284.402466 290.548950,286.071564   C288.527618,287.977386 286.794220,286.380554 285.322113,285.108795   C278.612976,279.312927 272.995819,272.574951 268.184570,264.692261  z"/><path fill="#8a7a68" opacity="1.000" stroke="none" d=" M422.774048,520.756104   C426.566620,519.338745 429.967102,517.983032 433.421143,516.781555   C435.046661,516.216064 436.933350,516.054504 437.830536,517.884216   C438.796814,519.854797 437.206360,520.980591 435.737274,521.813965   C419.484192,531.034180 402.227448,536.329712 383.323730,534.997253   C381.406860,534.862122 378.881775,534.990051 378.944336,532.135681   C378.998962,529.644592 381.273926,529.775818 383.073883,529.550293   C396.451202,527.874451 409.649963,525.385864 422.774048,520.756104  z"/><path fill="#8a7a68" opacity="1.000" stroke="none" d=" M461.444946,397.607086   C462.898071,399.453491 464.172974,400.991547 465.314789,402.622772   C466.087769,403.726990 466.747223,405.024597 465.586670,406.249878   C464.398041,407.504761 463.121490,406.826080 461.988739,406.068451   C460.468445,405.051605 458.965485,403.999176 457.529327,402.867859   C448.762848,395.961975 439.537231,389.712646 430.178680,383.650909   C429.480682,383.198822 428.768738,382.752808 428.137115,382.216980   C426.802521,381.084869 424.567780,380.163544 425.701538,377.949738   C426.682404,376.034332 428.633881,377.059357 430.200378,377.421600   C435.936646,378.748199 441.226990,381.136047 446.153076,384.324280   C451.771729,387.960663 456.821716,392.270813 461.444946,397.607086  z"/><path fill="#8a7a68" opacity="1.000" stroke="none" d=" M331.258423,330.748291   C338.386261,337.063568 345.877808,342.278900 353.648651,347.119263   C355.265076,348.126160 357.774048,349.003601 356.681824,351.506836   C355.484283,354.251465 353.114685,353.158081 351.090668,352.305603   C338.407990,346.963745 328.054993,338.547577 319.257355,328.098663   C317.903656,326.490875 316.818085,324.612793 318.715271,322.817902   C320.816620,320.829895 322.705750,322.171234 324.337189,323.775970   C326.587677,325.989624 328.779907,328.262573 331.258423,330.748291  z"/><path fill="#8a7a68" opacity="1.000" stroke="none" d=" M487.357727,455.598755   C486.539673,449.881042 485.791626,444.610718 484.950836,438.686859   C497.915192,446.600403 495.071930,487.436340 481.711487,496.848175   C479.381775,494.982452 480.942993,493.011749 481.625946,491.148407   C485.781036,479.811768 488.443237,468.234680 487.357727,455.598755  z"/><path fill="#8a7a68" opacity="1.000" stroke="none" d=" M332.794983,535.159851   C332.167145,537.445068 330.464050,537.841492 328.844757,538.074829   C317.365997,539.728699 305.903320,541.613586 294.244659,541.343872   C292.512085,541.303833 290.006744,541.954834 289.666687,539.559692   C289.258789,536.686646 291.982971,536.946045 293.860474,536.593262   C304.949036,534.510193 316.078766,532.783264 327.388885,532.474731   C329.604858,532.414307 331.793427,532.102234 332.794983,535.159851  z"/><path fill="#8a7a68" opacity="1.000" stroke="none" d=" M242.463745,525.204712   C248.270767,526.019165 253.691452,526.864075 259.115845,527.684509   C261.379578,528.026855 263.000610,529.132629 262.706390,531.579041   C262.427216,533.900391 260.633179,535.101318 258.424652,534.938049   C252.572861,534.505554 246.813614,533.363708 241.675079,530.430420   C238.850174,528.817810 238.162338,526.666626 242.463745,525.204712  z"/><path fill="#8a7a68" opacity="1.000" stroke="none" d=" M464.984131,231.101593   C466.890900,223.205353 472.447083,220.039734 479.438385,218.932220   C484.939240,218.060791 488.103119,221.100510 487.837646,226.456451   C487.813568,226.942078 487.913239,227.435989 487.975616,227.923477   C489.007599,235.989990 486.821899,240.044968 480.780060,241.265579   C473.070038,242.823242 467.023254,239.086441 464.984131,231.101593  M475.500061,224.981766   C472.334442,226.533630 468.829834,228.067490 469.762115,232.472595   C470.519562,236.051849 476.240295,238.043884 480.761688,236.695923   C484.470398,235.590240 485.847473,231.947556 484.480988,227.273071   C482.986328,222.159927 479.602142,223.445404 475.500061,224.981766  z"/><path fill="#8a7a68" opacity="1.000" stroke="none" d=" M365.354980,193.141907   C357.407501,190.718979 353.937805,185.812897 354.710602,178.854156   C355.513275,171.626312 364.131439,166.622910 369.690491,172.206512   C370.382507,172.901581 371.313812,173.352554 372.101105,173.959564   C376.404480,177.277481 378.328247,182.303635 376.754028,186.599915   C374.888947,191.690048 370.961395,193.552490 365.354980,193.141907  M368.882843,188.579147   C372.723328,187.008011 373.851898,183.986099 372.178772,180.513428   C370.654144,177.348984 368.879456,173.447876 364.394196,174.044937   C360.777344,174.526443 359.304474,177.473541 359.280151,181.001740   C359.250458,185.311859 361.577881,187.765472 365.651123,188.678619   C366.442047,188.855911 367.299957,188.734695 368.882843,188.579147  z"/><path fill="#8a7a68" opacity="1.000" stroke="none" d=" M428.397308,220.808258   C423.561462,219.822830 419.960266,217.544250 417.434875,213.795319   C414.758179,209.821869 415.122803,205.920456 418.371185,202.390442   C422.034546,198.409500 428.787140,197.698563 435.100616,201.064285   C439.133209,203.214066 439.741974,207.305618 439.413971,211.496506   C438.940094,217.551910 435.605408,220.469681 428.397308,220.808258  M425.192993,203.257278   C421.795563,204.110626 420.004028,206.179733 420.669403,209.758102   C421.315399,213.232254 426.036743,216.863724 429.509064,216.592697   C432.955750,216.323669 434.850922,214.111801 435.567688,210.927231   C436.867096,205.153793 434.223511,203.043488 425.192993,203.257278  z"/><path fill="#8a7a68" opacity="1.000" stroke="none" d=" M416.570007,134.368866   C422.492584,139.057877 428.131592,143.526215 433.978699,148.159409   C431.413971,150.172501 430.397308,148.646698 429.376831,147.765411   C414.799957,135.177475 398.453674,125.833626 379.881012,120.486763   C377.366058,119.762733 374.756775,119.044853 372.603333,116.778198   C374.395782,115.006325 376.323303,115.863640 378.127075,116.191238   C392.437164,118.790199 404.420929,126.346184 416.570007,134.368866  z"/><path fill="#8a7a68" opacity="1.000" stroke="none" d=" M309.923889,150.859711   C307.942169,153.334824 306.430145,155.751236 304.097290,157.423187   C303.109711,158.130966 302.012115,158.612396 300.959534,157.600021   C300.131134,156.803253 300.253174,155.743759 300.700928,154.823456   C303.566467,148.933258 307.944733,144.178436 312.391296,139.492264   C313.098358,138.747116 314.222260,138.520844 315.152130,139.116745   C316.433197,139.937729 316.073914,141.168976 315.459167,142.181900   C313.741608,145.011948 311.923035,147.780701 309.923889,150.859711  z"/><path fill="#8a7a68" opacity="1.000" stroke="none" d=" M295.301086,131.322266   C297.924591,129.089828 298.543060,125.027962 303.638916,124.730240   C300.685303,130.886276 296.552490,134.867279 291.276733,139.536057   C291.250031,135.193893 293.837830,133.746338 295.301086,131.322266  z"/><path fill="#8a7a68" opacity="1.000" stroke="none" d=" M201.596939,405.550598   C215.843063,394.165680 229.201355,394.667480 241.811035,404.770447   C253.279724,413.959137 256.287384,430.934357 249.228317,444.190002   C243.525116,454.899567 229.921249,459.934631 215.790359,456.889801   C204.473801,454.451385 196.308029,448.505371 192.837219,437.165955   C189.112701,424.997559 192.272095,414.566345 201.596939,405.550598  M210.815948,404.313812   C209.493927,405.325348 208.069687,406.228760 206.866470,407.366028   C199.049377,414.754547 195.364136,423.571472 198.027328,434.361176   C200.646896,444.974243 208.204575,450.126801 218.438293,451.398926   C227.304855,452.501129 236.348877,452.711884 242.686523,444.608734   C250.649155,434.427826 249.279282,418.319946 239.917603,409.440521   C232.463135,402.370056 218.570587,399.677094 210.815948,404.313812  z"/></svg>