<svg xmlns="http://www.w3.org/2000/svg" viewBox="0 0 720 624"><path fill="#8a7a68" d="M272.065 231.016c-20.165-8.886-40.033-17.52-57.85-30.085-6.177-4.354-11.566-9.589-16.033-15.648-15.282-20.734-8.284-46.978 15.23-58.078 9.764-4.61 20.085-6.817 30.664-8.476 13.588-2.131 27.612-2.024 40.518-7.849 7.018-3.167 13.58-7.102 19.99-11.284 16.537-10.789 34.812-12.439 53.765-10.379 48.385 5.258 87.936 28.982 124.06 59.712 13.966 11.88 27.247 24.51 39.891 37.79 2.17 2.28 3.919 4.959 6.171 7.18 3.125-1.753 3.731-4.029 4.859-5.748 7.303-11.135 14.885-22.11 20.285-34.38.928-2.109 2.235-4.12 3.689-5.914 3.287-4.056 7.22-4.608 11.389-1.427 2.495 1.903 4.902 4.098 6.794 6.584 7.778 10.219 16.321 19.782 24.817 29.382 2.903 3.28 3.96 6.694 3.078 10.986-3.525 17.156-3.282 34.748-5.937 52.02-2.295 14.934-10.642 24.294-24.911 28.737-17.72 5.516-35.933 6.874-54.309 6.084-17.453-.751-34.93-1.27-52.324-3.085-16.81-1.754-33.115-5.753-48.968-11.523-4.42-1.608-6.009-.834-6.824 4.057-1.966 11.794-2.917 23.805-6.895 35.224-5.846 16.781-16.09 24.564-30.515 23.356-9.944-.832-17.912-5.453-25.174-11.897-14.14-12.547-24.64-27.928-34.398-43.88-5.55-9.072-11.715-17.87-14.099-28.521-.479-2.14-2.366-2.637-4.037-3.34-7.52-3.16-15.05-6.3-22.926-9.598m140.302 18.46c-.082 2.83-.053 5.67-.287 8.487-.16 1.928.18 3.176 2.298 3.686 20.875 5.025 41.773 9.81 63.3 11.255 15.453 1.037 30.976.97 46.376 2.29 16.29 1.396 31.884-1.046 47.27-5.634 11.022-3.287 18.158-10.495 20.711-22.145 1.327-6.055 1.497-12.201 2.562-18.253.554-3.148-1.179-4.323-4.026-5.102-10.441-2.858-19.542-8.205-27.937-15.028-8.18-6.65-15.49-13.996-21.035-23.505-3.226 3.959-6.612 7.09-8.894 11.238 6.616 7.792 14.278 14.354 20.518 22.486-2.724 1.317-3.801-.412-4.964-1.342-5.334-4.261-10.807-8.395-15.779-13.056-16.891-15.834-33.425-32.053-50.406-47.789-22.548-20.893-47.754-37.743-76.483-49.118-21.622-8.56-43.905-13.384-67.232-12.624-9.438.308-18.291 2.817-26.74 7.95 3.322 5.736 6.518 11.144 9.607 16.613 5.93 10.502 10.562 21.512 12.679 33.458 2.074 11.706-2.962 19.332-14.509 21.354-9.346 1.637-16.918-2.735-23.59-8.52-11.499-9.966-22.01-21.037-30.17-33.844-4.433-6.958-8.771-10.24-17.112-8.057-6.755 1.767-13.976 1.676-20.9 4.456 8.025 11.3 7.15 23.474 5.87 35.63-1.364 12.936-6.73 23.548-19.804 30.333 25.776 19.276 55.2 29.056 83.247 41.839 1.493-2.38 1.5-4.392 1.8-6.339 2.122-13.758 12.245-24.86 25.906-27.346 20.135-3.663 39.68-.762 58.885 6.006 16.2 5.71 29.811 18.694 28.84 40.621m-58.613 41.718c-8.746-1.762-17.049-4.283-22.484-12.28 1.77-1.473 2.825-.796 3.831-.268 22.576 11.855 44.666 8.591 66.58-2.007 2.35-1.137 3.575-2.679 3.965-5.22 1.262-8.222 2.498-16.437 2.158-24.8-.56-13.814-6.583-24.55-19.086-30.512-22.147-10.559-45.39-12.016-69.149-6.442-4.217.99-6.45 3.703-6.528 8.233-.083 4.856.611 9.618 1.172 14.409 3.044 26.026 12.124 49.68 27.965 70.608 5.976 7.895 12.89 14.857 22.157 18.948 12.876 5.686 25.098 1.405 31.649-10.954 3.154-5.951 5.027-12.294 5.976-18.929.567-3.97 2.228-7.86 1.198-12.623-15.28 8.97-31.222 13.37-49.404 11.837m-83.513-160.92c6.315 7.287 12.54 14.657 18.973 21.84 5.573 6.22 11.602 11.99 19.55 15.139 5.317 2.107 10.758 2.745 15.636-1.062 5.037-3.931 5.358-9.721 3.987-15.072-4.157-16.217-13.085-30.33-20.605-45.597-13.541 7.97-27.305 14.204-43.185 17.11 2.28 3.108 3.74 5.099 5.644 7.641m-65.512 10.964c-13.011 16.003-10.146 39.212 6.087 49.848 11.045-5.92 16.521-15.364 17.959-27.584 1.376-11.7-.244-22.932-3.738-34.224-7.95 2.488-14.56 5.798-20.308 11.96m375.51 59.048c4.013 1.599 8.018 3.216 12.04 4.789 1.634.638 3.635 1.1 4.163-1.09 1.696-7.02 3.248-14.285-1.906-20.532-8.466-10.26-17.176-20.321-25.918-30.348-3.834-4.397-7.48-3.844-10.122 1.397-2.544 5.044-4.822 10.22-7.292 15.303-.656 1.35-.734 2.454.288 3.646 8.42 9.83 16.08 20.466 28.747 26.835m-19.5 1.474c9.693 8.86 21.075 14.733 33.546 19.507.327-1.7.549-2.82.758-3.94 1.213-6.52 1.226-6.594-5.16-7.755-6.705-1.22-12.595-4.269-18.024-8.154-9.404-6.73-19.163-13.17-23.791-24.647-3.187 2.48-3.15 4.61-1.464 7.36 3.851 6.287 8.432 11.947 14.135 17.629M304.9 247.543c2.258 7.148 11.435 23.697 15.704 28.03-8.845-16.855-11.353-34.862-13.375-53.77-4.865 8.563-4.876 16.657-2.33 25.74m-30.398 149.032c12.462 18.47 11.329 37.724 4.33 57.188-8.166 22.712-21.93 42.15-36.74 60.907-2.994 3.79-5.921 7.633-8.955 11.39-1.645 2.038-3.584 3.046-5.945.922-8.903-8.003-18.085-15.719-26.648-24.07-13.494-13.16-26.455-26.788-34.098-44.529-10.402-24.142-4.989-51.973 13.706-70.58 10.082-10.034 21.552-17.169 35.85-19.222 16.317-2.344 30.628 2.642 43.519 12.211 5.755 4.273 10.759 9.455 14.98 15.783m-4.388 52.114c3.383-9.477 5.623-18.937 3.672-29.254-4.333-22.912-26.251-41.951-49.275-42.163-27.833-.255-54.822 26.405-55.143 54.79-.188 16.631 7.184 30.532 17.034 43.26 12.362 15.974 28.326 28.514 41.943 44.084 3.389-4.88 6.475-9.357 9.597-13.81 12.418-17.71 25.663-34.95 32.172-56.907"/><path fill="#8a7a68" d="M268.185 264.692c-4.782-8.65-8.496-17.317-10.137-26.755-.254-1.464-.315-2.972-.34-4.462-.025-1.495-.08-3.21 1.966-3.427 1.692-.18 2.232 1.234 2.56 2.531 3.802 15.076 13.387 26.928 21.89 39.387 2.06 3.017 4.06 6.077 6.002 9.17.96 1.53 2.193 3.266.423 4.936-2.021 1.905-3.755.309-5.227-.963-6.709-5.796-12.326-12.534-17.137-20.417m154.589 256.064c3.793-1.417 7.193-2.773 10.647-3.974 1.626-.566 3.512-.727 4.41 1.102.966 1.97-.625 3.097-2.094 3.93-16.253 9.22-33.51 14.516-52.413 13.183-1.917-.135-4.442-.007-4.38-2.861.055-2.491 2.33-2.36 4.13-2.586 13.377-1.676 26.576-4.164 39.7-8.794m38.67-123.149c1.454 1.846 2.729 3.385 3.87 5.016.774 1.104 1.433 2.402.273 3.627-1.189 1.255-2.466.576-3.598-.182-1.52-1.016-3.024-2.069-4.46-3.2-8.766-6.906-17.992-13.155-27.35-19.217-.698-.452-1.41-.898-2.042-1.434-1.334-1.132-3.57-2.053-2.435-4.267.98-1.916 2.932-.89 4.498-.528 5.737 1.326 11.027 3.714 15.953 6.902 5.619 3.637 10.669 7.947 15.292 13.283m-130.187-66.859c7.128 6.316 14.62 11.53 22.39 16.371 1.617 1.007 4.126 1.885 3.034 4.388-1.198 2.744-3.567 1.651-5.591.799-12.683-5.342-23.036-13.758-31.834-24.207-1.353-1.608-2.439-3.486-.542-5.281 2.102-1.988 3.99-.647 5.622.958 2.25 2.214 4.443 4.487 6.921 6.972m156.1 124.85a14879 14879 0 0 1-2.407-16.911c12.964 7.913 10.12 48.75-3.24 58.161-2.33-1.866-.768-3.836-.085-5.7 4.155-11.336 6.817-22.913 5.732-35.55M332.795 535.16c-.628 2.285-2.331 2.681-3.95 2.915-11.479 1.654-22.942 3.539-34.6 3.269-1.733-.04-4.238.61-4.578-1.784-.408-2.873 2.316-2.614 4.193-2.967 11.089-2.083 22.219-3.81 33.529-4.118 2.216-.06 4.404-.373 5.406 2.685m-90.331-9.955c5.807.814 11.227 1.66 16.652 2.48 2.264.342 3.885 1.448 3.59 3.894-.279 2.321-2.073 3.522-4.281 3.359-5.852-.432-11.611-1.574-16.75-4.508-2.825-1.612-3.513-3.763.789-5.225m222.52-294.103c1.907-7.897 7.463-11.062 14.454-12.17 5.501-.871 8.665 2.169 8.4 7.524-.024.486.075.98.138 1.467 1.032 8.067-1.154 12.122-7.196 13.343-7.71 1.557-13.757-2.18-15.796-10.164m10.516-6.12c-3.166 1.552-6.67 3.085-5.738 7.49.758 3.58 6.478 5.572 11 4.224 3.708-1.106 5.085-4.748 3.719-9.423-1.495-5.113-4.879-3.828-8.98-2.291m-110.146-31.84c-7.947-2.423-11.417-7.33-10.644-14.288.802-7.228 9.42-12.231 14.98-6.647.692.695 1.623 1.146 2.41 1.753 4.303 3.317 6.227 8.344 4.653 12.64-1.865 5.09-5.793 6.952-11.399 6.542m3.528-4.563c3.84-1.571 4.969-4.593 3.296-8.066-1.525-3.164-3.3-7.065-7.785-6.468-3.617.481-5.09 3.429-5.114 6.957-.03 4.31 2.298 6.763 6.371 7.677.791.177 1.649.056 3.232-.1m59.514 32.23c-4.836-.986-8.437-3.265-10.962-7.014-2.677-3.973-2.312-7.875.936-11.405 3.664-3.98 10.416-4.691 16.73-1.326 4.032 2.15 4.641 6.242 4.313 10.433-.474 6.055-3.809 8.973-11.017 9.311m-3.204-17.55c-3.397.853-5.189 2.922-4.524 6.5.646 3.474 5.368 7.106 8.84 6.835 3.447-.27 5.342-2.481 6.059-5.666 1.3-5.773-1.344-7.884-10.375-7.67m-8.623-68.888c5.923 4.689 11.562 9.157 17.409 13.79-2.565 2.014-3.582.488-4.602-.394-14.577-12.588-30.923-21.931-49.496-27.278-2.515-.724-5.124-1.442-7.278-3.709 1.793-1.772 3.72-.914 5.524-.587 14.31 2.6 26.294 10.155 38.443 18.178m-106.646 16.49c-1.982 2.476-3.494 4.892-5.827 6.564-.987.708-2.085 1.19-3.137.177-.829-.797-.707-1.856-.26-2.777 2.866-5.89 7.245-10.645 11.691-15.33.707-.746 1.831-.972 2.761-.376 1.281.82.922 2.052.307 3.065-1.717 2.83-3.536 5.599-5.535 8.678M295.3 131.322c2.624-2.232 3.242-6.294 8.338-6.592-2.954 6.156-7.087 10.137-12.362 14.806-.027-4.342 2.56-5.79 4.024-8.214m-93.704 274.229c14.246-11.385 27.604-10.884 40.214-.78 11.469 9.188 14.476 26.163 7.417 39.419-5.703 10.71-19.307 15.745-33.438 12.7-11.316-2.439-19.482-8.385-22.953-19.724-3.724-12.168-.565-22.6 8.76-31.615m9.219-1.237c-1.322 1.011-2.746 1.915-3.95 3.052-7.817 7.389-11.502 16.205-8.839 26.995 2.62 10.613 10.178 15.766 20.411 17.038 8.867 1.102 17.91 1.313 24.249-6.79 7.962-10.181 6.592-26.29-2.77-35.168-7.454-7.07-21.346-9.764-29.101-5.127"/></svg>