<svg xmlns="http://www.w3.org/2000/svg" width="100" height="100" fill="none" viewBox="0 0 100 100"><path fill="#009345" d="M66.794 85.149c9.019-4.07 16.268-11.556 19.79-20.435l-1.965-1.404c3.528-6.423 5.365-13.676 5.307-20.92-.003-.458-.572-.702-.942-.41l-2.91 2.293c-.006-6.178-.242-10.941-1.17-16.828-.074-.464-.649-.672-1.033-.377-.612.472-1.432.65-2.262 1.395-1.236-6.906-4.746-13.428-9.914-18.422-.426-.411-.895-.83-1.487-.955-.663-.14-1.342.114-1.96.383-6.644 2.89-12.124 8.124-15.132 14.452l-1.648-2.38c-.582-.84-1.906-.787-2.397.105a118 118 0 0 1-7.121 11.348l-3.224-1.218a47.6 47.6 0 0 0-2.554 19.432c.074.95-1.01 1.578-1.87 1.09a7 7 0 0 1-2.077-1.788 74.3 74.3 0 0 0 2.95 15.437l-2.533-.263c-.869-.09-1.432.85-.908 1.514 4.102 5.193 8.838 9.997 14.649 13.38 6.458 3.76 14.408 5.615 21.745 3.834z"/><path fill="#0b3335" d="M63.743 87.56c-1.208-.187-2.367-.46-3.58-.601a25 25 0 0 1-3-.57c-2.232-.571-4.201-1.228-6.087-2.17-4.123-2.06-7.337-4.626-10.237-8.26-.28-.351-.115-.151-.057-.073a28.132 28.132 0 0 1-1.904-2.872 27 27 0 0 1-.889-1.67c-.13-.267-.252-.538-.377-.808-.19-.409-.077-.167-.038-.075q-.129-.31-.25-.622l-1.578 2.78c.89-.333 1.746-.759 2.609-1.156.976-.45 1.377-2.032.76-2.898-.847-1.186-1.428-2.685-1.948-4.027a37 37 0 0 1-1.46-4.662c-.752-3.11-.94-6.024-.946-9.254l-2.798 2.132c.816.27 1.646.514 2.448.825 1.277.493 2.66-.764 2.643-2.013-.09-6.242 1.9-12.275 5.644-17.358l-3.172.409 1.848 1.706c.867.801 2.577.82 3.147-.405 1.144-2.461 2.532-4.82 4.187-6.974a34 34 0 0 1 2.439-2.82c.159-.165.455-.351.617-.394q.165-.054.334-.088-.357.04-.033.028c-.406-.046-.774-.26-.91-.682.508 1.57 2.602 1.877 3.49.456a71 71 0 0 1 5.406-7.555 74 74 0 0 1 3.188-3.617c.969-1.029 1.947-2.174 3.145-2.945.915-.59 1.796-.913 2.596-.27 1.043.839 1.819 2.197 2.542 3.31A58 58 0 0 1 75.9 22.44a61 61 0 0 1 3.332 9.568c.29 1.13 1.88 1.96 2.914 1.185a24.5 24.5 0 0 0 3.134-2.805l-2.7-.712a132 132 0 0 1 2.165 9.248c.61 3.105 1.038 6.242 1.593 9.358.218 1.225 1.65 1.47 2.583 1.051.732-.329 1.448-.82 2.207-1.075l-1.951-1.486c.093 1.601.018 3.178-.036 4.777-.05 1.493-.112 3.087-.331 4.495-.237 1.523-.54 3.072-1.027 4.537-.56 1.682-1.255 2.826-1.943 4.572-.4 1.016.257 2.469 1.203 2.956 1.436.74 2.8.852 4.374.604l-3.162-3.162a30 30 0 0 1-1.239 4.074l-.174.441c-.037.094-.208.473-.003.012-.128.287-.254.575-.389.86a30.183 30.183 0 0 1-3.32 5.45c.375-.488-.183.213-.286.34-.2.244-.398.49-.602.73a30 30 0 0 1-3.707 3.648l-.368.298c-.485.392.394-.29-.152.12a31 31 0 0 1-3.552 2.324q-1.005.556-2.05 1.032l-.467.207c.105-.046.501-.2-.018.006q-.593.237-1.194.453a30.7 30.7 0 0 1-5.432 1.398q-.252.04-.505.076c.603-.087-.144.014-.273.028a30 30 0 0 1-2.548.166c-1.69.039-3.404-.05-5.084-.234-1.273-.139-2.383 1.091-2.538 2.24-.162 1.207.59 2.559 1.85 2.835 6.697 1.47 13.776.345 19.94-2.554 5.734-2.697 10.517-7.283 13.57-12.824 1.673-3.035 2.888-6.348 3.499-9.76.354-1.977-1.142-3.579-3.163-3.162q.42-.021-.048-.018.356.07.078.01a2.5 2.5 0 0 1-.354-.1q.366.155-.04-.059l.94 3.582c.755-1.656 1.168-3.462 1.52-5.244.35-1.767.69-3.518.87-5.313.163-1.63.236-3.29.142-4.927-.102-1.785-.503-3.597-.953-5.324-.273-1.05-1.382-1.312-2.265-.922-.723.32-1.614.428-2.374.678l2.227 1.697c-.562-6.433-2.208-12.839-4.098-18.998-.319-1.039-1.429-1.445-2.372-.965-1.122.57-2.17 1.165-3.18 1.915l2.915 1.186a57.1 57.1 0 0 0-8.438-18.551c-.924-1.336-1.819-2.857-3.035-3.95-1.4-1.258-3.217-1.768-5.053-1.256-1.702.474-3.152 1.643-4.392 2.859a69 69 0 0 0-3.586 3.81 77.5 77.5 0 0 0-7.206 9.65l3.49.456c-.569-1.79-2.358-2.48-4.091-1.935-1.598.502-2.671 1.673-3.742 2.896a39.8 39.8 0 0 0-5.943 8.962l3.147-.405-1.826-1.73c-1.031-.976-2.383-.633-3.171.41-4.177 5.523-6.386 12.484-6.332 19.396l2.643-2.013c-.63-.248-1.24-.561-1.855-.84-1.54-.699-3.242.124-3.327 1.909-.165 3.457.36 7.056 1.217 10.398a37 37 0 0 0 1.573 4.771c.343.84.701 1.674 1.092 2.492.39.814.882 1.591 1.235 2.42l1.266-3.112c-.726.216-1.47.402-2.178.67-1.047.395-2.06 1.56-1.579 2.78 3.759 9.527 12.145 16.73 22.169 18.943 1.393.307 2.829.485 4.253.576.777.05 1.589.125 2.352-.035.667-.14 1.34-.27 2.004-.432 1.19-.291 1.312-2.329 0-2.533"/><path fill="#0b3335" d="M45.652 82.053a854 854 0 0 1 36.315-14.779c.608-.231 1.026-.812.842-1.483-.16-.582-.872-1.076-1.483-.842A871 871 0 0 0 44.464 80.02c-.587.256-.71 1.105-.422 1.61.344.606 1.03.674 1.61.422M39.456 75.588c5.205-3.478 11.32-5.41 17.13-7.608a332 332 0 0 0 29.331-12.755c1.39-.685.17-2.775-1.217-2.082a328 328 0 0 1-18.732 8.645 319 319 0 0 1-9.567 3.867c-2.949 1.138-5.931 2.195-8.848 3.415-3.27 1.368-6.298 3.033-9.071 5.255-.71.569.218 1.768.974 1.263M36.995 63.813a376 376 0 0 1 34.672-16.931 304 304 0 0 1 5.083-2.108q1.21-.49 2.422-.97c.89-.353 1.871-.627 2.658-1.178 1.052-.736.378-2.173-.84-1.994-.767.113-1.47.47-2.183.763q-1.208.498-2.413 1.003a505 505 0 0 0-4.414 1.882 374 374 0 0 0-26.294 12.567 379 379 0 0 0-9.677 5.28c-1.095.618-.115 2.295.986 1.686M38.901 51.794c11.056-5.573 22.197-11.001 33.426-16.216a890 890 0 0 1 9.633-4.403c.65-.292.806-1.237.473-1.806-.39-.669-1.154-.77-1.806-.474-11.275 5.098-22.487 10.371-33.482 16.05a889 889 0 0 0-9.374 4.915c-1.278.68-.15 2.58 1.13 1.934M46.079 37.46c8.003-5.939 18.481-6.846 26.693-12.424 1.582-1.075.076-3.671-1.507-2.578-8.16 5.636-18.619 6.62-26.577 12.622-.594.448-.901 1.19-.495 1.886.345.588 1.285.94 1.886.494M58.904 23.924a95 95 0 0 1 7.26-3.349c1.18-.483 2.372-.94 3.564-1.392 1.248-.473 2.673-.795 3.84-1.436.288-.159.535-.537.502-.876-.018-.188-.037-.347-.138-.512-.255-.415-.688-.544-1.145-.466-1.295.222-2.638.934-3.854 1.432-1.219.5-2.42 1.041-3.611 1.605a97 97 0 0 0-7.143 3.755c-.804.466-.094 1.658.725 1.24"/><path fill="#0b3335" d="M39.111 68.638c4.804 1.094 8.972 3.872 13.279 6.138a149 149 0 0 0 13.764 6.355c2.698 1.085 5.432 2.075 8.181 3.023 1.636.565 2.385-2.095.717-2.602-4.86-1.476-9.638-3.265-14.298-5.286-4.583-1.988-8.954-4.343-13.417-6.573-2.464-1.23-5.015-2.322-7.722-2.882-1.186-.246-1.699 1.554-.504 1.826M35.598 56.983c5.362 3.445 11.179 5.92 17.159 8.065 5.947 2.135 11.969 4.09 17.748 6.662a72 72 0 0 1 4.815 2.35q1.124.605 2.222 1.258c.813.484 1.596 1.154 2.544 1.304.915.144 1.881-.76 1.297-1.687-.835-1.323-2.692-2.084-4.038-2.822a67 67 0 0 0-4.22-2.116c-2.897-1.334-5.872-2.483-8.877-3.547-6.029-2.135-12.113-4.095-18.128-6.268-3.381-1.222-6.69-2.63-9.855-4.34-.75-.405-1.381.682-.667 1.141M39.154 46.248a214.4 214.4 0 0 1 34.863 16.775c3.142 1.879 6.07 4.075 9.122 6.092.737.488 1.81.146 2.239-.587.467-.8.152-1.75-.588-2.238-2.734-1.808-5.653-3.31-8.479-4.965a239 239 0 0 0-8.575-4.81 218 218 0 0 0-17.661-8.382 219 219 0 0 0-10.326-4.044c-1.36-.494-1.931 1.659-.595 2.159M48.441 39.412c10.696 3.597 20.392 9.652 31.178 13.013a51.7 51.7 0 0 0 9.218 1.987c.986.119.984-1.438 0-1.55-11.171-1.263-21.195-6.797-31.381-11.13-2.87-1.22-5.771-2.362-8.74-3.317-.636-.204-.902.786-.275.997M55.408 28.968c7.366 4.476 15.26 8.024 23.472 10.639 1.444.46 2.077-1.835.626-2.27-8.074-2.418-15.81-5.853-23.055-10.154-1.147-.68-2.179 1.094-1.043 1.785M60.583 15.264q3.561 3.206 7.142 6.39c2.392 2.128 4.874 4.15 7.337 6.195.655.544 1.59.642 2.233 0 .549-.55.672-1.7 0-2.233-2.575-2.038-5.129-4.103-7.771-6.053a1621 1621 0 0 0-7.828-5.742c-.842-.614-1.883.75-1.113 1.443"/><path fill="#0b3335" d="M57.266 78.837c3.672 0 3.702-3.151 0-3.151-3.672 0-3.703 3.15 0 3.15M46.8 72.651c.227 0 3.152-.097 3.062-.365-.167-.496-2.784-.366-3.062-.366-.227 0-3.152.097-3.062.366.167.496 2.784.365 3.062.365M58.81 69.115c.755 0 3.062-.14 3.062-1.29 0-1.139-2.386-1.29-3.062-1.29-.755 0-3.062.14-3.062 1.29 0 1.139 2.385 1.29 3.062 1.29"/><path fill="#0b3335" d="M46.543 73.202c.785 0 3.062-.166 3.062-1.344 0-1.17-2.35-1.345-3.062-1.345-.786 0-3.062.166-3.062 1.344 0 1.17 2.35 1.345 3.062 1.345M42.51 62.487c3.662 0 3.695-3.049 0-3.049-3.66 0-3.693 3.048 0 3.048M56.751 55.379c.7 0 3.062-.098 3.062-1.193 0-1.082-2.45-1.193-3.062-1.193-.7 0-3.062.098-3.062 1.193 0 1.082 2.45 1.193 3.062 1.193M45.084 50.134c.646 0 3.062-.06 3.062-1.096 0-1.02-2.515-1.095-3.062-1.095-.645 0-3.062.06-3.062 1.095 0 1.021 2.516 1.096 3.062 1.096M68.675 50.043c.642 0 3.062-.058 3.062-1.09 0-1.017-2.519-1.09-3.062-1.09-.643 0-3.062.058-3.062 1.09 0 1.017 2.519 1.09 3.062 1.09M56.494 44.966c.827 0 3.062-.202 3.062-1.418 0-1.207-2.302-1.417-3.062-1.417-.827 0-3.062.202-3.062 1.417 0 1.207 2.301 1.418 3.062 1.418M58.553 32.562c.439 0 3.16-.026 3.062-.852-.103-.87-2.579-.852-3.062-.852-.44 0-3.16.026-3.062.852.102.87 2.578.852 3.062.852M70.048 38.35c.82 0 3.062-.197 3.062-1.407 0-1.201-2.309-1.407-3.062-1.407-.822 0-3.062.197-3.062 1.407 0 1.202 2.308 1.407 3.062 1.407M71.935 27.443c.765 0 3.062-.15 3.062-1.309 0-1.149-2.374-1.308-3.062-1.308-.765 0-3.062.148-3.062 1.308 0 1.149 2.373 1.308 3.062 1.308M65.844 22.872c.994 0 3.062-.37 3.062-1.714 0-1.341-2.11-1.714-3.062-1.714-.994 0-3.062.37-3.062 1.714 0 1.342 2.111 1.714 3.062 1.714M86.003 56.383c.784 0 3.063-.164 3.063-1.34 0-1.166-2.353-1.34-3.063-1.34-.783 0-3.062.164-3.062 1.34 0 1.166 2.353 1.34 3.062 1.34M71.935 63.273c.391 0 3.164-.017 3.062-.766-.11-.807-2.624-.766-3.062-.766-.392 0-3.165.017-3.062.766.11.807 2.624.766 3.062.766M70.305 73.709c3.658 0 3.691-3.018 0-3.018-3.658 0-3.691 3.018 0 3.018"/><path fill="#009345" d="M25.795 88.851c-3.096.379-6.187-1.231-8.424-3.545s-3.759-5.273-5.202-8.207c-1.005-2.043-2.002-4.144-2.318-6.419-.318-2.29.075-4.61.427-6.891 1.027-6.666 1.78-13.615 5.08-19.383s10.054-9.987 16.09-7.727c1.377-2.447 3.39-4.485 5.76-5.835.815-.463 1.728-.856 2.647-.712 1.492.235 2.458 1.752 3.232 3.126l3.493 6.204c4.177 7.418 8.46 15.172 9.142 23.757.534 6.723-1.287 13.612-5.034 19.042-.968 1.402-2.065 2.716-3.355 3.789-3.94 3.273-9.21 3.984-14.198 4.578-3.959.471-8.36.823-11.55-1.727z"/><path fill="#0b3335" d="M15.74 85.807c-5.824-8.82-7.899-19.864-5.363-30.032a36.4 36.4 0 0 1 6.204-13.074c1.348-1.806 3.07-3.631 4.842-5.17.932-.809 1.75-1.474 2.814-2.138.454-.282.913-.539 1.429-.681.305-.085.49-.109.8-.103.386.008.262-.002.636.104.379.107.658.245 1.105.537.408.267.816.64 1.235 1.075.847.878 1.46 1.76 2.158 2.78a130 130 0 0 1 4.417 6.913c2.812 4.726 5.354 9.687 7.256 14.697.985 2.595 1.871 5.216 2.546 7.91.673 2.691 1.191 5.347 1.353 7.99.09 1.465.068 2.842-.254 4.18a11 11 0 0 1-.522 1.63c.123-.3-.006.006-.03.055q-.084.177-.17.352a12 12 0 0 1-.957 1.582c-.047.067-.298.402-.09.135q-.12.153-.246.301-.564.672-1.207 1.27-.321.299-.66.58c-.034.028-.348.282-.176.146.21-.165-.3.22-.263.194q-.715.513-1.488.933-.386.21-.78.4c-.087.042-.831.367-.481.225-.57.231-1.153.437-1.747.6-1.354.374-2.467.457-3.993.42-1.46-.035-2.91-.21-4.358-.377-1.307-.152-2.677-.399-3.995-.351-.32.011.838.125.324.043q-.324-.051-.646-.107a36 36 0 0 1-1.93-.398 32 32 0 0 1-2.473-.679 25 25 0 0 1-1.228-.427c-.192-.072-.382-.15-.572-.225.577.23-.175-.084-.312-.15-.935-.443-2.01-.924-3.077-.916l.805.218c-.215-.148-.458-.252-.68-.39-.336-.209-.209-.209-.598-.397l.444.444zc-.393-.54-1.075-.806-1.693-.444-.533.311-.84 1.15-.444 1.693-.184-.252.17.368.21.444q.09.164.19.323c.202.322.434.674.711.93l-.41-.704c.296 1.168 1.388 2.153 2.403 2.68.984.511 2.018.938 3.06 1.315 1.482.537 3.01.96 4.553 1.284 1.935.405 3.952.351 5.919.505 3.165.249 6.424.363 9.463-.72 5.017-1.789 9.612-5.636 11.042-10.926.874-3.232.484-6.618-.039-9.871a59 59 0 0 0-2.057-8.544c-1.812-5.68-4.457-11.066-7.475-16.196-1.49-2.534-3.085-5.002-4.727-7.439-1.551-2.302-3.009-4.853-5.074-6.743-1.003-.918-2.193-1.727-3.533-2.046-1.573-.375-3.11-.078-4.542.628-1.28.63-2.43 1.576-3.53 2.474a34 34 0 0 0-2.836 2.602c-3.757 3.858-6.616 8.512-8.516 13.542-4.03 10.667-2.965 23.066 2.819 32.91a38 38 0 0 0 2.369 3.552c.4.535 1.07.81 1.693.444.554-.323.814-1.133.444-1.693"/><path fill="#0b3335" d="M32.046 35.249c1.453-2.658 4.589-7.61 7.993-4.64 1.65 1.439 2.806 3.497 3.934 5.345 1.287 2.108 2.567 4.23 3.731 6.408 2.266 4.24 4.031 8.706 5.063 13.409.904 4.12 1.115 8.747.413 12.873-.39 2.298-1.09 4.798-1.983 6.772a25 25 0 0 1-1.742 3.21c-.705 1.096-1.448 1.832-2.06 2.978-.702 1.312.792 3.136 2.18 2.18 1.974-1.358 3.337-3.812 4.376-5.935a30.4 30.4 0 0 0 2.384-6.826c1.073-4.88 1.072-9.931.176-14.837-.963-5.28-3.015-10.345-5.543-15.06a62 62 0 0 0-4.208-6.801c-1.434-2.003-2.812-4.268-4.763-5.816-2.13-1.691-4.91-2.091-7.243-.527-2.165 1.452-3.56 3.82-4.683 6.112-.642 1.31 1.262 2.46 1.975 1.155"/></svg>