<svg width="100" height="100" viewBox="0 0 100 100" fill="none" xmlns="http://www.w3.org/2000/svg">
<path d="M66.7944 85.149C75.8127 81.0792 83.0624 73.5931 86.5838 64.7143L84.6192 63.31C88.1474 56.8873 89.9835 49.6338 89.9263 42.3893C89.9227 41.9321 89.3543 41.6878 88.984 41.9795L86.0735 44.2725C86.0677 38.0947 85.8324 33.3316 84.9031 27.4453C84.8298 26.9808 84.2551 26.7727 83.8711 27.0684C83.259 27.5397 82.4386 27.7182 81.6085 28.4626C80.3732 21.5569 76.8633 15.0349 71.695 10.0414C71.2692 9.63004 70.8003 9.2117 70.2077 9.08628C69.5446 8.94592 68.8656 9.20038 68.2479 9.46904C61.6043 12.3587 56.1241 17.5928 53.1164 23.9213L51.4677 21.5415C50.8856 20.7011 49.5616 20.7541 49.0707 21.6456C46.9206 25.5497 44.5422 29.3403 41.95 32.9937L38.7258 31.7757C36.5339 38.0074 35.6638 44.6552 36.1721 51.2077C36.2457 52.1572 35.1627 52.7855 34.3027 52.2971C33.4954 51.8386 32.7821 51.23 32.2248 50.5096C32.6569 55.7324 33.6469 60.9133 35.1746 65.9469L32.6415 65.684C31.7731 65.5939 31.2097 66.5342 31.7342 67.1981C35.8363 72.3907 40.5718 77.1952 46.3827 80.5778C52.8408 84.3373 60.7906 86.1929 68.1284 84.4121L66.7944 85.149Z" fill="#009345"/>
<path d="M63.7434 87.5604C62.5351 87.3727 61.3756 87.0992 60.163 86.9587C59.3097 86.8599 58.1437 86.64 57.1626 86.389C54.9307 85.8178 52.9617 85.1613 51.076 84.2188C46.9533 82.1583 43.7387 79.5928 40.8389 75.9586C40.5591 75.6079 40.7236 75.8078 40.7823 75.886C40.671 75.7377 40.5605 75.5889 40.4517 75.4388C40.2558 75.1686 40.0646 74.8952 39.8785 74.6183C39.5268 74.0952 39.1931 73.5602 38.8779 73.0143C38.5625 72.468 38.2657 71.9109 37.9893 71.3439C37.859 71.0766 37.7368 70.8058 37.612 70.536C37.4229 70.127 37.5353 70.3687 37.5745 70.461C37.4871 70.2554 37.4063 70.047 37.3248 69.8391L35.7462 72.6194C36.636 72.2857 37.4917 71.86 38.3547 71.4629C39.3313 71.0135 39.7323 69.4305 39.1146 68.565C38.2684 67.3795 37.6866 65.88 37.1667 64.5384C36.5778 63.0188 36.0902 61.4602 35.7069 59.8762C34.9545 56.7669 34.7677 53.8523 34.7612 50.6218L31.9626 52.7536C32.7791 53.0233 33.6094 53.2683 34.4115 53.5786C35.6878 54.0724 37.0718 52.8153 37.0537 51.5658C36.9633 45.3235 38.9543 39.2915 42.6979 34.2081L39.5263 34.6168L41.3743 36.3233C42.2414 37.124 43.9513 37.1425 44.5207 35.9179C45.6649 33.4568 47.0533 31.0987 48.7076 28.9444C49.4643 27.9591 50.286 27.0192 51.1468 26.1238C51.3056 25.9586 51.6022 25.773 51.7636 25.7301C51.8734 25.6943 51.985 25.6651 52.0982 25.6425C51.8603 25.6691 51.8492 25.6784 52.0649 25.6703C51.6592 25.6242 51.2914 25.4098 51.1548 24.9876C51.6629 26.558 53.7568 26.8651 54.6444 25.4437C56.2861 22.8144 58.0788 20.2814 60.0513 17.8894C61.0741 16.6492 62.1374 15.4427 63.2392 14.2722C64.2077 13.2431 65.1865 12.0979 66.3837 11.3268C67.2986 10.7374 68.1799 10.4142 68.9799 11.0574C70.023 11.896 70.7985 13.2535 71.5221 14.3668C73.1924 16.9366 74.6559 19.64 75.8994 22.4414C77.2707 25.531 78.3898 28.7349 79.2309 32.0087C79.5214 33.1399 81.111 33.9697 82.145 33.1942C83.2904 32.3354 84.2938 31.4281 85.2787 30.3891L82.5798 29.6765C83.4127 32.7302 84.1322 35.819 84.7435 38.9246C85.3547 42.0301 85.7822 45.1673 86.3366 48.2832C86.5545 49.5082 87.9871 49.7537 88.9204 49.3344C89.6523 49.0055 90.3684 48.5149 91.1272 48.2592L89.1756 46.7726C89.2687 48.3741 89.1937 49.9508 89.1404 51.5502C89.0906 53.043 89.0278 54.6366 88.8089 56.0446C88.5721 57.5682 88.2698 59.1169 87.7817 60.5821C87.2214 62.2639 86.5266 63.4083 85.8393 65.1538C85.4391 66.1701 86.0959 67.6229 87.0424 68.1104C88.4776 68.8495 89.8411 68.962 91.4161 68.7143L88.2537 65.5519C87.9369 66.9378 87.5275 68.2993 87.0154 69.6259C86.9584 69.7734 86.8991 69.92 86.841 70.0671C86.8038 70.1611 86.6326 70.5398 86.8383 70.0787C86.71 70.3662 86.5837 70.6543 86.4494 70.939C86.1469 71.5803 85.8219 72.2111 85.4745 72.8292C84.7779 74.0687 83.9947 75.2604 83.1303 76.3894C83.5044 75.9008 82.9463 76.6023 82.8426 76.7287C82.6424 76.9726 82.4455 77.219 82.2408 77.4592C81.7802 77.9994 81.3008 78.5238 80.8029 79.0297C80.3324 79.5077 79.846 79.9698 79.3442 80.4148C79.0785 80.6504 78.8085 80.8812 78.5344 81.107C78.4125 81.2074 78.2891 81.3057 78.1663 81.405C77.6812 81.7975 78.5601 81.1153 78.0142 81.5241C76.8781 82.3746 75.7045 83.1613 74.4618 83.8491C73.7922 84.2197 73.1078 84.5639 72.4113 84.8809C72.2565 84.9513 72.1007 85.0194 71.9452 85.0882C72.05 85.0418 72.4461 84.8879 71.9272 85.0938C71.5313 85.251 71.1341 85.4042 70.7328 85.5473C69.3695 86.0335 67.9737 86.4269 66.5554 86.7162C66.1388 86.8012 65.7204 86.8775 65.3006 86.9447C65.1328 86.9715 64.9647 86.9969 64.7964 87.0211C65.3989 86.9344 64.652 87.035 64.5235 87.0488C63.6767 87.1403 62.8262 87.1961 61.9747 87.2153C60.2843 87.2536 58.571 87.1656 56.8907 86.9815C55.6182 86.8421 54.5077 88.0723 54.3532 89.2217C54.1911 90.4283 54.9427 91.7798 56.2038 92.0564C62.9002 93.5251 69.9795 92.4008 76.1427 89.502C81.8766 86.8052 86.6598 82.219 89.7135 76.6777C91.3856 73.6433 92.6005 70.3302 93.2116 66.9186C93.5659 64.9413 92.0704 63.3394 90.0492 63.7562C90.3283 63.7418 90.3122 63.7359 90.0009 63.7384C90.2384 63.7852 90.2645 63.7882 90.0791 63.7475C89.9586 63.723 89.8404 63.6897 89.7246 63.6475C89.9693 63.7513 89.9561 63.7318 89.6851 63.589L90.6244 67.171C91.3805 65.5152 91.793 63.7086 92.1456 61.9273C92.4954 60.1604 92.8346 58.4091 93.0148 56.6137C93.1784 54.9841 93.2512 53.3236 93.1575 51.6872C93.0553 49.9016 92.6536 48.09 92.204 46.3626C91.9305 45.3122 90.822 45.0511 89.9391 45.4411C89.2159 45.7606 88.3247 45.8688 87.5651 46.1195L89.7915 47.8155C89.2299 41.383 87.5844 34.9772 85.694 28.8179C85.3752 27.7793 84.2654 27.3731 83.322 27.8528C82.1999 28.4233 81.1528 29.0178 80.1426 29.7683L83.0568 30.9538C81.3802 24.3042 78.5203 18.0414 74.619 12.4025C73.6951 11.067 72.8 9.54619 71.5843 8.45305C70.1847 7.19462 68.3668 6.68528 66.5309 7.19664C64.8286 7.67076 63.3795 8.84033 62.1395 10.0555C60.894 11.2762 59.7018 12.5546 58.5527 13.8662C55.9055 16.8879 53.4936 20.1208 51.3475 23.5163L54.837 23.9724C54.2685 22.1814 52.4789 21.4927 50.7457 22.0369C49.1479 22.5386 48.0749 23.7103 47.0041 24.9329C44.6323 27.6411 42.6205 30.6505 41.0613 33.8955L44.2077 33.49L42.3824 31.7608C41.3509 30.7836 39.9989 31.1272 39.2108 32.1695C35.034 37.6932 32.8254 44.6539 32.8792 51.5657L35.5215 49.5529C34.8927 49.3048 34.2821 48.9919 33.6665 48.7127C32.1266 48.0142 30.4247 48.8373 30.3397 50.6216C30.1753 54.0788 30.7006 57.678 31.5568 61.0202C31.9727 62.6435 32.4981 64.2392 33.1305 65.7911C33.4728 66.6309 33.831 67.4648 34.2223 68.2829C34.6118 69.0972 35.1043 69.8744 35.4571 70.7029L36.7229 67.5915C35.9972 67.807 35.253 67.9926 34.5447 68.2603C33.498 68.6559 32.4846 69.8201 32.9661 71.0407C36.7246 80.5682 45.1109 87.771 55.1345 89.9837C56.5282 90.2913 57.9637 90.4693 59.3876 90.5604C60.1651 90.6102 60.9766 90.6847 61.7397 90.5246C62.407 90.3846 63.0796 90.2557 63.7437 90.0932C64.9338 89.8019 65.0561 87.7644 63.7434 87.5604Z" fill="#0B3335"/>
<path d="M45.652 82.0534C54.9872 78.0021 64.3944 74.1176 73.8685 70.4025C76.5626 69.3461 79.2623 68.3038 81.9668 67.2742C82.575 67.0426 82.9932 66.4616 82.8089 65.7911C82.649 65.2092 81.9373 64.7152 81.3258 64.9489C71.6748 68.639 62.0911 72.5027 52.5774 76.5337C49.867 77.6821 47.1626 78.845 44.4639 80.0208C43.8767 80.2767 43.754 81.1256 44.0417 81.6311C44.3865 82.2371 45.0723 82.305 45.652 82.0534Z" fill="#0B3335"/>
<path d="M39.4561 75.5877C44.6611 72.1103 50.7769 70.1785 56.5859 67.9804C62.9752 65.5626 69.2898 62.9447 75.5174 60.1367C79.0126 58.5608 82.4789 56.922 85.9171 55.2255C87.3071 54.5397 86.0869 52.4502 84.7001 53.1434C78.5477 56.2188 72.3017 59.1057 65.9681 61.7884C62.801 63.13 59.6104 64.4169 56.4015 65.6552C53.4524 66.7933 50.4699 67.8499 47.5532 69.0703C44.2839 70.4381 41.2546 72.103 38.482 74.3254C37.7726 74.894 38.7003 76.0927 39.4561 75.5877Z" fill="#0B3335"/>
<path d="M36.9945 63.8128C48.2536 57.5824 59.8278 51.925 71.6666 46.8819C73.3543 46.1629 75.0498 45.4626 76.7503 44.7742C77.5565 44.4478 78.3638 44.1243 79.1723 43.8035C80.0619 43.4507 81.043 43.1769 81.8303 42.6258C82.8818 41.89 82.2083 40.4528 80.9898 40.632C80.2231 40.7448 79.5205 41.102 78.8074 41.3954C78.0018 41.727 77.1973 42.0614 76.394 42.3985C74.9192 43.0175 73.4488 43.6469 71.9799 44.2799C69.0057 45.5615 66.0482 46.8817 63.1084 48.2402C57.2279 50.9577 51.4177 53.8274 45.6861 56.8466C42.4348 58.5592 39.2094 60.3208 36.0092 62.1272C34.9145 62.7452 35.8938 64.4219 36.9945 63.8128Z" fill="#0B3335"/>
<path d="M38.9014 51.7938C49.9571 46.2209 61.0978 40.7928 72.3271 35.5781C75.5291 34.0911 78.7401 32.6241 81.9596 31.1753C82.61 30.8826 82.7661 29.9376 82.4333 29.3686C82.0424 28.7003 81.2789 28.5999 80.6266 28.8948C69.3517 33.9927 58.1398 39.266 47.1452 44.9458C44.0107 46.5651 40.8862 48.2038 37.7712 49.8603C36.4934 50.5399 37.6204 52.4395 38.9014 51.7938Z" fill="#0B3335"/>
<path d="M46.0787 37.4599C54.0818 31.5211 64.5601 30.614 72.7715 25.0361C74.3544 23.9609 72.848 21.3647 71.2647 22.4583C63.1055 28.0936 52.6464 29.0786 44.6878 35.0803C44.0945 35.5277 43.7866 36.2699 44.1934 36.9655C44.5376 37.5539 45.4777 37.9059 46.0787 37.4599Z" fill="#0B3335"/>
<path d="M58.9037 23.9244C61.2773 22.7108 63.6965 21.5851 66.164 20.5753C67.3445 20.0922 68.5359 19.6356 69.7285 19.1832C70.9756 18.7101 72.4014 18.3877 73.5679 17.7466C73.856 17.5883 74.1026 17.21 74.0701 16.8711C74.052 16.6831 74.0328 16.5242 73.9316 16.3593C73.6765 15.9436 73.2436 15.815 72.7865 15.8933C71.4923 16.115 70.149 16.8267 68.9335 17.3249C67.7142 17.8247 66.5132 18.3663 65.322 18.9297C62.8891 20.0804 60.5082 21.3365 58.1792 22.685C57.375 23.1507 58.0849 24.3431 58.9037 23.9244Z" fill="#0B3335"/>
<path d="M39.1113 68.6375C43.9145 69.7324 48.0832 72.5103 52.3896 74.7757C56.8645 77.1297 61.4629 79.2446 66.1539 81.131C68.8523 82.2161 71.5858 83.2064 74.3351 84.1544C75.9713 84.7186 76.7201 82.0588 75.0524 81.5524C70.1914 80.0761 65.4137 78.2871 60.7536 76.2657C56.1714 74.278 51.7998 71.9232 47.3371 69.6934C44.873 68.4622 42.3225 67.3706 39.615 66.8105C38.4286 66.5651 37.9165 68.3652 39.1113 68.6375Z" fill="#0B3335"/>
<path d="M35.5984 56.983C40.9602 60.4276 46.7768 62.9025 52.7566 65.0484C58.704 67.1825 64.726 69.1379 70.5053 71.7097C72.1373 72.436 73.7468 73.214 75.3199 74.0604C76.0693 74.4637 76.8106 74.8822 77.5417 75.3179C78.3547 75.8024 79.1375 76.4721 80.0859 76.6218C81.0015 76.7663 81.9674 75.8616 81.3827 74.935C80.548 73.6124 78.6907 72.8511 77.3445 72.1131C75.9644 71.3566 74.5547 70.6549 73.1251 69.9969C70.2277 68.6633 67.2531 67.5138 64.2476 66.4495C58.2194 64.3149 52.1355 62.3552 46.1201 60.1819C42.739 58.9604 39.4298 57.5525 36.2649 55.8428C35.5145 55.4374 34.8837 56.5238 35.5984 56.983Z" fill="#0B3335"/>
<path d="M39.1541 46.2477C51.2519 50.7731 62.9297 56.3962 74.0166 63.0234C77.1593 64.9019 80.0879 67.098 83.1388 69.1154C83.8762 69.603 84.949 69.2612 85.3775 68.5284C85.8454 67.7285 85.5296 66.7785 84.7905 66.2897C82.0561 64.4816 79.1368 62.9796 76.311 61.325C73.4818 59.6684 70.6313 58.0529 67.7361 56.5142C61.9791 53.4547 56.0828 50.6639 50.075 48.1327C46.6679 46.6973 43.2248 45.3497 39.7494 44.0886C38.3889 43.595 37.8177 45.7478 39.1541 46.2477Z" fill="#0B3335"/>
<path d="M48.441 39.4119C59.1374 43.0089 68.8331 49.0639 79.6187 52.4251C82.628 53.3628 85.7072 54.0364 88.837 54.4124C89.8228 54.5308 89.821 52.9735 88.837 52.8623C77.6658 51.5991 67.6424 46.0653 57.4558 41.7319C54.5869 40.5114 51.6847 39.3704 48.7157 38.4154C48.0797 38.2108 47.8139 39.201 48.441 39.4119Z" fill="#0B3335"/>
<path d="M55.4081 28.9677C62.774 33.4443 70.6684 36.9921 78.8797 39.607C80.3238 40.0668 80.9574 37.772 79.5055 37.3372C71.4323 34.9192 63.6963 31.4844 56.4513 27.1831C55.3042 26.5021 54.272 28.2772 55.4081 28.9677Z" fill="#0B3335"/>
<path d="M60.5832 15.264C62.9569 17.4018 65.3383 19.5305 67.7249 21.654C70.1168 23.7823 72.5988 25.8035 75.0617 27.8489C75.7173 28.3933 76.6525 28.491 77.2946 27.8489C77.8436 27.2999 77.9668 26.1482 77.2946 25.6161C74.7198 23.5779 72.1664 21.5131 69.5238 19.5634C66.9197 17.6422 64.3119 15.7269 61.6963 13.8213C60.8539 13.2075 59.8131 14.5705 60.5832 15.264Z" fill="#0B3335"/>
<path d="M57.2658 78.8366C60.9376 78.8366 60.968 75.686 57.2658 75.686C53.5939 75.686 53.5635 78.8366 57.2658 78.8366Z" fill="#0B3335"/>
<path d="M46.8 72.6512C47.0268 72.6512 49.9523 72.5541 49.8621 72.2858C49.6951 71.7896 47.0776 71.9204 46.8 71.9204C46.5733 71.9204 43.6477 72.0175 43.738 72.2858C43.905 72.782 46.5224 72.6512 46.8 72.6512Z" fill="#0B3335"/>
<path d="M58.8098 69.1151C59.5647 69.1151 61.8719 68.9747 61.8719 67.8249C61.8719 66.6861 59.4864 66.5347 58.8098 66.5347C58.0549 66.5347 55.7478 66.675 55.7478 67.8249C55.7478 68.9637 58.1333 69.1151 58.8098 69.1151Z" fill="#0B3335"/>
<path d="M46.5426 73.2019C47.3282 73.2019 49.6046 73.0361 49.6046 71.8575C49.6046 70.6889 47.255 70.5132 46.5426 70.5132C45.757 70.5132 43.4806 70.679 43.4806 71.8575C43.4806 73.0261 45.8302 73.2019 46.5426 73.2019Z" fill="#0B3335"/>
<path d="M42.5108 62.4865C46.1722 62.4865 46.2046 59.438 42.5108 59.438C38.8494 59.438 38.8169 62.4865 42.5108 62.4865Z" fill="#0B3335"/>
<path d="M56.751 55.3785C57.4509 55.3785 59.813 55.2807 59.813 54.1858C59.813 53.1039 57.3625 52.9932 56.751 52.9932C56.0511 52.9932 53.689 53.0909 53.689 54.1858C53.689 55.2677 56.1394 55.3785 56.751 55.3785Z" fill="#0B3335"/>
<path d="M45.0844 50.1338C45.7299 50.1338 48.1464 50.074 48.1464 49.0383C48.1464 48.0176 45.6312 47.9429 45.0844 47.9429C44.4388 47.9429 42.0223 48.0027 42.0223 49.0383C42.0223 50.0591 44.5376 50.1338 45.0844 50.1338Z" fill="#0B3335"/>
<path d="M68.6749 50.0431C69.3175 50.0431 71.737 49.9852 71.737 48.9529C71.737 47.9357 69.2182 47.8628 68.6749 47.8628C68.0323 47.8628 65.6129 47.9207 65.6129 48.9529C65.6129 49.9702 68.1317 50.0431 68.6749 50.0431Z" fill="#0B3335"/>
<path d="M56.4937 44.9658C57.3207 44.9658 59.5557 44.7637 59.5557 43.5483C59.5557 42.3414 57.2543 42.1309 56.4937 42.1309C55.6666 42.1309 53.4316 42.333 53.4316 43.5483C53.4316 44.7553 55.733 44.9658 56.4937 44.9658Z" fill="#0B3335"/>
<path d="M58.5525 32.5618C58.9915 32.5618 61.7122 32.5361 61.6145 31.7099C61.5118 30.8402 59.0364 30.8579 58.5525 30.8579C58.1135 30.8579 55.3929 30.8837 55.4905 31.7099C55.5932 32.5795 58.0686 32.5618 58.5525 32.5618Z" fill="#0B3335"/>
<path d="M70.0476 38.3501C70.8687 38.3501 73.1097 38.1532 73.1097 36.9431C73.1097 35.7415 70.8014 35.5361 70.0476 35.5361C69.2265 35.5361 66.9856 35.733 66.9856 36.9431C66.9856 38.1447 69.2938 38.3501 70.0476 38.3501Z" fill="#0B3335"/>
<path d="M71.9348 27.4425C72.7 27.4425 74.9969 27.2937 74.9969 26.1341C74.9969 24.9852 72.6234 24.8257 71.9348 24.8257C71.1696 24.8257 68.8728 24.9744 68.8728 26.1341C68.8728 27.283 71.2462 27.4425 71.9348 27.4425Z" fill="#0B3335"/>
<path d="M65.8443 22.8722C66.8381 22.8722 68.9063 22.502 68.9063 21.1583C68.9063 19.8168 66.7955 19.4443 65.8443 19.4443C64.8504 19.4443 62.7822 19.8145 62.7822 21.1583C62.7822 22.4998 64.893 22.8722 65.8443 22.8722Z" fill="#0B3335"/>
<path d="M86.0034 56.3831C86.7865 56.3831 89.0655 56.2194 89.0655 55.0431C89.0655 53.8769 86.713 53.7031 86.0034 53.7031C85.2204 53.7031 82.9414 53.8668 82.9414 55.0431C82.9414 56.2094 85.2939 56.3831 86.0034 56.3831Z" fill="#0B3335"/>
<path d="M71.9349 63.2734C72.3263 63.2734 75.0993 63.2557 74.9969 62.507C74.8866 61.7 72.3728 61.7406 71.9349 61.7406C71.5435 61.7406 68.7705 61.7583 68.8729 62.507C68.9832 63.314 71.497 63.2734 71.9349 63.2734Z" fill="#0B3335"/>
<path d="M70.3049 73.7089C73.9631 73.7089 73.9963 70.6914 70.3049 70.6914C66.6467 70.6914 66.6136 73.7089 70.3049 73.7089Z" fill="#0B3335"/>
<path d="M25.7945 88.8513C22.6987 89.2299 19.608 87.6196 17.3712 85.3063C15.1345 82.993 13.6123 80.0334 12.1692 77.0994C11.1644 75.0564 10.1666 72.9551 9.8509 70.6801C9.53311 68.3899 9.92611 66.0693 10.2777 63.789C11.3054 57.123 12.0584 50.1744 15.3586 44.4062C18.6587 38.638 25.4122 34.4191 31.4476 36.6786C32.8249 34.2322 34.8378 32.1936 37.2083 30.8444C38.0234 30.3805 38.9363 29.9879 39.8549 30.1325C41.3475 30.3674 42.3134 31.8843 43.0871 33.2583C44.2515 35.3263 45.4159 37.3941 46.5803 39.4621C50.7569 46.8796 55.0397 54.634 55.722 63.2192C56.2563 69.9417 54.4351 76.8305 50.6879 82.2611C49.7202 83.6634 48.6231 84.9772 47.3326 86.0498C43.3938 89.3233 38.1236 90.0345 33.1351 90.6282C29.1762 91.0994 24.7757 91.4513 21.5858 88.9013L25.7945 88.8513Z" fill="#009345"/>
<path d="M15.74 85.8071C9.91587 76.987 7.84095 65.9433 10.3765 55.7754C11.5602 51.0285 13.6353 46.6463 16.5811 42.7006C17.9293 40.8947 19.6501 39.0697 21.4233 37.5307C22.3547 36.7224 23.1731 36.0565 24.2372 35.3934C24.6906 35.1108 25.1498 34.8544 25.666 34.7118C25.9713 34.6274 26.1562 34.6032 26.4654 34.6093C26.8523 34.6169 26.7284 34.6074 27.1021 34.7129C27.4806 34.8198 27.7598 34.9578 28.207 35.2501C28.6149 35.5167 29.0232 35.8901 29.4423 36.3249C30.2888 37.2032 30.9027 38.0846 31.6 39.1042C33.145 41.3634 34.6176 43.666 36.0172 46.0184C38.8289 50.7441 41.3715 55.7054 43.2735 60.7154C44.2585 63.31 45.144 65.931 45.8186 68.6251C46.4925 71.316 47.0104 73.972 47.1724 76.6145C47.2622 78.0802 47.2402 79.4565 46.9184 80.7955C46.7851 81.3499 46.613 81.8967 46.3964 82.4244C46.519 82.1257 46.3898 82.4313 46.3658 82.4803C46.3086 82.5975 46.254 82.7158 46.1952 82.8322C46.0486 83.1221 45.8902 83.406 45.721 83.6833C45.569 83.9324 45.408 84.1758 45.2392 84.4137C45.1918 84.4806 44.9412 84.8158 45.1483 84.5485C45.069 84.6508 44.9858 84.751 44.9028 84.8502C44.528 85.298 44.1237 85.7219 43.6963 86.1199C43.4821 86.3194 43.262 86.5124 43.0366 86.6993C43.0018 86.7282 42.6876 86.9817 42.8603 86.846C43.0706 86.6807 42.5608 87.0658 42.5967 87.0399C42.1202 87.3831 41.6244 87.6924 41.1089 87.9735C40.8521 88.1136 40.5918 88.247 40.3283 88.3737C40.2425 88.415 39.4977 88.74 39.848 88.5978C39.2774 88.8294 38.6947 89.0353 38.1007 89.1988C36.747 89.5716 35.6341 89.6547 34.1076 89.6179C32.6489 89.5828 31.1981 89.4085 29.7501 89.2405C28.4433 89.0889 27.073 88.8423 25.7546 88.8898C25.4355 88.9013 26.5927 89.0149 26.0792 88.9327C25.8635 88.8982 25.6477 88.864 25.4326 88.8259C24.7858 88.7115 24.1424 88.5781 23.503 88.4283C22.6705 88.2332 21.8442 88.0099 21.0298 87.7492C20.617 87.6171 20.2071 87.4758 19.8018 87.3223C19.6102 87.2497 19.4204 87.1727 19.2302 87.0965C19.8074 87.3279 19.055 87.0128 18.9178 86.9476C17.9833 86.5038 16.9084 86.0234 15.8413 86.0314L16.6457 86.249C16.431 86.1007 16.1879 85.9971 15.9657 85.8589C15.6299 85.6501 15.7574 85.6501 15.368 85.4617L15.8119 85.9057L15.74 85.8071C15.3467 85.2679 14.665 85.0014 14.0467 85.3631C13.5144 85.6745 13.2067 86.5134 13.6027 87.0564C13.4189 86.8043 13.773 87.4239 13.8138 87.5003C13.8723 87.61 13.936 87.7172 14.0021 87.8225C14.2047 88.145 14.4371 88.4968 14.7142 88.7523L14.3043 88.049C14.6002 89.2174 15.6919 90.2025 16.7072 90.7295C17.6912 91.2404 18.7255 91.6665 19.7672 92.0441C21.2494 92.5813 22.7771 93.0043 24.3199 93.3275C26.2547 93.7329 28.2721 93.6793 30.2389 93.8335C33.404 94.0815 36.6629 94.1957 39.7022 93.1124C44.7188 91.3243 49.3141 87.4765 50.7443 82.1872C51.6183 78.9553 51.2278 75.5688 50.7054 72.3159C50.2404 69.4206 49.5394 66.5654 48.6482 63.7723C46.8361 58.0929 44.1908 52.7055 41.1729 47.5756C39.6825 45.0422 38.0883 42.5744 36.4461 40.1372C34.8947 37.8349 33.437 35.2842 31.3716 33.3938C30.3689 32.476 29.1794 31.6672 27.8393 31.3478C26.2663 30.9728 24.7296 31.2696 23.2971 31.976C22.0176 32.6069 20.8671 33.5522 19.7677 34.4501C18.7734 35.2622 17.8267 36.1323 16.9311 37.0519C13.1736 40.9104 10.3155 45.5644 8.41498 50.5937C4.3841 61.2609 5.44964 73.6602 11.2339 83.504C11.9557 84.7324 12.749 85.9159 13.6027 87.0564C14.0027 87.5906 14.6726 87.8651 15.296 87.5004C15.8496 87.1766 16.1099 86.3673 15.74 85.8071Z" fill="#0B3335"/>
<path d="M32.0462 35.2487C33.4993 32.5907 36.635 27.6389 40.0391 30.6084C41.6892 32.0478 42.8449 34.1061 43.973 35.9542C45.2597 38.062 46.5397 40.1841 47.704 42.3624C49.9704 46.6029 51.735 51.0677 52.7671 55.7708C53.6715 59.8919 53.8818 64.5179 53.1805 68.6444C52.7899 70.942 52.0901 73.4418 51.1965 75.4163C50.6942 76.5261 50.1146 77.6013 49.4553 78.6258C48.7502 79.7215 48.0069 80.4585 47.3947 81.6037C46.6929 82.9162 48.1866 84.7402 49.5754 83.7844C51.5492 82.4262 52.9122 79.9717 53.9507 77.8489C55.0126 75.6785 55.8159 73.3822 56.335 71.0227C57.4085 66.1433 57.4068 61.0916 56.5114 56.1857C55.5479 50.9062 53.4958 45.8409 50.9681 41.1258C49.7051 38.7698 48.3169 36.4982 46.7602 34.325C45.3256 32.3224 43.9475 30.0566 41.9974 28.509C39.8661 26.8176 37.0867 26.4175 34.7544 27.9818C32.5891 29.434 31.1942 31.8017 30.0709 34.0941C29.4292 35.4035 31.3331 36.5532 32.0462 35.2487Z" fill="#0B3335"/>
</svg>
