<svg xmlns="http://www.w3.org/2000/svg" width="100" height="100" fill="none" viewBox="0 0 100 100"><g clip-path="url(#a)"><path fill="#009345" d="M77.387 15.222c6.51.364 11.411 6.286 14.045 12.377 2.094 4.845 3.296 10.162 2.961 15.46-.44 6.949-3.533 13.58-8.005 18.847-5.348 6.3-13.123 10.893-21.252 10.6-8.371-.303-16.148-5.995-19.728-13.729s-3.105-17.157.63-24.849c3.737-7.692 10.52-13.646 18.268-16.944 4.828-2.054 10.258-3.13 15.287-1.724z"/><path fill="#0b3335" d="M78.326 16.2c5.06.445 8.523 4.91 10.074 9.383 1.771 5.106 1.992 10.91 1.27 16.234-1.344 9.905-7.08 19.459-16.539 23.258-2.253.905-4.601 1.476-6.872 1.586-2.445.118-4.324-.111-6.628-.812-1.193-.362-1.954-.666-2.93-1.168a18.3 18.3 0 0 1-2.523-1.574c-.324-.246.198.162-.116-.096-1.923-1.583-3.166-3.207-4.163-5.502-2.102-4.837-2.373-10.375-1.993-15.597.36-4.947 1.721-10.218 3.843-14.752a44 44 0 0 1 3.976-6.834c1.378-1.941 3.07-4.038 4.997-5.479 4.482-3.35 9.957-2.064 14.873-.06 1.238.505 2.448 1.08 3.654 1.657 1.181.564 2.619.326 3.318-.87.612-1.047.324-2.766-.87-3.318-5.762-2.663-12.406-5.519-18.845-3.663-5.915 1.705-10.066 7.286-13.07 12.347-6.033 10.165-8.328 23.001-5.412 34.537 1.46 5.774 4.913 10.71 10.332 13.364 5.019 2.459 10.826 2.922 16.22 1.524C82.321 67.408 90.48 57.21 92.973 46c1.346-6.05 1.357-12.544-.054-18.586-1.357-5.813-4.807-11.248-10.628-13.347a12.2 12.2 0 0 0-3.966-.698c-1.848-.027-1.788 2.675 0 2.832"/><path fill="#0b3335" d="M51.412 61.82c-1.492-2.898-.96-6.325.556-9.1 1.7-3.114 4.478-5.26 7.334-7.262 3.001-2.103 5.865-4.197 8.127-7.122 2.188-2.827 3.935-6.032 5.29-9.335.778-1.896 1.401-3.876 1.656-5.914.24-1.92.258-4.348-.718-6.084l2.123-.922c1.983 3.61 3.216 7.537 3.407 11.668.188 4.046-.294 7.963-1.635 11.792-1.177 3.363-3.008 6.613-5.4 9.263-2.718 3.01-6.13 5.01-9.363 7.391a26 26 0 0 0-2.458 2.02q-.196.186-.387.377c.29-.293-.272.303-.268.299a16 16 0 0 0-.85 1.04c-.666.893-.807 1.145-1.265 2.155-.181.4-.303.815-.461 1.222-.23.589-.605 1.038-.938 1.563-.807 1.272-2.983.963-3.492-.413-.37-.996-.567-1.895-.318-2.944.237-1.002.546-1.935 1.042-2.836.945-1.717 2.14-3.169 3.546-4.532 2.762-2.68 6.233-4.464 9.16-6.941a23 23 0 0 0 1.467-1.352c-.084.086-.277.301.084-.096a28 28 0 0 0 1.751-2.087q.694-.929 1.299-1.918c.37-.605.616-1.068 1.024-1.934 1.575-3.346 2.28-6.378 2.568-10.144a36 36 0 0 0-.066-6.19c-.22-2.265-.324-4.523-.653-6.78-.183-1.248 1.811-1.9 2.206-.623.563 1.822 1.058 3.422 1.004 5.36-.051 1.812-.458 3.6-1.009 5.32-1.093 3.419-2.78 6.732-4.693 9.762-1.894 3-4.23 5.726-7.02 7.93-2.832 2.237-6.132 4.037-8.537 6.773-2.289 2.604-3.891 6.439-2.172 9.75.628 1.21-1.32 2.049-1.941.843"/><path fill="#009345" d="M18.248 38.113c-5.31 2.592-7.187 9.484-7.103 15.73.067 4.969 1.058 10.038 3.327 14.554 2.976 5.922 8.054 10.64 13.772 13.683C35.082 85.72 43.31 87.02 50 83.924c6.89-3.19 11.258-10.884 11.35-18.898s-3.843-16.087-9.857-21.508-13.922-8.257-21.642-8.434c-4.81-.11-9.756.847-13.436 3.833z"/><path fill="#0b3335" d="M13.755 41.206c-5.512 2.43-8.284 8.695-8.19 14.465.1 6.148 2.351 12.453 5.37 17.757 5.899 10.363 16.952 18.058 29.199 17.548 5.778-.24 11.427-2.383 15.658-6.38 4.416-4.172 6.588-9.99 6.034-16.035-1.048-11.42-7.576-22.441-16.299-29.715-2.17-1.81-4.483-3.455-6.945-4.847-2.967-1.678-6.122-3.08-9.554-3.37-6.115-.518-11.385 3.354-15.495 7.434-1.007.999-1.972 2.039-2.925 3.089-.88.97-.958 2.472 0 3.43.883.883 2.558.984 3.429 0 1.763-1.994 3.573-3.96 5.62-5.668a20 20 0 0 1 2.816-1.967c1.156-.669 1.88-.994 3.154-1.33.293-.077.59-.135.886-.201-.017.004.403-.072.202-.04-.234.035.296-.033.338-.036.706-.063 1.424-.07 2.13.002 1.296.135 2.666.576 3.891 1.087 2.368.988 4.618 2.363 6.715 3.833 7.867 5.516 13.87 14.018 16.423 23.341.78 2.845 1.271 5.752 1 8.709-.11 1.196-.439 2.389-.863 3.51q-.065.173-.135.346c.113-.273-.05.102-.062.128-.125.26-.248.52-.383.775q-.432.823-.95 1.593c-2.415 3.587-6.503 6.277-10.827 7.378-10.242 2.608-20.903-2.6-27.097-10.83-3.197-4.247-5.49-9.188-6.76-14.344-1.235-5.009-1.34-11.044 2.341-15.112a9.8 9.8 0 0 1 2.708-2.105c.675-.358.882-1.296.508-1.937-.422-.721-1.235-.817-1.937-.508"/><path fill="#0b3335" d="M15.661 42.895c-1.071 3.077-.064 6.396 1.825 8.932 2.119 2.845 5.17 4.581 8.278 6.163 3.266 1.662 6.395 3.335 9.045 5.914 2.561 2.493 4.74 5.422 6.544 8.503 1.036 1.769 1.93 3.641 2.468 5.624.507 1.866.864 4.269.14 6.125l2.232.615c1.458-3.852 2.128-7.913 1.74-12.03-.38-4.032-1.407-7.843-3.27-11.447-1.636-3.165-3.904-6.127-6.643-8.416-3.113-2.6-6.772-4.102-10.306-6.007a26 26 0 0 1-2.716-1.657q-.221-.156-.437-.318c.328.25-.312-.263-.307-.259q-.514-.434-.988-.912c-.784-.79-.959-1.02-1.554-1.955-.235-.37-.413-.765-.627-1.145-.31-.551-.744-.944-1.148-1.417-.977-1.146-3.088-.536-3.4.898-.226 1.038-.295 1.955.098 2.96.375.958.81 1.839 1.428 2.661 1.177 1.568 2.564 2.839 4.146 3.992 3.11 2.267 6.797 3.547 10.042 5.59a23 23 0 0 1 1.642 1.133c-.096-.074-.317-.26.096.083.701.58 1.384 1.175 2.026 1.821a25 25 0 0 1 1.555 1.718c.45.547.76.97 1.284 1.771 2.028 3.093 3.151 5.996 3.963 9.685.444 2.016.71 4.077.801 6.139.1 2.273.313 4.523.303 6.804-.006 1.262 2.06 1.628 2.272.308.302-1.883.568-3.536.243-5.448-.304-1.786-.958-3.5-1.743-5.127-1.561-3.23-3.696-6.275-6.014-9.008-2.295-2.706-4.99-5.078-8.06-6.869-3.118-1.819-6.638-3.139-9.402-5.511-2.63-2.258-4.754-5.831-3.516-9.35.453-1.287-1.594-1.844-2.04-.563"/></g><defs><clipPath id="a"><path fill="#fff" d="M5.562 8h88.887v83H5.562z"/></clipPath></defs></svg>