<svg xmlns="http://www.w3.org/2000/svg" fill="none" viewBox="0 0 100 100">
  <g clip-path="url(#a)">
    <path fill="#009345" d="M40.2488 66.6063c-4.6039-2.6116-10.1284-2.7897-15.3582-3.6056-2.729-.4259-5.6357-1.1621-7.4059-3.2823-.7424-.8892-1.2372-2.1581-.7359-3.2025.759-1.5817 3.1382-1.4644 4.6189-.5235 1.4806.9409 2.6179 2.4325 4.2578 3.0559 2.9111 1.1067 6.337-1.2677 7.0326-4.3034s-.8154-6.2445-3.097-8.3642c-2.2817-2.1197-5.2326-3.3483-8.1445-4.4529-2.2789-.8645-5.0421-2.3889-4.7357-4.8069.2419-1.9095 2.5345-3.0066 4.4212-2.6262 1.8868.3803 3.3838 1.7899 4.6579 3.2325 3.3958 3.8451 6.422 8.6527 11.3809 9.9664.539.1428 1.1299.2352 1.6403.0103 1.3103-.5774 1.029-2.5133.4316-3.8147-2.1243-4.6285-5.4372-8.5889-8.2268-12.8496s-5.1304-9.1147-4.9035-14.2024c.0138-.3089.0422-.6332.2142-.8902.7097-1.0607 2.2729.2576 2.6839 1.4658.7788 2.2898 1.1317 4.756 2.3545 6.8427 1.2229 2.0867 3.7246 3.7308 6.0117 2.9441 2.971-1.0222 3.4027-5.15 2.3926-8.1251-.5024-1.4793-1.1831-3.2458-.2116-4.4694.408-.5138 1.047-.8048 1.6944-.9114 3.1006-.5106 5.5981 2.9767 5.5471 6.1187-.0511 3.1419-1.7216 5.9886-2.8698 8.9136-1.1041 2.8123-1.7464 5.8053-1.8935 8.823-.078 1.6019.0153 3.3148.9368 4.6274s2.9318 1.9652 4.1808.9591c1.2684-1.0219 1.0832-2.9477 1.21-4.5716.1267-1.6239 1.4166-3.5909 2.9298-2.9883.4449.1772.7808.5536 1.0446.9532 1.3086 1.9818 1.1303 4.6593.1499 6.8223-.9804 2.1629-2.6503 3.9254-4.2897 5.6435-1.608 1.6852-3.216 3.3704-4.824 5.0557-.7244.7593-1.4673 1.5473-1.8352 2.5301-.8471 2.2636.5486 4.76 2.2539 6.4726 2.0046 2.0131 5.0021 3.5674 7.6338 2.4978 2.3834-.9687 3.5298-3.7337 3.7509-6.297.221-2.5632-.2275-5.1619.1349-7.709.1149-.8072.338-1.6515.9323-2.2097.9084-.8532 2.4798-.7071 3.394.1398s1.2169 2.2122 1.0146 3.442c-.167 1.0152-.6378 1.9724-.7074 2.9989-.0697 1.0264.4638 2.2297 1.4813 2.3823.6948.1043 1.3585-.3146 1.8812-.7841 4.2604-3.8276 3.1467-10.7665.9017-16.0354-2.2449-5.2689-5.3488-10.8165-3.949-16.37.1769-.7014.5117-1.4736 1.2023-1.6889 1.1714-.3649 2.0403 1.0904 2.3544 2.2765.646 2.4396 1.0324 4.9478 1.1503 7.4687.093 1.9888.5933 4.6434 2.5809 4.7604 1.4844.0874 2.5301-1.5116 2.7508-2.9821s-.0321-3.0178.4558-4.4225c.5876-1.6915 2.3031-2.9248 4.0936-2.9429 1.7906-.0181 3.5307 1.18 4.1525 2.8593.7813 2.11-.1564 4.4707-1.4041 6.3431s-2.8385 3.5701-3.5747 5.6963-.2662 4.9273 1.757 5.9116c2.1752 1.0582 5.0936-.4076 7.0672.991 1.9211 1.3613 1.3955 4.5345-.2879 6.1807-1.6835 1.6463-4.0666 2.2993-6.1873 3.3223-2.1208 1.023-4.23 2.8068-4.2772 5.1609-.0178.8852.2658 1.7699.1384 2.6461-.2738 1.8839-2.3482 3.0089-4.2487 3.1161s-3.7705-.487-5.6716-.5852c-3.2334-.167-6.5131 1.1934-8.679 3.6-.8607.9562-1.6462 2.1293-2.8874 2.4678-2.3812.6497-4.1613-2.0298-5.6759-3.9786-2.3135-2.9768-.1879-2.0912-4.7918-4.7029"/>
    <path fill="#0b3335" d="M44.6641 81.7654c1.1862-1.3903 1.792-3.0951 1.9248-4.906l-.1257.4648c.2179-.3323.1585-.6919.1472-1.0607-.008-.2618-.0102-.5223-.0314-.7837-.0473-.5839-.1338-1.169-.2641-1.7403-.2448-1.0726-.6555-2.1191-1.1781-3.0861-1.1528-2.1328-2.9862-3.8257-5.0078-5.126-1.2302-.7914-2.553-1.4008-3.904-1.9544l.8925.5202c-.4286-.4034-.921-.5716-1.4617-.7408-.2768-.0866-.5546-.1702-.8336-.2495-.5164-.1468-1.0365-.2806-1.5589-.4043-1.0887-.2577-2.1875-.4683-3.2888-.6645-2.3919-.4261-4.7997-.7859-7.1576-1.3816-1.3217-.334-2.6233-.7459-3.8804-1.2755l.5237.221c-.8478-.3618-1.6724-.7772-2.4067-1.3396l.4479.3461c-.4017-.3152-.753-.6704-1.0659-1.0736l.3477.45c-.2109-.2742-.3879-.5659-.5284-.8821l.2212.5243c-.104-.2481-.1733-.501-.2094-.7676l.0775.5776c-.0299-.2639-.0281-.5258.0029-.7895l-.0768.5717c.0423-.3057.1215-.5994.2414-.8839l-.2142.5075c.0961-.2151.2116-.4163.3528-.6051l-.3292.4261c.1281-.1631.2953-.2884.4236-.4472l-.4198.3244c.1673-.1178.3464-.2041.5324-.2879l-.4929.208c.1553-.0639.3125-.1081.4783-.1344l-.537.0721c.0809-.0101.151.0023.232.0127l-.5316-.0714c.8946.1254 1.7538.3935 2.5854.7418l-.4217-.1779c.2237.0951.4455.1944.6652.2981.4186.1977.8593.4785 1.3373.4251l-.8118-.2196c2.0245 1.2497 3.9958 2.7867 6.3448 3.3698 2.0599.5114 4.584.4879 6.3849-.7803 1.0346-.7286 1.804-1.7432 2.118-2.9834.3604-1.423.1702-2.9837-.0938-4.4072-.4181-2.2552-1.3725-4.4556-2.6896-6.3305-1.5774-2.2456-3.6294-4.1549-6.0592-5.4494l.4038.3119c-.7487-.6269-1.75-.9539-2.6713-1.2586-.5951-.1968-1.1879-.3987-1.7668-.6398l.4822.2035c-.61-.258-1.2065-.556-1.7343-.9599l.4092.3161c-.2261-.1781-.4334-.3734-.6134-.5985l.3163.4093c-.1295-.1693-.2377-.3481-.3221-.544l.2041.4834c-.0644-.1617-.1091-.3263-.1351-.4983l.0724.5381c-.0222-.1841-.0215-.3657-.0013-.55l-.0723.5384c.0278-.2032.081-.3945.1596-.5838l-.2042.484c.0866-.1895.1925-.3627.3186-.5283l-.3169.4102c.1667-.2063.3546-.3865.5636-.5496l-.4105.3171c.3018-.2246.6278-.3927.9727-.5407l-.4836.204c.3822-.1568.7757-.2676 1.1843-.3287l-.5299.0713c.4437-.0591.887-.0582 1.3311-.0029l-.5211-.07c.5533.0768 1.0862.2331 1.6015.4471l-.4582-.1934c.7741.3309 1.4868.7778 2.1542 1.2884l-.3753-.2899c1.1103.861 2.1067 1.8807 2.968 2.988l-.2745-.3553c.6004.778 1.1342 1.6035 1.7205 2.3918.662.8902 1.3516 1.7643 2.1149 2.5706.7414.7832 1.5587 1.4952 2.4455 2.1101.8243.5716 1.7524 1.0424 2.7451 1.2228 1.207.2194 2.4407.1858 3.5999-.2465.5594-.2087.9911-.6685.9876-1.2972-.0035-.6205.0614-1.5814-.4531-1.9963l.3522.8504c-.0198-1.4208-.1948-2.8393-.6104-4.2011-.0966-.3167-.2045-.6297-.3228-.9389-.0281-.0736-.0526-.1544-.088-.2248-.0343-.0683-.1529-.3456-.0016.1951l-.0247-.1839c-.0084-.184-.063-.3554-.1641-.5142-.0706-.1574-.1469-.3121-.2211-.4678-.2886-.6053-.5912-1.2003-.9312-1.7787-1.5077-2.5654-3.4727-4.845-5.4123-7.0888-1.0997-1.2723-2.2069-2.5386-3.2627-3.8478l.2887.3736c-.1868-.3922-.6033-.7674-.8832-1.1127-.212-.2616-.4211-.5255-.6273-.7916l.2934.3797c-1.3097-1.6958-2.4927-3.5019-3.329-5.4812l.1953.4627c-.4707-1.1256-.8361-2.3014-1.0057-3.5117l.0703.5238c-.1007-.7664-.1195-1.5383-.0173-2.3057l-.0712.5296c.0761-.5207.2078-1.0258.4089-1.5124l-.2023.4793c.1798-.4155.4057-.8168.6828-1.1755l-.3132.4052c.2276-.2843.4845-.5365.7712-.7609l-.4007.3095c.309-.2339.6402-.4283.9962-.5816l-.4672.1972c.3299-.1356.6686-.2316 1.0218-.2824l-.5139.0691c.3-.0374.5981-.0406.8984-.0039l-.5089-.0684c.2529.0366.4958.1002.7335.1941l-.4535-.1914c.2524.1069.485.2441.7048.4074l-.3807-.2941c.2265.1751.427.3732.6024.5996l-.2913-.3771c.1646.2213.2988.4579.4085.7109l-.186-.4409c.1646.397.2628.8129.3224 1.2378l-.065-.4836c.0635.4865.0616.9751.1456 1.4595l-.0639-.4755c-.0039 1.8338-.3947 3.6612-.2223 5.4965.1097 1.1684.3724 2.291 1.0027 3.2981.6182.9881 1.4679 1.8127 2.4592 2.4233 1.0085.6213 2.118.9436 3.2851 1.0764 1.187.1349 2.3688-.1309 3.4457-.6201 1.947-.8847 3.4007-2.8816 3.8726-4.9413.2809-1.2261.2963-2.5595-.0991-3.764-.4804-1.4631-1.4364-2.6012-2.3634-3.7998l.2913.3771c-.4419-.5745-.8723-1.1646-1.1578-1.8349l.1885.4466c-.1527-.3738-.2626-.759-.3229-1.1583l.0669.4978c-.0452-.3396-.0525-.6774-.008-1.0175l-.067.4986c.0359-.2325.0951-.4553.1845-.673l-.1893.4485c.0895-.1913.1926-.3667.3197-.5353l-.2936.3799c.112-.1389.2338-.2603.3718-.3733l-.378.292c.1821-.138.3749-.2484.584-.3404l-.4432.1871c.294-.1192.5961-.1949.9095-.2415l-.4887.0657c.4567-.0591.914-.0592 1.3709-.0035l-.4821-.0648c.5096.0694 1.0018.2066 1.4764.4046l-.4265-.18c.5229.2256 1.009.5172 1.4611.863l-.3551-.2744c.5406.4223 1.0194.9114 1.4398 1.4532l-.2685-.3476c.4219.5539.7867 1.1493 1.059 1.7903l-.1698-.4022c.2943.71.4896 1.4455.5925 2.2069l-.0604-.4492c.1356 1.0788.1094 2.1638-.0347 3.2403l.0606-.4512c-.3031 2.1534-1.0489 4.2089-1.8899 6.2041l.1727-.4093c-1.0609 2.5053-2.2786 4.9682-3.0059 7.5993-.3682 1.3322-.6121 2.7259-.6496 4.1092-.038 1.4032.2017 2.7716.7572 4.0588.508 1.1769 1.4299 2.2254 2.5757 2.8163 1.2046.6214 2.6902.9043 4.0034.4507 1.1009-.3803 2.0783-1.1403 2.6242-2.1843.4709-.9008.6545-1.8741.7054-2.8826.0919-1.8227-.3341-3.6484-.0929-5.4673l-.0638.4751c.0591-.4173.1575-.8283.3198-1.2179l-.1801.4268c.1139-.2624.2553-.5074.4297-.7341l-.2788.361c.1387-.1738.2924-.3308.4624-.474l-1.7329.458c.2461.0622.4859.1407.7208.2371l-.4248-.1792c.3944.1678.7618.383 1.102.6437l-.3589-.2773c.3501.2751.6609.5907.9364.9402l-.2765-.3579c.3555.4609.6413.9663.8688 1.5017l-.1776-.4209c.2827.6811.4669 1.3952.5682 2.1251l-.0627-.4662c.1103.8383.1103 1.685.0024 2.5236l.0624-.4638c-.1076.7921-.3122 1.5628-.6231 2.2994l.175-.4146c-.5119 1.1901-1.1998 2.2739-1.9892 3.2981l.2731-.3535c-2.0215 2.6024-4.5431 4.7668-6.5019 7.4227-1.9988 2.7101-3.4023 6.1308-2.9438 9.5425.2407 1.7917 1.0274 3.4653 2.2948 4.7643 1.1698 1.1989 2.7508 2.0914 4.3996 2.4103.8256.1596 1.6714.2428 2.5089.1419 1.0219-.1231 1.9118-.3723 2.8453-.8135 1.4931-.7058 2.7724-1.9429 3.6245-3.3482.9342-1.5408 1.3196-3.3756 1.1612-5.1644-.1642-1.8539-.7303-3.6055-1.1259-5.4134-.0903-.4128-.1672-.8279-.2255-1.2465l.0688.5114c-.0775-.5897-.1254-1.1829-.0495-1.775l-.0686.5103c.0698-.4895.2072-.9618.3987-1.4173l-.1931.4579c.2075-.4776.4699-.9252.7856-1.3392l-.2992.3872c.2788-.3567.5929-.6843.9497-.9639l-.3863.2985c.2694-.2049.5558-.3799.8665-.5151l-.4561.1925c.2392-.0989.4844-.1706.7406-.2089l-.5077.0682c.2121-.0268.4217-.0294.6341-.0051l-.5077-.0682c.2172.0303.424.0876.6264.1721l-.4563-.1926c.1968.0881.3784.1972.5512.3262l-.3867-.2987c.1946.1513.3689.3207.5218.5143l-.2988-.3868c.1405.1843.2558.3816.3488.5939l-.1926-.4566c.1206.2877.1949.5882.2366.8969l-.0683-.5082c.0665.541.0351 1.086-.035 1.625l.0683-.5084c-.1468 1.0842-.4419 2.1408-.6871 3.2051-.2615 1.1348-.5239 2.3411-.4325 3.5112.0621.7946.2228 1.4613.5657 2.1794.3303.6917.8836 1.2207 1.488 1.6701 1.5826 1.1767 3.877.964 5.4996-.0076 3.5729-2.1394 3.4757-6.8177 2.9025-10.4205-.4981-3.1313-1.6598-6.1118-2.9406-8.9958-1.2506-2.816-2.6801-5.5484-3.9291-8.3652-.1557-.3509-.3081-.7033-.4574-1.057l.2011.4767c-1.0315-2.4531-1.8925-4.9942-2.2536-7.6398l.0725.5399c-.1925-1.4503-.2695-2.9694-.0802-4.4246l-.0728.5415c.0696-.4919.1912-.9727.3783-1.4334l-.2046.4848c.133-.3143.2941-.611.5016-.8826l-.3166.4098c.1328-.1661.2786-.3154.4464-.4464l-.4092.3161c.133-.0976.2719-.1785.4236-.2435l-.4824.2036c.1373-.0534.2745-.0902.4201-.1129l-.5362.0721c.1676-.02.3295-.0195.4972.0003l-.5355-.072c.1547.0253.3008.0655.4472.122l-.4808-.2029c.1941.0835.3705.1886.5397.3146l-.4067-.3141c.2353.186.4385.3993.6227.6358l-.3135-.4059c.276.3694.4873.7737.6668 1.1975l-.2015-.4773c.2879.705.4643 1.4421.5661 2.1956l-.071-.5283c.2551 2.0119-.0146 4.0255-.0523 6.0407-.0405 2.1627.2085 4.4023 1.2664 6.3263.9297 1.691 2.6025 2.9797 4.5156 3.3371.9772.1825 1.9806.2147 2.9451-.0689 1.0887-.3201 1.9509-.9613 2.6252-1.8616.723-.9653.9845-2.2563.9368-3.4426-.0477-1.184-.3341-2.3442-.497-3.5143l.0671.4988c-.084-.6309-.1259-1.2651-.0454-1.8987l-.0666.4953c.0456-.3142.1234-.6158.246-.9091l-.1872.4434c.1164-.2662.2627-.5139.4376-.7457l-.2894.3745c.212-.2725.4565-.5129.7285-.7252l-.3731.2882c.3088-.2347.6438-.4328 1-.5863l-.4381.1849c.4163-.1741.8537-.2871 1.3002-.3495l-.4907.0659c.4457-.0575.8937-.0611 1.3399-.0051l-.4947-.0665c.3816.0524.7527.148 1.1095.2938l-.4473-.1888c.2999.1274.5804.2876.8397.4851l-.381-.2945c.231.1819.4363.3879.6166.6202l-.2959-.3829c.2029.2705.3642.5655.4977.876l-.1918-.4546c.1569.3849.2602.7813.3184 1.1926l-.0684-.5094c.0663.5297.0555 1.0594-.0136 1.5882l.069-.5139c-.1025.715-.3069 1.4059-.5855 2.0715l.1972-.4673c-.4941 1.1502-1.2186 2.1717-1.9805 3.1579l.312-.4038c-1.0937 1.4094-2.2884 2.7685-3.1605 4.3333-.9199 1.6506-1.5033 3.4463-1.7543 5.3146-.0637.4737-.1251.9494-.1382 1.4279-.0131.4765.0537.9386.1245 1.4108.1198.7981.4198 1.5619.7671 2.2862.6996 1.4593 1.9235 2.723 3.479 3.2373 1.0499.3471 2.1448.1637 3.1216-.2948 1.0202-.4789 1.6597-1.414 2.323-2.2767l-.3275.424c.2447-.3149.5008-.617.8143-.8657l-.4233.327c.2259-.1721.4678-.3128.7288-.4248l-.499.2107c.2786-.1136.5655-.19.863-.2343l-.5546.0745c.3841-.0509.7686-.0464 1.1524.0047l-.5538-.0744c.4135.0609.8135.1738 1.1996.3334l-.4968-.2096c.3886.1664.7528.3762 1.0906.6303l-.4202-.3246c.1733.1339.3456.2691.5203.4011l-.4198-.3243c.2603.2135.4958.4497.7055.7131l-.3247-.4202c.2176.2817.399.5846.5401.9115l-.2098-.4971c.142.3447.2317.7037.2846 1.0723l-.0745-.5544c.0561.4401.0529.8798-.0039 1.3197l.0747-.5558c-.0705.4905-.2049.9641-.3943 1.4219l.2114-.5009c-.2184.51-.4992.9858-.8341 1.4279l.3289-.4258c-.3592.4633-.7704.8779-1.2309 1.2408l.4273-.3302c-.4693.3612-.975.6531-1.5202.8834l.5063-.2137c-1.438.587-3.0003.7229-4.5226.9475-1.5262.2253-3.0264.5926-4.3574 1.408-1.4707.9011-2.7071 2.228-3.2201 3.9014-.4911 1.6021-.0871 3.2741.7229 4.6926.6177 1.0818 1.515 1.9995 2.0151 3.149l-.2216-.5253c.1104.2646.1936.5351.2366.8192l-.0783-.5825c.0287.2234.0305.444.0035.6677l.078-.5808c-.0337.2293-.0951.4488-.1837.6629l.2196-.5205c-.0773.1746-.1706.3373-.2847.4904l.3398-.4398c-.1237.1578-.2633.2961-.4213.4195l.4387-.339c-.1773.132-.3671.2388-.5694.3273l.5164-.2179c-.3279.1361-.6705.2186-1.0214.2679l.572-.0769c-.6982.0897-1.4036.0526-2.0994-.0408l.5667.0762c-.8609-.1207-1.6926-.3413-2.5251-.5859-1.1662-.3428-2.3765-.6305-3.5884-.7467l.5515.0741c-.9995-.1556-2.0068-.2834-3.0193-.3013-.9966-.0175-1.9899.0792-2.972.2476-1.8976.3257-3.7389 1.1594-5.1969 2.4225-.6924.6-1.179 1.4161-1.464 2.2798-.292.8846-.2454 1.7908-.1043 2.6936.1207.7731.4471 1.5281.8101 2.2143.3979.7521.927 1.4436 1.4856 2.0819 1.2978 1.4832 2.9577 2.5859 4.7795 3.3104l-.5199-.2194c.3615.1563.7114.3033 1.0863.4158 1.0918.3278 2.4238-.3926 2.6811-1.5223.2674-1.174-.3531-2.3301-1.5223-2.6811-.2779-.0835-.5519-.1804-.8197-.2919l.5197.2193c-.7822-.3332-1.5097-.7763-2.1821-1.2954l.4378.3382c-.6931-.5424-1.3218-1.1617-1.8618-1.8572l.3361.4351c-.3894-.5095-.7279-1.0547-.9834-1.6438l.2157.5114c-.1713-.4065-.2997-.8268-.3631-1.2639l.0762.5674c-.041-.3145-.0466-.6291-.0067-.944l-.0761.5661c.0366-.2533.1016-.4971.1981-.7342l-.2143.5078c.1047-.2439.2384-.4684.4004-.6786l-.3318.4295c.1864-.2326.3991-.4334.6329-.6178l-.4286.3311c.5999-.4633 1.2537-.8413 1.9512-1.137l-.5033.2123c.8476-.3506 1.7362-.5732 2.6444-.6954l-.5565.0747c1.2949-.1653 2.6087-.1334 3.9014.0377l-.5515-.0741c1.4406.1986 2.8062.6321 4.1971 1.0351.5862.1699 1.1825.3089 1.7862.4013.7453.114 1.5018.2183 2.2579.1813.9143-.0446 1.7114-.2285 2.5412-.5955.7625-.3372 1.3676-.9378 1.83-1.6196.4778-.7044.7269-1.6641.7163-2.509-.0117-.9207-.2999-1.7646-.7113-2.5774-.6245-1.2334-1.632-2.2401-2.1787-3.5165l.2231.5287c-.1268-.3077-.2207-.6223-.2693-.9519l.0788.5866c-.0339-.2725-.0356-.5417-.0042-.8144l-.0785.5852c.0401-.2887.1154-.5652.2233-.8358l-.2213.5245c.1445-.3419.3334-.6553.5588-.9498l-.3421.4428c.2879-.364.62-.6837.9853-.9695l-.4411.3408c.4838-.369 1.0103-.6702 1.5703-.9079l-.5177.2185c2.0159-.8294 4.2697-.7521 6.3455-1.367 2.2495-.6662 4.2077-2.0899 5.385-4.1421.6029-1.0508.9305-2.1699 1.0486-3.3686.1137-1.154-.1463-2.3084-.6268-3.3523-.8025-1.7438-2.6415-3.079-4.49-3.5022-1.073-.2457-2.2711-.2819-3.323.0863-.7233.2533-1.2791.5793-1.8694 1.06-.5146.4191-.8982.9866-1.299 1.5072l.3277-.4242c-.2648.3426-.5357.6778-.8745.9506l.4249-.3282c-.1754.1328-.3609.2428-.5627.3303l.5019-.2118c-.172.0688-.3469.1174-.5302.1441l.5589-.0751c-.1741.02-.3457.0192-.5197-.002l.5594.0751c-.1929-.0291-.3766-.0818-.5572-.1554l.503.2122c-.2253-.0983-.4322-.2239-.6286-.3714l.4266.3296c-.28-.2187-.5244-.4723-.7448-.7505l.33.4272c-.3229-.4191-.5818-.8784-.7885-1.3649l.2132.5052c-.2147-.5219-.3636-1.0634-.4395-1.6227l.0756.5634c-.0889-.7252-.0356-1.4502.0597-2.1728l-.0749.5569c.1585-1.1365.4621-2.2433.9063-3.3014l-.2075.4918c1.0166-2.3723 2.8275-4.2077 4.1967-6.3614.6986-1.0989 1.2711-2.3236 1.5554-3.5987.3071-1.3781.371-2.9022-.1111-4.2506-.4449-1.2446-1.1692-2.2659-2.27-3.005-.8613-.5783-1.8934-.8299-2.9136-.9124-.8858-.0716-1.8378.0616-2.6732.3632-.9636.3479-1.8568.8239-2.586 1.5576-.3849.3875-.7392.8445-.9781 1.3383-.3399.7029-.496 1.3303-.5797 2.1054-.153 1.4179.2187 2.8419.4074 4.2398l-.0675-.5026c.0792.6108.1248 1.2254.0497 1.839l.068-.5059c-.0471.3346-.1315.6559-.2609.9683l.1924-.456c-.0995.2247-.2203.435-.3663.6329l.2989-.3868c-.1504.1946-.3203.3667-.5134.5192l.3873-.2992c-.2079.157-.4311.284-.6708.3857l.4576-.1932c-.2837.1139-.5761.1876-.8788.229l.51-.0685c-.3776.0455-.7551.039-1.132-.0102l.5108.0687c-.4317-.0623-.8496-.1788-1.2526-.3456l.4598.1941c-.3833-.1644-.7431-.3707-1.0759-.6223l.3904.3016c-.2911-.2267-.5527-.4831-.7798-.7741l.302.391c-.3203-.4248-.5785-.8879-.7861-1.3772l.1952.4625c-.281-.6854-.4528-1.4004-.5552-2.1328l.0694.517c-.2085-1.58-.0924-3.1666.0098-4.7497.1178-1.8259.1566-3.6684-.2588-5.4644-.4701-2.0326-1.6259-4.0526-3.6844-4.7764-.9909-.3485-2.2243-.1815-3.1094.375-.7482.4704-1.3648 1.174-1.7421 1.9728-.4209.8912-.6362 1.7447-.7551 2.718-.0852.6965-.1037 1.4033-.085 2.1042.041 1.5316.2594 3.0709.6021 4.5633.6636 2.8906 1.8451 5.6458 3.1035 8.3207 1.2371 2.6298 2.5968 5.2012 3.7782 7.8572.146.3281.2889.6575.4288.9881l-.1957-.4638c1.018 2.4151 1.8509 4.9129 2.2103 7.5171l-.0687-.511c.1721 1.2819.2576 2.5925.0965 3.8798l.0685-.5105c-.085.6294-.233 1.2443-.4777 1.8313l.1935-.4585c-.1719.3952-.3833.7641-.644 1.1074l.3-.3884c-.1967.2488-.4198.4687-.6688.6652l.3883-.3c-.2739.2081-.5668.3802-.8818.5186l.4582-.1934c-.3132.1308-.635.223-.9708.2726l.5098-.0684c-.2813.0356-.5602.0395-.8419.0062l.5096.0685c-.2309-.0331-.4525-.0901-.6698-.1754l.4579.1933c-.2126-.0903-.4091-.203-.5932-.3428l.3879.2997c-.1923-.1511-.3642-.3203-.5146-.5133l.2996.3878c-.1384-.1843-.2516-.3814-.3427-.5931l.1932.4577c-.1122-.2729-.1829-.557-.2241-.8489l.0684.5092c-.0716-.5563-.038-1.1175.0355-1.6718l-.0684.509c.1976-1.4317.6478-2.8126.9001-4.2338.292-1.6439.4286-3.5171-.5523-4.9794-.6295-.9384-1.5541-1.698-2.6647-1.985-1.183-.3057-2.4084-.0693-3.4651.5157-.9939.5502-1.7931 1.4042-2.4217 2.3376-.5639.8375-.9805 1.8349-1.1379 2.8337-.4549 2.8854.8384 5.6207 1.2308 8.4333l-.0692-.5149c.1007.7643.1269 1.5318.0265 2.2976l.0694-.5163c-.0777.5356-.2211 1.0529-.4284 1.5528l.196-.4646c-.2308.5385-.5279 1.0406-.8848 1.5052l.3048-.3945c-.3626.4615-.7765.8744-1.2389 1.236l.3953-.3055c-.4653.3558-.9681.6515-1.5073.8806l.4675-.1973c-.4955.2036-1.0088.3455-1.5394.4204l.5212-.0701c-.5611.0718-1.1236.0672-1.6841-.0071l.5222.0702c-.5857-.0847-1.1531-.243-1.6997-.4696l.4702.1985c-.5674-.2426-1.1048-.5457-1.5971-.9183l.3957.3058c-.4467-.3462-.8477-.7407-1.1967-1.1854l.3034.3926c-.338-.4417-.6118-.9198-.8288-1.4319l.1941.46c-.2266-.5539-.3794-1.1287-.4626-1.7212l.0682.5076c-.0941-.7286-.0821-1.4607.0129-2.1887l-.0674.5024c.1403-1.0059.4321-1.9793.8229-2.9153l-.1878.445c.5635-1.3267 1.3147-2.5643 2.1915-3.7066l-.2853.3691c1.8319-2.3644 4.0269-4.416 5.8342-6.8033.9244-1.2211 1.6926-2.5272 2.2826-3.9407.4671-1.119.691-2.3338.7491-3.5425.1189-2.4699-.6141-5.0694-2.3033-6.9151-.8378-.9155-2.0057-1.6383-3.2176-1.9261-.8044-.1911-1.4836.1605-2.0204.7238-.2519.2644-.4806.5611-.672.8721-.3028.4919-.5234 1.0614-.6457 1.6262-.2643 1.2204-.2189 2.4613-.129 3.6969.0801 1.0983.1961 2.2121.0561 3.3104l.0633-.4711c-.0533.3896-.142.7712-.2918 1.1356l.1784-.4226c-.1019.2377-.2273.46-.3822.6672l.2763-.3577c-.1532.1972-.3272.3713-.5233.526l.3574-.276c-.1965.1492-.4046.2721-.6316.3693l.4214-.1778c-.2236.0887-.4516.1486-.6895.1836l.4684-.063c-.289.0354-.5753.0325-.8641-.0035l.4679.0629c-.3436-.0501-.6727-.144-.9928-.2784l.4198.1772c-.321-.1418-.619-.3185-.8969-.5329l.3551.2744c-.2588-.2075-.4856-.4404-.6887-.7025l.274.3546c-.253-.3393-.458-.7031-.6244-1.0921l.1764.4179c-.2267-.5526-.3673-1.1297-.4472-1.721l.0624.4639c-.1181-.9505-.0777-1.9065.0457-2.8544l-.0621.462c.3071-2.2441 1.1069-4.3727 1.982-6.4492l-.1735.4112c.9121-2.1578 1.9153-4.2869 2.6084-6.5292.3651-1.1809.6144-2.3788.766-3.6052.1531-1.2386.1138-2.4566-.068-3.6899-.1621-1.0999-.5488-2.1502-1.0556-3.1373l.1698.4021c-.2461-.6678-.6286-1.2779-1.0572-1.8431-.4274-.5634-.8756-1.0998-1.416-1.5589-1.0396-.8834-2.2661-1.60405-3.6224-1.85794-1.7361-.32495-3.6193-.14495-4.9745 1.09584-1.2608 1.1543-1.463 3.0066-1.1045 4.5889.3846 1.6974 1.5406 2.9787 2.5738 4.3159l-.2909-.3765c.4261.5558.8261 1.1318 1.1081 1.7758l-.1869-.443c.1696.4038.2823.8235.342 1.2572l-.0661-.4919c.0566.4562.0538.9131-.0024 1.3692l.0659-.4909c-.0717.5274-.2125 1.0382-.4178 1.5292l.1857-.4401c-.2018.4674-.4575.905-.7681 1.3086l.2874-.372c-.2848.3609-.6074.6848-.971.9666l.3712-.2868c-.3307.2492-.6853.4566-1.0662.619l.4374-.1845c-.3685.1506-.7495.2538-1.1432.312l.4858-.0652c-.4627.0616-.9262.0595-1.389.0003l.4847.0652c-.5112-.0721-1.0058-.2113-1.4815-.4116l.4346.1834c-.4532-.1971-.8781-.4451-1.2722-.7434l.3673.2838c-.3885-.3015-.7363-.6454-1.0376-1.0344l.2832.3666c-.2527-.3353-.4644-.6942-.6311-1.0796l.1823.4318c-.1866-.4496-.2979-.9181-.365-1.3993l.0644.4794c-.2501-1.9214.158-3.848.1621-5.7714l-.0639.4755c.1579-.951.0691-2.0194-.2072-2.9424-.2668-.8912-.7573-1.7716-1.4699-2.3837-.9335-.8017-2.0142-1.2579-3.2511-1.3031-1.0754-.0392-2.192.2944-3.1199.8248-.5182.2961-1.0146.6784-1.426 1.1111-.5629.592-.9382 1.2275-1.247 1.9761l.2025-.48c-.19.4224-.3761.8502-.5011 1.2973-.1343.4805-.1998.9784-.2567 1.4729-.0746.6486-.0646 1.302.0118 1.95.1516 1.2844.4438 2.5145.9168 3.7178.775 1.9713 1.8188 3.7841 3.0825 5.4816.415.5574.8421 1.1065 1.2809 1.6453.4464.5482.8839 1.1667 1.4697 1.5679l-.3737-.2886c1.9564 2.1509 4.0625 4.1599 6.0153 6.3141.4685.5167.9277 1.0421 1.3712 1.5805.1091.1325.2173.2657.3245.3998.0466.0584.093.1169.1392.1756.0263.0334.0525.0671.0788.1006.1599.2037-.0706-.1194-.0965-.1255.087.0204.2531.3342.3077.408q.15105.204.2979.4107c.3846.5417.7479 1.099 1.0801 1.6745.1683.2915.3264.5866.4684.8919.0731.157.1865.2726.2798.4179-.2557-.3987-.1158-.1155-.0694-.0168.0727.1544.1411.3107.21.4667.0636.1442-.1223-.2991-.0642-.1521.0186.0469.0384.0932.0572.14.0338.084.0668.1684.0989.2532.0643.1691.1252.3395.1825.511.1147.3428.2153.6904.3003 1.0417.0855.3536.1525.7104.2082 1.0698.039.2519-.0364-.3043.0008.0098.011.0922.0212.1846.0295.277.0178.1964.0219.3941.0246.5912l.3522-.8503c-.3875.3226-.3855.8332-.437 1.2919-.0047.0424-.0102.0848-.0149.1271-.0272.2452.0409-.2716.0173-.126-.0186.1151-.0346.2307-.0541.3457l.9395-.9395c-.0449.0083-.1859.0522-.2301.0395.063.0181.3485-.0407.1024-.0165-.135.0132-.2704.0212-.406.0236-.2675.0049-.5339-.0138-.7989-.0492l.397.0534c-.4736-.0702-.93-.2034-1.3716-.3876l.3864.1631c-.8273-.3567-1.6075-.7971-2.3218-1.3474l.3413.2636c-1.1142-.8713-2.0652-1.9297-2.9309-3.0435l.2692.3485c-1.0853-1.4054-1.9941-2.9317-3.1226-4.3056l.275.3559c-.2664-.4501-.6696-.8732-1.0173-1.267-.2768-.3134-.5641-.6178-.8634-.9097-.6704-.6539-1.4072-1.2565-2.1905-1.7697-1.4266-.9348-3.2397-1.5918-4.9663-1.3931-1.0493.1207-2.1071.3705-2.9827.996-.9485.6776-1.8185 1.6164-2.0432 2.8051-.1991 1.0529-.0926 2.1254.4784 3.0544.4779.7775 1.1703 1.379 1.9383 1.8589 1.4573.9107 3.1531 1.2696 4.719 1.9297l-.4812-.2031c.3602.1541.7435.3969 1.121.4734l-.4766-.2011c1.1099.4943 2.1535 1.12 3.1168 1.8602l-.3777-.2919c1.0639.8258 2.0191 1.7801 2.8456 2.8435l-.2695-.3488c.8204 1.0662 1.5057 2.2284 2.0297 3.4678l-.1594-.3776c.2637.6328.4871 1.2816.6612 1.9449.0884.337.1646.6772.2276 1.0199.017.0927.0332.1855.0481.2786.0044.0274.0088.1548.0282.1868-.0009-.0016-.0316-.3103-.0215-.15.0142.222.0332.4413.0259.6641-.0068.2045-.0365.4079-.0443.6117-.0002.0035.0556-.313.0173-.1554-.0109.0451-.0165.0923-.0258.1379-.022.1068-.048.2127-.0781.3175-.0253.0882-.0995.2186-.1032.3111-.0003.0093.1209-.2579.063-.1465-.0149.0287-.0271.0593-.0412.0886-.0645.1337-.1372.2637-.2178.3885-.0338.0524-.0704.1028-.1054.1543-.1298.1906.2461-.2904.06-.0812-.0945.1062-.1897.21-.2943.3067-.0445.0411-.0907.0801-.1362.1199-.1946.1703.1871-.1328.1104-.0833-.1192.0769-.2324.1604-.3554.2318-.0739.0428-.3709.138-.4097.2087-.0058.0106.3348-.1338.215-.0905-.0486.0176-.0963.0382-.1449.0562-.0686.0253-.1379.0489-.2075.0711-.3167.1012-.6418.1697-.9707.2164l.4019-.054c-.6691.088-1.3435.0764-2.0122-.0104l.4074.0547c-.5659-.0781-1.1234-.2078-1.6638-.3934-.1282-.0441-.2543-.0931-.3809-.1411-.2532-.0962.3555.1577.1241.0535-.0708-.0318-.1416-.0632-.2118-.0963-.3023-.1429-.5962-.304-.8861-.4705-1.251-.719-2.4058-1.588-3.6326-2.3453l.7391.9612c-.0872-.233-.1695-.4299-.3194-.624-.1529-.1978-.3349-.3312-.5358-.4789-.1039-.0765-.209-.1515-.3146-.2259-.2095-.1476-.4217-.2913-.6376-.4294-.4486-.2871-.9132-.5504-1.3977-.7723-.6966-.3188-1.4926-.7043-2.2764-.7031-.7019.0012-1.4334.1947-2.0108.601l.4955-.2091c-.4386.1817-.6482.2919-1.0241.5961-.064.0518-.1273.1036-.187.1606-.2342.2233-.43.4954-.6188.755-.2968.4079-.4992.8933-.6579 1.3681-.3133.9373-.3389 2.0821-.0423 3.0271.6762 2.1558 2.5052 3.6107 4.5046 4.4996 2.0108.894 4.1003 1.5117 6.2544 1.9492 2.0352.4134 4.0938.6944 6.1422 1.0313 1.0387.1709 2.0751.3567 3.1031.5846.5101.1131 1.0182.236 1.5229.3711.2382.0637.4756.1302.7121.1997.4011.1177.8278.3073 1.2517.258l-.5377-.0723c1.0235.265 2.0303.5891 3.0064.9964l-.4314-.182c.8255.3489 1.6271.7532 2.3857 1.2311.1791.1128.3557.2294.5295.3502.0926.0643.1845.1298.2755.1964.0455.0333.0906.0672.1359.1008.211.1563-.2208-.1761-.0739-.0578.3261.2624.6457.5308.9448.8239.2894.2837.5621.5844.8171.8994.0318.0392.0617.081.0947.1188-.0129-.0148-.2001-.2658-.0693-.0887.0536.0724.1075.1446.1599.2179.1195.1672.2345.3377.3447.5113.2191.3451.4193.7022.599 1.0693.0391.0798.0772.1601.1142.2409.0212.046.0413.0925.0625.1385.0847.184-.0128-.0452-.0254-.064.105.1562.1579.3955.2204.5731.1507.4283.2743.8661.3669 1.3107.0202.0974.039.1951.0562.2931.0085.0488.0167.0977.0245.1467.0061.0385-.0004.216.0126.0926.0137-.1302-.0057.0176-.0038.0579.0028.0621.0052.1241.0068.1862.0062.2459.027.4747.1698.688l-.1257-.4648c.026.3924.0295.7856.002 1.178-.0067.0968-.0153.1935-.0256.2899-.0052.0481-.0108.0961-.0169.1441.0126-.0929.0119-.0914-.002.0043-.0317.1808-.0629.3611-.1043.5402-.1795.7759-.4298 1.3682-.8569 2.0392-.3517.5526.4845 1.2224.9213.7105"/>
    <path fill="#0b3335" d="M36.5069 84.1178c1.0586-2.0661 4.0951-3.0486 6.0655-1.6034.6659.4884 1.1593 1.197 1.8092 1.7145.8118.6464 1.7594 1.0486 2.8084 1.0652 1.597.0253 2.9915-.8191 4.3396-1.5674.5191-.2882 1.0451-.6182 1.6421-.694.0189-.0024.2408.0017.4333.071.4002.1442.7691.4779 1.1124.7219 1.4058.9989 2.9003 1.5616 4.6389 1.3344 2.9511-.3857 5.0786-2.684 7.7777-3.5324.6466-.2033 1.1065-.2876 1.7057-.1129.9832.2867 1.8005.9883 2.7109 1.4417 1.8993.946 4.5961 1.2345 5.6855-1.0142.5233-1.0802-.3355-2.2672-1.5391-2.0021-1.6273.3584-2.934-.8751-4.2421-1.5831-1.6209-.8772-3.3611-1.1199-5.1457-.6368-1.4883.4028-2.8437 1.2145-4.1635 1.9865-.6314.3693-1.2629.7492-1.9276 1.0567-.3636.1682-1.1627.4173-1.3543.4347-.6225.0567-.8768-.0296-1.4666-.4076-.8138-.5218-1.5153-1.1303-2.4331-1.4773-1.7216-.6506-3.433-.1353-4.9755.7251-.6517.3635-1.2672.8035-1.9406 1.1272-.5047.2426-.8222.3837-1.2288.1588-.6652-.3679-1.1703-1.1287-1.7754-1.598-.6913-.5362-1.4616-.9331-2.3025-1.1856-3.4382-1.0325-7.6354.5339-9.2111 3.8371-.9451 1.9814 1.9566 3.7308 2.9767 1.74M19.128 92.9437c.3374-1.3034 1.3455-2.3382 2.6765-2.643 1.3771-.3153 2.6727.4055 3.8646 1.0087 1.3914.704 2.8338 1.4208 4.4261 1.46 1.6784.0413 2.9575-.8478 4.4068-1.533 1.2298-.5814 2.1419-.1519 3.2339.5154 1.1754.7184 2.3183 1.5537 3.6754 1.9002 1.4369.3668 2.8717.1075 4.1556-.6107 1.1634-.6506 2.0853-1.6508 3.2336-2.3233 1.4501-.8494 2.6433.1498 3.9548.83 1.7148.8894 3.8914 1.4433 5.6104.2556 1.8038-1.2463.2184-4.0848-1.7399-2.9766-1.2349.6988-2.8793-.7357-3.9603-1.2286-1.6636-.7585-3.3431-.9104-5.019-.1168-1.2099.573-2.1417 1.5425-3.2304 2.2969-1.0631.7367-1.9119.8756-3.0854.2709-1.2822-.6607-2.4147-1.56-3.7845-2.0546-1.5515-.5601-3.0771-.3372-4.5341.3803-1.428.7031-2.4107 1.5254-4.0541.9921-1.4561-.4726-2.749-1.3517-4.2063-1.8357-3.591-1.1928-7.5779.9067-8.4842 4.6238-.4518 1.8528 2.3811 2.6403 2.8605.7884m-6.3357-20.8599c-.4821.031-.9215.1514-1.3502.3751-.345.18-.6539.4391-.9266.7149-.2844.2875-.53646.6279-.7157.9913-.18086.3666-.32863.7528-.3878 1.1586-.07628.5223-.09885 1.0247.05456 1.54.07645.2566.18445.5081.30647.7461.07799.152.16983.2961.27247.4328.1592.212.3199.422.5109.6063.1914.1847.4059.348.6214.5028.3672.2639.7891.4527 1.2136.6032.4249.1506.8806.222 1.3287.2527.4604.0315.9356-.0248 1.3831-.1312.9291-.221 1.7821-.7343 2.4752-1.3826.3487-.3262.6514-.7079.9201-1.1011.2778-.4062.4776-.8466.6614-1.3021.152-.377.2557-.7703.3115-1.1729.0437-.3159.0879-.6283.0863-.9476-.0016-.3176-.0497-.6313-.0962-.9449-.0764-.5152-.2618-1.0258-.527-1.4736-.2925-.4941-.7134-.95-1.206-1.2508-.2514-.1535-.5327-.2679-.8081-.3673-.2838-.1023-.5747-.1349-.8738-.173-.1683-.0215-.3372-.028-.5062-.0113-.2809.0277-.5772.0575-.8453.1567-.2634.0974-.5347.2052-.7635.3723-.1647.0887-.2968.2101-.3964.3639-.1249.1365-.2092.2966-.253.4805-.0589.1878-.0673.3757-.0252.5634.0086.1881.0644.3632.1677.5253.1945.3017.4842.5673.8444.6494.3592.0819.7715.0674 1.0888-.1424.0881-.0583.1802-.1083.2771-.1505l-.3393.1431c.1474-.0619.3008-.1033.459-.1262l-.3806.0511c.1837-.0243.3681-.0229.5518.0003l-.3841-.0516c.2117.029.4169.0863.6142.1681l-.3487-.1472c.2507.1067.4844.2551.7001.4207l-.296-.2287c.1496.1173.2847.25.4023.3995l-.225-.2912c.1523.1981.2768.4137.3743.6437l-.1418-.3362c.1031.2495.1742.5077.2104.7752l-.0492-.3666c.0468.3686.0407.7405-.0082 1.1085l.0486-.3615c-.0597.4287-.1764.8463-.3435 1.2454l.1349-.3195c-.1757.4135-.4026.8028-.6771 1.1585l.2055-.2659c-.2525.3236-.5418.6161-.8667.8672l.2616-.2021c-.2881.2201-.6004.4052-.9344.5469l.3043-.1284c-.2967.1236-.6065.2128-.925.2575l.3343-.0449c-.3219.0426-.6468.0408-.9685-.0019l.3299.0443c-.33-.0461-.6518-.1339-.9593-.2623l.2923.1233c-.2886-.1227-.5607-.2793-.8093-.4708l.2443.1887c-.2122-.1658-.4039-.3548-.5696-.5671l.1866.2415c-.1495-.1948-.2745-.4054-.3718-.6309l.119.282c-.108-.2567-.1818-.5353-.2201-.8111l.0408.3036c-.0331-.254-.0315-.51.0024-.7638l-.0386.287c.0381-.27.1105-.533.2162-.7844l-.1021.242c.1005-.2342.2276-.4552.3828-.6576l-.1487.1924c.1117-.1432.2498-.2688.3923-.3809l-.1882.1453c.1618-.125.3366-.2301.5243-.3113l-.2169.0915c.1842-.0775.3759-.1306.5739-.1573.1951-.0263.4415-.2401.53-.4075.0947-.1792.1324-.3638.1053-.5655-.025-.1861-.1014-.3784-.2439-.5092-.167-.1534-.3933-.2748-.6275-.2597m-4.0479-34.226c-.11861-.1176-.25381-.2169-.38712-.3171-.06422-.0482-.13109-.0925-.20155-.1311-.14409-.0791-.3005-.1409-.45322-.1991-.07175-.0274-.14555-.0496-.22046-.0665-.16504-.0372-.33538-.0567-.50333-.0729-.07696-.0074-.15443-.0099-.23174-.0078-.17342.0049-.34684.034-.51778.0585-.07927.0114-.15794.0262-.23567.0454-.25089.0621-.49204.1682-.726.2749-.15119.0689-.29631.1511-.43373.2444-.22276.1512-.43962.3183-.63621.5029-.20207.1898-.36737.4072-.53506.6277-.10509.1382-.19001.2901-.26201.448-.11382.2498-.22755.5069-.29151.7754-.04507.1894-.06525.3846-.08953.5771-.01069.0851-.01779.1704-.01916.2562-.00445.2774.03805.5567.08201.8292.02625.1627.06678.3231.12023.479.08679.2528.19223.5026.31605.7397.0762.1459.16359.286.26039.4191.15948.2194.32623.4384.51376.6354.11527.1212.23858.2345.36856.3398.21344.1729.43193.3445.66504.4909.14263.0895.29074.1703.4433.2415.25081.1173.50871.2279.77235.3141.15863.0518.3205.0937.4846.1243.27484.0513.55558.0908.83529.1046.16119.008.3229.0045.48349-.0114.27689-.0275.55934-.0613.82974-.1321.26868-.0704.52667-.184.77876-.2976.15091-.0681.29581-.1495.43231-.2431.2218-.1519.4396-.3179.6344-.504.1954-.1866.3552-.4024.5185-.6171.2614-.3435.4302-.7287.5949-1.1254.1216-.2931.2066-.5999.2531-.9138.0656-.4422.1187-.877.0811-1.3235-.037-.4396-.0994-.8888-.2403-1.3091-.0895-.2669-.201-.5286-.3236-.7818-.0344-.071-.0818-.1336-.1293-.1963-.1201-.1584-.2389-.3197-.3697-.47-.1749-.2011-.3841-.4014-.6152-.5299-.2246-.125-.4661-.2248-.7064-.3138-.0676-.025-.13605-.0472-.20549-.0666-.03702-.0103-.07422-.0198-.11159-.0286-.01625-.0039-.03258-.0075-.04892-.011-.01094-.0024-.02197-.0047-.03292-.0068-.06653-.0129-.25987-.0482-.32563-.0398l.58414.158-.01531-.0081c-.27261-.1442-.58961-.1999-.8919-.1166-.15059.0358-.28185.1048-.39362.2072-.12596.0815-.22541.1898-.29809.3247-.14195.2686-.2131.5941-.11664.8919.09064.2802.26423.5502.53189.6918l.0153.0081-.41525-.4153c.0372.0759.1429.1999.2007.2614.00949.0101.01924.0199.02874.03.02095.0221.04155.0446.06174.0674.0407.046.07969.0935.11749.1419l-.19822-.2565c.09039.1173.17077.2418.24089.3723.07166.1334.16162.2523.23978.3821.07978.1326.13836.2732.20942.4098.07269.1398.14871.2751.21019.4207l-.15144-.359c.13348.3202.22259.6569.26885 1.0007l-.0525-.3905c.04643.3569.0472.7184-.00035 1.0752l.05123-.3812c-.04464.3245-.12836.6424-.25552.9444l.14136-.3349c-.09851.2308-.22849.4473-.38105.6464l.21746-.2815c-.15136.1953-.32529.3711-.52043.5227l.27971-.2161c-.19189.1473-.40097.2695-.62347.3643l.32802-.1385c-.24439.1024-.50076.1705-.76328.2058l.36257-.0487c-.29245.0376-.58782.0348-.8801-.0033l.35984.0483c-.34393-.0464-.67932-.1404-.99905-.2749l.32042.1352c-.32127-.1368-.62408-.3132-.90097-.5259l.26894.2078c-.2544-.1973-.4846-.4237-.68196-.6781l.206.2666c-.17197-.224-.31666-.4671-.42688-.7271l.13177.3123c-.09765-.2343-.16598-.4789-.2013-.7303l.04635.3452c-.02984-.2231-.03472-.4478-.00487-.6712l-.04609.3431c.03104-.2189.09192-.4314.17735-.6352l-.12929.3064c.11809-.2764.27586-.544.45852-.7827l-.19506.2524c.1659-.2142.35693-.4072.57123-.5732l-.24235.1873c.18403-.1407.38267-.2607.59569-.352l-.27587.1163c.1777-.0746.36266-.1289.55378-.1554l-.2975.04c.1529-.0198.30665-.022.45964-.0028l-.28998-.039c.14306.0193.28194.0565.41517.1121l-.25423-.1073c.12938.0555.25012.1267.36223.2117l-.21011-.1624.01463.0113c.09398.1012.20523.1726.33375.2145.12357.0649.2568.0947.39961.0893.2544 0 .55822-.1129.73336-.3037.18145-.1976.31614-.4572.30374-.7334-.01232-.2745-.10458-.5363-.30357-.7337M71.2288 7.76621c-.2332.02258-.4683.04977-.6869.13734-.1474.059-.3004.11775-.4386.19822-.1374.07995-.2605.18368-.3853.28116-.1157.09039-.2193.19292-.3111.30751-.1529.19078-.3035.38164-.4145.60013-.1156.22738-.2171.46775-.2896.71293-.0513.1735-.0634.3643-.0853.5414-.0099.08-.0168.1603-.0197.2409-.0096.2659.03.5261.0681.7892.0221.1522.0572.3016.1077.4469.0797.2296.1749.4574.2887.6723.0638.1204.1369.2358.2182.3451.2286.3073.4593.5925.7614.8287.3047.2383.6039.4594.9576.6185.3578.1609.7184.3079 1.1032.3876.2494.0517.5038.0835.7568.1093.1386.0141.2786.0182.4178.0157.1385-.0026.2765-.0133.4139-.031.2522-.0325.5053-.061.7523-.1232.1322-.0334.2624-.0748.3893-.1248.2301-.0905.465-.1846.6822-.3052.1187-.0659.232-.1406.3401-.2226.1988-.1509.4008-.2989.5747-.4789.1781-.1845.335-.3925.4813-.6022.0828-.1188.1558-.2445.2179-.3754.1723-.3627.3212-.7347.38-1.1331.0602-.4085.107-.8032.0592-1.2143-.048-.41287-.1064-.81607-.248-1.20763-.1385-.38319-.3035-.76748-.524-1.11193-.1413-.22088-.306-.42876-.4708-.63185-.0929-.11442-.1926-.22319-.299-.32512-.1884-.18052-.4002-.33872-.609-.49358-.1144-.08483-.2345-.16196-.3596-.22995-.2299-.12485-.4747-.2278-.7249-.30425-.0334-.01018-.0669-.01958-.1009-.02796-.0758-.01873-.0259-.00616-.2072-.03053-.1073-.01445-.1348-.02856-.2073-.02506-.0207.00103-.0415.00299-.0622.00488-.1834.01659-.3664.04215-.5479.07208-.0641.01061-.1278.02395-.191.03985-.03.00761-.0599.01574-.0897.02446-.0176.00513-.0353.01043-.0527.01608-.0453.01479-.2548.09979-.2976.12476-.06.03514-.2034.15196-.2541.19736l.8503-.35222-.0168-.0006c-.1655-.00625-.32.0283-.4633.10355-.149.04849-.2781.13135-.387.24867-.1172.10895-.2002.2379-.2487.38704-.0752.14332-.1098.29775-.1035.4633.0139.31102.1161.63357.3522.85035l.2434.18804c.1875.10877.3898.1635.6069.16418l.0168.0006-.8503-.35223c.166.17753.3843.24654.5831.3707.0573.03583.1129.07406.1675.11399.1507.11031.3526.15435.5273.22721l-.3464-.14614c.2874.12194.5615.26825.8096.45886l-.2933-.22661c.2371.18411.448.39892.6316.63622l-.225-.29117c.2016.26295.3684.5507.4975.85585l-.1438-.34081c.1272.30421.2163.62311.2605.95001l-.0505-.3762c.0371.2842.0399.5717.0024.8561l.0502-.3735c-.0337.2451-.0972.4846-.1925.713l.1407-.3336c-.0897.2113-.2055.4096-.3458.5914l.2171-.281c-.1377.1764-.2966.3342-.4733.4714l.2793-.2158c-.1954.1499-.4092.2727-.6356.3693l.3277-.1383c-.2723.1146-.5587.1903-.851.2308l.3619-.0486c-.3489.0468-.7036.0436-1.0525-.0027l.3577.0481c-.3335-.0456-.6601-.1329-.9704-.2634l.3164.1336c-.267-.1136-.5197-.2581-.7496-.4354l.2644.2043c-.1941-.1513-.3696-.3245-.5204-.5191l.2018.2612c-.139-.1816-.2547-.3792-.3439-.5898l.1287.3049c-.0824-.1978-.1379-.4037-.1669-.616l.0451.3357c-.0298-.2307-.0295-.4636.0003-.6943l-.0446.3318c.0245-.1804.042-.3607.0657-.541l-.0439.3265c.0285-.2063.0803-.4084.1608-.60073l-.1174.27823c.0636-.1486.1427-.28934.241-.41787l-.1745.22587c.0806-.10333.1716-.19697.2746-.2782l-.2178.16829c.1007-.07774.2096-.14221.3266-.19215l-.2479.10458c.0478-.01975.0963-.0372.1458-.05233.2394-.07355.4906-.24218.6109-.46973l.103-.24414c.0426-.13588.0487-.27176.0182-.40755-.0002-.09227-.0235-.17821-.0698-.25791-.0412-.12673-.1116-.23636-.2113-.32897-.1887-.17316-.457-.32512-.7228-.29938M90.0156 32.6672c-.1583.0277-.3139.0685-.4649.1233-.2657.0964-.533.2061-.7798.3457-.2445.1383-.463.3166-.6829.4899-.1242.0978-.2409.2051-.3494.32-.1943.2058-.3666.4352-.5318.6638-.0957.1325-.1824.2714-.2598.4153-.1367.2537-.2468.5247-.3515.792-.0589.1506-.1086.3048-.1485.4615-.0726.2862-.1062.5802-.1427.8726-.0202.1621-.0304.3253-.0289.4886.0028.2946.0489.5875.0919.8781.0231.1569.0578.3122.1047.4638.0238.077.0507.153.0807.2278.0781.1944.1564.3908.2493.579.0725.1471.158.2878.2553.4198.1741.2361.3518.48.5662.6828.2132.2017.4508.3816.6923.5471.134.0918.2751.173.4213.2435.2686.1294.547.249.8316.3402.1563.0501.316.0897.4777.1186.2984.0537.6017.0964.905.1133.1657.0094.3319.0083.4975-.0028.307-.0207.6144-.0627.9165-.1201.4579-.0872.8932-.2644 1.3131-.4629.1483-.0701.292-.1502.429-.2404.0695-.0457.137-.0943.2032-.1448.1714-.1309.3476-.2592.5088-.4034.1225-.1095.2364-.2286.3398-.3562.1884-.2327.3801-.4705.5294-.7317.1506-.2633.2662-.5507.3737-.8326.0608-.1594.1088-.3237.1443-.4905.0642-.3012.1042-.6096.1267-.9165.0123-.1681.013-.3371.0029-.5054-.0187-.3095-.0622-.6194-.1183-.9241-.0309-.1676-.0721-.3333-.1232-.4959-.0928-.2955-.2184-.5824-.3452-.8641-.0701-.1557-.1496-.3072-.2381-.4531-.2471-.4077-.5468-.7887-.9153-1.0928-.2292-.1891-.4656-.3774-.7193-.5341-.0704-.0435-.1424-.0845-.2158-.1228-.0942-.0491-.1906-.0866-.2892-.1283-.2673-.1128-.2246-.0946-.6034-.134-.0078-.0008-.0155-.0016-.0233-.0024-.0208-.002-.0417-.0038-.0626-.0054-.0749-.0058-.15-.0085-.2252-.0083-.0359 0-.0719.0008-.1078.0022-.0197.0008-.0393.0016-.0589.0028-.1227.0072-.2698.0163-.3684.0482-.0567.0184-.2777.1079-.3255.1398l1.0077-.1319-.017-.0061c-.1739-.0544-.3476-.0622-.5215-.0233-.174.0078-.3361.0596-.4862.1552-.1524.0822-.2747.1944-.3669.3368-.1157.1263-.1937.2746-.2341.4448l-.0467.3476c.0008.2361.0603.456.1786.6601l.2044.2646c.1632.1621.3556.2742.5771.3363l.017.0061-.9134-.9133c.0763.2608.2152.4618.4015.6513.0272.0277.0539.0559.08.0847.0573.0628.1116.1281.1638.1953l-.2373-.3071c.0528.0686.1053.1372.1582.2058.0688.1162.1612.2086.2773.2773.0541.0427.1086.0848.1636.1263.012.0089.0239.0179.036.0266.0435.0315.0869.0629.1294.0957l-.3166-.2445c.2382.186.4502.4021.6359.6404l-.2553-.3304c.1511.1957.2943.3962.4461.5922l-.2585-.3346c.2189.2853.3991.5978.5389.9291l-.1663-.3939c.1406.3371.2384.6905.2885 1.0524l-.0588-.4371c.0457.3406.0487.6855.0029 1.0263l.0586-.436c-.0407.2919-.1169.5774-.2311.8493l.165-.3909c-.1024.2401-.2329.4666-.3913.674l.2553-.3305c-.1623.2101-.3508.3975-.5602.5608l.33-.2548c-.2421.1868-.5078.3391-.7892.4582l.3884-.164c-.3169.1324-.6497.2215-.9897.2686l.4312-.0579c-.3581.048-.7208.0495-1.079.0021l.4299.0578c-.3196-.0437-.6327-.126-.9305-.2503l.3854.1627c-.2577-.1091-.5009-.2485-.7224-.4195l.3259.2518c-.2044-.1595-.3897-.3443-.5487-.549l.2505.3242c-.1475-.1924-.2691-.4021-.3639-.6251l.1603.3797c-.1055-.2521-.1757-.5167-.2131-.7872l.0562.4187c-.0424-.318-.0398-.6399.0024-.9577l-.0556.4144c.0464-.3373.1366-.6669.2679-.9811l-.1554.3681c.1252-.2959.2855-.5756.4812-.8306l-.2384.3085c.1702-.2195.3651-.4185.5844-.5891l-.3056.2361c.1975-.1519.412-.2791.6414-.3764l-.3576.1509c.1613-.0673.3281-.1192.4992-.1553.1937-.046.3623-.1349.506-.2664.162-.1049.2898-.2441.3833-.4175.1088-.1709.1676-.3552.1766-.5533.0443-.1978.0354-.3956-.0266-.5934l-.15-.3554c-.1323-.2237-.3102-.4016-.5338-.5339l-.3555-.15c-.2637-.0709-.5273-.0713-.791-.0004M66.0282 91.0901c.1968-.9918 1.2735-1.8771 2.2907-1.6658.559.1161 1.0621.5569 1.5021.9022.5914.4642 1.1742.9432 1.8635 1.2552 1.6952.7675 3.396.309 4.7317-.9262.5871-.5428 1.0317-1.2092 1.5829-1.7841.3656-.3813.9567-1.0158 1.5292-.8476.7682.2259 1.6148-.2732 1.8244-1.0359.2313-.8417-.2876-1.5297-1.0359-1.8244-2.1739-.856-4.0074.8149-5.2585 2.3805-.4013.5023-.9803 1.3873-1.6965 1.4353-.4491.0301-1.1345-.5227-1.5835-.8553-1.4712-1.0904-2.9996-1.9773-4.8932-1.4308-1.8022.52-3.0859 2.2224-3.1008 4.0931-.01 1.256 1.9878 1.5944 2.2439.3038"/>
  </g>
  <defs>
    <clipPath id="a">
      <path fill="#fff" d="M3 6h93.3432v88H3z"/>
    </clipPath>
  </defs>
</svg>
