<svg width="100" height="100" viewBox="0 0 100 100" fill="none" xmlns="http://www.w3.org/2000/svg">
<g clip-path="url(#clip0_2580_4286)">
<path d="M40.2488 66.6063C35.6449 63.9947 30.1204 63.8166 24.8906 63.0007C22.1616 62.5748 19.2549 61.8386 17.4847 59.7184C16.7423 58.8292 16.2475 57.5603 16.7488 56.5159C17.5078 54.9342 19.887 55.0515 21.3677 55.9924C22.8483 56.9333 23.9856 58.4249 25.6255 59.0483C28.5366 60.155 31.9625 57.7806 32.6581 54.7449C33.3537 51.7092 31.8427 48.5004 29.5611 46.3807C27.2794 44.261 24.3285 43.0324 21.4166 41.9278C19.1377 41.0633 16.3745 39.5389 16.6809 37.1209C16.9228 35.2114 19.2154 34.1143 21.1021 34.4947C22.9889 34.875 24.4859 36.2846 25.76 37.7272C29.1558 41.5723 32.182 46.3799 37.1409 47.6936C37.6799 47.8364 38.2708 47.9288 38.7812 47.7039C40.0915 47.1265 39.8102 45.1906 39.2128 43.8892C37.0885 39.2607 33.7756 35.3003 30.986 31.0396C28.1964 26.7789 25.8556 21.9249 26.0825 16.8372C26.0963 16.5283 26.1247 16.204 26.2967 15.947C27.0064 14.8863 28.5696 16.2046 28.9806 17.4128C29.7594 19.7026 30.1123 22.1688 31.3351 24.2555C32.558 26.3422 35.0597 27.9863 37.3468 27.1996C40.3178 26.1774 40.7495 22.0496 39.7394 19.0745C39.237 17.5952 38.5563 15.8287 39.5278 14.6051C39.9358 14.0913 40.5748 13.8003 41.2222 13.6937C44.3228 13.1831 46.8203 16.6704 46.7693 19.8124C46.7182 22.9543 45.0477 25.801 43.8995 28.726C42.7954 31.5383 42.1531 34.5313 42.006 37.549C41.928 39.1509 42.0213 40.8638 42.9428 42.1764C43.8643 43.489 45.8746 44.1416 47.1236 43.1355C48.392 42.1136 48.2068 40.1878 48.3336 38.5639C48.4603 36.94 49.7502 34.973 51.2634 35.5756C51.7083 35.7528 52.0442 36.1292 52.308 36.5288C53.6166 38.5106 53.4383 41.1881 52.4579 43.3511C51.4775 45.514 49.8076 47.2765 48.1682 48.9946C46.5602 50.6798 44.9522 52.365 43.3442 54.0503C42.6198 54.8096 41.8769 55.5976 41.509 56.5804C40.6619 58.844 42.0576 61.3404 43.7629 63.053C45.7675 65.0661 48.765 66.6204 51.3967 65.5508C53.7801 64.5821 54.9265 61.8171 55.1476 59.2538C55.3686 56.6906 54.9201 54.0919 55.2825 51.5448C55.3974 50.7376 55.6205 49.8933 56.2148 49.3351C57.1232 48.4819 58.6946 48.628 59.6088 49.4749C60.523 50.3218 60.8257 51.6871 60.6234 52.9169C60.4564 53.9321 59.9856 54.8893 59.916 55.9158C59.8463 56.9422 60.3798 58.1455 61.3973 58.2981C62.0921 58.4024 62.7558 57.9835 63.2785 57.514C67.5389 53.6864 66.4252 46.7475 64.1802 41.4786C61.9353 36.2097 58.8314 30.6621 60.2312 25.1086C60.4081 24.4072 60.7429 23.635 61.4335 23.4197C62.6049 23.0548 63.4738 24.5101 63.7879 25.6962C64.4339 28.1358 64.8203 30.644 64.9382 33.1649C65.0312 35.1537 65.5315 37.8083 67.5191 37.9253C69.0035 38.0127 70.0492 36.4137 70.2699 34.9432C70.4906 33.4727 70.2378 31.9254 70.7257 30.5207C71.3133 28.8292 73.0288 27.5959 74.8193 27.5778C76.6099 27.5597 78.35 28.7578 78.9718 30.4371C79.7531 32.5471 78.8154 34.9078 77.5677 36.7802C76.32 38.6526 74.7292 40.3503 73.993 42.4765C73.2568 44.6027 73.7268 47.4038 75.75 48.3881C77.9252 49.4463 80.8436 47.9805 82.8172 49.3791C84.7383 50.7404 84.2127 53.9136 82.5293 55.5598C80.8458 57.2061 78.4627 57.8591 76.342 58.8821C74.2212 59.9051 72.112 61.6889 72.0648 64.043C72.047 64.9282 72.3306 65.8129 72.2032 66.6891C71.9294 68.573 69.855 69.698 67.9545 69.8052C66.054 69.9124 64.184 69.3182 62.2829 69.22C59.0495 69.053 55.7698 70.4134 53.6039 72.82C52.7432 73.7762 51.9577 74.9493 50.7165 75.2878C48.3353 75.9375 46.5552 73.258 45.0406 71.3092C42.7271 68.3324 44.8527 69.218 40.2488 66.6063Z" fill="#009345"/>
<path d="M44.6641 81.7654C45.8503 80.3751 46.4561 78.6703 46.5889 76.8594L46.4632 77.3242C46.6811 76.9919 46.6217 76.6323 46.6104 76.2635C46.6024 76.0017 46.6002 75.7412 46.579 75.4798C46.5317 74.8959 46.4452 74.3108 46.3149 73.7395C46.0701 72.6669 45.6594 71.6204 45.1368 70.6534C43.984 68.5206 42.1506 66.8277 40.129 65.5274C38.8988 64.736 37.576 64.1266 36.225 63.573L37.1175 64.0932C36.6889 63.6898 36.1965 63.5216 35.6558 63.3524C35.379 63.2658 35.1012 63.1822 34.8222 63.1029C34.3058 62.9561 33.7857 62.8223 33.2633 62.6986C32.1746 62.4409 31.0758 62.2303 29.9745 62.0341C27.5826 61.608 25.1748 61.2482 22.8169 60.6525C21.4952 60.3185 20.1936 59.9066 18.9365 59.377L19.4602 59.598C18.6124 59.2362 17.7878 58.8208 17.0535 58.2584L17.5014 58.6045C17.0997 58.2893 16.7484 57.9341 16.4355 57.5309L16.7832 57.9809C16.5723 57.7067 16.3953 57.415 16.2548 57.0988L16.476 57.6231C16.372 57.375 16.3027 57.1221 16.2666 56.8555L16.3441 57.4331C16.3142 57.1692 16.316 56.9073 16.347 56.6436L16.2702 57.2153C16.3125 56.9096 16.3917 56.6159 16.5116 56.3314L16.2974 56.8389C16.3935 56.6238 16.509 56.4226 16.6502 56.2338L16.321 56.6599C16.4491 56.4968 16.6163 56.3715 16.7446 56.2127L16.3248 56.5371C16.4921 56.4193 16.6712 56.333 16.8572 56.2492L16.3643 56.4572C16.5196 56.3933 16.6768 56.3491 16.8426 56.3228L16.3056 56.3949C16.3865 56.3848 16.4566 56.3972 16.5376 56.4076L16.006 56.3362C16.9006 56.4616 17.7598 56.7297 18.5914 57.078L18.1697 56.9001C18.3934 56.9952 18.6152 57.0945 18.8349 57.1982C19.2535 57.3959 19.6942 57.6767 20.1722 57.6233L19.3604 57.4037C21.3849 58.6534 23.3562 60.1904 25.7052 60.7735C27.7651 61.2849 30.2892 61.2614 32.0901 59.9932C33.1247 59.2646 33.8941 58.25 34.2081 57.0098C34.5685 55.5868 34.3783 54.0261 34.1143 52.6026C33.6962 50.3474 32.7418 48.147 31.4247 46.2721C29.8473 44.0265 27.7953 42.1172 25.3655 40.8227L25.7693 41.1346C25.0206 40.5077 24.0193 40.1807 23.098 39.876C22.5029 39.6792 21.9101 39.4773 21.3312 39.2362L21.8134 39.4397C21.2034 39.1817 20.6069 38.8837 20.0791 38.4798L20.4883 38.7959C20.2622 38.6178 20.0549 38.4225 19.8749 38.1974L20.1912 38.6067C20.0617 38.4374 19.9535 38.2586 19.8691 38.0627L20.0732 38.5461C20.0088 38.3844 19.9641 38.2198 19.9381 38.0478L20.0105 38.5859C19.9883 38.4018 19.989 38.2202 20.0092 38.0359L19.9369 38.5743C19.9647 38.3711 20.0179 38.1798 20.0965 37.9905L19.8923 38.4745C19.9789 38.285 20.0848 38.1118 20.2109 37.9462L19.894 38.3564C20.0607 38.1501 20.2486 37.9699 20.4576 37.8068L20.0471 38.1239C20.3489 37.8993 20.6749 37.7312 21.0198 37.5832L20.5362 37.7872C20.9184 37.6304 21.3119 37.5196 21.7205 37.4585L21.1906 37.5298C21.6343 37.4707 22.0776 37.4716 22.5217 37.5269L22.0006 37.4569C22.5539 37.5337 23.0868 37.69 23.6021 37.904L23.1439 37.7106C23.918 38.0415 24.6307 38.4884 25.2981 38.999L24.9228 38.7091C26.0331 39.5701 27.0295 40.5898 27.8908 41.6971L27.6163 41.3418C28.2167 42.1198 28.7505 42.9453 29.3368 43.7336C29.9988 44.6238 30.6884 45.4979 31.4517 46.3042C32.1931 47.0874 33.0104 47.7994 33.8972 48.4143C34.7215 48.9859 35.6496 49.4567 36.6423 49.6371C37.8493 49.8565 39.083 49.8229 40.2422 49.3906C40.8016 49.1819 41.2333 48.7221 41.2298 48.0934C41.2263 47.4729 41.2912 46.512 40.7767 46.0971L41.1289 46.9475C41.1091 45.5267 40.9341 44.1082 40.5185 42.7464C40.4219 42.4297 40.314 42.1167 40.1957 41.8075C40.1676 41.7339 40.1431 41.6531 40.1077 41.5827C40.0734 41.5144 39.9548 41.2371 40.1061 41.7778L40.0814 41.5939C40.073 41.4099 40.0184 41.2385 39.9173 41.0797C39.8467 40.9223 39.7704 40.7676 39.6962 40.6119C39.4076 40.0066 39.105 39.4116 38.765 38.8332C37.2573 36.2678 35.2923 33.9882 33.3527 31.7444C32.253 30.4721 31.1458 29.2058 30.09 27.8966L30.3787 28.2702C30.1919 27.878 29.7754 27.5028 29.4955 27.1575C29.2835 26.8959 29.0744 26.632 28.8682 26.3659L29.1616 26.7456C27.8519 25.0498 26.6689 23.2437 25.8326 21.2644L26.0279 21.7271C25.5572 20.6015 25.1918 19.4257 25.0222 18.2154L25.0925 18.7392C24.9918 17.9728 24.973 17.2009 25.0752 16.4335L25.004 16.9631C25.0801 16.4424 25.2118 15.9373 25.4129 15.4507L25.2106 15.93C25.3904 15.5145 25.6163 15.1132 25.8934 14.7545L25.5802 15.1597C25.8078 14.8754 26.0647 14.6232 26.3514 14.3988L25.9507 14.7083C26.2597 14.4744 26.5909 14.28 26.9469 14.1267L26.4797 14.3239C26.8096 14.1883 27.1483 14.0923 27.5015 14.0415L26.9876 14.1106C27.2876 14.0732 27.5857 14.07 27.886 14.1067L27.3771 14.0383C27.63 14.0749 27.8729 14.1385 28.1106 14.2324L27.6571 14.041C27.9095 14.1479 28.1421 14.2851 28.3619 14.4484L27.9812 14.1543C28.2077 14.3294 28.4082 14.5275 28.5836 14.7539L28.2923 14.3768C28.4569 14.5981 28.5911 14.8347 28.7008 15.0877L28.5148 14.6468C28.6794 15.0438 28.7776 15.4597 28.8372 15.8846L28.7722 15.401C28.8357 15.8875 28.8338 16.3761 28.9178 16.8605L28.8539 16.385C28.85 18.2188 28.4592 20.0462 28.6316 21.8815C28.7413 23.0499 29.004 24.1725 29.6343 25.1796C30.2525 26.1677 31.1022 26.9923 32.0935 27.6029C33.102 28.2242 34.2115 28.5465 35.3786 28.6793C36.5656 28.8142 37.7474 28.5484 38.8243 28.0592C40.7713 27.1745 42.225 25.1776 42.6969 23.1179C42.9778 21.8918 42.9932 20.5584 42.5978 19.3539C42.1174 17.8908 41.1614 16.7527 40.2344 15.5541L40.5257 15.9312C40.0838 15.3567 39.6534 14.7666 39.3679 14.0963L39.5564 14.5429C39.4037 14.1691 39.2938 13.7839 39.2335 13.3846L39.3004 13.8824C39.2552 13.5428 39.2479 13.205 39.2924 12.8649L39.2254 13.3635C39.2613 13.131 39.3205 12.9082 39.4099 12.6905L39.2206 13.139C39.3101 12.9477 39.4132 12.7723 39.5403 12.6037L39.2467 12.9836C39.3587 12.8447 39.4805 12.7233 39.6185 12.6103L39.2405 12.9023C39.4226 12.7643 39.6154 12.6539 39.8245 12.5619L39.3813 12.749C39.6753 12.6298 39.9774 12.5541 40.2908 12.5075L39.8021 12.5732C40.2588 12.5141 40.7161 12.514 41.173 12.5697L40.6909 12.5049C41.2005 12.5743 41.6927 12.7115 42.1673 12.9095L41.7408 12.7295C42.2637 12.9551 42.7498 13.2467 43.2019 13.5925L42.8468 13.3181C43.3874 13.7404 43.8662 14.2295 44.2866 14.7713L44.0181 14.4237C44.44 14.9776 44.8048 15.573 45.0771 16.214L44.9073 15.8118C45.2016 16.5218 45.3969 17.2573 45.4998 18.0187L45.4394 17.5695C45.575 18.6483 45.5488 19.7333 45.4047 20.8098L45.4653 20.3586C45.1622 22.512 44.4164 24.5675 43.5754 26.5627L43.7481 26.1534C42.6872 28.6587 41.4695 31.1216 40.7422 33.7527C40.374 35.0849 40.1301 36.4786 40.0926 37.8619C40.0546 39.2651 40.2943 40.6335 40.8498 41.9207C41.3578 43.0976 42.2797 44.1461 43.4255 44.737C44.6301 45.3584 46.1157 45.6413 47.4289 45.1877C48.5298 44.8074 49.5072 44.0474 50.0531 43.0034C50.524 42.1026 50.7076 41.1293 50.7585 40.1208C50.8504 38.2981 50.4244 36.4724 50.6656 34.6535L50.6018 35.1286C50.6609 34.7113 50.7593 34.3003 50.9216 33.9107L50.7415 34.3375C50.8554 34.0751 50.9968 33.8301 51.1712 33.6034L50.8924 33.9644C51.0311 33.7906 51.1848 33.6336 51.3548 33.4904L49.6219 33.9484C49.868 34.0106 50.1078 34.0891 50.3427 34.1855L49.9179 34.0063C50.3123 34.1741 50.6797 34.3893 51.0199 34.65L50.661 34.3727C51.0111 34.6478 51.3219 34.9634 51.5974 35.3129L51.3209 34.955C51.6764 35.4159 51.9622 35.9213 52.1897 36.4567L52.0121 36.0358C52.2948 36.7169 52.479 37.431 52.5803 38.1609L52.5176 37.6947C52.6279 38.533 52.6279 39.3797 52.52 40.2183L52.5824 39.7545C52.4748 40.5466 52.2702 41.3173 51.9593 42.0539L52.1343 41.6393C51.6224 42.8294 50.9345 43.9132 50.1451 44.9374L50.4182 44.5839C48.3967 47.1863 45.8751 49.3507 43.9163 52.0066C41.9175 54.7167 40.514 58.1374 40.9725 61.5491C41.2132 63.3408 41.9999 65.0144 43.2673 66.3134C44.4371 67.5123 46.0181 68.4048 47.6669 68.7237C48.4925 68.8833 49.3383 68.9665 50.1758 68.8656C51.1977 68.7425 52.0876 68.4933 53.0211 68.0521C54.5142 67.3463 55.7935 66.1092 56.6456 64.7039C57.5798 63.1631 57.9652 61.3283 57.8068 59.5395C57.6426 57.6856 57.0765 55.934 56.6809 54.1261C56.5906 53.7133 56.5137 53.2982 56.4554 52.8796L56.5242 53.391C56.4467 52.8013 56.3988 52.2081 56.4747 51.616L56.4061 52.1263C56.4759 51.6368 56.6133 51.1645 56.8048 50.709L56.6117 51.1669C56.8192 50.6893 57.0816 50.2417 57.3973 49.8277L57.0981 50.2149C57.3769 49.8582 57.691 49.5306 58.0478 49.251L57.6615 49.5495C57.9309 49.3446 58.2173 49.1696 58.528 49.0344L58.0719 49.2269C58.3111 49.128 58.5563 49.0563 58.8125 49.018L58.3048 49.0862C58.5169 49.0594 58.7265 49.0568 58.9389 49.0811L58.4312 49.0129C58.6484 49.0432 58.8552 49.1005 59.0576 49.185L58.6013 48.9924C58.7981 49.0805 58.9797 49.1896 59.1525 49.3186L58.7658 49.0199C58.9604 49.1712 59.1347 49.3406 59.2876 49.5342L58.9888 49.1474C59.1293 49.3317 59.2446 49.529 59.3376 49.7413L59.145 49.2847C59.2656 49.5724 59.3399 49.8729 59.3816 50.1816L59.3133 49.6734C59.3798 50.2144 59.3484 50.7594 59.2783 51.2984L59.3466 50.79C59.1998 51.8742 58.9047 52.9308 58.6595 53.9951C58.398 55.1299 58.1356 56.3362 58.227 57.5063C58.2891 58.3009 58.4498 58.9676 58.7927 59.6857C59.123 60.3774 59.6763 60.9064 60.2807 61.3558C61.8633 62.5325 64.1577 62.3198 65.7803 61.3482C69.3532 59.2088 69.256 54.5305 68.6828 50.9277C68.1847 47.7964 67.023 44.8159 65.7422 41.9319C64.4916 39.1159 63.0621 36.3835 61.8131 33.5667C61.6574 33.2158 61.505 32.8634 61.3557 32.5097L61.5568 32.9864C60.5253 30.5333 59.6643 27.9922 59.3032 25.3466L59.3757 25.8865C59.1832 24.4362 59.1062 22.9171 59.2955 21.4619L59.2227 22.0034C59.2923 21.5115 59.4139 21.0307 59.601 20.57L59.3964 21.0548C59.5294 20.7405 59.6905 20.4438 59.898 20.1722L59.5814 20.582C59.7142 20.4159 59.86 20.2666 60.0278 20.1356L59.6186 20.4517C59.7516 20.3541 59.8905 20.2732 60.0422 20.2082L59.5598 20.4118C59.6971 20.3584 59.8343 20.3216 59.9799 20.2989L59.4437 20.371C59.6113 20.351 59.7732 20.3515 59.9409 20.3713L59.4054 20.2993C59.5601 20.3246 59.7062 20.3648 59.8526 20.4213L59.3718 20.2184C59.5659 20.3019 59.7423 20.407 59.9115 20.533L59.5048 20.2189C59.7401 20.4049 59.9433 20.6182 60.1275 20.8547L59.814 20.4488C60.09 20.8182 60.3013 21.2225 60.4808 21.6463L60.2793 21.169C60.5672 21.874 60.7436 22.6111 60.8454 23.3646L60.7744 22.8363C61.0295 24.8482 60.7598 26.8618 60.7221 28.877C60.6816 31.0397 60.9306 33.2793 61.9885 35.2033C62.9182 36.8943 64.591 38.183 66.5041 38.5404C67.4813 38.7229 68.4847 38.7551 69.4492 38.4715C70.5379 38.1514 71.4001 37.5102 72.0744 36.6099C72.7974 35.6446 73.0589 34.3536 73.0112 33.1673C72.9635 31.9833 72.6771 30.8231 72.5142 29.653L72.5813 30.1518C72.4973 29.5209 72.4554 28.8867 72.5359 28.2531L72.4693 28.7484C72.5149 28.4342 72.5927 28.1326 72.7153 27.8393L72.5281 28.2827C72.6445 28.0165 72.7908 27.7688 72.9657 27.537L72.6763 27.9115C72.8883 27.639 73.1328 27.3986 73.4048 27.1863L73.0317 27.4745C73.3405 27.2398 73.6755 27.0417 74.0317 26.8882L73.5936 27.0731C74.0099 26.899 74.4473 26.786 74.8938 26.7236L74.4031 26.7895C74.8488 26.732 75.2968 26.7284 75.743 26.7844L75.2483 26.7179C75.6299 26.7703 76.001 26.8659 76.3578 27.0117L75.9105 26.8229C76.2104 26.9503 76.4909 27.1105 76.7502 27.308L76.3692 27.0135C76.6002 27.1954 76.8055 27.4014 76.9858 27.6337L76.6899 27.2508C76.8928 27.5213 77.0541 27.8163 77.1876 28.1268L76.9958 27.6722C77.1527 28.0571 77.256 28.4535 77.3142 28.8648L77.2458 28.3554C77.3121 28.8851 77.3013 29.4148 77.2322 29.9436L77.3012 29.4297C77.1987 30.1447 76.9943 30.8356 76.7157 31.5012L76.9129 31.0339C76.4188 32.1841 75.6943 33.2056 74.9324 34.1918L75.2444 33.788C74.1507 35.1974 72.956 36.5565 72.0839 38.1213C71.164 39.7719 70.5806 41.5676 70.3296 43.4359C70.2659 43.9096 70.2045 44.3853 70.1914 44.8638C70.1783 45.3403 70.2451 45.8024 70.3159 46.2746C70.4357 47.0727 70.7357 47.8365 71.083 48.5608C71.7826 50.0201 73.0065 51.2838 74.562 51.7981C75.6119 52.1452 76.7068 51.9618 77.6836 51.5033C78.7038 51.0244 79.3433 50.0893 80.0066 49.2266L79.6791 49.6506C79.9238 49.3357 80.1799 49.0336 80.4934 48.7849L80.0701 49.1119C80.296 48.9398 80.5379 48.7991 80.7989 48.6871L80.2999 48.8978C80.5785 48.7842 80.8654 48.7078 81.1629 48.6635L80.6083 48.738C80.9924 48.6871 81.3769 48.6916 81.7607 48.7427L81.2069 48.6683C81.6204 48.7292 82.0204 48.8421 82.4065 49.0017L81.9097 48.7921C82.2983 48.9585 82.6625 49.1683 83.0003 49.4224L82.5801 49.0978C82.7534 49.2317 82.9257 49.3669 83.1004 49.4989L82.6806 49.1746C82.9409 49.3881 83.1764 49.6243 83.3861 49.8877L83.0614 49.4675C83.279 49.7492 83.4604 50.0521 83.6015 50.379L83.3917 49.8819C83.5337 50.2266 83.6234 50.5856 83.6763 50.9542L83.6018 50.3998C83.6579 50.8399 83.6547 51.2796 83.5979 51.7195L83.6726 51.1637C83.6021 51.6542 83.4677 52.1278 83.2783 52.5856L83.4897 52.0847C83.2713 52.5947 82.9905 53.0705 82.6556 53.5126L82.9845 53.0868C82.6253 53.5501 82.2141 53.9647 81.7536 54.3276L82.1809 53.9974C81.7116 54.3586 81.2059 54.6505 80.6607 54.8808L81.167 54.6671C79.729 55.2541 78.1667 55.39 76.6444 55.6146C75.1182 55.8399 73.618 56.2072 72.287 57.0226C70.8163 57.9237 69.5799 59.2506 69.0669 60.924C68.5758 62.5261 68.9798 64.1981 69.7898 65.6166C70.4075 66.6984 71.3048 67.6161 71.8049 68.7656L71.5833 68.2403C71.6937 68.5049 71.7769 68.7754 71.8199 69.0595L71.7416 68.477C71.7703 68.7004 71.7721 68.921 71.7451 69.1447L71.8231 68.5639C71.7894 68.7932 71.728 69.0127 71.6394 69.2268L71.859 68.7063C71.7817 68.8809 71.6884 69.0436 71.5743 69.1967L71.9141 68.7569C71.7904 68.9147 71.6508 69.053 71.4928 69.1764L71.9315 68.8374C71.7542 68.9694 71.5644 69.0762 71.3621 69.1647L71.8785 68.9468C71.5506 69.0829 71.208 69.1654 70.8571 69.2147L71.4291 69.1378C70.7309 69.2275 70.0255 69.1904 69.3297 69.097L69.8964 69.1732C69.0355 69.0525 68.2038 68.8319 67.3713 68.5873C66.2051 68.2445 64.9948 67.9568 63.7829 67.8406L64.3344 67.9147C63.3349 67.7591 62.3276 67.6313 61.3151 67.6134C60.3185 67.5959 59.3252 67.6926 58.3431 67.861C56.4455 68.1867 54.6042 69.0204 53.1462 70.2835C52.4538 70.8835 51.9672 71.6996 51.6822 72.5633C51.3902 73.4479 51.4368 74.3541 51.5779 75.2569C51.6986 76.03 52.025 76.785 52.388 77.4712C52.7859 78.2233 53.315 78.9148 53.8736 79.5531C55.1714 81.0363 56.8313 82.139 58.6531 82.8635L58.1332 82.6441C58.4947 82.8004 58.8446 82.9474 59.2195 83.0599C60.3113 83.3877 61.6433 82.6673 61.9006 81.5376C62.168 80.3636 61.5475 79.2075 60.3783 78.8565C60.1004 78.773 59.8264 78.6761 59.5586 78.5646L60.0783 78.7839C59.2961 78.4507 58.5686 78.0076 57.8962 77.4885L58.334 77.8267C57.6409 77.2843 57.0122 76.665 56.4722 75.9695L56.8083 76.4046C56.4189 75.8951 56.0804 75.3499 55.8249 74.7608L56.0406 75.2722C55.8693 74.8657 55.7409 74.4454 55.6775 74.0083L55.7537 74.5757C55.7127 74.2612 55.7071 73.9466 55.747 73.6317L55.6709 74.1978C55.7075 73.9445 55.7725 73.7007 55.869 73.4636L55.6547 73.9714C55.7594 73.7275 55.8931 73.503 56.0551 73.2928L55.7233 73.7223C55.9097 73.4897 56.1224 73.2889 56.3562 73.1045L55.9276 73.4356C56.5275 72.9723 57.1813 72.5943 57.8788 72.2986L57.3755 72.5109C58.2231 72.1603 59.1117 71.9377 60.0199 71.8155L59.4634 71.8902C60.7583 71.7249 62.0721 71.7568 63.3648 71.9279L62.8133 71.8538C64.2539 72.0524 65.6195 72.4859 67.0104 72.8889C67.5966 73.0588 68.1929 73.1978 68.7966 73.2902C69.5419 73.4042 70.2984 73.5085 71.0545 73.4715C71.9688 73.4269 72.7659 73.243 73.5957 72.876C74.3582 72.5388 74.9633 71.9382 75.4257 71.2564C75.9035 70.552 76.1526 69.5923 76.142 68.7474C76.1303 67.8267 75.8421 66.9828 75.4307 66.17C74.8062 64.9366 73.7987 63.9299 73.252 62.6535L73.4751 63.1822C73.3483 62.8745 73.2544 62.5599 73.2058 62.2303L73.2846 62.8169C73.2507 62.5444 73.249 62.2752 73.2804 62.0025L73.2019 62.5877C73.242 62.299 73.3173 62.0225 73.4252 61.7519L73.2039 62.2764C73.3484 61.9345 73.5373 61.6211 73.7627 61.3266L73.4206 61.7694C73.7085 61.4054 74.0406 61.0857 74.4059 60.7999L73.9648 61.1407C74.4486 60.7717 74.9751 60.4705 75.5351 60.2328L75.0174 60.4513C77.0333 59.6219 79.2871 59.6992 81.3629 59.0843C83.6124 58.4181 85.5706 56.9944 86.7479 54.9422C87.3508 53.8914 87.6784 52.7723 87.7965 51.5736C87.9102 50.4196 87.6502 49.2652 87.1697 48.2213C86.3672 46.4775 84.5282 45.1423 82.6797 44.7191C81.6067 44.4734 80.4086 44.4372 79.3567 44.8054C78.6334 45.0587 78.0776 45.3847 77.4873 45.8654C76.9727 46.2845 76.5891 46.852 76.1883 47.3726L76.516 46.9484C76.2512 47.291 75.9803 47.6262 75.6415 47.899L76.0664 47.5708C75.891 47.7036 75.7055 47.8136 75.5037 47.9011L76.0056 47.6893C75.8336 47.7581 75.6587 47.8067 75.4754 47.8334L76.0343 47.7583C75.8602 47.7783 75.6886 47.7775 75.5146 47.7563L76.074 47.8314C75.8811 47.8023 75.6974 47.7496 75.5168 47.676L76.0198 47.8882C75.7945 47.7899 75.5876 47.6643 75.3912 47.5168L75.8178 47.8464C75.5378 47.6277 75.2934 47.3741 75.073 47.0959L75.403 47.5231C75.0801 47.104 74.8212 46.6447 74.6145 46.1582L74.8277 46.6634C74.613 46.1415 74.4641 45.6 74.3882 45.0407L74.4638 45.6041C74.3749 44.8789 74.4282 44.1539 74.5235 43.4313L74.4486 43.9882C74.6071 42.8517 74.9107 41.7449 75.3549 40.6868L75.1474 41.1786C76.164 38.8063 77.9749 36.9709 79.3441 34.8172C80.0427 33.7183 80.6152 32.4936 80.8995 31.2185C81.2066 29.8404 81.2705 28.3163 80.7884 26.9679C80.3435 25.7233 79.6192 24.702 78.5184 23.9629C77.6571 23.3846 76.625 23.133 75.6048 23.0505C74.719 22.9789 73.767 23.1121 72.9316 23.4137C71.968 23.7616 71.0748 24.2376 70.3456 24.9713C69.9607 25.3588 69.6064 25.8158 69.3675 26.3096C69.0276 27.0125 68.8715 27.6399 68.7878 28.415C68.6348 29.8329 69.0065 31.2569 69.1952 32.6548L69.1277 32.1522C69.2069 32.763 69.2525 33.3776 69.1774 33.9912L69.2454 33.4853C69.1983 33.8199 69.1139 34.1412 68.9845 34.4536L69.1769 33.9976C69.0774 34.2223 68.9566 34.4326 68.8106 34.6305L69.1095 34.2437C68.9591 34.4383 68.7892 34.6104 68.5961 34.7629L68.9834 34.4637C68.7755 34.6207 68.5523 34.7477 68.3126 34.8494L68.7702 34.6562C68.4865 34.7701 68.1941 34.8438 67.8914 34.8852L68.4014 34.8167C68.0238 34.8622 67.6463 34.8557 67.2694 34.8065L67.7802 34.8752C67.3485 34.8129 66.9306 34.6964 66.5276 34.5296L66.9874 34.7237C66.6041 34.5593 66.2443 34.353 65.9115 34.1014L66.3019 34.403C66.0108 34.1763 65.7492 33.9199 65.5221 33.6289L65.8241 34.0199C65.5038 33.5951 65.2456 33.132 65.038 32.6427L65.2332 33.1052C64.9522 32.4198 64.7804 31.7048 64.678 30.9724L64.7474 31.4894C64.5389 29.9094 64.655 28.3228 64.7572 26.7397C64.875 24.9138 64.9138 23.0713 64.4984 21.2753C64.0283 19.2427 62.8725 17.2227 60.814 16.4989C59.8231 16.1504 58.5897 16.3174 57.7046 16.8739C56.9564 17.3443 56.3398 18.0479 55.9625 18.8467C55.5416 19.7379 55.3263 20.5914 55.2074 21.5647C55.1222 22.2612 55.1037 22.968 55.1224 23.6689C55.1634 25.2005 55.3818 26.7398 55.7245 28.2322C56.3881 31.1228 57.5696 33.878 58.828 36.5529C60.0651 39.1827 61.4248 41.7541 62.6062 44.4101C62.7522 44.7382 62.8951 45.0676 63.035 45.3982L62.8393 44.9344C63.8573 47.3495 64.6902 49.8473 65.0496 52.4515L64.9809 51.9405C65.153 53.2224 65.2385 54.533 65.0774 55.8203L65.1459 55.3098C65.0609 55.9392 64.9129 56.5541 64.6682 57.1411L64.8617 56.6826C64.6898 57.0778 64.4784 57.4467 64.2177 57.79L64.5177 57.4016C64.321 57.6504 64.0979 57.8703 63.8489 58.0668L64.2372 57.7668C63.9633 57.9749 63.6704 58.147 63.3554 58.2854L63.8136 58.092C63.5004 58.2228 63.1786 58.315 62.8428 58.3646L63.3526 58.2962C63.0713 58.3318 62.7924 58.3357 62.5107 58.3024L63.0203 58.3709C62.7894 58.3378 62.5678 58.2808 62.3505 58.1955L62.8084 58.3888C62.5958 58.2985 62.3993 58.1858 62.2152 58.046L62.6031 58.3457C62.4108 58.1946 62.2389 58.0254 62.0885 57.8324L62.3881 58.2202C62.2497 58.0359 62.1365 57.8388 62.0454 57.6271L62.2386 58.0848C62.1264 57.8119 62.0557 57.5278 62.0145 57.2359L62.0829 57.7451C62.0113 57.1888 62.0449 56.6276 62.1184 56.0733L62.05 56.5823C62.2476 55.1506 62.6978 53.7697 62.9501 52.3485C63.2421 50.7046 63.3787 48.8314 62.3978 47.3691C61.7683 46.4307 60.8437 45.6711 59.7331 45.3841C58.5501 45.0784 57.3247 45.3148 56.268 45.8998C55.2741 46.45 54.4749 47.304 53.8463 48.2374C53.2824 49.0749 52.8658 50.0723 52.7084 51.0711C52.2535 53.9565 53.5468 56.6918 53.9392 59.5044L53.87 58.9895C53.9707 59.7538 53.9969 60.5213 53.8965 61.2871L53.9659 60.7708C53.8882 61.3064 53.7448 61.8237 53.5375 62.3236L53.7335 61.859C53.5027 62.3975 53.2056 62.8996 52.8487 63.3642L53.1535 62.9697C52.7909 63.4312 52.377 63.8441 51.9146 64.2057L52.3099 63.9002C51.8446 64.256 51.3418 64.5517 50.8026 64.7808L51.2701 64.5835C50.7746 64.7871 50.2613 64.929 49.7307 65.0039L50.2519 64.9338C49.6908 65.0056 49.1283 65.001 48.5678 64.9267L49.09 64.9969C48.5043 64.9122 47.9369 64.7539 47.3903 64.5273L47.8605 64.7258C47.2931 64.4832 46.7557 64.1801 46.2634 63.8075L46.6591 64.1133C46.2124 63.7671 45.8114 63.3726 45.4624 62.9279L45.7658 63.3205C45.4278 62.8788 45.154 62.4007 44.937 61.8886L45.1311 62.3486C44.9045 61.7947 44.7517 61.2199 44.6685 60.6274L44.7367 61.135C44.6426 60.4064 44.6546 59.6743 44.7496 58.9463L44.6822 59.4487C44.8225 58.4428 45.1143 57.4694 45.5051 56.5334L45.3173 56.9784C45.8808 55.6517 46.632 54.4141 47.5088 53.2718L47.2235 53.6409C49.0554 51.2765 51.2504 49.2249 53.0577 46.8376C53.9821 45.6165 54.7503 44.3104 55.3403 42.8969C55.8074 41.7779 56.0313 40.5631 56.0894 39.3544C56.2083 36.8845 55.4753 34.285 53.7861 32.4393C52.9483 31.5238 51.7804 30.801 50.5685 30.5132C49.7641 30.3221 49.0849 30.6737 48.5481 31.237C48.2962 31.5014 48.0675 31.7981 47.8761 32.1091C47.5733 32.601 47.3527 33.1705 47.2304 33.7353C46.9661 34.9557 47.0115 36.1966 47.1014 37.4322C47.1815 38.5305 47.2975 39.6443 47.1575 40.7426L47.2208 40.2715C47.1675 40.6611 47.0788 41.0427 46.929 41.4071L47.1074 40.9845C47.0055 41.2222 46.8801 41.4445 46.7252 41.6517L47.0015 41.294C46.8483 41.4912 46.6743 41.6653 46.4782 41.82L46.8356 41.544C46.6391 41.6932 46.431 41.8161 46.204 41.9133L46.6254 41.7355C46.4018 41.8242 46.1738 41.8841 45.9359 41.9191L46.4043 41.8561C46.1153 41.8915 45.829 41.8886 45.5402 41.8526L46.0081 41.9155C45.6645 41.8654 45.3354 41.7715 45.0153 41.6371L45.4351 41.8143C45.1141 41.6725 44.8161 41.4958 44.5382 41.2814L44.8933 41.5558C44.6345 41.3483 44.4077 41.1154 44.2046 40.8533L44.4786 41.2079C44.2256 40.8686 44.0206 40.5048 43.8542 40.1158L44.0306 40.5337C43.8039 39.9811 43.6633 39.404 43.5834 38.8127L43.6458 39.2766C43.5277 38.3261 43.5681 37.3701 43.6915 36.4222L43.6294 36.8842C43.9365 34.6401 44.7363 32.5115 45.6114 30.435L45.4379 30.8462C46.35 28.6884 47.3532 26.5593 48.0463 24.317C48.4114 23.1361 48.6607 21.9382 48.8123 20.7118C48.9654 19.4732 48.9261 18.2552 48.7443 17.0219C48.5822 15.922 48.1955 14.8717 47.6887 13.8846L47.8585 14.2867C47.6124 13.6189 47.2299 13.0088 46.8013 12.4436C46.3739 11.8802 45.9257 11.3438 45.3853 10.8847C44.3457 10.0013 43.1192 9.28065 41.7629 9.02676C40.0268 8.70181 38.1436 8.88181 36.7884 10.1226C35.5276 11.2769 35.3254 13.1292 35.6839 14.7115C36.0685 16.4089 37.2245 17.6902 38.2577 19.0274L37.9668 18.6509C38.3929 19.2067 38.7929 19.7827 39.0749 20.4267L38.888 19.9837C39.0576 20.3875 39.1703 20.8072 39.23 21.2409L39.1639 20.749C39.2205 21.2052 39.2177 21.6621 39.1615 22.1182L39.2274 21.6273C39.1557 22.1547 39.0149 22.6655 38.8096 23.1565L38.9953 22.7164C38.7935 23.1838 38.5378 23.6214 38.2272 24.025L38.5146 23.653C38.2298 24.0139 37.9072 24.3378 37.5436 24.6196L37.9148 24.3328C37.5841 24.582 37.2295 24.7894 36.8486 24.9518L37.286 24.7673C36.9175 24.9179 36.5365 25.0211 36.1428 25.0793L36.6286 25.0141C36.1659 25.0757 35.7024 25.0736 35.2396 25.0144L35.7243 25.0796C35.2131 25.0075 34.7185 24.8683 34.2428 24.668L34.6774 24.8514C34.2242 24.6543 33.7993 24.4063 33.4052 24.108L33.7725 24.3918C33.384 24.0903 33.0362 23.7464 32.7349 23.3574L33.0181 23.724C32.7654 23.3887 32.5537 23.0298 32.387 22.6444L32.5693 23.0762C32.3827 22.6266 32.2714 22.1581 32.2043 21.6769L32.2687 22.1563C32.0186 20.2349 32.4267 18.3083 32.4308 16.3849L32.3669 16.8604C32.5248 15.9094 32.436 14.841 32.1597 13.918C31.8929 13.0268 31.4024 12.1464 30.6898 11.5343C29.7563 10.7326 28.6756 10.2764 27.4387 10.2312C26.3633 10.192 25.2467 10.5256 24.3188 11.056C23.8006 11.3521 23.3042 11.7344 22.8928 12.1671C22.3299 12.7591 21.9546 13.3946 21.6458 14.1432L21.8483 13.6632C21.6583 14.0856 21.4722 14.5134 21.3472 14.9605C21.2129 15.441 21.1474 15.9389 21.0905 16.4334C21.0159 17.082 21.0259 17.7354 21.1023 18.3834C21.2539 19.6678 21.5461 20.8979 22.0191 22.1012C22.7941 24.0725 23.8379 25.8853 25.1016 27.5828C25.5166 28.1402 25.9437 28.6893 26.3825 29.2281C26.8289 29.7763 27.2664 30.3948 27.8522 30.796L27.4785 30.5074C29.4349 32.6583 31.541 34.6673 33.4938 36.8215C33.9623 37.3382 34.4215 37.8636 34.865 38.402C34.9741 38.5345 35.0823 38.6677 35.1895 38.8018C35.2361 38.8602 35.2825 38.9187 35.3287 38.9774C35.355 39.0108 35.3812 39.0445 35.4075 39.078C35.5674 39.2817 35.3369 38.9586 35.311 38.9525C35.398 38.9729 35.5641 39.2867 35.6187 39.3605C35.7194 39.4965 35.8187 39.6334 35.9166 39.7712C36.3012 40.3129 36.6645 40.8702 36.9967 41.4457C37.165 41.7372 37.3231 42.0323 37.4651 42.3376C37.5382 42.4946 37.6516 42.6102 37.7449 42.7555C37.4892 42.3568 37.6291 42.64 37.6755 42.7387C37.7482 42.8931 37.8166 43.0494 37.8855 43.2054C37.9491 43.3496 37.7632 42.9063 37.8213 43.0533C37.8399 43.1002 37.8597 43.1465 37.8785 43.1933C37.9123 43.2773 37.9453 43.3617 37.9774 43.4465C38.0417 43.6156 38.1026 43.786 38.1599 43.9575C38.2746 44.3003 38.3752 44.6479 38.4602 44.9992C38.5457 45.3528 38.6127 45.7096 38.6684 46.069C38.7074 46.3209 38.632 45.7647 38.6692 46.0788C38.6802 46.171 38.6904 46.2634 38.6987 46.3558C38.7165 46.5522 38.7206 46.7499 38.7233 46.947L39.0755 46.0967C38.688 46.4193 38.69 46.9299 38.6385 47.3886C38.6338 47.431 38.6283 47.4734 38.6236 47.5157C38.5964 47.7609 38.6645 47.2441 38.6409 47.3897C38.6223 47.5048 38.6063 47.6204 38.5868 47.7354L39.5263 46.7959C39.4814 46.8042 39.3404 46.8481 39.2962 46.8354C39.3592 46.8535 39.6447 46.7947 39.3986 46.8189C39.2636 46.8321 39.1282 46.8401 38.9926 46.8425C38.7251 46.8474 38.4587 46.8287 38.1937 46.7933L38.5907 46.8467C38.1171 46.7765 37.6607 46.6433 37.2191 46.4591L37.6055 46.6222C36.7782 46.2655 35.998 45.8251 35.2837 45.2748L35.625 45.5384C34.5108 44.6671 33.5598 43.6087 32.6941 42.4949L32.9633 42.8434C31.878 41.438 30.9692 39.9117 29.8407 38.5378L30.1157 38.8937C29.8493 38.4436 29.4461 38.0205 29.0984 37.6267C28.8216 37.3133 28.5343 37.0089 28.235 36.717C27.5646 36.0631 26.8278 35.4605 26.0445 34.9473C24.6179 34.0125 22.8048 33.3555 21.0782 33.5542C20.0289 33.6749 18.9711 33.9247 18.0955 34.5502C17.147 35.2278 16.277 36.1666 16.0523 37.3553C15.8532 38.4082 15.9597 39.4807 16.5307 40.4097C17.0086 41.1872 17.701 41.7887 18.469 42.2686C19.9263 43.1793 21.6221 43.5382 23.188 44.1983L22.7068 43.9952C23.067 44.1493 23.4503 44.3921 23.8278 44.4686L23.3512 44.2675C24.4611 44.7618 25.5047 45.3875 26.468 46.1277L26.0903 45.8358C27.1542 46.6616 28.1094 47.6159 28.9359 48.6793L28.6664 48.3305C29.4868 49.3967 30.1721 50.5589 30.6961 51.7983L30.5367 51.4207C30.8004 52.0535 31.0238 52.7023 31.1979 53.3656C31.2863 53.7026 31.3625 54.0428 31.4255 54.3855C31.4425 54.4782 31.4587 54.571 31.4736 54.6641C31.478 54.6915 31.4824 54.8189 31.5018 54.8509C31.5009 54.8493 31.4702 54.5406 31.4803 54.7009C31.4945 54.9229 31.5135 55.1422 31.5062 55.365C31.4994 55.5695 31.4697 55.7729 31.4619 55.9767C31.4617 55.9802 31.5175 55.6637 31.4792 55.8213C31.4683 55.8664 31.4627 55.9136 31.4534 55.9592C31.4314 56.066 31.4054 56.1719 31.3753 56.2767C31.35 56.3649 31.2758 56.4953 31.2721 56.5878C31.2718 56.5971 31.393 56.3299 31.3351 56.4413C31.3202 56.47 31.308 56.5006 31.2939 56.5299C31.2294 56.6636 31.1567 56.7936 31.0761 56.9184C31.0423 56.9708 31.0057 57.0212 30.9707 57.0727C30.8409 57.2633 31.2168 56.7823 31.0307 56.9915C30.9362 57.0977 30.841 57.2015 30.7364 57.2982C30.6919 57.3393 30.6457 57.3783 30.6002 57.4181C30.4056 57.5884 30.7873 57.2853 30.7106 57.3348C30.5914 57.4117 30.4782 57.4952 30.3552 57.5666C30.2813 57.6094 29.9843 57.7046 29.9455 57.7753C29.9397 57.7859 30.2803 57.6415 30.1605 57.6848C30.1119 57.7024 30.0642 57.723 30.0156 57.741C29.947 57.7663 29.8777 57.7899 29.8081 57.8121C29.4914 57.9133 29.1663 57.9818 28.8374 58.0285L29.2393 57.9745C28.5702 58.0625 27.8958 58.0509 27.2271 57.9641L27.6345 58.0188C27.0686 57.9407 26.5111 57.811 25.9707 57.6254C25.8425 57.5813 25.7164 57.5323 25.5898 57.4843C25.3366 57.3881 25.9453 57.642 25.7139 57.5378C25.6431 57.506 25.5723 57.4746 25.5021 57.4415C25.1998 57.2986 24.9059 57.1375 24.616 56.971C23.365 56.252 22.2102 55.383 20.9834 54.6257L21.7225 55.5869C21.6353 55.3539 21.553 55.157 21.4031 54.9629C21.2502 54.7651 21.0682 54.6317 20.8673 54.484C20.7634 54.4075 20.6583 54.3325 20.5527 54.2581C20.3432 54.1105 20.131 53.9668 19.9151 53.8287C19.4665 53.5416 19.0019 53.2783 18.5174 53.0564C17.8208 52.7376 17.0248 52.3521 16.241 52.3533C15.5391 52.3545 14.8076 52.548 14.2302 52.9543L14.7257 52.7452C14.2871 52.9269 14.0775 53.0371 13.7016 53.3413C13.6376 53.3931 13.5743 53.4449 13.5146 53.5019C13.2804 53.7252 13.0846 53.9973 12.8958 54.2569C12.599 54.6648 12.3966 55.1502 12.2379 55.625C11.9246 56.5623 11.899 57.7071 12.1956 58.6521C12.8718 60.8079 14.7008 62.2628 16.7002 63.1517C18.711 64.0457 20.8005 64.6634 22.9546 65.1009C24.9898 65.5143 27.0484 65.7953 29.0968 66.1322C30.1355 66.3031 31.1719 66.4889 32.1999 66.7168C32.71 66.8299 33.2181 66.9528 33.7228 67.0879C33.961 67.1516 34.1984 67.2181 34.4349 67.2876C34.836 67.4053 35.2627 67.5949 35.6866 67.5456L35.1489 67.4733C36.1724 67.7383 37.1792 68.0624 38.1553 68.4697L37.7239 68.2877C38.5494 68.6366 39.351 69.0409 40.1096 69.5188C40.2887 69.6316 40.4653 69.7482 40.6391 69.869C40.7317 69.9333 40.8236 69.9988 40.9146 70.0654C40.9601 70.0987 41.0052 70.1326 41.0505 70.1662C41.2615 70.3225 40.8297 69.9901 40.9766 70.1084C41.3027 70.3708 41.6223 70.6392 41.9214 70.9323C42.2108 71.216 42.4835 71.5167 42.7385 71.8317C42.7703 71.8709 42.8002 71.9127 42.8332 71.9505C42.8203 71.9357 42.6331 71.6847 42.7639 71.8618C42.8175 71.9342 42.8714 72.0064 42.9238 72.0797C43.0433 72.2469 43.1583 72.4174 43.2685 72.591C43.4876 72.9361 43.6878 73.2932 43.8675 73.6603C43.9066 73.7401 43.9447 73.8204 43.9817 73.9012C44.0029 73.9472 44.023 73.9937 44.0442 74.0397C44.1289 74.2237 44.0314 73.9945 44.0188 73.9757C44.1238 74.1319 44.1767 74.3712 44.2392 74.5488C44.3899 74.9771 44.5135 75.4149 44.6061 75.8595C44.6263 75.9569 44.6451 76.0546 44.6623 76.1526C44.6708 76.2014 44.679 76.2503 44.6868 76.2993C44.6929 76.3378 44.6864 76.5153 44.6994 76.3919C44.7131 76.2617 44.6937 76.4095 44.6956 76.4498C44.6984 76.5119 44.7008 76.5739 44.7024 76.636C44.7086 76.8819 44.7294 77.1107 44.8722 77.324L44.7465 76.8592C44.7725 77.2516 44.776 77.6448 44.7485 78.0372C44.7418 78.134 44.7332 78.2307 44.7229 78.3271C44.7177 78.3752 44.7121 78.4232 44.706 78.4712C44.7186 78.3783 44.7179 78.3798 44.704 78.4755C44.6723 78.6563 44.6411 78.8366 44.5997 79.0157C44.4202 79.7916 44.1699 80.3839 43.7428 81.0549C43.3911 81.6075 44.2273 82.2773 44.6641 81.7654Z" fill="#0B3335"/>
<path d="M36.5069 84.1178C37.5655 82.0517 40.602 81.0692 42.5724 82.5144C43.2383 83.0028 43.7317 83.7114 44.3816 84.2289C45.1934 84.8753 46.141 85.2775 47.19 85.2941C48.787 85.3194 50.1815 84.475 51.5296 83.7267C52.0487 83.4385 52.5747 83.1085 53.1717 83.0327C53.1906 83.0303 53.4125 83.0344 53.605 83.1037C54.0052 83.2479 54.3741 83.5816 54.7174 83.8256C56.1232 84.8245 57.6177 85.3872 59.3563 85.16C62.3074 84.7743 64.4349 82.476 67.134 81.6276C67.7806 81.4243 68.2405 81.34 68.8397 81.5147C69.8229 81.8014 70.6402 82.503 71.5506 82.9564C73.4499 83.9024 76.1467 84.1909 77.2361 81.9422C77.7594 80.862 76.9006 79.675 75.697 79.9401C74.0697 80.2985 72.763 79.065 71.4549 78.357C69.834 77.4798 68.0938 77.2371 66.3092 77.7202C64.8209 78.123 63.4655 78.9347 62.1457 79.7067C61.5143 80.076 60.8828 80.4559 60.2181 80.7634C59.8545 80.9316 59.0554 81.1807 58.8638 81.1981C58.2413 81.2548 57.987 81.1685 57.3972 80.7905C56.5834 80.2687 55.8819 79.6602 54.9641 79.3132C53.2425 78.6626 51.5311 79.1779 49.9886 80.0383C49.3369 80.4018 48.7214 80.8418 48.048 81.1655C47.5433 81.4081 47.2258 81.5492 46.8192 81.3243C46.154 80.9564 45.6489 80.1956 45.0438 79.7263C44.3525 79.1901 43.5822 78.7932 42.7413 78.5407C39.3031 77.5082 35.1059 79.0746 33.5302 82.3778C32.5851 84.3592 35.4868 86.1086 36.5069 84.1178Z" fill="#0B3335"/>
<path d="M19.128 92.9437C19.4654 91.6403 20.4735 90.6055 21.8045 90.3007C23.1816 89.9854 24.4772 90.7062 25.6691 91.3094C27.0605 92.0134 28.5029 92.7302 30.0952 92.7694C31.7736 92.8107 33.0527 91.9216 34.502 91.2364C35.7318 90.655 36.6439 91.0845 37.7359 91.7518C38.9113 92.4702 40.0542 93.3055 41.4113 93.652C42.8482 94.0188 44.283 93.7595 45.5669 93.0413C46.7303 92.3907 47.6522 91.3905 48.8005 90.718C50.2506 89.8686 51.4438 90.8678 52.7553 91.548C54.4701 92.4374 56.6467 92.9913 58.3657 91.8036C60.1695 90.5573 58.5841 87.7188 56.6258 88.827C55.3909 89.5258 53.7465 88.0913 52.6655 87.5984C51.0019 86.8399 49.3224 86.688 47.6465 87.4816C46.4366 88.0546 45.5048 89.0241 44.4161 89.7785C43.353 90.5152 42.5042 90.6541 41.3307 90.0494C40.0485 89.3887 38.916 88.4894 37.5462 87.9948C35.9947 87.4347 34.4691 87.6576 33.0121 88.3751C31.5841 89.0782 30.6014 89.9005 28.958 89.3672C27.5019 88.8946 26.209 88.0155 24.7517 87.5315C21.1607 86.3387 17.1738 88.4382 16.2675 92.1553C15.8157 94.0081 18.6486 94.7956 19.128 92.9437Z" fill="#0B3335"/>
<path d="M12.7923 72.0838C12.3102 72.1148 11.8708 72.2352 11.4421 72.4589C11.0971 72.6389 10.7882 72.898 10.5155 73.1738C10.2311 73.4613 9.97904 73.8017 9.7998 74.1651C9.61894 74.5317 9.47117 74.9179 9.412 75.3237C9.33572 75.846 9.31315 76.3484 9.46656 76.8637C9.54301 77.1203 9.65101 77.3718 9.77303 77.6098C9.85102 77.7618 9.94286 77.9059 10.0455 78.0426C10.2047 78.2546 10.3654 78.4646 10.5564 78.6489C10.7478 78.8336 10.9623 78.9969 11.1778 79.1517C11.545 79.4156 11.9669 79.6044 12.3914 79.7549C12.8163 79.9055 13.272 79.9769 13.7201 80.0076C14.1805 80.0391 14.6557 79.9828 15.1032 79.8764C16.0323 79.6554 16.8853 79.1421 17.5784 78.4938C17.9271 78.1676 18.2298 77.7859 18.4985 77.3927C18.7763 76.9865 18.9761 76.5461 19.1599 76.0906C19.3119 75.7136 19.4156 75.3203 19.4714 74.9177C19.5151 74.6018 19.5593 74.2894 19.5577 73.9701C19.5561 73.6525 19.508 73.3388 19.4615 73.0252C19.3851 72.51 19.1997 71.9994 18.9345 71.5516C18.642 71.0575 18.2211 70.6016 17.7285 70.3008C17.4771 70.1473 17.1958 70.0329 16.9204 69.9335C16.6366 69.8312 16.3457 69.7986 16.0466 69.7605C15.8783 69.739 15.7094 69.7325 15.5404 69.7492C15.2595 69.7769 14.9632 69.8067 14.6951 69.9059C14.4317 70.0033 14.1604 70.1111 13.9316 70.2782C13.7669 70.3669 13.6348 70.4883 13.5352 70.6421C13.4103 70.7786 13.326 70.9387 13.2822 71.1226C13.2233 71.3104 13.2149 71.4983 13.257 71.686C13.2656 71.8741 13.3214 72.0492 13.4247 72.2113C13.6192 72.513 13.9089 72.7786 14.2691 72.8607C14.6283 72.9426 15.0406 72.9281 15.3579 72.7183C15.446 72.66 15.5381 72.61 15.635 72.5678L15.2957 72.7109C15.4431 72.649 15.5965 72.6076 15.7547 72.5847L15.3741 72.6358C15.5578 72.6115 15.7422 72.6129 15.9259 72.6361L15.5418 72.5845C15.7535 72.6135 15.9587 72.6708 16.156 72.7526L15.8073 72.6054C16.058 72.7121 16.2917 72.8605 16.5074 73.0261L16.2114 72.7974C16.361 72.9147 16.4961 73.0474 16.6137 73.1969L16.3887 72.9057C16.541 73.1038 16.6655 73.3194 16.763 73.5494L16.6212 73.2132C16.7243 73.4627 16.7954 73.7209 16.8316 73.9884L16.7824 73.6218C16.8292 73.9904 16.8231 74.3623 16.7742 74.7303L16.8228 74.3688C16.7631 74.7975 16.6464 75.2151 16.4793 75.6142L16.6142 75.2947C16.4385 75.7082 16.2116 76.0975 15.9371 76.4532L16.1426 76.1873C15.8901 76.5109 15.6008 76.8034 15.2759 77.0545L15.5375 76.8524C15.2494 77.0725 14.9371 77.2576 14.6031 77.3993L14.9074 77.2709C14.6107 77.3945 14.3009 77.4837 13.9824 77.5284L14.3167 77.4835C13.9948 77.5261 13.6699 77.5243 13.3482 77.4816L13.6781 77.5259C13.3481 77.4798 13.0263 77.392 12.7188 77.2636L13.0111 77.3869C12.7225 77.2642 12.4504 77.1076 12.2018 76.9161L12.4461 77.1048C12.2339 76.939 12.0422 76.75 11.8765 76.5377L12.0631 76.7792C11.9136 76.5844 11.7886 76.3738 11.6913 76.1483L11.8103 76.4303C11.7023 76.1736 11.6285 75.895 11.5902 75.6192L11.631 75.9228C11.5979 75.6688 11.5995 75.4128 11.6334 75.159L11.5948 75.446C11.6329 75.176 11.7053 74.913 11.811 74.6616L11.7089 74.9036C11.8094 74.6694 11.9365 74.4484 12.0917 74.246L11.943 74.4384C12.0547 74.2952 12.1928 74.1696 12.3353 74.0575L12.1471 74.2028C12.3089 74.0778 12.4837 73.9727 12.6714 73.8915L12.4545 73.983C12.6387 73.9055 12.8304 73.8524 13.0284 73.8257C13.2235 73.7994 13.4699 73.5856 13.5584 73.4182C13.6531 73.239 13.6908 73.0544 13.6637 72.8527C13.6387 72.6666 13.5623 72.4743 13.4198 72.3435C13.2528 72.1901 13.0265 72.0687 12.7923 72.0838Z" fill="#0B3335"/>
<path d="M8.7444 37.8578C8.62579 37.7402 8.49059 37.6409 8.35728 37.5407C8.29306 37.4925 8.22619 37.4482 8.15573 37.4096C8.01164 37.3305 7.85523 37.2687 7.70251 37.2105C7.63076 37.1831 7.55696 37.1609 7.48205 37.144C7.31701 37.1068 7.14667 37.0873 6.97872 37.0711C6.90176 37.0637 6.82429 37.0612 6.74698 37.0633C6.57356 37.0682 6.40014 37.0973 6.2292 37.1218C6.14993 37.1332 6.07126 37.148 5.99353 37.1672C5.74264 37.2293 5.50149 37.3354 5.26753 37.4421C5.11634 37.511 4.97122 37.5932 4.8338 37.6865C4.61104 37.8377 4.39418 38.0048 4.19759 38.1894C3.99552 38.3792 3.83022 38.5966 3.66253 38.8171C3.55744 38.9553 3.47252 39.1072 3.40052 39.2651C3.2867 39.5149 3.17297 39.772 3.10901 40.0405C3.06394 40.2299 3.04376 40.4251 3.01948 40.6176C3.00879 40.7027 3.00169 40.788 3.00032 40.8738C2.99587 41.1512 3.03837 41.4305 3.08233 41.703C3.10858 41.8657 3.14911 42.0261 3.20256 42.182C3.28935 42.4348 3.39479 42.6846 3.51861 42.9217C3.59481 43.0676 3.6822 43.2077 3.779 43.3408C3.93848 43.5602 4.10523 43.7792 4.29276 43.9762C4.40803 44.0974 4.53134 44.2107 4.66132 44.316C4.87476 44.4889 5.09325 44.6605 5.32636 44.8069C5.46899 44.8964 5.6171 44.9772 5.76966 45.0484C6.02047 45.1657 6.27837 45.2763 6.54201 45.3625C6.70064 45.4143 6.86251 45.4562 7.02661 45.4868C7.30145 45.5381 7.58219 45.5776 7.8619 45.5914C8.02309 45.5994 8.1848 45.5959 8.34539 45.58C8.62228 45.5525 8.90473 45.5187 9.17513 45.4479C9.44381 45.3775 9.7018 45.2639 9.95389 45.1503C10.1048 45.0822 10.2497 45.0008 10.3862 44.9072C10.608 44.7553 10.8258 44.5893 11.0206 44.4032C11.216 44.2166 11.3758 44.0008 11.5391 43.7861C11.8005 43.4426 11.9693 43.0574 12.134 42.6607C12.2556 42.3676 12.3406 42.0608 12.3871 41.7469C12.4527 41.3047 12.5058 40.8699 12.4682 40.4234C12.4312 39.9838 12.3688 39.5346 12.2279 39.1143C12.1384 38.8474 12.0269 38.5857 11.9043 38.3325C11.8699 38.2615 11.8225 38.1989 11.775 38.1362C11.6549 37.9778 11.5361 37.8165 11.4053 37.6662C11.2304 37.4651 11.0212 37.2648 10.7901 37.1363C10.5655 37.0113 10.324 36.9115 10.0837 36.8225C10.0161 36.7975 9.94765 36.7753 9.87821 36.7559C9.84119 36.7456 9.80399 36.7361 9.76662 36.7273C9.75037 36.7234 9.73404 36.7198 9.7177 36.7163C9.70676 36.7139 9.69573 36.7116 9.68478 36.7095C9.61825 36.6966 9.42491 36.6613 9.35915 36.6697L9.94329 36.8277L9.92798 36.8196C9.65537 36.6754 9.33837 36.6197 9.03608 36.703C8.88549 36.7388 8.75423 36.8078 8.64246 36.9102C8.5165 36.9917 8.41705 37.1 8.34437 37.2349C8.20242 37.5035 8.13127 37.829 8.22773 38.1268C8.31837 38.407 8.49196 38.677 8.75962 38.8186L8.77492 38.8267L8.35967 38.4114C8.39687 38.4873 8.50257 38.6113 8.56037 38.6728C8.56986 38.6829 8.57961 38.6927 8.58911 38.7028C8.61006 38.7249 8.63066 38.7474 8.65085 38.7702C8.69155 38.8162 8.73054 38.8637 8.76834 38.9121L8.57012 38.6556C8.66051 38.7729 8.74089 38.8974 8.81101 39.0279C8.88267 39.1613 8.97263 39.2802 9.05079 39.41C9.13057 39.5426 9.18915 39.6832 9.26021 39.8198C9.3329 39.9596 9.40892 40.0949 9.4704 40.2405L9.31896 39.8815C9.45244 40.2017 9.54155 40.5384 9.58781 40.8822L9.53531 40.4917C9.58174 40.8486 9.58251 41.2101 9.53496 41.5669L9.58619 41.1857C9.54155 41.5102 9.45783 41.8281 9.33067 42.1301L9.47203 41.7952C9.37352 42.026 9.24354 42.2425 9.09098 42.4416L9.30844 42.1601C9.15708 42.3554 8.98315 42.5312 8.78801 42.6828L9.06772 42.4667C8.87583 42.614 8.66675 42.7362 8.44425 42.831L8.77227 42.6925C8.52788 42.7949 8.27151 42.863 8.00899 42.8983L8.37156 42.8496C8.07911 42.8872 7.78374 42.8844 7.49146 42.8463L7.8513 42.8946C7.50737 42.8482 7.17198 42.7542 6.85225 42.6197L7.17267 42.7549C6.8514 42.6181 6.54859 42.4417 6.2717 42.229L6.54064 42.4368C6.28624 42.2395 6.05604 42.0131 5.85868 41.7587L6.06468 42.0253C5.89271 41.8013 5.74802 41.5582 5.6378 41.2982L5.76957 41.6105C5.67192 41.3762 5.60359 41.1316 5.56827 40.8802L5.61462 41.2254C5.58478 41.0023 5.5799 40.7776 5.60975 40.5542L5.56366 40.8973C5.5947 40.6784 5.65558 40.4659 5.74101 40.2621L5.61172 40.5685C5.72981 40.2921 5.88758 40.0245 6.07024 39.7858L5.87518 40.0382C6.04108 39.824 6.23211 39.631 6.44641 39.465L6.20406 39.6523C6.38809 39.5116 6.58673 39.3916 6.79975 39.3003L6.52388 39.4166C6.70158 39.342 6.88654 39.2877 7.07766 39.2612L6.78016 39.3012C6.93306 39.2814 7.08681 39.2792 7.2398 39.2984L6.94982 39.2594C7.09288 39.2787 7.23176 39.3159 7.36499 39.3715L7.11076 39.2642C7.24014 39.3197 7.36088 39.3909 7.47299 39.4759L7.26288 39.3135L7.27751 39.3248C7.37149 39.426 7.48274 39.4974 7.61126 39.5393C7.73483 39.6042 7.86806 39.634 8.01087 39.6286C8.26527 39.6286 8.56909 39.5157 8.74423 39.3249C8.92568 39.1273 9.06037 38.8677 9.04797 38.5915C9.03565 38.317 8.94339 38.0552 8.7444 37.8578Z" fill="#0B3335"/>
<path d="M71.2288 7.76621C70.9956 7.78879 70.7605 7.81598 70.5419 7.90355C70.3945 7.96255 70.2415 8.0213 70.1033 8.10177C69.9659 8.18172 69.8428 8.28545 69.718 8.38293C69.6023 8.47332 69.4987 8.57585 69.4069 8.69044C69.254 8.88122 69.1034 9.07208 68.9924 9.29057C68.8768 9.51795 68.7753 9.75832 68.7028 10.0035C68.6515 10.177 68.6394 10.3678 68.6175 10.5449C68.6076 10.6249 68.6007 10.7052 68.5978 10.7858C68.5882 11.0517 68.6278 11.3119 68.6659 11.575C68.688 11.7272 68.7231 11.8766 68.7736 12.0219C68.8533 12.2515 68.9485 12.4793 69.0623 12.6942C69.1261 12.8146 69.1992 12.93 69.2805 13.0393C69.5091 13.3466 69.7398 13.6318 70.0419 13.868C70.3466 14.1063 70.6458 14.3274 70.9995 14.4865C71.3573 14.6474 71.7179 14.7944 72.1027 14.8741C72.3521 14.9258 72.6065 14.9576 72.8595 14.9834C72.9981 14.9975 73.1381 15.0016 73.2773 14.9991C73.4158 14.9965 73.5538 14.9858 73.6912 14.9681C73.9434 14.9356 74.1965 14.9071 74.4435 14.8449C74.5757 14.8115 74.7059 14.7701 74.8328 14.7201C75.0629 14.6296 75.2978 14.5355 75.515 14.4149C75.6337 14.349 75.747 14.2743 75.8551 14.1923C76.0539 14.0414 76.2559 13.8934 76.4298 13.7134C76.6079 13.5289 76.7648 13.3209 76.9111 13.1112C76.9939 12.9924 77.0669 12.8667 77.129 12.7358C77.3013 12.3731 77.4502 12.0011 77.509 11.6027C77.5692 11.1942 77.616 10.7995 77.5682 10.3884C77.5202 9.97553 77.4618 9.57233 77.3202 9.18077C77.1817 8.79758 77.0167 8.41329 76.7962 8.06884C76.6549 7.84796 76.4902 7.64008 76.3254 7.43699C76.2325 7.32257 76.1328 7.2138 76.0264 7.11187C75.838 6.93135 75.6262 6.77315 75.4174 6.61829C75.303 6.53346 75.1829 6.45633 75.0578 6.38834C74.8279 6.26349 74.5831 6.16054 74.3329 6.08409C74.2995 6.07391 74.266 6.06451 74.232 6.05613C74.1562 6.0374 74.2061 6.04997 74.0248 6.0256C73.9175 6.01115 73.89 5.99704 73.8175 6.00054C73.7968 6.00157 73.776 6.00353 73.7553 6.00542C73.5719 6.02201 73.3889 6.04757 73.2074 6.0775C73.1433 6.08811 73.0796 6.10145 73.0164 6.11735C72.9864 6.12496 72.9565 6.13309 72.9267 6.14181C72.9091 6.14694 72.8914 6.15224 72.874 6.15789C72.8287 6.17268 72.6192 6.25768 72.5764 6.28265C72.5164 6.31779 72.373 6.43461 72.3223 6.48001L73.1726 6.12779L73.1558 6.12719C72.9903 6.12094 72.8358 6.15549 72.6925 6.23074C72.5435 6.27923 72.4144 6.36209 72.3055 6.47941C72.1883 6.58836 72.1053 6.71731 72.0568 6.86645C71.9816 7.00977 71.947 7.1642 71.9533 7.32975C71.9672 7.64077 72.0694 7.96332 72.3055 8.1801L72.5489 8.36814C72.7364 8.47691 72.9387 8.53164 73.1558 8.53232L73.1726 8.53292L72.3223 8.18069C72.4883 8.35822 72.7066 8.42723 72.9054 8.55139C72.9627 8.58722 73.0183 8.62545 73.0729 8.66538C73.2236 8.77569 73.4255 8.81973 73.6002 8.89259L73.2538 8.74645C73.5412 8.86839 73.8153 9.0147 74.0634 9.20531L73.7701 8.9787C74.0072 9.16281 74.2181 9.37762 74.4017 9.61492L74.1767 9.32375C74.3783 9.5867 74.5451 9.87445 74.6742 10.1796L74.5304 9.83879C74.6576 10.143 74.7467 10.4619 74.7909 10.7888L74.7404 10.4126C74.7775 10.6968 74.7803 10.9843 74.7428 11.2687L74.793 10.8952C74.7593 11.1403 74.6958 11.3798 74.6005 11.6082L74.7412 11.2746C74.6515 11.4859 74.5357 11.6842 74.3954 11.866L74.6125 11.585C74.4748 11.7614 74.3159 11.9192 74.1392 12.0564L74.4185 11.8406C74.2231 11.9905 74.0093 12.1133 73.7829 12.2099L74.1106 12.0716C73.8383 12.1862 73.5519 12.2619 73.2596 12.3024L73.6215 12.2538C73.2726 12.3006 72.9179 12.2974 72.569 12.2511L72.9267 12.2992C72.5932 12.2536 72.2666 12.1663 71.9563 12.0358L72.2727 12.1694C72.0057 12.0558 71.753 11.9113 71.5231 11.734L71.7875 11.9383C71.5934 11.787 71.4179 11.6138 71.2671 11.4192L71.4689 11.6804C71.3299 11.4988 71.2142 11.3012 71.125 11.0906L71.2537 11.3955C71.1713 11.1977 71.1158 10.9918 71.0868 10.7795L71.1319 11.1152C71.1021 10.8845 71.1024 10.6516 71.1322 10.4209L71.0876 10.7527C71.1121 10.5723 71.1296 10.392 71.1533 10.2117L71.1094 10.5382C71.1379 10.3319 71.1897 10.1298 71.2702 9.93747L71.1528 10.2157C71.2164 10.0671 71.2955 9.92636 71.3938 9.79783L71.2193 10.0237C71.2999 9.92037 71.3909 9.82673 71.4939 9.7455L71.2761 9.91379C71.3768 9.83605 71.4857 9.77158 71.6027 9.72164L71.3548 9.82622C71.4026 9.80647 71.4511 9.78902 71.5006 9.77389C71.74 9.70034 71.9912 9.53171 72.1115 9.30416L72.2145 9.06002C72.2571 8.92414 72.2632 8.78826 72.2327 8.65247C72.2325 8.5602 72.2092 8.47426 72.1629 8.39456C72.1217 8.26783 72.0513 8.1582 71.9516 8.06559C71.7629 7.89243 71.4946 7.74047 71.2288 7.76621Z" fill="#0B3335"/>
<path d="M90.0156 32.6672C89.8573 32.6949 89.7017 32.7357 89.5507 32.7905C89.285 32.8869 89.0177 32.9966 88.7709 33.1362C88.5264 33.2745 88.3079 33.4528 88.088 33.6261C87.9638 33.7239 87.8471 33.8312 87.7386 33.9461C87.5443 34.1519 87.372 34.3813 87.2068 34.6099C87.1111 34.7424 87.0244 34.8813 86.947 35.0252C86.8103 35.2789 86.7002 35.5499 86.5955 35.8172C86.5366 35.9678 86.4869 36.122 86.447 36.2787C86.3744 36.5649 86.3408 36.8589 86.3043 37.1513C86.2841 37.3134 86.2739 37.4766 86.2754 37.6399C86.2782 37.9345 86.3243 38.2274 86.3673 38.518C86.3904 38.6749 86.4251 38.8302 86.472 38.9818C86.4958 39.0588 86.5227 39.1348 86.5527 39.2096C86.6308 39.404 86.7091 39.6004 86.802 39.7886C86.8745 39.9357 86.96 40.0764 87.0573 40.2084C87.2314 40.4445 87.4091 40.6884 87.6235 40.8912C87.8367 41.0929 88.0743 41.2728 88.3158 41.4383C88.4498 41.5301 88.5909 41.6113 88.7371 41.6818C89.0057 41.8112 89.2841 41.9308 89.5687 42.022C89.725 42.0721 89.8847 42.1117 90.0464 42.1406C90.3448 42.1943 90.6481 42.237 90.9514 42.2539C91.1171 42.2633 91.2833 42.2622 91.4489 42.2511C91.7559 42.2304 92.0633 42.1884 92.3654 42.131C92.8233 42.0438 93.2586 41.8666 93.6785 41.6681C93.8268 41.598 93.9705 41.5179 94.1075 41.4277C94.177 41.382 94.2445 41.3334 94.3107 41.2829C94.4821 41.152 94.6583 41.0237 94.8195 40.8795C94.942 40.77 95.0559 40.6509 95.1593 40.5233C95.3477 40.2906 95.5394 40.0528 95.6887 39.7916C95.8393 39.5283 95.9549 39.2409 96.0624 38.959C96.1232 38.7996 96.1712 38.6353 96.2067 38.4685C96.2709 38.1673 96.3109 37.8589 96.3334 37.552C96.3457 37.3839 96.3464 37.2149 96.3363 37.0466C96.3176 36.7371 96.2741 36.4272 96.218 36.1225C96.1871 35.9549 96.1459 35.7892 96.0948 35.6266C96.002 35.3311 95.8764 35.0442 95.7496 34.7625C95.6795 34.6068 95.6 34.4553 95.5115 34.3094C95.2644 33.9017 94.9647 33.5207 94.5962 33.2166C94.367 33.0275 94.1306 32.8392 93.8769 32.6825C93.8065 32.639 93.7345 32.598 93.6611 32.5597C93.5669 32.5106 93.4705 32.4731 93.3719 32.4314C93.1046 32.3186 93.1473 32.3368 92.7685 32.2974C92.7607 32.2966 92.753 32.2958 92.7452 32.295C92.7244 32.293 92.7035 32.2912 92.6826 32.2896C92.6077 32.2838 92.5326 32.2811 92.4574 32.2813C92.4215 32.2813 92.3855 32.2821 92.3496 32.2835C92.3299 32.2843 92.3103 32.2851 92.2907 32.2863C92.168 32.2935 92.0209 32.3026 91.9223 32.3345C91.8656 32.3529 91.6446 32.4424 91.5968 32.4743L92.6045 32.3424L92.5875 32.3363C92.4136 32.2819 92.2399 32.2741 92.066 32.313C91.892 32.3208 91.7299 32.3726 91.5798 32.4682C91.4274 32.5504 91.3051 32.6626 91.2129 32.805C91.0972 32.9313 91.0192 33.0796 90.9788 33.2498L90.9321 33.5974C90.9329 33.8335 90.9924 34.0534 91.1107 34.2575L91.3151 34.5221C91.4783 34.6842 91.6707 34.7963 91.8922 34.8584L91.9092 34.8645L90.9958 33.9512C91.0721 34.212 91.211 34.413 91.3973 34.6025C91.4245 34.6302 91.4512 34.6584 91.4773 34.6872C91.5346 34.75 91.5889 34.8153 91.6411 34.8825L91.4038 34.5754C91.4566 34.644 91.5091 34.7126 91.562 34.7812C91.6308 34.8974 91.7232 34.9898 91.8393 35.0585C91.8934 35.1012 91.9479 35.1433 92.0029 35.1848C92.0149 35.1937 92.0268 35.2027 92.0389 35.2114C92.0824 35.2429 92.1258 35.2743 92.1683 35.3071L91.8517 35.0626C92.0899 35.2486 92.3019 35.4647 92.4876 35.703L92.2323 35.3726C92.3834 35.5683 92.5266 35.7688 92.6784 35.9648L92.4199 35.6302C92.6388 35.9155 92.819 36.228 92.9588 36.5593L92.7925 36.1654C92.9331 36.5025 93.0309 36.8559 93.081 37.2178L93.0222 36.7807C93.0679 37.1213 93.0709 37.4662 93.0251 37.807L93.0837 37.371C93.043 37.6629 92.9668 37.9484 92.8526 38.2203L93.0176 37.8294C92.9152 38.0695 92.7847 38.296 92.6263 38.5034L92.8816 38.1729C92.7193 38.383 92.5308 38.5704 92.3214 38.7337L92.6514 38.4789C92.4093 38.6657 92.1436 38.818 91.8622 38.9371L92.2506 38.7731C91.9337 38.9055 91.6009 38.9946 91.2609 39.0417L91.6921 38.9838C91.334 39.0318 90.9713 39.0333 90.6131 38.9859L91.043 39.0437C90.7234 39 90.4103 38.9177 90.1125 38.7934L90.4979 38.9561C90.2402 38.847 89.997 38.7076 89.7755 38.5366L90.1014 38.7884C89.897 38.6289 89.7117 38.4441 89.5527 38.2394L89.8032 38.5636C89.6557 38.3712 89.5341 38.1615 89.4393 37.9385L89.5996 38.3182C89.4941 38.0661 89.4239 37.8015 89.3865 37.531L89.4427 37.9497C89.4003 37.6317 89.4029 37.3098 89.4451 36.992L89.3895 37.4064C89.4359 37.0691 89.5261 36.7395 89.6574 36.4253L89.502 36.7934C89.6272 36.4975 89.7875 36.2178 89.9832 35.9628L89.7448 36.2713C89.915 36.0518 90.1099 35.8528 90.3292 35.6822L90.0236 35.9183C90.2211 35.7664 90.4356 35.6392 90.665 35.5419L90.3074 35.6928C90.4687 35.6255 90.6355 35.5736 90.8066 35.5375C91.0003 35.4915 91.1689 35.4026 91.3126 35.2711C91.4746 35.1662 91.6024 35.027 91.6959 34.8536C91.8047 34.6827 91.8635 34.4984 91.8725 34.3003C91.9168 34.1025 91.9079 33.9047 91.8459 33.7069L91.6959 33.3515C91.5636 33.1278 91.3857 32.9499 91.1621 32.8176L90.8066 32.6676C90.5429 32.5967 90.2793 32.5963 90.0156 32.6672Z" fill="#0B3335"/>
<path d="M66.0282 91.0901C66.225 90.0983 67.3017 89.213 68.3189 89.4243C68.8779 89.5404 69.381 89.9812 69.821 90.3265C70.4124 90.7907 70.9952 91.2697 71.6845 91.5817C73.3797 92.3492 75.0805 91.8907 76.4162 90.6555C77.0033 90.1127 77.4479 89.4463 77.9991 88.8714C78.3647 88.4901 78.9558 87.8556 79.5283 88.0238C80.2965 88.2497 81.1431 87.7506 81.3527 86.9879C81.584 86.1462 81.0651 85.4582 80.3168 85.1635C78.1429 84.3075 76.3094 85.9784 75.0583 87.544C74.657 88.0463 74.078 88.9313 73.3618 88.9793C72.9127 89.0094 72.2273 88.4566 71.7783 88.124C70.3071 87.0336 68.7787 86.1467 66.8851 86.6932C65.0829 87.2132 63.7992 88.9156 63.7843 90.7863C63.7743 92.0423 65.7721 92.3807 66.0282 91.0901Z" fill="#0B3335"/>
</g>
<defs>
<clipPath id="clip0_2580_4286">
<rect width="93.3432" height="88" fill="white" transform="translate(3 6)"/>
</clipPath>
</defs>
</svg>
