<svg xmlns="http://www.w3.org/2000/svg" fill="none" viewBox="0 0 100 100"><g clip-path="url(#a)"><path fill="#009345" d="M40.249 66.606c-4.604-2.611-10.129-2.79-15.358-3.605-2.73-.426-5.636-1.162-7.406-3.283-.743-.889-1.237-2.158-.736-3.202.759-1.582 3.138-1.464 4.619-.524 1.48.941 2.618 2.433 4.258 3.056 2.91 1.107 6.337-1.267 7.032-4.303s-.815-6.245-3.097-8.364-5.232-3.349-8.144-4.453c-2.28-.865-5.042-2.39-4.736-4.807.242-1.91 2.534-3.007 4.421-2.626 1.887.38 3.384 1.79 4.658 3.232 3.396 3.845 6.422 8.653 11.38 9.967.54.142 1.13.235 1.641.01 1.31-.577 1.03-2.513.432-3.815-2.124-4.628-5.437-8.589-8.227-12.85s-5.13-9.114-4.903-14.202c.013-.309.042-.633.214-.89.71-1.06 2.273.258 2.684 1.466.778 2.29 1.131 4.756 2.354 6.843s3.725 3.73 6.012 2.944c2.97-1.023 3.403-5.15 2.392-8.125-.502-1.48-1.183-3.246-.211-4.47.408-.514 1.047-.805 1.694-.911 3.1-.51 5.598 2.976 5.547 6.118-.05 3.142-1.721 5.989-2.87 8.914a27.9 27.9 0 0 0-1.893 8.823c-.078 1.602.015 3.315.937 4.627s2.932 1.966 4.18.96c1.269-1.022 1.084-2.948 1.21-4.572.127-1.624 1.417-3.591 2.93-2.988.445.177.781.553 1.045.953 1.309 1.982 1.13 4.66.15 6.822s-2.65 3.926-4.29 5.644l-4.824 5.055c-.724.76-1.467 1.548-1.835 2.53-.847 2.264.549 4.76 2.254 6.473 2.005 2.013 5.002 3.567 7.634 2.498 2.383-.969 3.53-3.734 3.75-6.297.222-2.563-.227-5.162.136-7.71.114-.806.338-1.65.932-2.209.908-.853 2.48-.707 3.394.14s1.217 2.212 1.014 3.442c-.167 1.015-.637 1.972-.707 2.999-.07 1.026.464 2.23 1.481 2.382.695.104 1.359-.314 1.882-.784 4.26-3.828 3.146-10.766.901-16.035s-5.349-10.817-3.949-16.37c.177-.702.512-1.474 1.203-1.69 1.17-.364 2.04 1.091 2.354 2.277a35.7 35.7 0 0 1 1.15 7.469c.093 1.989.594 4.643 2.581 4.76 1.485.088 2.53-1.511 2.75-2.982s-.031-3.018.457-4.422c.587-1.692 2.303-2.925 4.093-2.943s3.531 1.18 4.153 2.86c.781 2.11-.157 4.47-1.404 6.342s-2.839 3.57-3.575 5.697-.266 4.927 1.757 5.911c2.175 1.058 5.094-.407 7.067.991 1.921 1.361 1.396 4.535-.288 6.18-1.683 1.647-4.066 2.3-6.187 3.323-2.12 1.023-4.23 2.807-4.277 5.161-.018.885.266 1.77.138 2.646-.274 1.884-2.348 3.009-4.248 3.116s-3.771-.487-5.672-.585c-3.233-.167-6.513 1.193-8.68 3.6-.86.956-1.645 2.13-2.886 2.468-2.382.65-4.162-2.03-5.676-3.979-2.314-2.977-.188-2.091-4.792-4.703"/><path fill="#0b3335" d="M44.664 81.765c1.186-1.39 1.792-3.095 1.925-4.906l-.126.465c.218-.332.159-.692.147-1.06-.008-.262-.01-.523-.031-.784a12 12 0 0 0-.264-1.74 12.3 12.3 0 0 0-1.178-3.087c-1.153-2.132-2.986-3.825-5.008-5.126-1.23-.791-2.553-1.4-3.904-1.954l.892.52c-.428-.403-.92-.571-1.461-.74a33 33 0 0 0-2.393-.654 60 60 0 0 0-3.289-.665c-2.391-.426-4.8-.786-7.157-1.382a27 27 0 0 1-3.88-1.275l.523.221c-.848-.362-1.672-.777-2.407-1.34l.448.346a6 6 0 0 1-1.066-1.073l.348.45a4.3 4.3 0 0 1-.528-.882l.221.524a3 3 0 0 1-.21-.768l.078.578a3.4 3.4 0 0 1 .003-.79l-.077.572q.063-.458.242-.884l-.215.508q.143-.322.353-.605l-.329.426c.128-.163.295-.289.424-.447l-.42.324c.167-.118.346-.204.532-.288l-.493.208q.232-.096.479-.134l-.537.072c.08-.01.15.002.232.013l-.532-.072c.895.126 1.754.394 2.585.742l-.421-.178q.335.142.665.298c.418.198.86.479 1.337.425l-.812-.22c2.025 1.25 3.996 2.787 6.345 3.37 2.06.512 4.584.488 6.385-.78 1.035-.728 1.804-1.743 2.118-2.983.36-1.423.17-2.984-.094-4.407-.418-2.256-1.372-4.456-2.69-6.33-1.577-2.247-3.629-4.156-6.059-5.45l.404.312c-.748-.627-1.75-.954-2.671-1.259a25 25 0 0 1-1.767-.64l.482.204c-.61-.258-1.206-.556-1.734-.96l.41.316a3.7 3.7 0 0 1-.614-.599l.316.41a2.6 2.6 0 0 1-.322-.544l.204.483a2.2 2.2 0 0 1-.135-.498l.072.538a2.4 2.4 0 0 1 0-.55l-.073.538c.028-.203.08-.394.16-.584l-.205.484c.087-.189.193-.362.319-.528l-.317.41c.167-.206.355-.386.564-.55l-.41.318c.3-.225.627-.393.972-.54l-.484.203a5 5 0 0 1 1.184-.328l-.53.07q.666-.086 1.332-.002l-.521-.07a6.5 6.5 0 0 1 1.601.447l-.458-.193c.774.33 1.487.777 2.154 1.288l-.375-.29c1.11.861 2.106 1.88 2.968 2.988l-.275-.355c.6.778 1.134 1.603 1.72 2.392.663.89 1.352 1.764 2.116 2.57a15.7 15.7 0 0 0 2.445 2.11c.824.572 1.753 1.043 2.745 1.223 1.207.22 2.441.186 3.6-.246.56-.21.991-.669.988-1.298-.004-.62.061-1.581-.453-1.996l.352.85c-.02-1.42-.195-2.839-.61-4.2q-.146-.475-.323-.94c-.028-.073-.053-.154-.088-.224-.035-.069-.153-.346-.002.195l-.025-.184a1.03 1.03 0 0 0-.164-.514c-.07-.158-.147-.312-.22-.468-.29-.605-.592-1.2-.932-1.779-1.508-2.565-3.473-4.845-5.412-7.089-1.1-1.272-2.207-2.538-3.263-3.847l.289.373c-.187-.392-.604-.767-.884-1.112a46 46 0 0 1-.627-.792l.294.38c-1.31-1.696-2.493-3.502-3.33-5.482l.196.463c-.47-1.125-.836-2.301-1.006-3.512l.07.524a8.8 8.8 0 0 1-.017-2.305l-.071.53c.076-.522.208-1.027.409-1.513l-.202.479c.18-.415.405-.817.682-1.175l-.313.405q.342-.426.771-.761l-.4.31q.463-.352.996-.582l-.467.197q.493-.205 1.021-.282l-.513.069q.449-.058.898-.004l-.509-.069q.378.054.734.194l-.454-.191q.376.162.705.407l-.38-.294q.338.262.602.6l-.292-.377q.246.332.409.71l-.186-.44c.164.397.263.813.322 1.238l-.065-.484c.064.487.062.975.146 1.46l-.064-.476c-.004 1.834-.395 3.661-.222 5.497.11 1.168.372 2.29 1.002 3.298a7.6 7.6 0 0 0 2.46 2.423c1.008.621 2.117.944 3.285 1.076 1.187.135 2.368-.13 3.445-.62 1.947-.884 3.401-2.881 3.873-4.941.28-1.226.296-2.56-.1-3.764-.48-1.463-1.436-2.601-2.363-3.8l.292.377c-.442-.574-.873-1.164-1.158-1.835l.188.447a5 5 0 0 1-.323-1.158l.067.497a3.9 3.9 0 0 1-.008-1.017l-.067.499c.036-.233.095-.456.185-.673l-.19.448c.09-.191.193-.367.32-.535l-.293.38c.112-.14.233-.26.371-.374l-.378.292c.183-.138.375-.248.584-.34l-.443.187c.294-.12.596-.195.91-.241l-.489.065q.685-.088 1.371-.003l-.482-.065q.765.107 1.476.405l-.426-.18a7 7 0 0 1 1.46.863l-.354-.275c.54.422 1.02.912 1.44 1.453l-.269-.347c.422.554.787 1.149 1.06 1.79l-.17-.402q.44 1.064.592 2.207l-.06-.45c.135 1.08.109 2.164-.035 3.24l.06-.45c-.303 2.153-1.049 4.209-1.89 6.204l.173-.41c-1.06 2.506-2.279 4.969-3.006 7.6-.368 1.332-.612 2.726-.65 4.109-.037 1.403.202 2.772.758 4.059.508 1.177 1.43 2.225 2.575 2.816 1.205.621 2.69.904 4.004.45 1.1-.38 2.078-1.14 2.624-2.184.471-.9.655-1.874.705-2.882.092-1.823-.334-3.649-.092-5.467l-.064.475c.059-.418.157-.829.32-1.218l-.18.427q.169-.395.43-.735l-.28.361q.209-.259.463-.474l-1.733.458q.369.093.72.238l-.424-.18q.591.252 1.102.644l-.359-.277q.523.414.936.94l-.276-.358c.355.46.641.966.869 1.502l-.178-.421c.283.68.467 1.395.568 2.125l-.062-.466c.11.838.11 1.685.002 2.523l.062-.463a9 9 0 0 1-.623 2.299l.175-.415c-.512 1.19-1.2 2.274-1.989 3.298l.273-.353c-2.021 2.602-4.543 4.767-6.502 7.423-1.999 2.71-3.402 6.13-2.944 9.542a8.4 8.4 0 0 0 2.295 4.764c1.17 1.2 2.751 2.092 4.4 2.41.825.16 1.671.244 2.509.143a8.9 8.9 0 0 0 2.845-.814c1.493-.706 2.772-1.943 3.625-3.348.934-1.54 1.32-3.376 1.16-5.164-.163-1.854-.73-3.606-1.125-5.414q-.136-.62-.226-1.246l.07.511c-.078-.59-.126-1.183-.05-1.775l-.069.51c.07-.49.207-.961.399-1.417l-.193.458q.312-.717.785-1.34l-.299.388c.279-.357.593-.684.95-.964l-.387.299c.27-.205.556-.38.867-.516l-.456.193c.24-.099.484-.17.74-.209l-.507.068q.316-.041.634-.005l-.508-.068q.324.046.627.172l-.457-.193q.294.133.551.327l-.386-.3q.292.227.522.515l-.3-.387q.211.277.35.594l-.193-.456c.12.287.195.588.237.897l-.069-.509c.067.541.035 1.086-.035 1.625l.069-.508c-.147 1.084-.442 2.14-.688 3.205-.261 1.135-.523 2.341-.432 3.511.062.795.223 1.462.566 2.18.33.691.883 1.22 1.488 1.67 1.582 1.177 3.877.964 5.5-.008 3.572-2.14 3.475-6.817 2.902-10.42-.498-3.132-1.66-6.112-2.94-8.996-1.251-2.816-2.68-5.548-3.93-8.365q-.234-.527-.457-1.057l.2.476c-1.03-2.453-1.892-4.994-2.253-7.64l.073.54c-.193-1.45-.27-2.969-.08-4.424l-.073.541c.07-.491.19-.972.378-1.433l-.205.485c.133-.314.294-.611.502-.883l-.317.41a2.7 2.7 0 0 1 .447-.446l-.41.316c.134-.098.272-.179.424-.244l-.482.204a2 2 0 0 1 .42-.113l-.536.072q.248-.03.497 0l-.536-.072c.155.026.301.066.448.122l-.481-.203c.194.084.37.189.54.315l-.407-.314c.235.186.438.4.622.636l-.313-.406c.276.37.487.774.667 1.197l-.202-.477c.288.705.465 1.442.566 2.196l-.07-.529c.254 2.012-.015 4.026-.053 6.041-.04 2.163.209 4.402 1.266 6.326.93 1.691 2.603 2.98 4.516 3.337.977.183 1.98.215 2.945-.068 1.089-.32 1.951-.962 2.625-1.862.723-.965.985-2.256.937-3.443-.048-1.184-.334-2.344-.497-3.514l.067.499c-.084-.631-.126-1.265-.045-1.899l-.067.495a3.7 3.7 0 0 1 .246-.909l-.187.444q.175-.398.438-.746l-.29.375a4.2 4.2 0 0 1 .729-.726l-.373.289a4.8 4.8 0 0 1 1-.587l-.438.185a5.2 5.2 0 0 1 1.3-.35l-.49.067a5.3 5.3 0 0 1 1.339-.006l-.495-.066q.574.076 1.11.294l-.448-.19q.45.191.84.486l-.38-.294q.345.271.616.62l-.296-.383c.203.27.364.565.498.876l-.192-.455c.157.385.26.782.318 1.193l-.068-.51c.066.53.055 1.06-.014 1.589l.07-.514a8.5 8.5 0 0 1-.586 2.071l.197-.467c-.494 1.15-1.219 2.172-1.98 3.158l.311-.404c-1.093 1.41-2.288 2.769-3.16 4.333a15 15 0 0 0-1.754 5.315c-.064.474-.126.95-.139 1.428-.013.476.054.938.125 1.41.12.799.42 1.563.767 2.287.7 1.46 1.923 2.723 3.479 3.237 1.05.347 2.145.164 3.122-.295 1.02-.479 1.66-1.414 2.323-2.276l-.328.424c.245-.315.5-.617.814-.866l-.423.327q.338-.258.729-.425l-.5.21q.418-.169.864-.233l-.555.074a4.4 4.4 0 0 1 1.153.005l-.554-.075q.62.093 1.2.334l-.497-.21q.583.25 1.09.63l-.42-.324q.26.202.52.4l-.42-.323q.39.319.706.713l-.325-.42q.329.421.54.911l-.21-.497c.143.345.232.704.285 1.072l-.074-.554q.083.66-.004 1.32l.075-.556c-.07.49-.205.964-.395 1.422l.212-.501c-.219.51-.5.986-.834 1.428l.329-.426q-.54.696-1.231 1.24l.427-.33q-.704.541-1.52.884l.506-.214c-1.438.587-3 .723-4.523.948-1.526.225-3.026.592-4.357 1.408-1.47.9-2.707 2.228-3.22 3.901-.491 1.602-.087 3.274.723 4.693.617 1.081 1.515 2 2.015 3.149l-.222-.526c.11.265.194.535.237.82l-.078-.583q.043.333.003.668l.078-.581a2.8 2.8 0 0 1-.184.663l.22-.52q-.114.26-.285.49l.34-.44a2.4 2.4 0 0 1-.421.42l.439-.34a3 3 0 0 1-.57.328l.517-.218c-.328.136-.671.218-1.022.268l.572-.077c-.698.09-1.403.052-2.1-.041l.567.076c-.86-.12-1.692-.341-2.525-.586-1.166-.343-2.376-.63-3.588-.746l.551.074c-1-.156-2.006-.284-3.019-.302-.996-.017-1.99.08-2.972.248-1.898.326-3.739 1.16-5.197 2.423-.692.6-1.179 1.416-1.464 2.28-.292.884-.245 1.79-.104 2.693.12.773.447 1.528.81 2.214.398.752.927 1.444 1.486 2.082 1.297 1.483 2.957 2.586 4.78 3.31l-.52-.219c.36.156.71.303 1.085.416 1.092.328 2.424-.393 2.682-1.522.267-1.174-.354-2.33-1.523-2.681a9 9 0 0 1-.82-.292l.52.219a10 10 0 0 1-2.182-1.295l.438.338a10.7 10.7 0 0 1-1.862-1.857l.336.435a8 8 0 0 1-.983-1.644l.216.511a5.2 5.2 0 0 1-.363-1.264l.076.568a3.7 3.7 0 0 1-.007-.944l-.076.566q.053-.379.198-.734l-.214.507q.157-.364.4-.678l-.332.43c.187-.233.4-.434.633-.618l-.428.33a8.8 8.8 0 0 1 1.95-1.136l-.503.212a10.6 10.6 0 0 1 2.645-.695l-.557.074c1.295-.165 2.61-.133 3.902.038l-.552-.074c1.44.198 2.806.632 4.197 1.035.587.17 1.183.309 1.787.401.745.114 1.501.219 2.257.182a6.9 6.9 0 0 0 2.542-.596c.762-.337 1.367-.938 1.83-1.62.477-.704.727-1.664.716-2.509-.012-.92-.3-1.764-.711-2.577-.625-1.233-1.632-2.24-2.179-3.516l.223.528a4 4 0 0 1-.27-.952l.08.587a3.4 3.4 0 0 1-.005-.814l-.078.585q.06-.431.223-.836l-.221.524c.144-.341.333-.655.559-.95l-.342.443a5.8 5.8 0 0 1 .985-.97l-.441.342a7.3 7.3 0 0 1 1.57-.908l-.518.218c2.016-.83 4.27-.752 6.346-1.367 2.25-.666 4.208-2.09 5.385-4.142.603-1.05.93-2.17 1.048-3.368.114-1.154-.146-2.309-.626-3.353-.803-1.743-2.642-3.079-4.49-3.502-1.073-.246-2.271-.282-3.323.086-.724.254-1.28.58-1.87 1.06-.514.42-.898.987-1.299 1.508l.328-.425c-.265.343-.536.678-.875.951l.425-.328q-.26.2-.562.33l.502-.212a2.3 2.3 0 0 1-.53.144l.558-.075q-.26.03-.52-.002l.56.075a2.4 2.4 0 0 1-.557-.155l.503.212a3 3 0 0 1-.629-.371l.427.33a4.4 4.4 0 0 1-.745-.751l.33.427a6.2 6.2 0 0 1-.789-1.365l.214.505a6.6 6.6 0 0 1-.44-1.622l.076.563c-.09-.725-.036-1.45.06-2.173l-.075.557c.158-1.136.462-2.243.906-3.301l-.208.492c1.017-2.373 2.828-4.208 4.197-6.362.699-1.099 1.271-2.323 1.555-3.598.308-1.379.371-2.903-.11-4.251-.446-1.245-1.17-2.266-2.27-3.005-.862-.578-1.894-.83-2.914-.912a6.5 6.5 0 0 0-2.673.363c-.964.348-1.857.824-2.586 1.557-.385.388-.74.845-.979 1.339-.34.703-.496 1.33-.58 2.105-.152 1.418.22 2.842.408 4.24l-.067-.503c.079.611.124 1.226.05 1.84l.067-.507a4 4 0 0 1-.26.969l.192-.456q-.148.336-.366.633l.298-.387q-.224.29-.513.519l.387-.3a3.1 3.1 0 0 1-.67.386l.457-.193a3.7 3.7 0 0 1-.879.23l.51-.07a4.5 4.5 0 0 1-1.132-.01l.511.07a5.2 5.2 0 0 1-1.252-.346l.46.194a5 5 0 0 1-1.077-.623l.39.302a4.5 4.5 0 0 1-.779-.774l.302.39a6.5 6.5 0 0 1-.786-1.376l.195.462a8.8 8.8 0 0 1-.555-2.133l.07.517c-.21-1.58-.093-3.166.01-4.75.117-1.825.156-3.668-.26-5.464-.47-2.032-1.626-4.052-3.684-4.776-.99-.349-2.224-.182-3.11.375a4.75 4.75 0 0 0-1.741 1.973c-.421.89-.637 1.744-.756 2.718a14 14 0 0 0-.085 2.104c.041 1.532.26 3.07.603 4.563.663 2.89 1.845 5.646 3.103 8.32 1.237 2.63 2.597 5.202 3.778 7.858q.22.493.429.988l-.196-.464c1.018 2.416 1.851 4.913 2.21 7.518l-.068-.511c.172 1.281.257 2.592.096 3.88l.069-.511a7.3 7.3 0 0 1-.478 1.831l.194-.458a5.3 5.3 0 0 1-.644 1.107l.3-.388q-.295.37-.67.665l.39-.3q-.412.311-.883.518l.459-.193q-.469.197-.971.273l.51-.069q-.421.056-.842.006l.51.069a3 3 0 0 1-.67-.175l.457.193a2.8 2.8 0 0 1-.593-.343l.388.3a3 3 0 0 1-.515-.514l.3.388a3 3 0 0 1-.343-.593l.194.458a3.5 3.5 0 0 1-.225-.85l.069.51c-.072-.556-.038-1.117.035-1.672l-.068.51c.198-1.432.648-2.813.9-4.234.292-1.644.429-3.518-.552-4.98-.63-.938-1.554-1.698-2.665-1.985-1.183-.306-2.408-.07-3.465.516-.994.55-1.793 1.404-2.422 2.337-.564.838-.98 1.835-1.138 2.834-.455 2.886.839 5.62 1.231 8.433l-.069-.514c.1.764.127 1.531.026 2.297l.07-.516a6.5 6.5 0 0 1-.429 1.553l.196-.465a7 7 0 0 1-.884 1.505l.304-.394a7.3 7.3 0 0 1-1.238 1.236l.395-.306a7 7 0 0 1-1.507.88l.467-.196a6.4 6.4 0 0 1-1.54.42l.522-.07a6.5 6.5 0 0 1-1.684-.007l.522.07a7 7 0 0 1-1.7-.47l.47.199a7.6 7.6 0 0 1-1.597-.918l.396.305a6.8 6.8 0 0 1-1.197-1.185l.304.393a6.5 6.5 0 0 1-.829-1.432l.194.46a7.2 7.2 0 0 1-.463-1.722l.069.508a8.5 8.5 0 0 1 .013-2.189l-.068.503c.14-1.006.432-1.98.823-2.916l-.188.445a17 17 0 0 1 2.192-3.706l-.286.369c1.832-2.364 4.027-4.416 5.835-6.803a18 18 0 0 0 2.282-3.941c.467-1.12.691-2.334.75-3.543.118-2.47-.615-5.069-2.304-6.915-.838-.915-2.006-1.638-3.218-1.926-.804-.19-1.483.16-2.02.724-.252.264-.48.561-.672.872a5.3 5.3 0 0 0-.646 1.626c-.264 1.22-.219 2.462-.129 3.697.08 1.099.196 2.212.056 3.31l.064-.47c-.054.39-.142.77-.292 1.135l.178-.422q-.151.356-.382.667l.276-.358a3 3 0 0 1-.523.526l.358-.276c-.197.15-.405.272-.632.37l.421-.178a3 3 0 0 1-.69.183l.47-.063a3.5 3.5 0 0 1-.865-.003l.468.063a4 4 0 0 1-.993-.279l.42.177a4.3 4.3 0 0 1-.897-.533l.355.275a4.2 4.2 0 0 1-.688-.703l.274.355a5.3 5.3 0 0 1-.625-1.092l.177.418a7 7 0 0 1-.448-1.721l.063.464c-.118-.95-.078-1.907.045-2.855l-.062.462c.307-2.244 1.107-4.372 1.982-6.449l-.173.411c.912-2.158 1.915-4.287 2.608-6.529.365-1.18.615-2.379.766-3.605.153-1.239.114-2.457-.068-3.69-.162-1.1-.549-2.15-1.055-3.137l.17.402c-.247-.668-.63-1.278-1.058-1.843-.427-.564-.875-1.1-1.416-1.56-1.04-.883-2.266-1.603-3.622-1.857-1.736-.325-3.62-.145-4.975 1.096-1.26 1.154-1.463 3.006-1.104 4.589.384 1.697 1.54 2.978 2.574 4.315l-.291-.376c.426.556.826 1.132 1.108 1.776l-.187-.443q.254.606.342 1.257l-.066-.492q.083.684-.003 1.37l.066-.492a6 6 0 0 1-.417 1.53l.185-.44a6 6 0 0 1-.768 1.308l.288-.372q-.427.542-.971.967l.37-.287q-.495.374-1.065.619l.437-.185q-.554.225-1.143.312l.486-.065q-.695.091-1.39 0l.485.066a6 6 0 0 1-1.481-.412l.434.183a6.2 6.2 0 0 1-1.272-.743l.367.284a5.8 5.8 0 0 1-1.037-1.035l.283.367a5.3 5.3 0 0 1-.631-1.08l.182.432a5.7 5.7 0 0 1-.365-1.4l.065.48c-.25-1.921.158-3.848.162-5.771l-.064.475c.158-.95.069-2.019-.207-2.942-.267-.891-.758-1.772-1.47-2.384-.934-.801-2.014-1.258-3.251-1.303-1.076-.039-2.192.295-3.12.825a6.3 6.3 0 0 0-1.426 1.111c-.563.592-.938 1.228-1.247 1.976l.202-.48c-.19.423-.376.85-.5 1.298-.135.48-.2.978-.258 1.472a8.4 8.4 0 0 0 .012 1.95c.152 1.285.444 2.515.917 3.718.775 1.972 1.819 3.784 3.083 5.482q.623.836 1.28 1.645c.447.548.884 1.167 1.47 1.568l-.374-.289c1.957 2.151 4.063 4.16 6.016 6.315a44 44 0 0 1 1.695 1.98l.14.175.078.101c.16.204-.07-.12-.096-.125.087.02.253.334.308.408q.15.204.298.41c.384.542.747 1.1 1.08 1.675q.254.435.468.892c.073.157.187.272.28.418-.256-.4-.116-.116-.07-.017q.109.232.21.466c.064.145-.122-.299-.064-.152l.057.14A13 13 0 0 1 38.46 45q.127.53.208 1.07c.04.252-.036-.304.001.01q.017.138.03.277c.017.196.022.394.024.591l.352-.85c-.387.322-.385.833-.437 1.292l-.014.127c-.028.245.04-.272.017-.126l-.054.345.94-.94c-.046.01-.187.053-.23.04.062.019.348-.04.102-.016a5 5 0 0 1-1.205-.026l.397.054a5.7 5.7 0 0 1-1.372-.388l.386.163a10.8 10.8 0 0 1-2.321-1.347l.341.263c-1.114-.87-2.065-1.93-2.93-3.043l.268.348c-1.085-1.405-1.994-2.931-3.122-4.305l.275.356c-.267-.45-.67-.873-1.018-1.267a17 17 0 0 0-.863-.91 14.7 14.7 0 0 0-2.19-1.77c-1.427-.934-3.24-1.591-4.967-1.393-1.05.12-2.107.37-2.983.996-.948.678-1.818 1.617-2.043 2.805-.199 1.053-.092 2.126.479 3.055.478.777 1.17 1.379 1.938 1.859 1.457.91 3.153 1.27 4.719 1.93l-.481-.204c.36.154.743.397 1.12.474l-.476-.201c1.11.494 2.154 1.12 3.117 1.86l-.378-.292c1.064.826 2.02 1.78 2.846 2.843l-.27-.348a15.7 15.7 0 0 1 2.03 3.467l-.16-.377c.264.633.488 1.281.662 1.945a14 14 0 0 1 .276 1.298c.004.028.008.155.028.187-.001-.002-.032-.31-.022-.15.014.222.033.441.026.664-.007.205-.036.408-.044.612 0 .003.055-.313.017-.156-.01.045-.016.093-.026.138a4 4 0 0 1-.078.318c-.025.088-.1.218-.103.31 0 .01.121-.257.063-.146q-.021.045-.041.089a4 4 0 0 1-.218.388q-.052.078-.105.155c-.13.19.246-.29.06-.081-.095.106-.19.21-.295.306q-.067.06-.136.12c-.194.17.187-.133.11-.083-.119.077-.232.16-.355.232-.074.042-.37.138-.41.208-.005.01.335-.133.215-.09q-.072.027-.144.056a5.914 5.914 0 0 1-1.178.288l.401-.054a7.8 7.8 0 0 1-2.012-.01l.407.054a9 9 0 0 1-1.663-.394q-.193-.068-.381-.14c-.253-.097.355.157.124.053q-.106-.047-.212-.096a13 13 0 0 1-.886-.471c-1.251-.719-2.406-1.588-3.633-2.345l.74.96c-.088-.232-.17-.429-.32-.623-.153-.198-.335-.331-.536-.479a19 19 0 0 0-.952-.655c-.449-.287-.913-.55-1.398-.773-.696-.318-1.492-.704-2.276-.703-.702.001-1.433.195-2.01.601l.495-.209c-.439.182-.649.292-1.024.596a3 3 0 0 0-.187.16c-.235.224-.43.496-.62.756-.296.408-.498.893-.657 1.368-.313.937-.339 2.082-.042 3.027.676 2.156 2.505 3.61 4.504 4.5 2.011.894 4.1 1.511 6.255 1.949 2.035.413 4.093.694 6.142 1.031a57 57 0 0 1 3.103.585 36 36 0 0 1 2.235.57c.401.118.828.308 1.252.259l-.538-.073c1.023.265 2.03.59 3.006.997l-.431-.182a16.6 16.6 0 0 1 2.386 1.23 14 14 0 0 1 .805.547l.135.101c.211.156-.22-.176-.073-.058.326.263.645.531.944.824q.435.427.817.9.047.06.095.118c-.013-.014-.2-.265-.07-.088q.081.108.16.218a11.2 11.2 0 0 1 1.059 1.821l.062.139c.085.184-.013-.046-.025-.064.105.156.158.395.22.573a10 10 0 0 1 .448 1.75c.006.039 0 .216.012.093.014-.13-.005.017-.003.058l.006.186c.007.246.027.475.17.688l-.126-.465a8.7 8.7 0 0 1-.023 1.468l-.019.148c-.032.181-.063.362-.104.54a6.1 6.1 0 0 1-.857 2.04c-.352.552.484 1.222.921.71"/><path fill="#0b3335" d="M36.507 84.118c1.059-2.066 4.095-3.049 6.065-1.604.666.489 1.16 1.197 1.81 1.715.811.646 1.759 1.049 2.808 1.065 1.597.025 2.992-.819 4.34-1.567.519-.288 1.045-.618 1.642-.694.019-.003.24.001.433.07.4.145.77.479 1.112.723 1.406.999 2.9 1.561 4.64 1.334 2.95-.386 5.078-2.684 7.777-3.532.647-.204 1.107-.288 1.706-.113.983.286 1.8.988 2.71 1.441 1.9.946 4.597 1.235 5.686-1.014.523-1.08-.335-2.267-1.539-2.002-1.627.359-2.934-.875-4.242-1.583-1.621-.877-3.361-1.12-5.146-.637-1.488.403-2.844 1.215-4.163 1.987-.632.369-1.263.749-1.928 1.056-.364.169-1.163.418-1.354.435-.623.057-.877-.03-1.467-.407-.814-.522-1.515-1.13-2.433-1.478-1.722-.65-3.433-.135-4.975.725-.652.364-1.268.804-1.941 1.128-.505.242-.822.383-1.229.158-.665-.368-1.17-1.128-1.775-1.598a7 7 0 0 0-2.303-1.185c-3.438-1.033-7.635.534-9.21 3.837-.946 1.981 1.956 3.73 2.976 1.74m-17.379 8.826c.337-1.304 1.346-2.338 2.677-2.643 1.377-.316 2.672.405 3.864 1.008 1.391.704 2.834 1.421 4.426 1.46 1.679.042 2.958-.847 4.407-1.533 1.23-.581 2.142-.152 3.234.516 1.175.718 2.318 1.554 3.675 1.9 1.437.367 2.872.108 4.156-.61 1.163-.651 2.085-1.651 3.233-2.324 1.45-.85 2.644.15 3.955.83 1.715.89 3.892 1.443 5.61.256 1.804-1.247.22-4.085-1.74-2.977-1.234.699-2.879-.736-3.96-1.229-1.663-.758-3.343-.91-5.019-.116-1.21.573-2.141 1.542-3.23 2.297-1.063.736-1.912.875-3.085.27-1.283-.66-2.415-1.56-3.785-2.054-1.551-.56-3.077-.337-4.534.38-1.428.703-2.41 1.526-4.054.992-1.456-.472-2.749-1.352-4.206-1.836-3.591-1.192-7.578.907-8.485 4.624-.451 1.853 2.382 2.64 2.861.789m-6.336-20.86a3.3 3.3 0 0 0-1.35.375c-.345.18-.654.439-.927.715a3.9 3.9 0 0 0-.715.991c-.181.367-.329.753-.388 1.159-.076.522-.099 1.024.055 1.54.076.256.184.508.306.746q.118.228.272.433c.16.212.32.422.511.606.192.185.406.348.622.503.367.264.789.452 1.213.603s.881.222 1.33.253c.46.031.935-.025 1.382-.132.93-.22 1.782-.734 2.475-1.382.35-.326.652-.708.92-1.101.278-.406.478-.847.662-1.302a5 5 0 0 0 .311-1.173c.044-.316.088-.629.087-.948-.002-.317-.05-.631-.097-.945a4.1 4.1 0 0 0-.527-1.473 3.7 3.7 0 0 0-1.206-1.251 4.5 4.5 0 0 0-.808-.367c-.283-.103-.574-.135-.873-.173a2.2 2.2 0 0 0-.507-.012c-.28.028-.577.058-.845.157-.263.097-.535.205-.763.372q-.247.133-.397.364-.187.206-.253.48a1.07 1.07 0 0 0-.025.564q.013.282.168.525c.194.302.484.568.844.65s.772.067 1.089-.143a2 2 0 0 1 .277-.15l-.34.143q.222-.092.46-.126l-.38.05q.275-.034.55.001l-.383-.051q.317.044.614.168l-.349-.148c.251.107.485.256.7.421l-.296-.229q.226.176.403.4l-.225-.291q.227.297.374.643l-.142-.336q.155.375.21.775l-.049-.366c.047.368.041.74-.008 1.108l.049-.361q-.092.645-.344 1.245l.135-.32a5.3 5.3 0 0 1-.677 1.16l.206-.267a5 5 0 0 1-.867.868l.261-.203c-.288.22-.6.406-.934.547l.304-.128a3.8 3.8 0 0 1-.925.257l.335-.045q-.484.063-.969-.001l.33.044a4 4 0 0 1-.96-.262l.293.123a3.7 3.7 0 0 1-.81-.47l.245.188a3.3 3.3 0 0 1-.57-.567l.187.241a3 3 0 0 1-.372-.63l.12.281a3.3 3.3 0 0 1-.22-.81l.04.303a3 3 0 0 1 .002-.764l-.038.287q.057-.406.216-.784l-.102.242q.15-.354.383-.658l-.149.192c.112-.143.25-.268.392-.38l-.188.145q.243-.189.524-.311l-.217.091q.277-.116.574-.157c.195-.027.442-.24.53-.408a.9.9 0 0 0 .106-.565.84.84 0 0 0-.244-.51c-.167-.153-.394-.274-.628-.26M8.744 37.859c-.118-.118-.253-.217-.387-.317a2 2 0 0 0-.201-.131c-.144-.08-.3-.141-.453-.2a2 2 0 0 0-.221-.066 4 4 0 0 0-.503-.073 2 2 0 0 0-.232-.008c-.173.005-.347.034-.518.059q-.12.017-.235.045a4 4 0 0 0-.726.275 3 3 0 0 0-.434.245c-.223.15-.44.318-.636.502-.202.19-.368.408-.535.628-.106.138-.19.29-.262.448-.114.25-.228.507-.292.776-.045.189-.065.384-.09.577q-.015.127-.019.256c-.004.277.038.557.082.829q.04.245.12.479c.087.253.193.503.317.74q.114.22.26.419c.16.22.326.438.514.635q.173.182.368.34c.214.173.432.345.665.49q.215.135.444.242c.25.118.508.228.772.315q.238.077.485.124c.274.051.555.09.835.104q.242.013.483-.011c.277-.027.56-.061.83-.132.269-.07.527-.184.779-.298q.226-.103.432-.243a5 5 0 0 0 .635-.504c.195-.186.355-.402.518-.617.261-.343.43-.729.595-1.125q.184-.441.253-.914c.066-.442.119-.877.081-1.324-.037-.44-.1-.888-.24-1.309a7 7 0 0 0-.324-.781 1.2 1.2 0 0 0-.129-.197c-.12-.158-.239-.32-.37-.47a2.4 2.4 0 0 0-.615-.53 5 5 0 0 0-.912-.38 3 3 0 0 0-.193-.046 1.7 1.7 0 0 0-.326-.04l.584.158-.015-.008c-.273-.145-.59-.2-.892-.117a.9.9 0 0 0-.394.207.9.9 0 0 0-.298.325c-.142.269-.213.594-.116.892.09.28.264.55.532.692l.015.008-.415-.416c.037.076.143.2.2.262l.03.03a3 3 0 0 1 .178.21l-.198-.257q.135.175.241.372c.072.133.162.252.24.382.08.133.138.273.21.41.072.14.148.275.21.42l-.152-.358c.133.32.223.656.269 1l-.053-.39c.047.357.048.718 0 1.075l.051-.381a3.8 3.8 0 0 1-.255.944l.141-.335c-.098.231-.228.448-.381.647l.217-.282a3 3 0 0 1-.52.523l.28-.216q-.289.222-.624.364l.328-.138q-.367.153-.763.205l.363-.048a3.4 3.4 0 0 1-.88-.004l.36.049a4 4 0 0 1-1-.275l.32.135a4.1 4.1 0 0 1-.9-.526l.269.208a3.8 3.8 0 0 1-.682-.678l.206.266a3.3 3.3 0 0 1-.427-.727l.132.312a3 3 0 0 1-.202-.73l.047.345a2.5 2.5 0 0 1-.005-.67l-.046.342c.03-.219.092-.431.177-.635l-.13.307c.119-.277.277-.545.46-.783l-.196.252q.25-.322.571-.573l-.242.187q.276-.212.596-.352l-.276.117c.178-.075.363-.13.554-.156l-.298.04q.23-.03.46-.003l-.29-.039q.215.03.415.113l-.254-.108q.195.084.362.212l-.21-.162.015.01a.8.8 0 0 0 .333.215.8.8 0 0 0 .4.09c.254 0 .558-.113.733-.304.182-.198.316-.457.304-.733a1.08 1.08 0 0 0-.304-.734M71.23 7.766c-.233.023-.468.05-.687.138-.147.059-.3.117-.439.198-.137.08-.26.183-.385.28q-.174.137-.311.308a3.5 3.5 0 0 0-.415.6 4.2 4.2 0 0 0-.29.714c-.05.173-.063.364-.084.54q-.015.12-.02.242c-.01.266.03.526.068.789q.032.229.108.447c.08.23.175.457.288.672q.096.18.219.345c.228.308.459.593.76.829.306.238.605.46.959.618.357.161.718.308 1.103.388.25.052.504.084.757.11q.208.02.417.015.209-.004.414-.03c.252-.033.506-.062.753-.124a3 3 0 0 0 .389-.125c.23-.09.465-.185.682-.305a3 3 0 0 0 .34-.223c.199-.15.4-.299.575-.479a5 5 0 0 0 .481-.602q.125-.178.218-.375c.172-.363.321-.735.38-1.133.06-.409.107-.804.06-1.215-.049-.412-.107-.816-.249-1.207a5.6 5.6 0 0 0-.524-1.112 7 7 0 0 0-.47-.632 4 4 0 0 0-.3-.325c-.188-.18-.4-.339-.609-.494a3 3 0 0 0-.36-.23 4 4 0 0 0-.825-.332c-.076-.019-.026-.006-.207-.03-.107-.015-.135-.029-.207-.025q-.031.001-.063.004a8 8 0 0 0-.548.072 2.4 2.4 0 0 0-.333.08c-.045.016-.255.1-.298.126-.06.035-.203.152-.254.197l.85-.352h-.016a.9.9 0 0 0-.463.103.9.9 0 0 0-.387.248.9.9 0 0 0-.25.387.9.9 0 0 0-.103.464c.014.31.116.633.353.85l.243.188q.281.164.607.164h.017l-.85-.351c.165.177.384.246.582.37q.086.054.168.114c.15.11.353.155.527.228l-.346-.147c.287.122.561.269.81.46l-.294-.227c.237.184.448.399.632.636l-.225-.291q.302.396.497.856l-.144-.341q.194.458.26.95l-.05-.376q.058.427.003.856l.05-.374a2.9 2.9 0 0 1-.192.713l.14-.333c-.09.21-.205.41-.346.591l.218-.281a2.7 2.7 0 0 1-.474.471l.28-.215q-.295.224-.636.369l.328-.138c-.273.114-.56.19-.851.23l.362-.048a4 4 0 0 1-1.053-.003l.358.048a3.9 3.9 0 0 1-.97-.263l.316.133a3.4 3.4 0 0 1-.75-.435l.265.204a3 3 0 0 1-.52-.519l.2.261a2.7 2.7 0 0 1-.343-.59l.129.305a2.5 2.5 0 0 1-.167-.616l.045.336q-.045-.346 0-.694l-.044.332c.024-.18.042-.361.065-.541l-.044.326q.041-.31.161-.6l-.117.278q.095-.225.24-.418l-.174.226q.12-.156.275-.279l-.218.169q.15-.117.327-.192l-.248.104q.072-.03.146-.052c.239-.074.49-.242.61-.47l.104-.244a.8.8 0 0 0 .018-.408.5.5 0 0 0-.07-.257.77.77 0 0 0-.211-.33c-.19-.173-.457-.325-.723-.299m18.787 24.901a3 3 0 0 0-.465.123 5 5 0 0 0-.78.346c-.245.138-.463.317-.683.49q-.185.147-.35.32a7 7 0 0 0-.531.664 4 4 0 0 0-.26.415 7 7 0 0 0-.351.792 4 4 0 0 0-.149.462c-.073.286-.106.58-.143.872q-.03.244-.029.489c.003.295.05.587.092.878a3 3 0 0 0 .186.692c.078.194.156.39.249.579q.109.22.255.42c.174.236.352.48.566.682s.451.382.693.547q.202.138.421.244c.269.13.547.249.832.34q.235.075.477.119c.299.053.602.096.905.113q.249.014.498-.003c.307-.02.614-.063.916-.12.458-.087.894-.264 1.313-.463a3.5 3.5 0 0 0 .633-.385c.171-.131.347-.26.508-.403q.185-.166.34-.357c.189-.232.38-.47.53-.731.15-.264.266-.551.373-.833q.092-.24.145-.49.094-.455.126-.917.019-.252.003-.505a8 8 0 0 0-.118-.924 4 4 0 0 0-.123-.496 8 8 0 0 0-.345-.864 4 4 0 0 0-.239-.454 4.3 4.3 0 0 0-.915-1.092 7 7 0 0 0-.72-.534 3 3 0 0 0-.215-.123c-.094-.05-.19-.087-.29-.129-.266-.112-.224-.094-.603-.134l-.023-.002a3 3 0 0 0-.395-.011l-.06.002c-.122.008-.27.017-.368.049a3 3 0 0 0-.325.14l1.007-.133-.017-.006a1 1 0 0 0-.521-.023 1 1 0 0 0-.486.155 1 1 0 0 0-.367.337 1 1 0 0 0-.234.445l-.047.347q0 .355.179.66l.204.265q.245.243.577.336l.017.007-.913-.914c.076.261.215.462.401.652a3 3 0 0 1 .244.28l-.237-.308.158.206a.8.8 0 0 0 .277.278l.164.126.036.026q.065.047.13.096l-.317-.244c.238.186.45.402.636.64l-.256-.33c.151.195.295.396.446.592l-.258-.335q.329.43.539.93l-.167-.395q.213.508.289 1.053l-.059-.437c.046.34.049.685.003 1.026l.059-.436q-.06.44-.231.85l.165-.392q-.154.362-.392.674l.256-.33q-.246.315-.56.56l.33-.254a3.6 3.6 0 0 1-.79.458l.389-.164c-.317.133-.65.222-.99.269l.431-.058q-.539.073-1.079.002l.43.058a3.7 3.7 0 0 1-.93-.25l.385.162q-.389-.163-.722-.42l.325.252a3.2 3.2 0 0 1-.548-.549l.25.325a3 3 0 0 1-.364-.625l.16.38a3.2 3.2 0 0 1-.212-.788l.056.419a3.6 3.6 0 0 1 .002-.958l-.055.414q.07-.507.267-.98l-.155.367c.125-.295.286-.575.481-.83l-.238.308q.255-.331.584-.589l-.305.236q.297-.23.641-.376l-.358.15q.243-.1.5-.154a1.1 1.1 0 0 0 .506-.267q.243-.157.383-.417.163-.257.177-.554a1.13 1.13 0 0 0-.027-.593l-.15-.355a1.5 1.5 0 0 0-.534-.534l-.355-.15a1.5 1.5 0 0 0-.791 0M66.028 91.09c.197-.992 1.274-1.877 2.29-1.666.56.116 1.063.557 1.503.902.591.465 1.174.944 1.864 1.256 1.695.767 3.395.309 4.731-.926.587-.543 1.032-1.21 1.583-1.785.366-.38.957-1.015 1.53-.847.768.226 1.614-.273 1.824-1.036.231-.842-.288-1.53-1.036-1.824-2.174-.856-4.008.814-5.259 2.38-.401.502-.98 1.387-1.696 1.435-.45.03-1.135-.522-1.584-.855-1.47-1.09-3-1.977-4.893-1.43-1.802.52-3.086 2.222-3.1 4.092-.01 1.256 1.987 1.595 2.243.304"/></g><defs><clipPath id="a"><path fill="#fff" d="M3 6h93.343v88H3z"/></clipPath></defs></svg>