<svg width="100" height="100" viewBox="0 0 100 100" fill="none" xmlns="http://www.w3.org/2000/svg">
<g clip-path="url(#clip0_2568_2269)">
<path d="M53.1924 10.7983C54.2047 11.6763 53.9793 13.3406 53.3012 14.4964C52.6231 15.6521 51.5914 16.6026 51.1092 17.8528C50.2355 20.1178 51.4337 22.7043 53.142 24.4292C54.8503 26.1541 57.0363 27.3307 58.8297 28.9669C60.6231 30.603 65.5205 36.1289 65 38.5C64.863 39.1239 61.0791 38.2303 60.5 38.5C60.0924 38.6898 59.2786 38.027 58.8297 38C44.9321 37.1625 24.3096 39.7283 10.5 41.5C12.5881 39.1474 16 37 16 37C16 37 22.6657 33.2984 21.1883 33.524C19.711 33.7497 17.8919 33.6605 17.1389 32.3696C28.9416 29.8518 39.8519 23.3273 47.6544 14.1207C48.4219 13.2152 49.1853 12.2632 50.2187 11.6792C51.252 11.0952 53.1924 10.7983 53.1924 10.7983Z" fill="#009345"/>
<path d="M5.7695 56.2089C9.39789 49.4895 18.1492 42.4606 25.6484 41.0189C35.1409 39.194 29.9867 37.7325 65 39.9999C66.5547 40.1006 58.8109 46.8747 48 46C29.9929 49.2317 21.5547 47.3154 5.7695 56.5634V56.2089Z" fill="#009345"/>
<path d="M9.52928 72.7855C12.1499 63.7103 11.6274 56.1388 20.0705 51.9033C22.7169 50.5757 32.5855 49.2982 35.392 48.3551C38.6014 47.2767 41.9446 46.2272 45.3107 46.5934C45.6274 47.1435 45.2931 47.8284 44.9508 48.363C42.1745 52.6996 38.4934 56.4542 34.2124 59.3156C32.4626 60.4852 30.6181 61.5049 28.7761 62.5231C22.2706 66.1193 15.7651 69.7154 9.25946 73.3114L9.52928 72.7855Z" fill="#009345"/>
<path d="M20.5 89.5C18 87 17.5 87 15.9235 83.7051C14.9868 81.7476 14 78.1775 15 73.5C17.3928 63.9763 26.7083 59.9411 36.3372 58.0147C36.6982 57.9425 37.0791 57.879 37.4282 57.9957C37.9994 58.1866 38.3119 58.792 38.5136 59.3595C39.6988 62.6943 39.0203 66.4644 37.4631 69.6426C35.906 72.8207 33.5409 75.5197 31.2039 78.1775C29.5649 80.0414 27.9259 81.9053 26.287 83.7692C24.6899 85.5854 23.0597 87.4299 20.9961 88.6912L20.5 89.5Z" fill="#009345"/>
<path d="M52.7347 75.8074C51.2749 70.7959 49.8743 65.1461 52.4059 60.5813C54.6379 56.5569 59.6887 53.9077 59.954 49.3135C63.7458 51.0205 64.2976 56.3787 62.7518 60.2391C61.2061 64.0994 58.237 67.2601 56.6959 71.1223C63.4631 67.4848 70.0164 63.4492 76.3105 59.0433C74.6762 56.1885 73.9933 52.7994 74.3947 49.5345C77.4656 50.4545 78.8592 54.7861 76.9009 57.3241C79.6296 55.6744 81.5957 53.1803 81.8264 50C82.0572 46.8197 80.8948 42.301 82.8368 39.772C85.3717 42.1982 85.5073 45.7239 82.8368 48C85.8119 46.4474 87.8997 44.832 87.5 41.5C87.1003 38.168 84.3691 33.2586 85.93 30.2879C87.1634 31.9131 88.9613 34.9601 89 37C94.3849 31.3129 89.1255 30.1454 88.3585 27.3042C87.6891 24.8244 86.5916 21.5817 88.7316 20.1613C89.8059 22.2223 90.3381 24.5629 90.2605 26.8858C93.3683 24.5 93.5627 18.1867 94.3191 13.6064C96.9134 18.7282 92.0901 25.9345 93.5 31.5C93.7733 29.8094 94.8701 27.2831 96.4726 26.6792C96.4726 33.5 91.5 31 90.5308 42.0457C91.4168 39.9945 93.1207 38.3102 95.182 37.4478C95.2813 43.2558 86.6639 45.8359 85.8479 51.5871C87.9381 50.3609 90.2669 49.5432 92.6648 49.1935C91.0112 54.8033 81.9134 54.4673 79.2139 59.6553C80.9655 59.1354 82.8467 59.0576 84.6353 59.4314C85.2038 59.5501 85.8311 59.7697 86.0679 60.3001C86.4237 61.097 85.6605 61.9418 84.905 62.3788C83.316 63.2979 81.403 63.6431 79.593 63.3376C77.9797 63.0653 78.1267 63.3242 76.5 63.5C75.2364 63.6365 73.0764 64.8242 72 65.5C68.5042 67.6947 67.9959 67.8053 64.5 70C63.1751 70.8317 58.0285 72.4931 58.0314 74.0574C65.9631 73.3992 73.8948 72.741 81.8264 72.0827C79.5726 76.6422 73.5112 77.7286 68.4581 77.1506C63.405 76.5725 58.2615 74.9226 53.3429 76.2173L52.7347 75.8074Z" fill="#009345"/>
<path d="M10.8835 33.8708C16.3762 34.5047 22.0305 33.7989 27.2074 31.8563C29.8468 30.8659 32.172 29.4832 34.611 28.1055C37.0879 26.7064 39.4121 25.0669 41.5241 23.1587C43.6097 21.2744 45.6675 19.3428 47.6898 17.3911C48.6973 16.4187 49.7316 15.4723 50.8158 14.5856C51.2585 14.2236 51.5899 13.9684 52.0916 13.6099C52.1521 13.5667 52.9531 13.1053 52.9539 13.021C52.9535 13.0566 51.3397 12.77 52.399 12.943C51.9435 12.8686 51.7099 12.633 51.9631 12.9404C54.0316 15.4533 56.2887 17.8344 58.4435 20.2743C60.3764 22.4629 62.2687 24.6991 64.3342 26.7655C66.5062 28.9385 68.7935 30.8386 71.639 32.051C74.5015 33.2706 77.4962 33.6991 80.4593 32.5733C81.1876 32.2966 81.4194 31.0137 80.4593 30.8519C78.122 30.4582 75.8728 29.4815 73.9 28.1829C73.368 27.8327 73.046 27.5991 72.6263 27.2523C72.4142 27.077 72.2085 26.8945 71.9997 26.7153C71.8573 26.5931 71.7198 26.4759 71.5725 26.3581C71.6278 26.4023 70.8221 25.7679 71.128 26.0123C70.0876 25.1811 69.1005 24.2873 68.1528 23.3522C63.746 19.0036 59.8982 14.0921 55.7248 9.5246C54.3789 8.05172 52.4824 7.5136 50.6556 8.50283C49.3565 9.20629 48.1732 10.2881 47.0617 11.2536C44.9286 13.1065 43.0592 15.1731 41.2149 17.3065C39.379 19.4302 37.5353 21.5717 35.5749 23.5821C34.6379 24.543 33.6545 25.5587 32.5293 26.2986C31.3786 27.0551 30.1635 27.7247 28.9242 28.3238C23.3404 31.0235 17.0393 32.0539 10.8835 31.3784C10.2088 31.3044 9.64375 32.0043 9.63728 32.6247C9.62959 33.362 10.2177 33.7939 10.8835 33.8708Z" fill="#0B3335"/>
<path d="M55.0564 78.4961C53.6479 76.5247 53.0087 74.0491 53.5583 71.657C54.1265 69.1834 55.8027 67.2342 57.5491 65.4786C61.3029 61.7049 66.1755 57.4739 65.4752 51.5514C65.0926 48.3158 63.1011 45.3601 60.8679 43.0718C59.4074 41.5753 56.6085 43.5815 57.8921 45.3678C59.1235 47.0814 57.8167 49.3783 56.5153 50.6615C54.6876 52.4636 52.4184 53.7583 50.7604 55.7469C48.8735 58.0099 48.0921 60.5865 48.1536 63.5187C48.2059 66.0134 48.595 68.6132 49.0365 71.0688C49.4681 73.469 50.0484 76.0465 52.2341 77.432C52.541 77.6265 52.8127 77.206 52.6014 76.9558C51.0484 75.1164 50.5984 72.7972 50.6664 70.4548C50.7383 67.9781 50.9802 65.5009 51.6918 63.1182C52.3775 60.8225 53.4197 58.8171 55.1794 57.1704C57.0478 55.4219 59.1323 53.892 60.4692 51.657C62.0192 49.0659 62.5801 46.2333 61.1642 43.4552L57.8921 45.3678C59.3514 47.4061 61.3737 49.3708 61.6717 51.9902C61.9479 54.4184 60.5554 56.7515 59.0645 58.548C55.6755 62.6316 50.9209 65.9741 50.2001 71.6226C49.8236 74.5726 50.6169 77.6656 52.4391 80.0261C52.9385 80.673 53.742 81.0207 54.5129 80.5698C55.1702 80.1853 55.5349 79.1656 55.0564 78.4961Z" fill="#0B3335"/>
<path d="M54.8187 79.5033C57.2715 73.6413 65.0291 73.597 70.2901 74.0204C76.3851 74.511 83.817 75.0609 88.4957 70.2592L85.6 69.886C86.4096 71.7158 85.4121 73.707 84.1303 75.0234C82.3477 76.8542 80.2512 77.2943 77.7683 77.3107C74.7023 77.3308 71.7335 76.3909 68.818 75.5455C66.1359 74.7677 63.4265 74.1135 60.621 74.0189C57.7749 73.9229 53.8672 74.359 52.1243 76.8915C51.4021 77.9409 52.5908 79.0291 53.6268 78.8458C54.9605 78.6099 56.162 77.9502 57.5172 77.7439C58.825 77.5447 60.185 77.5879 61.4964 77.7267C64.4923 78.0436 67.3977 79.0725 70.298 79.8327C73.5149 80.6758 76.9198 81.35 80.2264 80.654C82.7588 80.121 85.3181 78.606 86.9808 76.6175C88.8706 74.3576 89.9242 71.3602 88.9698 68.4654C88.5129 67.0797 86.9654 66.7442 85.8883 67.6518C82.1807 70.7755 77.1591 70.7634 72.5772 70.5996C67.4238 70.4153 61.7995 70.2964 57.3828 73.3748C55.3727 74.7758 53.7871 76.6532 53.0648 79.0199C52.713 80.1723 54.3816 80.5479 54.8187 79.5033Z" fill="#0B3335"/>
<path d="M77.2502 59.1652C80.0984 56.6194 80.7094 52.0705 79.3613 48.6055C78.9882 47.6463 78.5132 46.6412 77.811 45.8724C77.3184 45.3332 76.6659 45.0871 75.942 45.1844C75.2155 45.282 74.6545 45.8174 74.1689 46.3307C72.6286 47.9591 71.812 50.3119 71.7752 52.5328C71.7558 53.6975 71.9593 54.9119 72.381 55.999C72.8673 57.2528 73.6292 58.2799 74.596 59.2082C75.1995 59.7877 76.187 59.8084 76.7871 59.2082C77.4346 58.5607 77.3097 57.6742 76.7871 57.0171C76.5999 56.7818 76.3434 56.2745 76.1592 55.9224C76.0729 55.7284 76.0558 55.6969 76.1079 55.8279C76.0641 55.7135 76.0188 55.5997 75.9719 55.4865C75.7782 55.0387 75.7309 54.9245 75.8301 55.144L75.765 54.9704C75.4296 53.9286 75.3157 53.4857 75.3582 52.4402C75.3609 52.3742 75.4122 51.7807 75.3727 52.0867C75.4042 51.8424 75.4579 51.5986 75.517 51.3599C75.5764 51.1198 75.6471 50.8825 75.7283 50.6489C75.769 50.5321 75.8123 50.4162 75.8583 50.3013C75.8087 50.4198 75.8096 50.422 75.8611 50.3079C76.0596 49.8874 76.292 49.4877 76.5557 49.1049C76.6946 48.9034 76.833 48.6956 76.9841 48.5031C76.8961 48.6218 76.9195 48.5976 77.0542 48.4307C77.2953 48.188 77.1994 48.2219 76.7663 48.5325H75.849L75.9638 48.5672L75.2054 48.1252C75.2731 48.1796 75.3253 48.236 75.3851 48.2982C75.1972 48.1028 75.422 48.36 75.4571 48.4111C75.5953 48.6124 75.7248 48.8198 75.8442 49.0329C75.9503 49.2221 76.0455 49.4162 76.1399 49.6113C76.3614 50.0691 76.0877 49.4582 76.191 49.7311C76.2294 49.8327 76.2672 49.9343 76.3025 50.0369C76.4615 50.499 76.582 50.9738 76.6648 51.4554C76.6699 51.4851 76.714 51.8024 76.6943 51.6374C76.6711 51.4428 76.7124 51.8658 76.7153 51.9036C76.7334 52.1483 76.74 52.393 76.7416 52.6384C76.7445 53.0997 76.7336 53.5627 76.6724 54.0205C76.7027 53.7937 76.6584 54.0735 76.6422 54.161C76.6224 54.2681 76.6008 54.3748 76.5772 54.481C76.5243 54.7194 76.4626 54.9559 76.3905 55.1892C76.2371 55.6858 76.1791 55.7957 75.962 56.2566C75.7967 56.6077 75.8104 56.6231 75.6605 56.9276C75.5411 57.1702 75.4075 57.4042 75.2663 57.6347C74.4911 58.8998 76.2097 60.0952 77.2502 59.1652Z" fill="#0B3335"/>
<path d="M79.2881 60.6291C81.754 58.5873 85.3548 59.11 88.3101 59.543L87.1809 57.5542C87.1468 57.6698 87.096 57.7889 87.0679 57.9062C87.0242 58.0881 87.1751 57.7085 87.0398 57.983C86.9317 58.2024 86.8274 58.4251 86.7112 58.6402C86.5938 58.8578 86.4589 59.0623 86.3198 59.2664C86.4556 59.067 86.3657 59.2125 86.2704 59.3238C86.1902 59.4175 86.1076 59.5089 86.0218 59.5975C85.85 59.7749 85.6668 59.94 85.4757 60.0963C85.6646 59.9417 85.5337 60.0486 85.411 60.1311C85.3088 60.1997 85.2047 60.2654 85.0985 60.3276C84.9923 60.3897 84.8838 60.4479 84.7737 60.5029C84.6987 60.5405 84.3846 60.6535 84.7196 60.5368C84.4862 60.6182 84.2565 60.6999 84.0156 60.7573C83.9184 60.7804 83.8204 60.7992 83.7224 60.8183C83.2549 60.91 84.0652 60.8149 83.5902 60.8278C83.3374 60.8347 83.0888 60.8351 82.8361 60.8245C82.6443 60.8165 82.6974 60.8068 82.8564 60.8362C82.7075 60.8086 82.5598 60.7823 82.4125 60.7468C82.1914 60.6933 81.9802 60.6065 81.7612 60.5491C81.561 60.4967 82.0029 60.6757 81.7011 60.5271C81.5878 60.4714 81.4751 60.4163 81.3644 60.3557C81.142 60.2338 80.936 60.0925 80.7262 59.9511C80.5556 59.8362 80.9198 60.1436 80.6825 59.9067C80.5937 59.818 80.4969 59.7373 80.4082 59.648C80.3193 59.5587 80.2381 59.4626 80.1511 59.3717C79.8847 59.0933 80.3128 59.6102 80.071 59.2669C79.5143 58.4765 78.4264 58.0284 77.5364 58.6023C76.7753 59.093 76.2459 60.3107 76.8718 61.1369C78.7376 63.5999 81.8114 64.8884 84.8765 64.1583C86.2296 63.836 87.52 63.0571 88.4712 62.0469C89.5703 60.8795 90.1596 59.5642 90.3565 57.9839C90.4714 57.0616 89.5188 56.4393 88.7398 56.3671C84.8017 56.0025 80.5166 55.8842 77.4065 58.7474C76.8777 59.2342 76.9132 60.1357 77.4065 60.6289C77.9544 61.1769 78.7329 61.0888 79.2881 60.6291Z" fill="#0B3335"/>
<path d="M84.5811 50.2725C86.324 46.7633 88.06 42.6248 85.9943 38.8463C85.4317 37.8172 84.55 36.7992 83.2624 36.9609C82.1217 37.1041 81.3962 38.053 80.9 39.0075C80.0349 40.6718 79.5777 42.5321 79.562 44.4081C79.5531 45.4737 79.6918 46.5658 79.9646 47.5956C80.2476 48.6638 80.6722 50.1775 81.6754 50.7579C82.7174 51.3608 83.9954 50.5886 84.0231 49.4107C84.039 48.7343 83.6701 48.2381 83.4089 47.6494C83.4882 47.8282 83.2739 47.2934 83.2522 47.231C83.195 47.0665 83.1422 46.9003 83.0936 46.733C82.8256 45.8099 82.7549 45.312 82.7411 44.4081C82.7175 42.8581 83.07 41.1629 83.9012 39.8979C83.8478 39.9607 83.8808 39.9278 84 39.7991C83.7527 40.0564 83.4118 40.0438 82.9773 39.7614C83.0311 39.8994 83.1498 39.9658 83.2627 40.1468C83.5052 40.5359 83.5866 40.7207 83.7054 41.1062C83.9558 41.9184 83.9992 42.547 83.9301 43.4515C83.7994 45.1602 82.8622 47.1265 82.0508 48.7936C81.7046 49.5047 81.8573 50.3776 82.5764 50.7982C83.2244 51.1772 84.2277 50.984 84.5811 50.2725Z" fill="#0B3335"/>
<path d="M86.1713 53.2154C86.6565 52.5304 87.0647 51.7375 87.7369 51.3748C88.572 50.9242 89.254 50.238 90.1167 49.8265C90.3264 49.7265 89.7112 49.9593 90.2377 49.7884C90.3737 49.7443 90.5083 49.6957 90.6442 49.6512C90.8866 49.572 91.1304 49.4968 91.3762 49.4289C91.5912 49.3696 91.8074 49.3153 92.0255 49.2689C92.1264 49.2474 92.2277 49.2272 92.3293 49.209C92.3694 49.2018 92.7023 49.1485 92.4924 49.1796C92.2831 49.2107 92.6439 49.1645 92.6497 49.1639C92.746 49.1546 92.8424 49.147 92.939 49.1406C93.1381 49.1273 93.3374 49.1206 93.5368 49.1163C94.0243 49.1059 94.512 49.1127 94.9995 49.1186L93.5867 47.2638C93.5407 47.4717 93.4888 47.6773 93.4247 47.8803C93.3891 47.9931 93.3495 48.104 93.3093 48.2153C93.2756 48.3085 93.2315 48.3973 93.2964 48.2546C93.1228 48.6363 92.9198 49.0255 92.6667 49.3616C92.7612 49.2362 92.7022 49.3132 92.6338 49.3855C92.5529 49.4709 92.4748 49.5587 92.392 49.6425C92.2421 49.794 92.0838 49.935 91.9231 50.0749C91.8182 50.1663 91.7859 50.1771 91.9148 50.086C91.819 50.1536 91.7242 50.222 91.6262 50.2864C91.4491 50.4028 91.2665 50.5109 91.0788 50.6094C90.9949 50.6535 90.9097 50.6946 90.8243 50.7359C90.6934 50.7991 90.6392 50.8013 90.8034 50.7462C90.5806 50.821 90.3622 50.9002 90.1346 50.9606C89.9072 51.0209 89.6782 51.0793 89.4474 51.1249C89.4427 51.1258 88.9704 51.1911 89.2243 51.1658C89.4545 51.1429 89.1173 51.1699 89.0772 51.1726C88.8423 51.1889 88.6067 51.1932 88.3713 51.1855C88.2405 51.1812 88.1094 51.1624 87.9789 51.1605C87.7028 51.1566 88.2797 51.2225 88.0101 51.1686C87.5164 51.0699 87.0468 50.9528 86.5773 50.7674C85.6409 50.3977 84.4289 51.1718 84.2156 52.1082C83.974 53.1687 84.536 54.1285 85.5565 54.4699C87.9158 55.2591 90.7344 54.9819 92.7817 53.5226C94.5846 52.2374 95.9832 50.2334 96.4123 48.0428C96.5911 47.1301 96.0098 46.1758 94.9994 46.1881C92.8172 46.2146 90.569 46.4342 88.6183 47.516C87.6835 48.0343 86.7456 48.7767 86.0189 49.5614C85.1637 50.4847 84.9204 51.6517 84.8844 52.867C84.8627 53.6021 85.8009 53.7384 86.1713 53.2154Z" fill="#0B3335"/>
<path d="M91.3981 42.6426C91.4017 42.5926 91.4588 42.168 91.4184 42.3967C91.4435 42.2544 91.47 42.1129 91.5043 41.9725C91.5386 41.8315 91.5781 41.6918 91.6229 41.5539C91.6454 41.4846 91.6691 41.4155 91.6942 41.347C91.7147 41.2908 91.8681 40.9792 91.7203 41.2691C91.8248 41.0641 91.9127 40.8502 91.9934 40.6351C92.0856 40.3899 91.9954 40.6281 91.9754 40.6707C92.0064 40.6046 92.0355 40.5375 92.0673 40.4716C92.2115 40.1726 92.3774 39.8843 92.5612 39.6079C92.6244 39.5128 92.7214 39.3025 92.8201 39.2426C92.7971 39.2566 92.608 39.4983 92.7961 39.2783C92.8447 39.2215 92.8923 39.1637 92.9408 39.1068C93.1493 38.8626 93.3613 38.6226 93.5901 38.3971C93.8207 38.1699 94.0652 37.9611 94.3151 37.7558C94.0615 37.9642 94.3838 37.7092 94.4713 37.6482C94.6116 37.5503 94.7549 37.4565 94.9005 37.3666C95.1584 37.2073 95.424 37.0608 95.6966 36.9281C95.7643 36.8951 95.8325 36.8629 95.9011 36.8317C95.9472 36.8106 96.1733 36.7222 95.9824 36.7942C95.765 36.876 96.3644 36.7989 95.8401 36.7606C95.6194 36.7748 95.4278 36.6961 95.2654 36.5246L95.3417 36.6019C95.3116 36.5634 95.1769 36.246 95.2048 36.3958C95.214 36.4449 95.2825 36.6824 95.2386 36.4807C95.1952 36.2819 95.2362 36.5195 95.2375 36.5759C95.2393 36.654 95.2377 36.7318 95.234 36.8098C95.2303 36.8858 95.2195 36.9617 95.2167 37.0376C95.2089 37.2471 95.2646 36.7713 95.2272 36.9777C95.1979 37.1393 95.1712 37.3003 95.1333 37.4602C95.066 37.7439 94.9744 38.0178 94.8761 38.2919C94.7884 38.5365 94.8755 38.2956 94.8955 38.2527C94.8646 38.3186 94.8357 38.3854 94.8042 38.4511C94.7254 38.615 94.6403 38.7761 94.5488 38.9334C94.4752 39.06 94.3936 39.1796 94.3087 39.2988C94.1577 39.5109 94.3013 39.3054 94.332 39.2697C94.2846 39.3247 94.2398 39.3822 94.1925 39.4373C93.9787 39.6863 93.748 39.9208 93.5028 40.139C93.4482 40.1876 93.3927 40.2354 93.3367 40.2823C93.3014 40.3118 93.0496 40.4967 93.2301 40.3704C93.3981 40.2529 93.2024 40.3868 93.1612 40.4158C93.0869 40.4682 93.0118 40.5193 92.9355 40.5687C92.7825 40.6679 92.6232 40.7548 92.4667 40.8479C92.3049 40.9441 92.4559 40.9328 92.5386 40.8292C92.5007 40.8767 92.3396 40.898 92.285 40.9154C92.1134 40.9701 91.9398 41.0177 91.7644 41.0582C91.6304 41.0891 91.4004 41.0866 91.2824 41.1509C91.4876 41.039 91.6228 41.1131 91.4259 41.1293C91.3193 41.1381 91.2119 41.1419 91.1055 41.1509C90.7814 41.1785 90.5131 41.2612 90.2113 41.3611C89.386 41.6345 88.8508 42.3862 88.9688 43.2643C89.0888 44.1577 89.8004 44.6985 90.6724 44.7684C91.6629 44.8478 92.6416 44.3763 93.4631 43.8478C94.1502 43.4057 94.8367 42.9404 95.4293 42.3747C96.6049 41.2524 97.5539 39.7047 97.9414 38.121C98.1825 37.136 98.2952 36.0428 97.8288 35.1059C97.5491 34.5441 97.0372 34.0661 96.4234 33.8953C95.7115 33.6971 95.0889 33.9633 94.4544 34.2452C92.8799 34.9449 91.4662 36.0773 90.4575 37.4738C89.9285 38.2063 89.4353 39.1016 89.2272 39.9857C89.0017 40.9433 89.0508 41.9778 89.2479 42.9333C89.3567 43.4604 89.9454 43.7931 90.449 43.7174C91.0092 43.6332 91.358 43.2001 91.3981 42.6426Z" fill="#0B3335"/>
<path d="M89.4804 38.2627C90.4402 36.8812 90.5953 35.1414 90.3058 33.5245C90.0217 31.9376 89.1521 30.5221 88.2195 29.2364C87.5748 28.3475 86.7593 27.5576 85.5642 27.8061C84.618 28.0029 84.0805 28.9689 83.7363 29.7848C83.1313 31.2183 83.1422 32.9194 83.6481 34.3831C84.2546 36.1373 85.4048 37.5168 86.6699 38.8384C87.2071 39.3996 88.2324 39.4195 88.7658 38.8384C89.2803 38.278 89.3873 37.2894 88.7658 36.7426C88.4794 36.4906 88.2096 36.2251 87.9505 35.9451C87.8213 35.8055 87.6949 35.6634 87.5721 35.5181C87.5108 35.4456 87.4504 35.3724 87.3909 35.2984C87.4711 35.4064 87.4599 35.3918 87.3574 35.2546C87.1351 34.9488 86.9258 34.6348 86.7421 34.304C86.6736 34.1805 86.6083 34.0553 86.5467 33.9282C86.5057 33.8434 86.4663 33.7579 86.4287 33.6715C86.4835 33.7967 86.4792 33.7796 86.4158 33.62C86.3065 33.2748 86.2051 32.9366 86.1435 32.5788C86.1951 32.8781 86.1271 32.3455 86.1246 32.2869C86.1169 32.1079 86.1178 31.9284 86.1283 31.7496C86.1329 31.6714 86.181 31.3444 86.137 31.5954C86.1676 31.4208 86.2051 31.2479 86.2546 31.0775C86.2705 31.0225 86.4619 30.5512 86.3451 30.7954C86.4221 30.6344 86.512 30.4844 86.6027 30.3312C86.6996 30.1889 86.7023 30.1834 86.611 30.3148C86.3027 30.5342 85.9953 30.5936 85.6884 30.4929C85.5754 30.4171 85.5804 30.4356 85.7033 30.5485C85.6187 30.4353 85.6294 30.4527 85.7351 30.6007C85.9322 30.8963 86.1354 31.1869 86.3242 31.4882C86.5395 31.8317 86.7433 32.1827 86.9264 32.5446C86.9721 32.6348 87.0164 32.7255 87.0594 32.817C87.1299 32.9779 87.1423 33.0011 87.0968 32.8865C87.2505 33.2555 87.2901 33.3484 87.2156 33.1651C87.2535 33.2587 87.2896 33.3529 87.3239 33.4478C87.4375 33.763 87.53 34.0856 87.5947 34.4144C87.6124 34.5046 87.628 34.5953 87.6415 34.6862C87.6204 34.5399 87.6191 34.5524 87.6376 34.7237C87.6426 34.908 87.6571 35.0905 87.6528 35.2753C87.6516 35.3278 87.6007 35.8542 87.6409 35.589C87.6137 35.7682 87.5731 35.9463 87.5232 36.1205C87.5083 36.1725 87.3275 36.627 87.422 36.4286C87.3435 36.5933 87.252 36.749 87.1538 36.9025C86.7733 37.4973 87.0115 38.4154 87.6371 38.7459C88.3251 39.1093 89.05 38.8823 89.4804 38.2627Z" fill="#0B3335"/>
<path d="M95.2177 31.3548C95.1777 31.2783 95.1385 31.2017 95.1014 31.1237C95.1994 31.3296 95.085 31.0734 95.0697 31.0288C95.0138 30.8667 94.9676 30.7016 94.9306 30.5343C94.9074 30.4298 94.8854 30.3242 94.8713 30.2179C94.8904 30.3617 94.8823 30.3092 94.8773 30.1965C94.8686 30.0023 94.8611 29.8093 94.869 29.6147C94.8726 29.5287 94.8856 29.4413 94.886 29.3555C94.8869 29.1353 94.8243 29.6544 94.8958 29.271C94.9277 29.1003 94.9635 28.9306 95.0092 28.763C95.0607 28.5738 95.1281 28.3913 95.1928 28.2067C95.2631 28.0061 95.1015 28.3664 95.2058 28.1822C95.2575 28.0909 95.2986 27.9918 95.3484 27.8994C95.4279 27.7519 95.5137 27.6077 95.6048 27.467C95.6615 27.3792 95.7271 27.2964 95.7822 27.2078C95.894 27.0278 95.6529 27.3554 95.7898 27.194C96.0212 26.9211 96.2583 26.6575 96.5213 26.4142C96.6608 26.2853 96.8068 26.1643 96.9523 26.0424C97.0169 25.9884 97.0808 25.9336 97.1458 25.8801C97.2248 25.8151 97.3704 25.712 97.2087 25.8286C97.5742 25.565 97.98 25.3425 98.3054 25.0287L96.2081 24.7585C96.2704 24.8432 96.3302 24.9289 96.3898 25.0156C96.2999 24.8846 96.3647 24.9364 96.4008 25.0627C96.4491 25.2317 96.4946 25.4004 96.5298 25.5728C96.5474 25.6584 96.562 25.7444 96.5767 25.8306C96.531 25.5626 96.5824 25.9019 96.5853 25.9352C96.6004 26.1104 96.6079 26.2862 96.6081 26.462C96.6082 26.6376 96.601 26.8132 96.5867 26.9882C96.5841 27.0188 96.5252 27.33 96.5732 27.1104C96.5543 27.1966 96.5359 27.2828 96.5148 27.3685C96.4726 27.5402 96.4236 27.7101 96.368 27.878C96.3402 27.9621 96.311 28.0456 96.2799 28.1286C96.2746 28.1429 96.1408 28.4544 96.2328 28.2512C96.0868 28.5736 95.9196 28.8854 95.7269 29.1824C95.669 29.2715 95.6069 29.3571 95.5474 29.445C95.4306 29.6177 95.5844 29.4098 95.5037 29.5051C95.3898 29.6397 95.2706 29.7669 95.1434 29.889C95.0036 30.023 94.8582 30.1513 94.7064 30.2716C94.8415 30.1645 94.7439 30.2425 94.6602 30.2993C94.5879 30.3482 94.5162 30.3979 94.4424 30.4447C94.2942 30.5386 94.1416 30.6258 93.9854 30.7057C93.8909 30.754 93.795 30.7989 93.6982 30.8424C93.9054 30.7493 93.7277 30.8261 93.6184 30.8657C92.8723 31.1358 92.4283 31.8841 92.7562 32.6612C93.0778 33.4233 93.9282 33.6555 94.6436 33.2974C96.3207 32.458 97.5829 30.8888 98.286 29.1743C98.6259 28.3456 98.8048 27.4572 98.8918 26.5674C98.9328 26.1479 98.9303 25.7259 98.8857 25.3067C98.8576 25.0435 98.8215 24.779 98.7706 24.5189C98.7629 24.4795 98.6734 24.1598 98.7179 24.3223C98.761 24.4797 98.7011 24.1267 98.6966 24.0845C98.6049 23.212 97.9186 22.5784 97.0062 22.7968C96.0767 23.0193 95.1272 23.7894 94.4605 24.4425C93.7969 25.0926 93.2106 25.8674 92.8184 26.7118C91.9301 28.6241 91.8596 30.84 92.8911 32.7146C93.2312 33.3327 94.1338 33.5852 94.7345 33.198C95.3715 32.7873 95.5674 32.024 95.2177 31.3548Z" fill="#0B3335"/>
<path d="M90.7635 28.3955C91.1012 28.1734 91.4603 27.9181 91.689 27.5798C91.9259 27.2293 92.0959 26.8167 92.234 26.4197C92.5018 25.65 92.5358 24.8575 92.4281 24.0564C92.1998 22.3571 91.3896 20.8446 90.5151 19.3945C90.2712 18.9902 90.0092 18.5792 89.5765 18.3552C88.8677 17.9882 88.1043 18.1648 87.5285 18.6807C86.9687 19.1822 86.5042 19.8445 86.1911 20.5259C85.5135 22.0008 85.3146 23.715 85.8521 25.2713C86.1612 26.166 86.6289 26.9598 87.2606 27.6647C87.5608 27.9996 87.9092 28.2785 88.2683 28.5474C88.7498 28.9079 89.2477 29.0923 89.8595 29.0819C90.4142 29.0725 90.9065 28.7425 91.1215 28.233C91.3561 27.6772 91.1876 27.1795 90.836 26.7245C91.0197 26.9623 90.8317 26.7056 90.7535 26.6043C90.617 26.4277 90.4577 26.2989 90.2716 26.1746C90.1242 26.0762 89.9734 25.9814 89.825 25.8842C89.991 25.9929 89.9422 25.9806 89.8111 25.8683C89.751 25.8169 89.6923 25.7641 89.6347 25.7098C89.5046 25.5873 89.3862 25.4565 89.2661 25.3245C89.0148 25.0485 89.3655 25.4856 89.2472 25.3074C89.2035 25.2415 89.1556 25.1783 89.112 25.1122C89.0142 24.9637 88.9238 24.8102 88.8423 24.6522C88.8398 24.6473 88.6756 24.3102 88.768 24.5106C88.8588 24.7074 88.7178 24.3693 88.7145 24.3596C88.6565 24.1915 88.6081 24.0202 88.5694 23.8468C88.5519 23.7687 88.5403 23.6893 88.5232 23.6112C88.4761 23.3962 88.5403 23.9613 88.5235 23.5743C88.5153 23.3867 88.507 23.2014 88.5148 23.0135C88.5182 22.9308 88.5299 22.8474 88.5314 22.7648C88.5347 22.5864 88.4784 23.0064 88.5373 22.7244C88.5757 22.5404 88.6142 22.3585 88.6679 22.1781C88.6916 22.0983 88.7173 22.0192 88.7448 21.9407C88.7877 21.8189 88.8472 21.6964 88.7598 21.8836C88.8391 21.7137 88.9235 21.547 89.0192 21.3857C89.0616 21.3142 89.1056 21.2437 89.1515 21.1744C89.2154 21.0776 89.3088 20.9535 89.1822 21.1133C89.2338 21.0481 89.2879 20.9844 89.3433 20.9223C89.3846 20.8755 89.4271 20.8298 89.4709 20.7852C89.6836 20.5767 89.479 20.6523 88.8569 21.0121L88.1374 20.8174C88.0487 20.751 87.974 20.6715 87.9132 20.579C87.966 20.6603 88.0188 20.7417 88.0713 20.823C88.1768 20.9863 88.2819 21.1497 88.3853 21.3142C88.5919 21.643 88.7934 21.9752 88.9804 22.3157C89.1424 22.6106 89.3002 22.9121 89.4305 23.2228C89.3853 23.1174 89.3938 23.1421 89.4561 23.2967C89.4903 23.3869 89.5228 23.4776 89.5536 23.569C89.6129 23.7455 89.6662 23.9241 89.7109 24.1048C89.7507 24.266 89.7834 24.4289 89.8097 24.5928C89.7627 24.2996 89.8225 24.8035 89.825 24.8585C89.8375 25.1469 89.8504 25.4396 89.8402 25.7281C89.8384 25.7777 89.7789 26.2303 89.8205 26.0092C89.7905 26.1691 89.7551 26.3277 89.7066 26.4831C89.613 26.7828 89.5605 27.0907 89.4523 27.3875C89.1878 28.1137 90.1341 28.8093 90.7635 28.3955Z" fill="#0B3335"/>
<path d="M94.6984 20.7445C94.645 20.2586 94.4727 19.8367 94.2171 19.4004C94.1053 19.2097 94.0059 19.0125 93.9165 18.8104C94.0302 19.0674 93.8051 18.5366 93.8037 18.5336C93.763 18.4429 93.7217 18.3539 93.6758 18.2655C93.5563 18.0349 93.6748 18.2943 93.6182 18.1517C93.5818 18.0601 93.5489 17.9672 93.5178 17.8736C93.4556 17.6863 93.4032 17.496 93.3608 17.3033C93.3343 17.183 93.3091 17.0615 93.2927 16.9394C93.3148 17.1038 93.3036 17.0227 93.2987 16.9061C93.2893 16.6836 93.282 16.4638 93.2944 16.2409C93.2961 16.2118 93.319 15.9121 93.3009 16.0868C93.2831 16.2595 93.3226 15.9693 93.3286 15.9382C93.37 15.7267 93.4248 15.5173 93.4778 15.3086C93.5251 15.1224 93.5809 14.9407 93.6395 14.7579C93.6699 14.6633 93.707 14.5692 93.6457 14.7164C93.6918 14.6055 93.7463 14.4971 93.8012 14.3903C93.8889 14.2197 93.9849 14.0537 94.0893 13.8927C94.154 13.7929 94.2199 13.6927 94.2929 13.5986C94.202 13.7157 94.3046 13.5887 94.3431 13.5471C94.6349 13.2311 94.9593 12.9535 95.2568 12.6442H93.4795C94.0284 13.2062 94.4087 14.1215 94.736 14.8317C95.083 15.5846 95.4427 16.4807 95.5298 17.3098C95.6069 18.0443 95.3197 18.4041 94.8891 18.8749C94.3267 19.4899 93.7177 20.0145 93.2462 20.7128C92.8338 21.3237 93.129 22.2244 93.7356 22.5792C94.3359 22.9303 95.2768 22.7543 95.602 22.0898C96.0159 21.244 96.5027 20.8019 97.0598 20.0365C97.7098 19.1436 97.9521 18.1266 97.7822 17.0362C97.6253 16.0293 97.3286 15.0244 96.9521 14.0787C96.7388 13.5429 96.5066 13.0139 96.2411 12.5019C95.9981 12.0335 95.6743 11.5977 95.4533 11.1213C95.2341 10.6486 94.5198 10.3764 94.034 10.5437C91.8078 11.3105 90.325 13.8332 90.2055 16.0951C90.1429 17.2816 90.4453 18.452 90.9483 19.5177C91.4101 20.4963 92.5764 21.7499 93.7565 21.6865C94.2222 21.6615 94.7565 21.2732 94.6984 20.7445Z" fill="#0B3335"/>
<path d="M54.9386 78.0892C55.4619 75.376 57.0911 73.1884 59.343 71.6348C61.579 70.0922 64.0931 68.8284 66.5347 67.6445C68.212 66.8313 69.9302 66.0998 71.504 65.0901C72.3547 64.5443 73.1615 63.9231 73.9213 63.257C74.9079 62.3921 75.5463 61.5225 76.0314 60.3063C76.2696 59.709 75.5224 59.3628 75.0665 59.5646C73.0353 60.4637 71.496 62.1503 69.5204 63.1946C67.6699 64.1728 65.7246 64.9607 63.8739 65.9439C59.4702 68.2835 51.9884 71.8904 53.3795 78.0891C53.5495 78.8462 54.7872 78.8742 54.9386 78.0892Z" fill="#0B3335"/>
<path d="M4.08159 45.508C20.407 40.7153 37.5914 38.9933 54.5453 40.4317C59.3076 40.8358 64.0386 41.5038 68.7298 42.4167C69.6663 42.5989 70.6384 42.152 70.905 41.1816C71.1432 40.3145 70.6119 39.1897 69.6699 39.0064C52.4923 35.664 34.7652 35.5468 17.5562 38.7412C12.7038 39.6419 9.49999 41 3.49999 43.5C2.3 44 1.97222 46.1272 4.08159 45.508Z" fill="#0B3335"/>
<path d="M48.0054 43.9734C41.3347 43.8145 34.8174 45.0829 28.3736 46.6929C22.6845 48.1144 16.8634 49.5542 11.5085 51.9952C8.68665 53.2816 6.05583 54.9848 3.87029 57.1973C2.6042 58.479 4.56204 60.4373 5.84709 59.1741C9.588 55.497 14.6141 53.6209 19.6026 52.3273C25.4939 50.7996 31.4394 49.2645 37.448 48.2747C40.9358 47.7002 44.4683 47.3043 48.0053 47.2743C50.1316 47.2563 50.1296 44.024 48.0054 43.9734Z" fill="#0B3335"/>
<path d="M6.71345 76.3773C11.8296 72.2399 17.3014 68.4693 23.0695 65.2995C25.9608 63.7106 28.9365 62.2758 31.9541 60.9433C34.9095 59.6384 38.1233 58.6063 40.7935 56.7467C41.277 56.4099 41.1349 55.5794 40.4789 55.5855C37.9214 55.6095 35.3223 56.4501 32.969 57.3853C30.4548 58.3844 27.9837 59.4766 25.5714 60.7018C20.883 63.083 16.3846 65.838 12.1337 68.9333C9.66647 70.7298 7.3406 72.6934 5.09391 74.7577C3.98828 75.7737 5.59129 77.2847 6.71345 76.3773Z" fill="#0B3335"/>
<path d="M21.5292 89.6216C24.1904 86.0082 26.9269 82.4693 30.0896 79.2732C31.6279 77.7186 33.254 76.2501 34.9574 74.8783C35.8031 74.1972 36.6711 73.5447 37.5571 72.9169C38.5548 72.21 39.3387 71.5446 40.0481 70.5446C40.467 69.9541 39.7777 69.322 39.1923 69.4314C36.954 69.8494 35.1509 71.5233 33.4169 72.9185C31.597 74.3828 29.8656 75.9569 28.2339 77.6284C25.0211 80.9199 22.1262 84.6453 20.1041 88.7887C19.6316 89.7568 20.9038 90.4707 21.5292 89.6216Z" fill="#0B3335"/>
</g>
<defs>
<clipPath id="clip0_2568_2269">
<rect width="96.9362" height="82" fill="white" transform="translate(1.98459 8)"/>
</clipPath>
</defs>
</svg>
