<svg xmlns="http://www.w3.org/2000/svg" width="100" height="100" fill="none" viewBox="0 0 100 100"><g clip-path="url(#a)"><path fill="#009345" d="M53.192 10.798c1.013.878.787 2.543.11 3.698-.679 1.156-1.71 2.107-2.193 3.357-.873 2.265.325 4.851 2.033 6.576s3.894 2.902 5.688 4.538S65.52 36.129 65 38.5c-.137.624-3.92-.27-4.5 0-.408.19-1.221-.473-1.67-.5-13.898-.837-34.52 1.728-48.33 3.5C12.588 39.147 16 37 16 37s6.666-3.702 5.188-3.476c-1.477.226-3.296.136-4.05-1.154 11.804-2.518 22.714-9.043 30.516-18.25.768-.905 1.531-1.857 2.565-2.44 1.033-.585 2.973-.882 2.973-.882"/><path fill="#009345" d="M5.77 56.209c3.628-6.72 12.38-13.748 19.878-15.19 9.493-1.825 4.339-3.286 39.352-1.02 1.555.102-6.19 6.876-17 6.001-18.007 3.232-26.445 1.315-42.23 10.563z"/><path fill="#009345" d="M9.53 72.786c2.62-9.076 2.097-16.647 10.54-20.883 2.647-1.327 12.516-2.605 15.322-3.548 3.21-1.078 6.553-2.128 9.919-1.762.316.55-.018 1.235-.36 1.77a37.6 37.6 0 0 1-10.739 10.953c-1.75 1.17-3.594 2.189-5.436 3.207L9.26 73.311z"/><path fill="#009345" d="M20.5 89.5c-2.5-2.5-3-2.5-4.576-5.795C14.987 81.748 14 78.177 15 73.5c2.393-9.524 11.708-13.559 21.337-15.485.361-.072.742-.136 1.091-.02.571.192.884.797 1.086 1.364 1.185 3.335.506 7.105-1.05 10.284-1.558 3.178-3.923 5.877-6.26 8.534l-4.917 5.592c-1.597 1.816-3.227 3.66-5.29 4.922zM52.735 75.807c-1.46-5.011-2.86-10.66-.33-15.226 2.233-4.024 7.284-6.673 7.549-11.268 3.792 1.707 4.344 7.066 2.798 10.926s-4.515 7.021-6.056 10.883A196 196 0 0 0 76.31 59.043a15.5 15.5 0 0 1-1.916-9.508c3.07.92 4.464 5.251 2.506 7.79 2.729-1.65 4.695-4.145 4.925-7.325.231-3.18-.931-7.699 1.01-10.228 2.536 2.426 2.671 5.952 0 8.228 2.976-1.553 5.064-3.168 4.664-6.5s-3.13-8.241-1.57-11.212C87.163 31.913 88.961 34.96 89 37c5.385-5.687.126-6.855-.641-9.696-.67-2.48-1.767-5.722.373-7.143a13.64 13.64 0 0 1 1.528 6.725c3.108-2.386 3.303-8.7 4.06-13.28 2.593 5.122-2.23 12.329-.82 17.894.273-1.69 1.37-4.217 2.973-4.82 0 6.82-4.973 4.32-5.942 15.366a8.84 8.84 0 0 1 4.651-4.598c.1 5.808-8.518 8.388-9.334 14.14a18.9 18.9 0 0 1 6.817-2.395c-1.654 5.61-10.752 5.274-13.451 10.462a11.14 11.14 0 0 1 5.421-.224c.569.12 1.196.339 1.433.87.356.796-.407 1.64-1.163 2.078a8.04 8.04 0 0 1-5.312.959c-1.613-.273-1.466-.014-3.093.162-1.264.136-3.424 1.324-4.5 2-3.496 2.195-4.004 2.305-7.5 4.5-1.325.832-6.471 2.493-6.469 4.057l23.795-1.974c-2.253 4.56-8.315 5.646-13.368 5.068s-10.196-2.228-15.115-.934z"/><path fill="#0b3335" d="M10.884 33.87a35.2 35.2 0 0 0 16.323-2.014c2.64-.99 4.965-2.373 7.404-3.75 2.477-1.4 4.801-3.04 6.913-4.947a257 257 0 0 0 6.166-5.768 51 51 0 0 1 3.126-2.805c.442-.362.774-.618 1.276-.976.06-.043.861-.505.862-.589 0 .036-1.614-.251-.555-.078-.456-.074-.69-.31-.436-.003 2.069 2.513 4.326 4.894 6.48 7.334 1.933 2.189 3.826 4.425 5.891 6.491 2.172 2.174 4.46 4.074 7.305 5.286 2.862 1.22 5.857 1.648 8.82.522.729-.276.96-1.56 0-1.721-2.337-.394-4.586-1.37-6.559-2.67-.532-.35-.854-.583-1.274-.93-.212-.175-.418-.357-.626-.537-.143-.122-.28-.24-.427-.357.055.044-.75-.59-.445-.346a38 38 0 0 1-2.975-2.66c-4.407-4.348-8.255-9.26-12.428-13.827-1.346-1.473-3.243-2.011-5.07-1.022-1.299.703-2.482 1.785-3.593 2.75-2.133 1.854-4.003 3.92-5.847 6.054-1.836 2.123-3.68 4.265-5.64 6.275-.937.961-1.92 1.977-3.046 2.717a32 32 0 0 1-3.605 2.025c-5.584 2.7-11.885 3.73-18.04 3.054-.675-.074-1.24.626-1.247 1.247-.007.737.58 1.169 1.246 1.246M55.056 78.496c-1.408-1.971-2.047-4.447-1.498-6.839.569-2.474 2.245-4.423 3.991-6.178 3.754-3.774 8.627-8.005 7.926-13.928-.382-3.235-2.374-6.19-4.607-8.48-1.46-1.496-4.26.51-2.976 2.297 1.231 1.713-.075 4.01-1.377 5.293-1.827 1.803-4.097 3.097-5.755 5.086-1.886 2.263-2.668 4.84-2.606 7.772.052 2.494.441 5.094.882 7.55.432 2.4 1.012 4.977 3.198 6.363.307.194.579-.226.367-.476-1.553-1.84-2.003-4.159-1.935-6.501.072-2.477.314-4.954 1.026-7.337.685-2.296 1.728-4.3 3.487-5.948 1.869-1.748 3.953-3.278 5.29-5.513 1.55-2.591 2.111-5.424.695-8.202l-3.272 1.913c1.46 2.038 3.482 4.003 3.78 6.622.276 2.428-1.117 4.761-2.607 6.558-3.39 4.084-8.144 7.426-8.865 13.075-.376 2.95.417 6.043 2.24 8.403.498.647 1.302.995 2.073.544.657-.385 1.022-1.404.543-2.074"/><path fill="#0b3335" d="M54.819 79.503c2.453-5.862 10.21-5.906 15.471-5.483 6.095.491 13.527 1.04 18.206-3.76l-2.896-.374c.81 1.83-.188 3.821-1.47 5.137-1.782 1.831-3.879 2.271-6.362 2.288-3.066.02-6.034-.92-8.95-1.766-2.682-.777-5.392-1.431-8.197-1.526-2.846-.096-6.754.34-8.497 2.872-.722 1.05.467 2.138 1.503 1.955 1.334-.236 2.535-.896 3.89-1.102 1.308-.2 2.668-.156 3.98-.017 2.995.317 5.9 1.346 8.801 2.106 3.217.843 6.622 1.517 9.928.821 2.533-.533 5.092-2.048 6.755-4.036 1.89-2.26 2.943-5.258 1.989-8.153-.457-1.385-2.005-1.72-3.082-.813-3.707 3.123-8.729 3.111-13.31 2.948-5.154-.185-10.779-.304-15.195 2.775-2.01 1.4-3.596 3.278-4.318 5.645-.352 1.152 1.317 1.528 1.754.483M77.25 59.165c2.848-2.546 3.46-7.094 2.111-10.56-.373-.959-.848-1.964-1.55-2.733-.493-.539-1.145-.785-1.869-.688-.726.098-1.287.633-1.773 1.147-1.54 1.628-2.357 3.98-2.394 6.202a9.3 9.3 0 0 0 .606 3.466c.486 1.254 1.248 2.28 2.215 3.21.603.579 1.591.6 2.191 0 .648-.648.523-1.535 0-2.192-.187-.235-.444-.742-.628-1.095q-.129-.29-.051-.094-.066-.171-.136-.342-.29-.67-.142-.342l-.065-.174c-.335-1.041-.45-1.484-.407-2.53.003-.066.054-.66.015-.353a8.066 8.066 0 0 1 .486-1.785q-.075.177.002.006.299-.63.695-1.203c.139-.202.277-.41.428-.602q-.131.179.07-.072.361-.365-.288.102h-.917l.115.034-.759-.442c.068.055.12.111.18.173-.188-.195.037.062.072.113a8 8 0 0 1 .683 1.2c.221.458-.052-.153.051.12q.058.152.111.306.24.695.363 1.418c.005.03.049.347.03.182-.024-.194.017.229.02.267q.026.366.027.734c.002.462-.008.925-.07 1.383.03-.227-.014.053-.03.14a9 9 0 0 1-.251 1.028c-.154.497-.212.607-.429 1.068-.165.35-.152.366-.302.67q-.18.363-.394.708c-.775 1.265.944 2.46 1.984 1.53"/><path fill="#0b3335" d="M79.288 60.63c2.466-2.043 6.067-1.52 9.022-1.087l-1.13-1.989c-.033.116-.084.235-.112.352-.044.182.107-.197-.028.077-.108.22-.213.442-.329.657a7 7 0 0 1-.391.626c.136-.199.046-.053-.05.058a6 6 0 0 1-.794.772c.189-.154.058-.047-.065.035a6 6 0 0 1-.637.372c-.075.038-.39.15-.054.034-.234.081-.463.163-.704.22q-.147.034-.294.061c-.467.092.343-.003-.132.01-.253.007-.501.007-.754-.004-.192-.008-.139-.017.02.012-.148-.027-.296-.054-.444-.09-.22-.053-.432-.14-.65-.197-.201-.052.24.127-.06-.022-.114-.056-.227-.11-.338-.171-.222-.122-.428-.264-.638-.405-.17-.115.194.193-.043-.044-.09-.089-.186-.17-.275-.259-.089-.09-.17-.185-.257-.276-.266-.279.162.238-.08-.105-.557-.79-1.645-1.239-2.535-.665-.76.491-1.29 1.709-.664 2.535 1.866 2.463 4.94 3.751 8.004 3.021 1.354-.322 2.644-1.1 3.595-2.111 1.1-1.167 1.689-2.483 1.885-4.063.115-.922-.837-1.545-1.616-1.617-3.938-.364-8.223-.483-11.333 2.38-.53.487-.494 1.389 0 1.882.547.548 1.326.46 1.881 0M84.581 50.273c1.743-3.51 3.479-7.648 1.413-11.427-.562-1.029-1.444-2.047-2.732-1.885-1.14.143-1.866 1.092-2.362 2.047a11.95 11.95 0 0 0-1.338 5.4 12.2 12.2 0 0 0 .403 3.188c.283 1.068.707 2.582 1.71 3.162 1.042.603 2.32-.17 2.348-1.347.016-.677-.353-1.173-.614-1.762.08.18-.135-.356-.157-.418a10 10 0 0 1-.158-.498c-.268-.923-.34-1.421-.353-2.325-.023-1.55.329-3.245 1.16-4.51q-.08.095.099-.099-.37.386-1.023-.038c.054.138.173.205.286.386.242.389.324.574.442.96.25.811.294 1.44.225 2.345-.13 1.708-1.068 3.675-1.88 5.342-.345.71-.193 1.584.526 2.004.648.38 1.652.186 2.005-.526M86.171 53.215c.485-.685.894-1.478 1.566-1.84.835-.45 1.517-1.137 2.38-1.548.21-.1-.406.132.12-.039q.204-.068.407-.137.364-.12.732-.222a11 11 0 0 1 .953-.22c.04-.007.373-.06.163-.03-.209.032.152-.015.158-.015q.144-.014.289-.023.299-.02.598-.025c.487-.01.975-.003 1.462.003l-1.412-1.855a7 7 0 0 1-.278.951c-.033.093-.078.182-.013.04-.173.381-.376.77-.63 1.107.095-.126.036-.049-.032.023q-.12.13-.242.258a9 9 0 0 1-.469.432c-.105.091-.137.102-.008.011q-.142.103-.289.2-.266.176-.547.323-.127.066-.255.127c-.13.063-.185.065-.02.01-.223.075-.442.154-.67.215-.227.06-.456.118-.687.164-.004 0-.477.066-.223.04.23-.022-.107.005-.147.008q-.352.024-.706.012c-.13-.004-.262-.023-.392-.025-.276-.003.3.063.031.009a8 8 0 0 1-1.433-.402c-.936-.37-2.148.405-2.361 1.341-.242 1.06.32 2.02 1.34 2.362 2.36.79 5.178.512 7.226-.947 1.803-1.286 3.201-3.29 3.63-5.48.18-.913-.402-1.867-1.413-1.855-2.182.027-4.43.246-6.38 1.328a10.9 10.9 0 0 0-2.6 2.045c-.855.924-1.099 2.09-1.135 3.306-.021.735.917.871 1.287.348M91.398 42.643c.004-.05.06-.475.02-.246q.036-.214.086-.425a6 6 0 0 1 .19-.625c.02-.056.174-.368.026-.078.105-.205.193-.419.273-.634.093-.245.002-.007-.018.036q.045-.1.092-.2.218-.448.494-.863c.063-.095.16-.305.26-.365-.024.014-.213.255-.025.035q.072-.085.145-.171c.208-.244.42-.484.65-.71.23-.227.474-.436.724-.641-.254.208.069-.047.156-.108a9 9 0 0 1 1.43-.816c.046-.021.272-.11.081-.038-.217.082.382.005-.142-.033a.7.7 0 0 1-.575-.236l.077.077c-.03-.039-.165-.356-.137-.206.009.049.078.286.034.085s-.003.038-.002.095q.002.117-.003.234c-.004.076-.014.152-.017.228-.008.21.048-.267.01-.06-.03.161-.056.322-.094.482a8 8 0 0 1-.257.832c-.088.244 0 .004.02-.04q-.045.1-.092.2a7 7 0 0 1-.255.481 5 5 0 0 1-.24.366c-.151.212-.008.006.023-.03q-.07.085-.14.168a7.4 7.4 0 0 1-.855.845c-.036.03-.287.215-.107.088l-.069.046q-.112.078-.225.153c-.154.099-.313.186-.47.279-.161.096-.01.085.073-.019-.038.048-.2.069-.254.086a7 7 0 0 1-.52.143c-.135.031-.365.029-.483.093.206-.112.34-.038.144-.022-.107.01-.214.013-.32.022-.325.027-.593.11-.895.21-.825.274-1.36 1.025-1.242 1.903.12.894.831 1.435 1.703 1.504.99.08 1.97-.392 2.791-.92.687-.442 1.374-.908 1.966-1.473 1.176-1.123 2.125-2.67 2.512-4.254.242-.985.354-2.078-.112-3.015-.28-.562-.792-1.04-1.406-1.21-.712-.199-1.334.067-1.969.35a10 10 0 0 0-3.996 3.228c-.53.732-1.023 1.628-1.23 2.512-.226.957-.177 1.992.02 2.947.109.527.697.86 1.201.784.56-.084.909-.517.95-1.074M89.48 38.263c.96-1.382 1.115-3.122.826-4.738-.284-1.587-1.154-3.003-2.087-4.289-.644-.889-1.46-1.678-2.655-1.43-.946.197-1.483 1.163-1.828 1.979-.605 1.433-.594 3.134-.088 4.598.607 1.754 1.757 3.134 3.022 4.455.537.562 1.562.581 2.096 0 .514-.56.621-1.549 0-2.095a11 11 0 0 1-.816-.798 13 13 0 0 1-.56-.647q.122.162-.033-.043a9 9 0 0 1-.615-.951 8 8 0 0 1-.313-.633q.082.189-.013-.051a8 8 0 0 1-.272-1.041c.051.3-.017-.233-.02-.292a5 5 0 0 1 .004-.537c.005-.079.053-.406.009-.155a5 5 0 0 1 .118-.517c.016-.055.207-.527.09-.283.077-.16.167-.31.258-.464q.146-.213.008-.016-.462.33-.923.178-.17-.114.015.056-.127-.17.032.052c.197.295.4.586.59.887a13 13 0 0 1 .734 1.329q.105.24.038.07.23.552.119.278.057.14.108.283a6.6 6.6 0 0 1 .317 1.238q-.03-.22-.003.038c.005.184.02.367.015.551-.001.053-.052.58-.012.314q-.042.27-.118.532c-.015.051-.195.506-.101.308-.078.164-.17.32-.268.474-.38.594-.142 1.512.483 1.843.688.363 1.413.136 1.843-.483M95.218 31.355a7 7 0 0 1-.117-.231c.098.206-.016-.05-.031-.095a4.5 4.5 0 0 1-.199-.811c.02.144.011.091.006-.021a7 7 0 0 1-.008-.582c.004-.086.017-.174.017-.26 0-.22-.062.3.01-.084.032-.17.067-.34.113-.508.052-.19.12-.372.184-.556.07-.2-.091.16.013-.025.051-.091.093-.19.142-.283q.12-.22.257-.432c.056-.088.122-.17.177-.26.112-.18-.13.148.008-.013.231-.273.468-.537.731-.78.14-.129.286-.25.431-.372l.194-.162c.079-.065.224-.168.063-.051.365-.264.771-.486 1.096-.8l-2.097-.27q.092.126.182.257c-.09-.131-.025-.08.01.047q.076.252.13.51.025.128.047.258c-.046-.268.005.07.008.104a6 6 0 0 1 .002 1.053c-.003.03-.062.342-.014.122q-.028.13-.058.259a7 7 0 0 1-.235.76c-.005.014-.14.325-.047.122a7 7 0 0 1-.506.931q-.089.133-.18.263c-.116.173.037-.035-.043.06a5 5 0 0 1-.36.384q-.21.201-.438.383c.135-.107.038-.03-.046.027q-.108.075-.218.146a6 6 0 0 1-.744.397c.207-.093.03-.016-.08.024-.746.27-1.19 1.018-.862 1.795.322.762 1.172.995 1.888.636 1.677-.839 2.939-2.408 3.642-4.123.34-.828.519-1.717.606-2.607q.06-.63-.006-1.26a9 9 0 0 0-.115-.788c-.008-.04-.098-.36-.053-.197.043.158-.017-.195-.021-.238-.092-.872-.778-1.506-1.69-1.287-.93.222-1.88.992-2.547 1.645-.663.65-1.25 1.425-1.642 2.27-.888 1.912-.958 4.128.073 6.003.34.618 1.243.87 1.843.483.638-.41.833-1.174.484-1.843M90.764 28.396c.337-.223.696-.478.925-.816.237-.35.407-.763.545-1.16.268-.77.302-1.562.194-2.364-.228-1.699-1.038-3.211-1.913-4.661-.244-.405-.506-.816-.939-1.04-.708-.367-1.472-.19-2.047.326a5.7 5.7 0 0 0-1.338 1.845c-.678 1.475-.876 3.189-.339 4.745.31.895.777 1.689 1.409 2.394.3.335.648.614 1.007.882.482.36.98.545 1.591.535a1.39 1.39 0 0 0 1.263-.849c.234-.556.066-1.053-.286-1.509.184.238-.004-.018-.082-.12a2 2 0 0 0-.482-.43q-.224-.146-.447-.29c.166.109.117.097-.014-.016a5 5 0 0 1-.176-.158c-.13-.123-.249-.254-.369-.386-.251-.276.1.162-.019-.017-.043-.066-.091-.129-.135-.195a5 5 0 0 1-.27-.46c-.002-.005-.166-.342-.074-.141.09.196-.05-.142-.053-.151a5 5 0 0 1-.146-.513c-.017-.078-.029-.158-.046-.236-.047-.215.017.35 0-.037-.008-.187-.016-.373-.008-.56.003-.083.015-.167.016-.25.004-.178-.053.242.006-.04.039-.184.077-.366.13-.546q.037-.12.078-.237c.043-.122.102-.245.015-.057a6 6 0 0 1 .391-.71c.064-.096.158-.22.031-.06a4 4 0 0 1 .289-.329q.32-.312-.614.227l-.72-.195a1 1 0 0 1-.224-.238l.472.735c.207.329.408.661.595 1.002.162.295.32.596.45.907q-.067-.158.026.074a8 8 0 0 1 .255.808q.06.242.099.488c-.047-.293.013.21.015.265.013.289.025.582.015.87-.002.05-.061.502-.02.281-.03.16-.065.319-.113.474-.094.3-.146.608-.255.904-.264.727.682 1.422 1.311 1.008M94.698 20.745c-.053-.486-.225-.908-.48-1.345a6 6 0 0 1-.302-.59c.114.257-.11-.273-.112-.276q-.06-.136-.128-.268c-.12-.231-.001.028-.058-.114a5.687 5.687 0 0 1-.326-1.212c.023.164.012.083.007-.034a7 7 0 0 1-.005-.665c.002-.03.025-.329.007-.154-.018.172.022-.118.028-.149.041-.211.096-.42.149-.63q.072-.277.162-.55c.03-.095.067-.189.006-.042q.07-.165.155-.326a6 6 0 0 1 .492-.791c-.091.117.012-.01.05-.052.292-.316.616-.594.914-.903h-1.778c.55.562.93 1.477 1.257 2.188.347.753.707 1.649.794 2.478.077.734-.21 1.094-.64 1.565-.563.615-1.172 1.14-1.644 1.838-.412.61-.117 1.511.49 1.866.6.351 1.54.175 1.866-.49.414-.845.9-1.287 1.458-2.052.65-.893.892-1.91.722-3a14 14 0 0 0-.83-2.958 17 17 0 0 0-.71-1.577c-.244-.469-.568-.904-.789-1.38-.219-.473-.933-.746-1.419-.578-2.226.766-3.709 3.29-3.829 5.551-.062 1.187.24 2.357.743 3.423.462.978 1.628 2.232 2.809 2.168.465-.024 1-.413.941-.942M54.939 78.09c.523-2.714 2.152-4.902 4.404-6.455 2.236-1.543 4.75-2.807 7.192-3.99 1.677-.814 3.395-1.545 4.969-2.555a20.4 20.4 0 0 0 2.417-1.833c.987-.865 1.625-1.734 2.11-2.95.239-.598-.509-.944-.965-.742-2.03.899-3.57 2.585-5.546 3.63-1.85.978-3.795 1.766-5.646 2.749-4.404 2.34-11.886 5.946-10.495 12.145.17.757 1.408.785 1.56 0M4.082 45.508a138.1 138.1 0 0 1 50.463-5.076c4.763.404 9.494 1.072 14.185 1.985.936.182 1.908-.265 2.175-1.235.238-.867-.293-1.992-1.235-2.176-17.178-3.342-34.905-3.46-52.114-.265C12.704 39.641 9.5 41 3.5 43.5c-1.2.5-1.528 2.627.582 2.008M48.005 43.973c-6.67-.158-13.188 1.11-19.631 2.72-5.69 1.421-11.51 2.861-16.865 5.302-2.822 1.287-5.453 2.99-7.639 5.202-1.266 1.282.692 3.24 1.977 1.977 3.741-3.677 8.767-5.553 13.756-6.847 5.89-1.527 11.836-3.062 17.845-4.052 3.488-.575 7.02-.97 10.557-1 2.127-.019 2.125-3.251 0-3.302M6.713 76.377C11.83 72.24 17.301 68.47 23.07 65.3c2.89-1.59 5.866-3.024 8.884-4.357 2.956-1.305 6.17-2.337 8.84-4.196.483-.337.34-1.168-.315-1.161-2.558.023-5.157.864-7.51 1.8a88 88 0 0 0-7.398 3.316 99 99 0 0 0-13.437 8.231c-2.468 1.797-4.793 3.76-7.04 5.825-1.106 1.016.497 2.527 1.62 1.62M21.53 89.622c2.66-3.614 5.397-7.153 8.56-10.349a58 58 0 0 1 4.867-4.395 53 53 0 0 1 2.6-1.961c.998-.707 1.782-1.372 2.491-2.372.419-.59-.27-1.223-.856-1.114-2.238.418-4.041 2.092-5.775 3.487a59 59 0 0 0-5.183 4.71c-3.213 3.292-6.108 7.017-8.13 11.16-.472.969.8 1.683 1.425.834"/></g><defs><clipPath id="a"><path fill="#fff" d="M1.985 8H98.92v82H1.985z"/></clipPath></defs></svg>