<svg xmlns="http://www.w3.org/2000/svg" fill="none" viewBox="0 0 100 100">
  <g clip-path="url(#a)">
    <path fill="#0b3335" d="M69.1071 52.3247c1.1722-.843 2.2874-1.7885 3.322-2.8208 1.0332-1.0308 1.9241-2.2425 2.7667-3.4547 1.6869-2.4263 3.005-5.0983 4.0828-7.8947 2.3755-6.1639 3.2217-12.9439 3.1312-19.5873-.0562-4.1206-.4551-8.2208-.9883-12.29831-.0382-.29288-.2758-.65735-.4644-.86123-.2825-.30525-.6459-.48004-1.0371-.53685-.6796-.09873-1.4694.24088-1.7995.93179-1.2747 2.66707-2.3799 5.429-3.5314 8.1592-1.1949 2.8331-2.3324 5.6949-3.417 8.5794-2.049 5.4493-4.0978 11.0343-4.9274 16.8784-.2451 1.7265-.4413 3.4828-.3831 5.2323.0265.7957.0862 1.5897.1796 2.3795.0611.5178.1276 1.0345.2144 1.5481.0709.4193.2198.8042.3671 1.1988.2457.6587.7387 1.11 1.431 1.0095.6368-.0924 1.1273-.6774 1.1308-1.3842.0017-.3497.0305-.7051.0065-1.0531-.0244-.3519-.0596-.7027-.0805-1.0551-.043-.7258-.0557-1.4535-.0409-2.1805.0288-1.4144.1225-2.8279.2786-4.2323.0285-.2565-.0449.3322-.0095.0766.0122-.0878.0232-.1759.0352-.2639.0242-.176.0495-.3517.076-.5273.0565-.374.1182-.7471.1848-1.1191.1258-.7034.2691-1.403.4266-2.0988.3169-1.3999.6922-2.7839 1.1053-4.1541.8436-2.7984 1.8367-5.5436 2.8585-8.2708.2548-.6802.5129-1.3589.7742-2.0362.0653-.1693.1308-.3385.1966-.5077.0247-.0634.0494-.1268.074-.1902.0934-.2404-.1155.2941-.0211.0543.1412-.3584.2819-.717.4244-1.0749.5358-1.3469 1.0845-2.6879 1.6461-4.0225 1.2805-3.0435 2.7292-5.9908 4.1202-8.97496l-3.3011-.46618c.0571.40719.1129.81461.1666 1.22237.0299.2268.0587.45359.0879.68049.0137.1071.0395.37913-.0132-.10698.0149.13665.0334.27306.0497.4096.1037.86536.1981 1.73206.2818 2.60006.1671 1.7351.2913 3.4753.359 5.2184.1326 3.4174.0614 6.863-.3213 10.2603-.0127.113-.0268.2258-.0393.3389-.0316.2855.0597-.45.0006-.0019-.024.1809-.0474.362-.0725.5429-.0628.4522-.1316.9035-.2066 1.3535-.1245.7474-.2662 1.4914-.4272 2.2307-.3017 1.3852-.6692 2.754-1.1043 4.0972-.2199.6791-.4572 1.3517-.7122 2.0165-.0389.1015-.1009.3554.0106-.0259-.0203.0694-.057.1433-.0834.2089-.0628.1564-.1267.3123-.1915.4677-.1367.3276-.2778.6531-.4233.9762-.5788 1.2843-1.2288 2.5315-1.953 3.7267-.396.6534-.8081 1.3029-1.258 1.9148.2045-.2781.0488-.0695-.0022.0001-.0641.0877-.1288.175-.1939.262-.1191.1592-.2398.317-.362.4735-.2221.2841-.4512.5608-.6808.8377-.9881 1.1919-1.9982 2.333-3.1424 3.3539-.4427.395-.4125 1.1883-.0903 1.6391.333.4658 1.008.6677 1.4899.3211"/>
    <path fill="#0b3335" d="M72.1438 52.2372c.981.2464 2.0135.4464 3.022.4735 1.0075.0271 2.0265-.1065 3.0205-.2672 1.9356-.3128 3.7887-.972 5.5729-1.8299 3.4403-1.6542 6.455-4.2721 8.976-7.2688 1.4701-1.7477 2.8084-3.6261 4.0744-5.5496.1671-.2539.2467-.6797.2467-.9852 0-.4345-.145-.843-.3878-1.1826-.4285-.5993-1.205-.9315-1.8986-.6995-1.8163.6074-3.5833 1.4087-5.3618 2.1316-1.8612.7565-3.7032 1.5665-5.5299 2.4156-3.0907 1.4367-6.129 2.9798-8.7914 5.2323-.6789.5745-1.3153 1.1877-1.864 1.9082-.3361.4412-.6607.896-.959 1.3682-.3079.487-.5248.9809-.6577 1.5544-.1356.585.0844 1.2976.5994 1.5916.5483.3131 1.1146.1964 1.5804-.2203.0674-.0604.1357-.1197.2035-.1794.035-.0308.1621-.1334-.0104.0071-.2676.2179.2209-.1854.2184-.1826.1322-.1437.2434-.3198.3664-.4734.2496-.3116.5104-.6124.7833-.9004.5261-.555 1.0797-1.0943 1.6478-1.5986.0689-.0612.1382-.1217.2078-.1817.0349-.03.0701-.0598.105-.0898.2078-.178-.1103.0882-.121.1009.1221-.1455.3206-.2591.4684-.3735.3053-.2361.6164-.4631.9323-.6821.651-.4513 1.3221-.8683 2.0049-1.2608 1.4059-.8083 2.8607-1.5122 4.3231-2.1914.201-.0934.4033-.1836.6038-.2784.0048-.0023-.3212.1459-.1484.0677.0504-.0228.1008-.0458.1512-.0686.1177-.0532.2354-.1063.3533-.1592.4377-.1964.8767-.39 1.3166-.5807.8468-.3671 1.6974-.7237 2.5517-1.0696 1.9714-.7982 3.9897-1.4108 5.9866-2.1228l-2.0398-2.8673c-.621.9768-1.2622 1.9382-1.9314 2.8771l.2782-.3892c-.9685 1.3533-1.9941 2.6595-3.1024 3.882-.5408.5965-1.096 1.1803-1.6693 1.7403-.2628.2567-.5299.508-.8014.7537-.1482.1341-.2977.2664-.4486.397-.0754.0653-.1515.1296-.2273.1946-.1367.115-.1016.0858.1052-.0875-.0515.0426-.1032.085-.155.1271-1.2458 1.0138-2.5797 1.8991-3.9912 2.6171-.1769.09-.3549.1774-.5339.262l-.0897.0421c-.1511.0699-.1196.0557.0944-.0424-.041-.014-.2301.1017-.2731.1201-.365.1574-.7341.3038-1.1069.4382-.7442.2686-1.5032.4902-2.2722.6588-.224.0491-.4488.0937-.6743.1336-.0966.0172-.1935.0321-.2902.0488-.1574.0242-.1291.0205.0848-.0109-.0651.0092-.1302.018-.1954.0264-.4245.0546-.8493.0846-1.2759.1129-.9256.0612-1.8359.1206-2.7641.0586-.5728-.0383-1.0626.5045-1.1345 1.0824-.0732.5886.2649 1.2282.8276 1.3695m-5.5077-13.0457c.6483-2.0557.9117-4.1626.8427-6.3316-.0678-2.1343-.3996-4.2772-.9657-6.3229-1.1262-4.0697-3.1459-7.7138-5.6397-10.9697-1.3139-1.7154-2.7529-3.3133-4.2502-4.8416-.5628-.5745-1.5063-.78031-2.1883-.3051-.7188.5008-.9769 1.3133-.83 2.2039.3411 2.067.8604 4.105 1.308 6.1469.4474 2.0407.9377 4.0703 1.4713 6.0867.9283 3.5083 1.9396 7.0854 3.6654 10.2466.4967.9098 1.0582 1.77 1.7221 2.5474.2803.3281.5733.6445.8815.9421.2262.2186.4796.4832.7383.6481.2559.1631.555.2742.8272.3955.4731.2107 1.0879-.1091 1.3709-.5051.3108-.4347.3793-1.0835.1019-1.5653-.2501-.4343-.5231-.8225-.8362-1.2071-.1054-.1295-.2094-.2603-.3109-.3932-.0512-.0672-.1148-.1935-.1806-.2422q.2184.3081.0693.0966c-.0381-.0546-.0758-.1094-.1132-.1645-.4434-.6538-.8669-1.3365-1.2559-2.0294-.3995-.7119-.757-1.4508-1.0821-2.2054-.0841-.1952-.166-.3914-.2459-.5885-.0398-.0981-.074-.2021-.1188-.2975.0129.0275.1553.4068.0506.1277-.1636-.4362-.3239-.8736-.4744-1.3153-1.2143-3.565-2.0901-7.286-2.8929-10.9802-.4881-2.246-.8051-4.5191-1.213-6.7813l-3.0183 1.8986c1.3 1.2848 2.5579 2.6206 3.7329 4.0399.2917.3523.5783.7095.8588 1.0723.1348.1742.2683.3496.4003.5262.066.0883.1316.177.1969.266.0454.0617.2936.4066.1229.1674-.1693-.2374.0721.1031.1197.1714.0634.0909.1265.1822.1891.2738.1358.1988.2705.3984.4049.5983.2589.3851.5103.7761.7535 1.1731.4884.7977.9432 1.6195 1.3579 2.4645.2163.4408.4215.888.6141 1.3415.089.2096.1663.4265.2595.6337.0005.0012-.1229-.3233-.0568-.1436.0199.054.041.1078.0612.1617.0473.1261.0935.2527.1389.3796.3254.9102.6022 1.8409.826 2.7863.1167.493.2187.9901.3057 1.4902.04.2309.0769.4625.1104.6947.0168.1161.0319.2324.0477.3486.0249.1834-.0174-.1242-.0163-.1289-.0138.0607.0196.1717.0263.2345.1173 1.0954.1593 2.2007.1169 3.3026-.022.5691-.0376 1.1405-.0739 1.7089-.0175.2741-.0406.5478-.0693.8207-.0083.0787-.0548.426-.0198.1832-.0228.1586-.0445.3174-.0688.4758-.0987.6416.1552 1.3751.8068 1.5355.641.1577 1.2124-.2097 1.4214-.8721"/>
    <path fill="#009345" d="M27.6076 49.9846c-.5191-.0263-1.0393.0114-1.5494.1214-4.6994 1.0135-9.2808 2.7007-13.5939 5.0075-2.3317 1.247-4.77938 2.9304-5.53362 5.6798-.59282 2.1611.02268 4.5261 1.02622 6.4911 2.12 4.1515 5.9028 7.0484 9.9879 8.5294 4.0852 1.481 8.469 1.6569 12.7555 1.32 2.7108-.2132 5.4552-.6405 7.9265-1.8964 2.5567-1.2991 4.7059-3.4305 6.5513-5.7864 2.0611-2.6317 3.8373-5.6856 4.0313-9.2703.0591-1.0919-.0761-2.1965-.3889-3.2337-2.0691-6.8614-8.201-4.2326-12.8368-5.9332-1.736-.6368-6.4863-.9337-8.3761-1.0292"/>
    <path fill="#0b3335" d="M31.5986 47.0381c-3.7469-.3082-7.6251.0477-11.2499 1.1351-3.6635 1.099-7.195 2.8332-10.3598 5.1107-1.63834 1.179-3.19961 2.5013-4.64239 3.9484-.68694.689-1.35353 1.4066-1.97953 2.1606-.49191.5925-.88907 1.1904-1.15829 1.9313-.24537.6754-.24993 1.3918-.13853 2.0971.18252 1.1558.94397 2.1006 1.77443 2.794.84603.7064 1.78863 1.1366 2.77924 1.5581 1.95049.8299 3.94557 1.5373 5.97127 2.12 4.1524 1.1946 8.4487 1.8786 12.7423 2.0533 4.3004.175 8.6181-.1961 12.8467-1.0548 1.9726-.4006 3.9579-.8799 5.8568-1.5907 1.6322-.6109 3.256-1.4024 4.6424-2.5295 1.5072-1.2253 2.7632-2.7138 3.3777-4.6768.6049-1.9321.3518-4.1118-.5424-5.8872-1.781-3.5364-5.5576-5.2203-8.9077-6.4107-2.1028-.7471-4.2436-1.3693-6.4094-1.8633-1.1813-.2694-2.3705-.5172-3.57-.6699-1.0817-.1378-2.198-.3135-3.2883-.2964-.5401.0085-1.0802.025-1.62.0493-.5935.0267-1.1697.159-1.7508.2853-.4047.088-.6976.5626-.6976.9902 0 .4597.297.8575.6976.9902.4905.1625.9691.3416 1.4732.4457.5249.1085 1.0484.2246 1.5703.3485 1.0098.2397 2.0497.3587 3.0661.5715 2.0929.4381 4.1793.8406 6.2427 1.4306 1.9094.5459 3.8302 1.1557 5.6614 1.961.0426.0188.085.0382.1276.0567.1643.0716-.1914-.0883-.1745-.0797.0839.0424.1704.0796.2549.1204.1845.0888.3677.1807.5493.2762.3644.1911.7229.3959 1.0728.6164.3337.2102.6597.4347.975.6759.0748.0573.1484.1164.2225.1747.2317.1825-.2607-.2285-.0396-.0333.1514.1335.3016.2681.4466.4097.2838.2769.5519.5731.7968.8905.0414.0536.2355.3167.0624.0793-.172-.2357.0119.0284.0487.0875.1036.1662.2012.3364.2908.5119.0818.1599.1403.3394.2269.4948.01.0181-.1345-.3851-.0833-.2104.0127.0435.0309.086.0455.1288.0343.1012.0659.2033.0947.3064.05.1786.0918.3597.1251.5427.0273.1505.0344.511.0022-.0536.0063.112.021.2236.0269.3359.0103.1932.0115.387.0036.5803-.0038.0944-.0116.1882-.018.2825-.026.3885.0626-.3439.0092-.0662-.0721.3746-.1758.7227-.2808 1.0867-.0539.1876.098-.2669.0909-.2283s-.0351.0866-.0511.1219c-.0364.0803-.0715.1612-.1096.2405-.0895.1857-.1879.3664-.294.5417-.0458.0758-.093.1503-.1415.224-.0406.0616-.2278.3282-.0434.0683.1844-.2598-.0079.0037-.0537.0616-.0646.0817-.1305.162-.198.2409-.2459.2873-.5109.5552-.7886.8062-.0679.0614-.1377.1204-.2062.181-.1417.1254.1968-.1618.1739-.1451-.0368.0269-.0717.058-.1074.0864-.1692.1345-.342.2635-.5179.3875-.6416.4526-1.322.8391-2.022 1.1745-.0663.0317-.3754.1744-.0857.042.2895-.1323-.0194.0069-.0866.036-.1982.0856-.3979.1673-.5987.2455-.3523.137-.7084.2626-1.0674.3774-.9361.2993-1.884.5665-2.8325.8154-.9593.2518-1.9249.4752-2.8953.6704-.5044.1014-1.0101.1952-1.5169.2813-.2338.0398-.468.0779-.7023.1143-.1171.0182-.2345.0354-.3516.0535-.2044.0315.192-.0275.1835-.0264-.0784.0093-.1566.0222-.2349.0329-1.9767.2729-3.967.4304-5.9593.473-2.0118.043-4.0257-.0311-6.0301-.2215-.4913-.0468-.982-.1004-1.472-.1611-.2352-.0291-.4703-.0599-.7051-.0922-.0587-.0081-.1173-.0167-.176-.0246-.2024-.0273.1826.027.1761.0259-.1365-.0228-.2738-.0409-.4105-.0621-.9966-.1548-1.9895-.3384-2.977-.5511-1.9569-.4214-3.8928-.9565-5.796-1.604-.9621-.3273-1.91597-.6833-2.85973-1.0679-.22227-.0904-.4439-.1827-.665-.2763-.11055-.0469-.221-.0941-.33134-.1418-.05066-.0219-.1009-.0449-.15178-.0661-.19757-.0824.35857.1753.16461.0737-.35593-.1864-.70687-.3712-1.0382-.6068-.06763-.0481-.36483-.2884-.13144-.0893.2334.199-.02416-.0256-.07599-.075-.11532-.1097-.35328-.2921-.40723-.4516-.01282-.038.22492.3708.14055.1924-.01887-.0399-.04918-.0774-.07133-.1156-.02184-.0377-.13451-.1976-.12285-.2394.01208-.0435.13111.4333.09391.2403-.00816-.0425-.02809-.0859-.03943-.1277-.01092-.04-.01473-.0933-.03084-.1306-.06572-.1524.01261.4002.02416.2296.00551-.0813.00763-.1982-.00275-.2785-.02682-.207-.00753.3036-.03604.2583-.0124-.0199.03063-.1485.03646-.1723.00933-.0383.05236-.1304.04653-.1679.00159.0104-.1609.3441-.06974.1777.06465-.1181.11882-.2412.18867-.3566.02989-.0495.06391-.0964.09327-.1461.12126-.205-.2158.2779-.06794.0934.07176-.0896.14044-.182.2123-.2716.15125-.1882.30505-.374.46022-.5584 1.19847-1.4233 2.50282-2.7421 3.89375-3.9434.0824-.0711.165-.1418.248-.2121.0415-.0351.0841-.069.1247-.1052.0034-.0031-.2655.2188-.1215.102.1831-.1486.3651-.2985.5497-.4449.3687-.2923.7429-.5768 1.1221-.8531.7279-.5304 1.4744-1.0312 2.2372-1.5008.7763-.4779 1.5695-.9237 2.3774-1.3359.3931-.2007.8114-.3637 1.1961-.581-.0005.0004-.2812.1266-.1224.0558.0486-.0216.0971-.0437.1456-.0654.1134-.0506.227-.1004.3409-.1498.2113-.0915.4235-.1807.6365-.2678 1.6468-.6728 3.3477-1.2219 5.0639-1.6457.8643-.2134 1.7363-.3901 2.6135-.5285.1024-.0162.2061-.0379.3092-.0472-.2372.0213-.0606.0094.0652-.0074.2255-.0302.4511-.0577.6771-.0827.4342-.0481.8692-.087 1.3048-.1163.8702-.0585 1.7421-.0777 2.6138-.0609.6142.0118 1.2018-.5919 1.1737-1.2685-.0303-.7304-.5169-1.2144-1.1742-1.2685"/>
    <path fill="#0b3335" d="M4.55145 64.992c.207 3.8345 2.15664 7.3246 4.80954 9.7974 3.04341 2.8366 7.08101 4.1769 10.94721 5.0438 2.0851.4676 4.1922.8478 6.3042 1.1412 2.0742.2882 4.1741.444 6.2617.2404 2.1482-.2094 4.2069-.7604 6.1612-1.7542 1.6561-.8421 3.1634-2.0041 4.5374-3.3041 1.3462-1.2737 2.5621-2.7103 3.6706-4.2262.6189-.8464 1.2187-1.7088 1.7981-2.5874.5213-.7904 1.1048-1.5857 1.5084-2.454.2025-.4358.4031-.8727.6029-1.31.278-.6087.1916-1.3118-.3215-1.7402-.4554-.3803-1.2381-.4106-1.6391.1055-.6134.7895-1.2208 1.562-1.7543 2.4182-.4892.785-.9885 1.563-1.5044 2.3278-.1341.1987-.2694.3965-.4058.5933-.0629.0907-.1261.1812-.1895.2716-.0317.0451-.0636.0901-.0953.1351-.1327.1886-.0096-.0396.033-.0452-.0882.0115-.3262.4489-.3887.5332-.1414.1909-.2827.3821-.4259.5714-.5458.7221-1.115 1.4239-1.7139 2.0952-.589.6603-1.2068 1.2911-1.858 1.8795-.1549.1398-.3132.2748-.4701.4121-.1216.1065.0764-.0609.0777-.0639-.014.0319-.0939.0772-.1205.0988-.0938.0765-.1884.152-.2835.2266-.339.2656-.6864.519-1.0419.7581-.3696.2486-.7479.4819-1.1346.6978-.179.1-.3598.1962-.5422.2885-.0915.0463-.1833.0917-.2756.136-.0365.0175-.0992.0629-.1389.0659.0832-.0063.1926-.0849.0348-.0164-.9104.3957-1.8493.7012-2.8111.9126-.2333.0514-.4676.0974-.7027.1385-.1176.0206-.2354.0388-.3532.0581.2338-.0383-.1202.0153-.1939.0245-.4958.0613-.9936.1027-1.4922.1271-1.0044.0493-2.011.0366-3.0148-.0226-1.0296-.0607-2.0564-.1689-3.0799-.3015-.2403-.0312-.4805-.0636-.7206-.0971-.0599-.0084-.1199-.0169-.1797-.0254.0008 0-.1956-.0279-.0871-.0122.1087.0156-.0882-.013-.0872-.0128-.0799-.0118-.1597-.0236-.2397-.0355-.4868-.0728-.9733-.1481-1.4594-.2268-3.7869-.6133-7.6504-1.4642-10.9053-3.6599-2.72421-1.8379-5.12655-4.5206-5.96389-8.0161-.10419-.4347-.18168-.8755-.23732-1.3205-.07006-.5603-.94546-.4291-.91504.1338"/>
    <path fill="#009345" d="M67.564 51.2546c-.519-.0262-1.0392.0114-1.5494.1214-4.6994 1.0136-9.2807 2.7007-13.5939 5.0075-2.3317 1.247-4.7794 2.9304-5.5336 5.6798-.5928 2.1612.0227 4.5261 1.0262 6.4911 2.12 4.1516 5.9028 7.0484 9.988 8.5294 4.0851 1.481 8.4689 1.657 12.7554 1.32 2.7109-.2132 5.4552-.6405 7.9266-1.8963 2.5566-1.2992 4.7058-3.4305 6.5512-5.7865 2.0611-2.6317 3.8374-5.6856 4.0313-9.2702.0592-1.092-.0761-2.1966-.3889-3.2338-2.0691-6.8614-8.201-4.2326-12.8368-5.9332-1.7359-.6368-6.4862-.9337-8.3761-1.0292"/>
    <path fill="#0b3335" d="M73.2362 47.8223c-3.7468-.3082-7.625.0476-11.2498 1.1351-3.6635 1.099-7.195 2.8331-10.3598 5.1107-1.6383 1.1789-3.1996 2.5013-4.6424 3.9484-.6869.689-1.3535 1.4066-1.9795 2.1606-.4919.5925-.8891 1.1904-1.1583 1.9313-.2454.6754-.2499 1.3917-.1385 2.0971.1825 1.1558.9439 2.1005 1.7744 2.794.846.7063 1.7886 1.1366 2.7792 1.5581 1.9505.8299 3.9456 1.5373 5.9713 2.12 4.1524 1.1945 8.4487 1.8786 12.7423 2.0532 4.3004.1751 8.6181-.196 12.8467-1.0548 1.9726-.4005 3.9579-.8799 5.8568-1.5906 1.6321-.6109 3.256-1.4024 4.6424-2.5295 1.5072-1.2254 2.7632-2.7138 3.3777-4.6768.6049-1.9321.3518-4.1118-.5424-5.8873-1.781-3.5363-5.5576-5.2203-8.9077-6.4106-2.1028-.7471-4.2436-1.3693-6.4094-1.8633-1.1813-.2694-2.3705-.5172-3.5701-.67-1.0816-.1378-2.1979-.3135-3.2882-.2963-.5401.0085-1.0803.025-1.62.0493-.5935.0267-1.1697.1589-1.7508.2853-.4048.088-.6976.5626-.6976.9902 0 .4596.297.8574.6976.9902.4905.1625.9691.3416 1.4732.4457.5249.1084 1.0484.2246 1.5703.3485 1.0098.2396 2.0497.3586 3.0661.5715 2.0929.4381 4.1793.8406 6.2427 1.4306 1.9094.5459 3.8302 1.1557 5.6614 1.961.0426.0188.085.0382.1276.0567.1643.0716-.1914-.0883-.1745-.0797.0839.0424.1703.0796.2549.1204.1845.0887.3677.1807.5493.2761.3644.1912.7229.396 1.0728.6165.3337.2102.6597.4347.975.6759.0748.0573.1484.1164.2224.1747.2317.1824-.2606-.2285-.0395-.0334.1514.1336.3016.2682.4466.4097.2838.277.5519.5732.7968.8906.0414.0536.2355.3167.0623.0793-.1719-.2358.012.0284.0488.0875.1036.1662.2012.3364.2908.5119.0818.1599.1403.3393.2269.4948.01.0181-.1345-.3851-.0833-.2104.0127.0435.0309.086.0455.1288.0343.1012.0659.2033.0947.3064.05.1786.0918.3597.1251.5427.0273.1505.0344.511.0022-.0536.0063.112.021.2236.0269.3358.0103.1933.0115.3871.0036.5804-.0038.0944-.0117.1882-.018.2825-.026.3885.0626-.3439.0092-.0662-.0721.3746-.1758.7227-.2808 1.0867-.0539.1875.098-.267.0909-.2284s-.0351.0866-.0511.122c-.0364.0803-.0715.1612-.1096.2404-.0895.1858-.1879.3665-.294.5418-.0458.0757-.093.1503-.1415.2239-.0406.0617-.2278.3283-.0434.0684s-.0079.0037-.0537.0615c-.0646.0818-.1305.1621-.198.241-.2459.2873-.5109.5552-.7886.8062-.068.0614-.1377.1203-.2062.1809-.1417.1255.1968-.1617.1739-.145-.0368.0268-.0717.058-.1074.0864-.1692.1345-.342.2634-.5179.3875-.6416.4525-1.322.8391-2.022 1.1745-.0663.0317-.3754.1744-.0857.042.2895-.1323-.0194.0069-.0866.036-.1982.0855-.3979.1673-.5987.2454-.3523.137-.7084.2627-1.0674.3775-.9361.2992-1.884.5665-2.8325.8154-.9593.2517-1.9249.4752-2.8953.6704-.5045.1013-1.0101.1952-1.5169.2813-.2338.0397-.468.0779-.7023.1143-.1171.0182-.2345.0354-.3516.0535-.2045.0315.192-.0275.1835-.0265-.0784.0094-.1566.0222-.2349.033-1.9767.2729-3.967.4303-5.9593.473-2.0118.043-4.0257-.0311-6.0301-.2216-.4913-.0467-.982-.1003-1.472-.161-.2352-.0291-.4703-.0599-.7051-.0922-.0587-.0081-.1173-.0167-.176-.0246-.2024-.0273.1826.027.1761.0258-.1365-.0228-.2738-.0408-.4105-.062-.9967-.1548-1.9895-.3384-2.977-.5511-1.9569-.4214-3.8928-.9565-5.796-1.604-.9621-.3274-1.916-.6834-2.8597-1.0679-.2223-.0905-.4439-.1827-.665-.2764-.1106-.0468-.221-.094-.3314-.1418-.0506-.0218-.1009-.0449-.1518-.0661-.1975-.0823.3586.1754.1647.0738-.356-.1865-.7069-.3712-1.0382-.6068-.0677-.0481-.3649-.2884-.1315-.0894.2334.1991-.0241-.0255-.076-.0749-.1153-.1097-.3533-.2922-.4072-.4516-.0128-.038.2249.3708.1405.1924-.0188-.04-.0491-.0774-.0713-.1157-.0218-.0377-.1345-.1976-.1228-.2394.012-.0434.1311.4333.0939.2403-.0082-.0425-.0281-.0859-.0395-.1277-.0109-.0399-.0147-.0932-.0308-.1305-.0657-.1524.0126.4002.0242.2296.0055-.0813.0076-.1983-.0028-.2786-.0268-.2069-.0075.3037-.036.2583-.0124-.0198.0306-.1484.0364-.1722.0094-.0383.0524-.1304.0466-.1679.0016.0104-.1609.344-.0698.1777.0647-.1181.1188-.2412.1887-.3567.0299-.0494.0639-.0963.0933-.146.1212-.205-.2158.2779-.068.0933.0718-.0895.1405-.182.2123-.2715.1513-.1882.3051-.374.4602-.5584 1.1985-1.4233 2.5029-2.7421 3.8938-3.9434.0824-.0711.165-.1418.248-.2121.0415-.0351.0841-.069.1247-.1052.0034-.0031-.2655.2188-.1215.102.1831-.1486.3651-.2985.5497-.4449.3687-.2923.7429-.5769 1.1221-.8531.7279-.5305 1.4744-1.0312 2.2372-1.5008.7763-.4779 1.5695-.9237 2.3774-1.3359.3931-.2007.8114-.3637 1.1961-.581-.0005.0004-.2812.1266-.1224.0558.0486-.0217.0971-.0438.1456-.0654.1134-.0506.227-.1005.3409-.1498.2113-.0915.4235-.1808.6365-.2678 1.6468-.6728 3.3476-1.2219 5.0639-1.6457.8643-.2134 1.7363-.3902 2.6135-.5285.1023-.0162.2061-.0379.3092-.0472-.2372.0213-.0606.0094.0652-.0075.2255-.0301.4511-.0576.6771-.0827.4342-.0481.8692-.0869 1.3048-.1162.8702-.0586 1.7421-.0777 2.6138-.061.6142.0118 1.2018-.5918 1.1737-1.2684-.0303-.7304-.5169-1.2145-1.1743-1.2685"/>
    <path fill="#0b3335" d="M46.1891 65.7762c.2071 3.8344 2.1567 7.3246 4.8096 9.7974 3.0434 2.8366 7.081 4.1769 10.9472 5.0438 2.0851.4676 4.1922.8477 6.3042 1.1412 2.0742.2882 4.1741.4439 6.2617.2404 2.1482-.2094 4.2069-.7604 6.1612-1.7542 1.6561-.8421 3.1634-2.0041 4.5374-3.3041 1.3462-1.2737 2.562-2.7103 3.6706-4.2262.6189-.8464 1.2187-1.7089 1.7981-2.5874.5213-.7904 1.1048-1.5857 1.5084-2.454.2025-.4358.4031-.8727.6029-1.31.278-.6087.1916-1.3119-.3215-1.7402-.4555-.3803-1.2381-.4107-1.6391.1055-.6134.7895-1.2208 1.5619-1.7543 2.4181-.4892.7851-.9885 1.5631-1.5044 2.3278-.1341.1988-.2694.3966-.4058.5934-.0629.0907-.1261.1812-.1895.2715-.0317.0452-.0636.0902-.0953.1352-.1327.1885-.0096-.0396.033-.0453-.0882.0116-.3262.4489-.3887.5332-.1414.191-.2827.3821-.4259.5715-.5458.722-1.115 1.4238-1.7139 2.0952-.589.6603-1.2068 1.2911-1.858 1.8794-.1549.1399-.3133.2748-.4701.4122-.1216.1065.0764-.061.0777-.0639-.014.0319-.0939.0772-.1205.0988-.0938.0765-.1884.152-.2835.2266-.339.2656-.6864.5189-1.0419.7581-.3696.2486-.7479.4819-1.1346.6978-.1791.1-.3598.1962-.5422.2885-.0915.0463-.1834.0916-.2756.136-.0365.0175-.0992.0629-.1389.0658.0832-.0063.1926-.0848.0348-.0163-.9104.3957-1.8493.7012-2.8111.9126-.2333.0513-.4676.0974-.7027.1385-.1176.0206-.2354.0388-.3532.0581.2338-.0383-.1202.0153-.1939.0245-.4958.0613-.9937.1027-1.4922.1271-1.0044.0493-2.0111.0366-3.0148-.0227-1.0296-.0607-2.0564-.1688-3.0799-.3014q-.36045-.0468-.7206-.0972c-.0599-.0083-.1199-.0168-.1798-.0253.0009 0-.1955-.0279-.087-.0122.1087.0155-.0882-.013-.0872-.0129-.0799-.0118-.1597-.0236-.2397-.0355-.4868-.0727-.9733-.1481-1.4594-.2268-3.7869-.6132-7.6505-1.4641-10.9053-3.6599-2.7242-1.8378-5.1266-4.5205-5.9639-8.016-.1042-.4348-.1817-.8755-.2373-1.3205-.0701-.5603-.9455-.4291-.9151.1338"/>
    <path fill="#009345" d="M47.8802 25.4923c-.5347-.0291-1.0707.0127-1.5962.1347-4.8416 1.1243-9.5616 2.9957-14.0053 5.5543-2.4021 1.383-4.924 3.2503-5.7011 6.2999-.6108 2.3971.0234 5.0202 1.0573 7.1999 2.1842 4.6048 6.0814 7.818 10.2901 9.4606 4.2088 1.6427 8.7252 1.8379 13.1414 1.4641 2.7929-.2364 5.6204-.7105 8.1664-2.1034 2.6341-1.4411 4.8484-3.8051 6.7495-6.4183 2.1235-2.9191 3.9534-6.3064 4.1533-10.2824.0608-1.2112-.0784-2.4363-.4007-3.5869-2.1316-7.6106-8.4491-4.6948-13.2251-6.581-1.7886-.7064-6.6825-1.0356-8.6296-1.1415"/>
    <path fill="#0b3335" d="M52.4006 24.2554c-3.7469-.3082-7.6251.0476-11.2499 1.1351-3.6635 1.099-7.195 2.8331-10.3598 5.1107-1.6383 1.1789-3.1996 2.5013-4.6424 3.9484-.6869.689-1.3535 1.4066-1.9795 2.1606-.4919.5925-.8891 1.1904-1.1583 1.9313-.2454.6754-.2499 1.3917-.1385 2.0971.1825 1.1558.9439 2.1005 1.7744 2.794.846.7063 1.7886 1.1366 2.7792 1.5581 1.9505.8299 3.9456 1.5373 5.9713 2.12 4.1525 1.1945 8.4487 1.8786 12.7423 2.0533 4.3004.175 8.6181-.1961 12.8467-1.0549 1.9727-.4005 3.9579-.8799 5.8568-1.5906 1.6322-.6109 3.256-1.4024 4.6424-2.5295 1.5072-1.2253 2.7632-2.7138 3.3777-4.6768.6049-1.9321.3518-4.1118-.5424-5.8873-1.781-3.5363-5.5576-5.2203-8.9077-6.4106-2.1028-.7471-4.2436-1.3693-6.4094-1.8633-1.1813-.2694-2.3705-.5172-3.57-.67-1.0817-.1378-2.198-.3135-3.2883-.2963-.5401.0085-1.0802.025-1.62.0493-.5935.0267-1.1697.159-1.7508.2853-.4047.088-.6976.5626-.6976.9902 0 .4596.297.8574.6976.9902.4905.1625.9691.3416 1.4732.4457.5249.1084 1.0484.2246 1.5703.3485 1.0098.2396 2.0497.3586 3.0661.5715 2.0929.4381 4.1793.8406 6.2427 1.4306 1.9094.5459 3.8302 1.1557 5.6614 1.961.0426.0188.085.0382.1276.0567.1643.0716-.1914-.0883-.1745-.0797.0839.0424.1704.0796.2549.1204.1845.0888.3677.1807.5493.2761.3644.1912.7229.396 1.0729.6165.3336.2102.6597.4347.9749.6759.0748.0573.1484.1164.2225.1747.2317.1824-.2607-.2285-.0396-.0334.1514.1336.3016.2682.4466.4098.2838.2769.5519.5731.7968.8905.0414.0536.2355.3167.0624.0793-.172-.2358.0119.0284.0487.0875.1036.1662.2012.3364.2909.5119.0817.1599.1402.3393.2268.4948.01.0181-.1345-.3851-.0833-.2104.0127.0435.0309.086.0455.1288.0343.1012.0659.2033.0947.3064.05.1786.0918.3597.1251.5427.0273.1505.0344.511.0022-.0536.0064.112.021.2236.0269.3358.0103.1933.0115.3871.0036.5804-.0038.0944-.0116.1882-.018.2825-.026.3885.0626-.3439.0092-.0662-.0721.3746-.1758.7227-.2808 1.0867-.0539.1875.098-.267.0909-.2284s-.0351.0866-.0511.122c-.0364.0803-.0714.1612-.1096.2404-.0895.1858-.1879.3665-.294.5418-.0458.0757-.093.1503-.1415.2239-.0406.0617-.2278.3283-.0434.0684s-.0079.0037-.0537.0615c-.0646.0818-.1305.1621-.198.241-.2459.2873-.5109.5552-.7886.8062-.0679.0614-.1377.1203-.2062.1809-.1417.1255.1968-.1617.1739-.145-.0368.0268-.0717.058-.1074.0864-.1692.1345-.342.2634-.5179.3875-.6416.4525-1.322.8391-2.022 1.1745-.0663.0317-.3754.1744-.0857.042.2895-.1323-.0194.0069-.0866.036-.1982.0856-.3979.1673-.5987.2454-.3523.137-.7084.2627-1.0674.3775-.9361.2993-1.884.5665-2.8325.8154-.9593.2517-1.9249.4752-2.8953.6704-.5044.1013-1.0101.1952-1.5169.2813-.2338.0397-.468.0779-.7023.1143-.1171.0182-.2345.0354-.3516.0535-.2044.0315.192-.0275.1835-.0265-.0784.0094-.1566.0223-.2349.033-1.9767.2729-3.967.4303-5.9593.473-2.0118.043-4.0257-.0311-6.0301-.2216-.4913-.0467-.982-.1003-1.472-.161-.2352-.0291-.4703-.0599-.7051-.0922-.0587-.0081-.1173-.0167-.176-.0246-.2024-.0273.1826.027.1761.0259-.1365-.0228-.2738-.0409-.4105-.0621-.9966-.1548-1.9895-.3384-2.977-.5511-1.9569-.4214-3.8928-.9565-5.796-1.604-.9621-.3274-1.916-.6834-2.8597-1.0679-.2223-.0905-.4439-.1827-.665-.2764-.1106-.0468-.221-.094-.3314-.1418-.0506-.0218-.1009-.0449-.1517-.0661-.1976-.0823.3585.1754.1646.0738-.356-.1865-.7069-.3712-1.0382-.6068-.0677-.0481-.3649-.2884-.1315-.0894.2334.1991-.0241-.0255-.076-.0749-.1153-.1097-.3532-.2922-.4072-.4516-.0128-.038.2249.3708.1406.1924-.0189-.04-.0492-.0774-.0714-.1157-.0218-.0377-.1345-.1975-.1228-.2394.0121-.0434.1311.4334.0939.2404-.0082-.0425-.0281-.086-.0394-.1278-.011-.0399-.0148-.0932-.0309-.1305-.0657-.1524.0126.4002.0242.2296.0055-.0813.0076-.1983-.0028-.2785-.0268-.207-.0075.3036-.036.2582-.0124-.0198.0306-.1484.0364-.1722.0094-.0383.0524-.1304.0466-.1679.0016.0104-.1609.344-.0698.1777.0647-.1181.1188-.2412.1887-.3567.0299-.0494.0639-.0963.0933-.146.1212-.205-.2158.2779-.068.0934.0718-.0896.1405-.1821.2123-.2716.1513-.1882.3051-.374.4603-.5584 1.1984-1.4233 2.5028-2.7421 3.8937-3.9434.0824-.0711.165-.1418.248-.2121.0415-.0351.0841-.069.1247-.1052.0034-.0031-.2655.2188-.1215.102.1831-.1486.3651-.2985.5497-.4449.3687-.2923.7429-.5768 1.1221-.8531.7279-.5305 1.4744-1.0312 2.2372-1.5008.7763-.4779 1.5695-.9237 2.3774-1.3359.3931-.2007.8114-.3637 1.1961-.581-.0005.0004-.2812.1266-.1224.0558.0486-.0216.0971-.0438.1456-.0654.1134-.0506.227-.1005.3409-.1498.2113-.0915.4235-.1808.6365-.2678 1.6468-.6728 3.3477-1.2219 5.0639-1.6457.8643-.2134 1.7363-.3902 2.6135-.5285.1024-.0162.2061-.0379.3092-.0472-.2372.0213-.0606.0094.0652-.0075.2255-.0301.4511-.0576.6771-.0827.4342-.0481.8692-.0869 1.3048-.1162.8702-.0585 1.7421-.0777 2.6138-.061.6142.0118 1.2018-.5918 1.1737-1.2684-.0303-.7304-.5169-1.2144-1.1742-1.2685"/>
    <path fill="#0b3335" d="M25.3536 42.2093c.207 3.8344 2.1566 7.3246 4.8095 9.7974 3.0434 2.8366 7.081 4.1769 10.9472 5.0438 2.0851.4676 4.1922.8477 6.3042 1.1412 2.0742.2882 4.1742.4439 6.2617.2404 2.1483-.2094 4.207-.7604 6.1613-1.7542 1.656-.8421 3.1633-2.0041 4.5373-3.3041 1.3462-1.2737 2.5621-2.7103 3.6707-4.2262.6189-.8464 1.2187-1.7089 1.798-2.5874.5213-.7904 1.1048-1.5857 1.5084-2.454.2026-.4358.4031-.8727.6029-1.31.278-.6087.1916-1.3119-.3215-1.7402-.4554-.3803-1.2381-.4107-1.6391.1055-.6133.7895-1.2208 1.5619-1.7542 2.4181-.4893.7851-.9885 1.5631-1.5045 2.3278-.1341.1988-.2693.3966-.4057.5934q-.0945.13605-.1896.2715c-.0317.0452-.0636.0902-.0953.1352-.1327.1885-.0096-.0396.033-.0452-.0882.0115-.3261.4488-.3887.5331-.1414.191-.2826.3822-.4258.5715-.5459.722-1.1151 1.4238-1.7139 2.0952-.5891.6603-1.2069 1.2911-1.8581 1.8795-.1549.1398-.3132.2747-.4701.4121-.1216.1065.0764-.061.0777-.0639-.014.0319-.0939.0772-.1205.0988-.0938.0765-.1884.152-.2834.2266-.3391.2656-.6864.519-1.0419.7581-.3696.2486-.7479.4819-1.1347.6978-.179.1-.3597.1962-.5422.2885-.0914.0463-.1833.0917-.2755.136-.0366.0175-.0993.0629-.139.0658.0832-.0063.1926-.0848.0349-.0163-.9105.3957-1.8494.7012-2.8112.9126-.2333.0513-.4676.0974-.7027.1385-.1176.0206-.2354.0388-.3532.0581.2338-.0383-.1202.0153-.1938.0245-.4959.0613-.9937.1027-1.4923.1271-1.0044.0493-2.011.0366-3.0148-.0227-1.0296-.0607-2.0563-.1688-3.0799-.3014q-.36045-.0468-.7206-.0972c-.0599-.0083-.1198-.0168-.1797-.0253.0008 0-.1956-.0279-.087-.0122.1086.0156-.0882-.013-.0873-.0129-.0799-.0118-.1597-.0235-.2396-.0355-.4869-.0727-.9734-.1481-1.4594-.2268-3.787-.6132-7.6505-1.4641-10.9054-3.6599-2.7242-1.8378-5.1265-4.5205-5.9639-8.016-.1042-.4348-.1816-.8755-.2373-1.3205-.07-.5603-.9454-.4291-.915.1338m-15.223 47.2963c4.3862-.8498 8.7852-1.6227 13.1949-2.316 1.0969-.1725 2.1946-.3401 3.2928-.5027.2584-.0383.5168-.0762.7753-.1141.0502-.0073.2763-.0402.0145-.0022.0646-.0094.1291-.0187.1937-.0281.1506-.0217.3012-.0434.4518-.0649.538-.0771 1.0762-.1529 1.6145-.2276 2.2177-.3078 4.4378-.5955 6.66-.8634 4.4242-.5333 8.8529-1.0176 13.2897-1.4119 4.4368-.3944 8.8784-.7093 13.3243-.9447 4.4238-.2342 8.8513-.3896 13.2797-.4663.5645-.0097 1.1289-.0181 1.6934-.0254.7696-.0099 1.5077-.7245 1.4719-1.5906-.0353-.8526-.647-1.6021-1.4719-1.5906-4.4723.0622-8.9436.2034-13.4115.4258-4.4466.2213-8.89.5222-13.3274.9024-4.4589.382-8.9164.8269-13.3592 1.3881-4.5271.5719-9.0458 1.2244-13.5529 1.957-4.4022.7155-8.7935 1.5097-13.1714 2.3823-.5554.1106-1.11046.2227-1.66544.3358-.68143.1389-1.13137 1.0658-.92394 1.7584.23721.7923.89564 1.1404 1.62718.9987m24.9968 6.4916c5.2745-.3931 10.5351-.9638 15.8044-1.4339 5.2721-.4705 10.5477-.8938 15.8263-1.2699 1.4894-.1061 2.979-.2084 4.4689-.307.7229-.0479 1.446-.0949 2.1692-.1409.3725-.0237.7453-.0435 1.1176-.0706.5048-.0366.9494-.1694 1.4284-.3261.5752-.1882 1.0676-.7969 1.0395-1.4755-.0259-.6264-.4155-1.3611-1.0395-1.4755-.3966-.0727-.8321-.1995-1.2311-.1949-.3279.0037-.659.0466-.9862.0713-.6793.0514-1.3586.1036-2.0378.1566-1.3147.1025-2.6291.2079-3.9434.3162-2.6506.2186-5.3002.4489-7.9489.6912-5.2982.4845-10.5927 1.0166-15.8828 1.5961-1.4647.1605-2.9292.3245-4.3932.4923-1.5806.1811-3.1542.442-4.7281.6815-.6212.0945-.9818.9043-.9075 1.5022.0786.6322.6132 1.234 1.2442 1.1869m5.1758-58.9117c1.0453.6709 2.178 1.0332 3.3773 1.1864.4729.0605.9496.0713 1.424.0226.3517-.0361.7015-.0778 1.0361-.2036.462-.1736.8086-.446 1.1466-.8131.3563-.3871.4986-.9611.3642-1.4888-.1213-.4757-.5166-.9802-.9891-1.0688-.3319-.0621-.6651-.1703-1.0036-.1355-.3644.0375-.7243.0984-1.0863.155l.4462-.0648c-.6028.0852-1.2072.0842-1.8097-.0025l.4327.0629c-.5738-.0909-1.1296-.2562-1.6644-.4991l.3774.172c-.16-.0753-.3167-.1563-.4715-.2435-.7255-.4083-1.7334-.2275-2.1413.6067-.3986.8155-.1907 1.8314.5614 2.3141m7.27-2.6137c-.1846.0272.0663-.003.1-.0054.0582-.0041.1165-.0069.1748-.0081.1491-.0033.2984.0025.447.0166.2961.0279.5916.0098.8884.0488l-.2978-.0433c.3856.0565.7584.1662 1.1181.3266l-.3053-.1392c.1835.0852.3723.2106.5623.2618.1999.0539.4044.0572.6088.0694.4842.029.9438-.3576 1.1229-.8163.1814-.4645.113-1.0988-.254-1.4507-.2584-.2477-.5234-.4769-.871-.5571-.2499-.0576-.5093-.0866-.7643-.1068-.4093-.0326-.8126.0118-1.2175.077-.3865.0624-.7679.163-1.1102.3741-.315.1942-.6097.4346-.8791.6962-.2195.2132-.2685.6432-.1087.911.1832.3071.4643.3927.7856.3454m.2532 6.1909 7.9164-.1608c.922-.0188 1.807-.8633 1.7639-1.9061-.0396-.9527-.7801-2.0061-1.7639-1.9061l-7.9164.8051c-.7611.0774-1.5034.6731-1.4656 1.5839.0349.8448.6443 1.6007 1.4656 1.584M18.9267 60.2529l4.3551.1074c.9101.0225 1.7804-.8803 1.7389-1.8791-.0414-.9988-.7646-1.9032-1.7389-1.8792l-4.3551.1075c-.8569.021-1.6799.7998-1.6396 1.7718.0405.9781.7202 1.7489 1.6396 1.7716"/>
    <path fill="#0b3335" d="m22.1707 62.7712 1.3987.3954c.2831.0801.5643.1727.8544.2148.3887.0565.7954-.0584 1.183-.1259l.3026-.138.2564-.2141c.1981-.2141.3116-.4895.3485-.7861.0312-.2505.0044-.4765-.0865-.7094-.101-.2587-.2787-.5249-.5184-.6547-.286-.155-.5955-.3642-.9018-.4513-.3313-.0944-.7238-.074-1.0679-.092l-1.4387-.0752c-.2956-.0154-.6782.1577-.8783.3932-.1883.2217-.3044.4711-.3416.7707-.0803.6462.2876 1.3024.8896 1.4726m4.2786-3.9718 1.9796.188c.2326.0095.4495-.043.6508-.1573.2095-.0736.3907-.1994.5437-.3774.1647-.1654.2812-.3611.3492-.5875.1058-.2175.1542-.4519.1455-.7032-.0196-.4722-.1631-.9618-.4947-1.2909-.3136-.311-.7533-.5766-1.1946-.5347l-1.9796.188q-.3129-.01275-.5838.141c-.1878.0661-.3504.1789-.4877.3385-.1478.1484-.2523.3241-.3133.527q-.14235.2928-.1305.6309c.0176.4236.1463.8628.4438 1.1579l.3067.2561c.2364.1481.4913.2227.7649.2236m48.5455.4466-4.3552-.1074c-.91-.0225-1.7803.8804-1.7389 1.8791.0415.9988.7646 1.9033 1.7389 1.8792l4.3552-.1074c.8568-.0211 1.6799-.7999 1.6396-1.7719-.0405-.978-.7202-1.7489-1.6396-1.7716"/>
    <path fill="#0b3335" d="m71.7506 56.7273-1.3987-.3954c-.2831-.08-.5643-.1726-.8544-.2147-.3887-.0565-.7954.0584-1.183.1259l-.3026.138-.2564.2141c-.1981.214-.3116.4895-.3485.7861-.0312.2505-.0045.4764.0865.7094.101.2586.2786.5248.5184.6547.286.155.5955.3642.9018.4513.3313.0944.7238.074 1.0679.092l1.4387.0751c.2956.0155.6782-.1576.8783-.3931.1883-.2217.3044-.4711.3416-.7707.0803-.6462-.2876-1.3025-.8896-1.4727m-4.2784 3.972-1.9796-.188c-.2326-.0095-.4495.043-.6508.1573-.2095.0737-.3907.1994-.5437.3774-.1647.1654-.2812.3612-.3492.5875-.1058.2175-.1542.452-.1455.7033.0196.4721.1631.9618.4947 1.2909.3136.3109.7533.5765 1.1946.5346l1.9796-.1879c.2086.0084.4032-.0385.5838-.141.1878-.0661.3504-.1789.4877-.3386.1477-.1483.2523-.324.3133-.527q.14235-.2928.1305-.6309c-.0176-.4236-.1463-.8627-.4438-1.1579l-.3068-.2561c-.2363-.1481-.4912-.2227-.7648-.2236"/>
  </g>
  <defs>
    <clipPath id="a">
      <path fill="#fff" d="M2 4h95.2471v92H2z"/>
    </clipPath>
  </defs>
</svg>
