<svg width="100" height="100" viewBox="0 0 100 100" fill="none" xmlns="http://www.w3.org/2000/svg">
<g clip-path="url(#clip0_2580_4432)">
<path d="M69.1071 52.3247C70.2793 51.4817 71.3945 50.5362 72.4291 49.5039C73.4623 48.4731 74.3532 47.2614 75.1958 46.0492C76.8827 43.6229 78.2008 40.9509 79.2786 38.1545C81.6541 31.9906 82.5003 25.2106 82.4098 18.5672C82.3536 14.4466 81.9547 10.3464 81.4215 6.26889C81.3833 5.97601 81.1457 5.61154 80.9571 5.40766C80.6746 5.10241 80.3112 4.92762 79.92 4.87081C79.2404 4.77208 78.4506 5.11169 78.1205 5.8026C76.8458 8.46967 75.7406 11.2316 74.5891 13.9618C73.3942 16.7949 72.2567 19.6567 71.1721 22.5412C69.1231 27.9905 67.0743 33.5755 66.2447 39.4196C65.9996 41.1461 65.8034 42.9024 65.8616 44.6519C65.8881 45.4476 65.9478 46.2416 66.0412 47.0314C66.1023 47.5492 66.1688 48.0659 66.2556 48.5795C66.3265 48.9988 66.4754 49.3837 66.6227 49.7783C66.8684 50.437 67.3614 50.8883 68.0537 50.7878C68.6905 50.6954 69.181 50.1104 69.1845 49.4036C69.1862 49.0539 69.215 48.6985 69.191 48.3505C69.1666 47.9986 69.1314 47.6478 69.1105 47.2954C69.0675 46.5696 69.0548 45.8419 69.0696 45.1149C69.0984 43.7005 69.1921 42.287 69.3482 40.8826C69.3767 40.6261 69.3033 41.2148 69.3387 40.9592C69.3509 40.8714 69.3619 40.7833 69.3739 40.6953C69.3981 40.5193 69.4234 40.3436 69.4499 40.168C69.5064 39.794 69.5681 39.4209 69.6347 39.0489C69.7605 38.3455 69.9038 37.6459 70.0613 36.9501C70.3782 35.5502 70.7535 34.1662 71.1666 32.796C72.0102 29.9976 73.0033 27.2524 74.0251 24.5252C74.2799 23.845 74.538 23.1663 74.7993 22.489C74.8646 22.3197 74.9301 22.1505 74.9959 21.9813C75.0206 21.9179 75.0453 21.8545 75.0699 21.7911C75.1633 21.5507 74.9544 22.0852 75.0488 21.8454C75.19 21.487 75.3307 21.1284 75.4732 20.7705C76.009 19.4236 76.5577 18.0826 77.1193 16.748C78.3998 13.7045 79.8485 10.7572 81.2395 7.77304L77.9384 7.30686C77.9955 7.71405 78.0513 8.12147 78.105 8.52923C78.1349 8.75603 78.1637 8.98282 78.1929 9.20972C78.2066 9.31682 78.2324 9.58885 78.1797 9.10274C78.1946 9.23939 78.2131 9.3758 78.2294 9.51234C78.3331 10.3777 78.4275 11.2444 78.5112 12.1124C78.6783 13.8475 78.8025 15.5877 78.8702 17.3308C79.0028 20.7482 78.9316 24.1938 78.5489 27.5911C78.5362 27.7041 78.5221 27.8169 78.5096 27.93C78.478 28.2155 78.5693 27.48 78.5102 27.9281C78.4862 28.109 78.4628 28.2901 78.4377 28.471C78.3749 28.9232 78.3061 29.3745 78.2311 29.8245C78.1066 30.5719 77.9649 31.3159 77.8039 32.0552C77.5022 33.4404 77.1347 34.8092 76.6996 36.1524C76.4797 36.8315 76.2424 37.5041 75.9874 38.1689C75.9485 38.2704 75.8865 38.5243 75.998 38.143C75.9777 38.2124 75.941 38.2863 75.9146 38.3519C75.8518 38.5083 75.7879 38.6642 75.7231 38.8196C75.5864 39.1472 75.4453 39.4727 75.2998 39.7958C74.721 41.0801 74.071 42.3273 73.3468 43.5225C72.9508 44.1759 72.5387 44.8254 72.0888 45.4373C72.2933 45.1592 72.1376 45.3678 72.0866 45.4374C72.0225 45.5251 71.9578 45.6124 71.8927 45.6994C71.7736 45.8586 71.6529 46.0164 71.5307 46.1729C71.3086 46.457 71.0795 46.7337 70.8499 47.0106C69.8618 48.2025 68.8517 49.3436 67.7075 50.3645C67.2648 50.7595 67.295 51.5528 67.6172 52.0036C67.9502 52.4694 68.6252 52.6713 69.1071 52.3247Z" fill="#0B3335"/>
<path d="M72.1438 52.2372C73.1248 52.4836 74.1573 52.6836 75.1658 52.7107C76.1733 52.7378 77.1923 52.6042 78.1863 52.4435C80.1219 52.1307 81.975 51.4715 83.7592 50.6136C87.1995 48.9594 90.2142 46.3415 92.7352 43.3448C94.2053 41.5971 95.5436 39.7187 96.8096 37.7952C96.9767 37.5413 97.0563 37.1155 97.0563 36.81C97.0563 36.3755 96.9113 35.967 96.6685 35.6274C96.24 35.0281 95.4635 34.6959 94.7699 34.9279C92.9536 35.5353 91.1866 36.3366 89.4081 37.0595C87.5469 37.816 85.7049 38.626 83.8782 39.4751C80.7875 40.9118 77.7492 42.4549 75.0868 44.7074C74.4079 45.2819 73.7715 45.8951 73.2228 46.6156C72.8867 47.0568 72.5621 47.5116 72.2638 47.9838C71.9559 48.4708 71.739 48.9647 71.6061 49.5382C71.4705 50.1232 71.6905 50.8358 72.2055 51.1298C72.7538 51.4429 73.3201 51.3262 73.7859 50.9095C73.8533 50.8491 73.9216 50.7898 73.9894 50.7301C74.0244 50.6993 74.1515 50.5967 73.979 50.7372C73.7114 50.9551 74.1999 50.5518 74.1974 50.5546C74.3296 50.4109 74.4408 50.2348 74.5638 50.0812C74.8134 49.7696 75.0742 49.4688 75.3471 49.1808C75.8732 48.6258 76.4268 48.0865 76.9949 47.5822C77.0638 47.521 77.1331 47.4605 77.2027 47.4005C77.2376 47.3705 77.2728 47.3407 77.3077 47.3107C77.5155 47.1327 77.1974 47.3989 77.1867 47.4116C77.3088 47.2661 77.5073 47.1525 77.6551 47.0381C77.9604 46.802 78.2715 46.575 78.5874 46.356C79.2384 45.9047 79.9095 45.4877 80.5923 45.0952C81.9982 44.2869 83.453 43.583 84.9154 42.9038C85.1164 42.8104 85.3187 42.7202 85.5192 42.6254C85.524 42.6231 85.198 42.7713 85.3708 42.6931C85.4212 42.6703 85.4716 42.6473 85.522 42.6245C85.6397 42.5713 85.7574 42.5182 85.8753 42.4653C86.313 42.2689 86.752 42.0753 87.1919 41.8846C88.0387 41.5175 88.8893 41.1609 89.7436 40.815C91.715 40.0168 93.7333 39.4042 95.7302 38.6922L93.6904 35.8249C93.0694 36.8017 92.4282 37.7631 91.759 38.702L92.0372 38.3128C91.0687 39.6661 90.0431 40.9723 88.9348 42.1948C88.394 42.7913 87.8388 43.3751 87.2655 43.9351C87.0027 44.1918 86.7356 44.4431 86.4641 44.6888C86.3159 44.8229 86.1664 44.9552 86.0155 45.0858C85.9401 45.1511 85.864 45.2154 85.7882 45.2804C85.6515 45.3954 85.6866 45.3662 85.8934 45.1929C85.8419 45.2355 85.7902 45.2779 85.7384 45.32C84.4926 46.3338 83.1587 47.2191 81.7472 47.9371C81.5703 48.0271 81.3923 48.1145 81.2133 48.1991L81.1236 48.2412C80.9725 48.3111 81.004 48.2969 81.218 48.1988C81.177 48.1848 80.9879 48.3005 80.9449 48.3189C80.5799 48.4763 80.2108 48.6227 79.838 48.7571C79.0938 49.0257 78.3348 49.2473 77.5658 49.4159C77.3418 49.465 77.117 49.5096 76.8915 49.5495C76.7949 49.5667 76.698 49.5816 76.6013 49.5983C76.4439 49.6225 76.4722 49.6188 76.6861 49.5874C76.621 49.5966 76.5559 49.6054 76.4907 49.6138C76.0662 49.6684 75.6414 49.6984 75.2148 49.7267C74.2892 49.7879 73.3789 49.8473 72.4507 49.7853C71.8779 49.747 71.3881 50.2898 71.3162 50.8677C71.243 51.4563 71.5811 52.0959 72.1438 52.2372Z" fill="#0B3335"/>
<path d="M66.6361 39.1915C67.2844 37.1358 67.5478 35.0289 67.4788 32.8599C67.411 30.7256 67.0792 28.5827 66.5131 26.537C65.3869 22.4673 63.3672 18.8232 60.8734 15.5673C59.5595 13.8519 58.1205 12.254 56.6232 10.7257C56.0604 10.1512 55.1169 9.94539 54.4349 10.4206C53.7161 10.9214 53.458 11.7339 53.6049 12.6245C53.946 14.6915 54.4653 16.7295 54.9129 18.7714C55.3603 20.8121 55.8506 22.8417 56.3842 24.8581C57.3125 28.3664 58.3238 31.9435 60.0496 35.1047C60.5463 36.0145 61.1078 36.8747 61.7717 37.6521C62.052 37.9802 62.345 38.2966 62.6532 38.5942C62.8794 38.8128 63.1328 39.0774 63.3915 39.2423C63.6474 39.4054 63.9465 39.5165 64.2187 39.6378C64.6918 39.8485 65.3066 39.5287 65.5896 39.1327C65.9004 38.698 65.9689 38.0492 65.6915 37.5674C65.4414 37.1331 65.1684 36.7449 64.8553 36.3603C64.7499 36.2308 64.6459 36.1 64.5444 35.9671C64.4932 35.8999 64.4296 35.7736 64.3638 35.7249C64.5094 35.9303 64.5325 35.9625 64.4331 35.8215C64.395 35.7669 64.3573 35.7121 64.3199 35.657C63.8765 35.0032 63.453 34.3205 63.064 33.6276C62.6645 32.9157 62.307 32.1768 61.9819 31.4222C61.8978 31.227 61.8159 31.0308 61.736 30.8337C61.6962 30.7356 61.662 30.6316 61.6172 30.5362C61.6301 30.5637 61.7725 30.943 61.6678 30.6639C61.5042 30.2277 61.3439 29.7903 61.1934 29.3486C59.9791 25.7836 59.1033 22.0626 58.3005 18.3684C57.8124 16.1224 57.4954 13.8493 57.0875 11.5871L54.0692 13.4857C55.3692 14.7705 56.6271 16.1063 57.8021 17.5256C58.0938 17.8779 58.3804 18.2351 58.6609 18.5979C58.7957 18.7721 58.9292 18.9475 59.0612 19.1241C59.1272 19.2124 59.1928 19.3011 59.2581 19.3901C59.3035 19.4518 59.5517 19.7967 59.381 19.5575C59.2117 19.3201 59.4531 19.6606 59.5007 19.7289C59.5641 19.8198 59.6272 19.9111 59.6898 20.0027C59.8256 20.2015 59.9603 20.4011 60.0947 20.601C60.3536 20.9861 60.605 21.3771 60.8482 21.7741C61.3366 22.5718 61.7914 23.3936 62.2061 24.2386C62.4224 24.6794 62.6276 25.1266 62.8202 25.5801C62.9092 25.7897 62.9865 26.0066 63.0797 26.2138C63.0802 26.215 62.9568 25.8905 63.0229 26.0702C63.0428 26.1242 63.0639 26.178 63.0841 26.2319C63.1314 26.358 63.1776 26.4846 63.223 26.6115C63.5484 27.5217 63.8252 28.4524 64.049 29.3978C64.1657 29.8908 64.2677 30.3879 64.3547 30.888C64.3947 31.1189 64.4316 31.3505 64.4651 31.5827C64.4819 31.6988 64.497 31.8151 64.5128 31.9313C64.5377 32.1147 64.4954 31.8071 64.4965 31.8024C64.4827 31.8631 64.5161 31.9741 64.5228 32.0369C64.6401 33.1323 64.6821 34.2376 64.6397 35.3395C64.6177 35.9086 64.6021 36.48 64.5658 37.0484C64.5483 37.3225 64.5252 37.5962 64.4965 37.8691C64.4882 37.9478 64.4417 38.2951 64.4767 38.0523C64.4539 38.2109 64.4322 38.3697 64.4079 38.5281C64.3092 39.1697 64.5631 39.9032 65.2147 40.0636C65.8557 40.2213 66.4271 39.8539 66.6361 39.1915Z" fill="#0B3335"/>
<path d="M27.6076 49.9846C27.0885 49.9583 26.5683 49.996 26.0582 50.106C21.3588 51.1195 16.7774 52.8067 12.4643 55.1135C10.1326 56.3605 7.68492 58.0439 6.93068 60.7933C6.33786 62.9544 6.95336 65.3194 7.9569 67.2844C10.0769 71.4359 13.8597 74.3328 17.9448 75.8138C22.03 77.2948 26.4138 77.4707 30.7003 77.1338C33.4111 76.9206 36.1555 76.4933 38.6268 75.2374C41.1835 73.9383 43.3327 71.8069 45.1781 69.451C47.2392 66.8193 49.0154 63.7654 49.2094 60.1807C49.2685 59.0888 49.1333 57.9842 48.8205 56.947C46.7514 50.0856 40.6195 52.7144 35.9837 51.0138C34.2477 50.377 29.4974 50.0801 27.6076 49.9846Z" fill="#009345"/>
<path d="M31.5986 47.0381C27.8517 46.7299 23.9735 47.0858 20.3487 48.1732C16.6852 49.2722 13.1537 51.0064 9.9889 53.2839C8.35056 54.4629 6.78929 55.7852 5.34651 57.2323C4.65957 57.9213 3.99298 58.6389 3.36698 59.3929C2.87507 59.9854 2.47791 60.5833 2.20869 61.3242C1.96332 61.9996 1.95876 62.716 2.07016 63.4213C2.25268 64.5771 3.01413 65.5219 3.84459 66.2153C4.69062 66.9217 5.63322 67.3519 6.62383 67.7734C8.57432 68.6033 10.5694 69.3107 12.5951 69.8934C16.7475 71.088 21.0438 71.772 25.3374 71.9467C29.6378 72.1217 33.9555 71.7506 38.1841 70.8919C40.1567 70.4913 42.142 70.012 44.0409 69.3012C45.6731 68.6903 47.2969 67.8988 48.6833 66.7717C50.1905 65.5464 51.4465 64.0579 52.061 62.0949C52.6659 60.1628 52.4128 57.9831 51.5186 56.2077C49.7376 52.6713 45.961 50.9874 42.6109 49.797C40.5081 49.0499 38.3673 48.4277 36.2015 47.9337C35.0202 47.6643 33.831 47.4165 32.6315 47.2638C31.5498 47.126 30.4335 46.9503 29.3432 46.9674C28.8031 46.9759 28.263 46.9924 27.7232 47.0167C27.1297 47.0434 26.5535 47.1757 25.9724 47.302C25.5677 47.39 25.2748 47.8646 25.2748 48.2922C25.2748 48.7519 25.5718 49.1497 25.9724 49.2824C26.4629 49.4449 26.9415 49.624 27.4456 49.7281C27.9705 49.8366 28.494 49.9527 29.0159 50.0766C30.0257 50.3163 31.0656 50.4353 32.082 50.6481C34.1749 51.0862 36.2613 51.4887 38.3247 52.0787C40.2341 52.6246 42.1549 53.2344 43.9861 54.0397C44.0287 54.0585 44.0711 54.0779 44.1137 54.0964C44.278 54.168 43.9223 54.0081 43.9392 54.0167C44.0231 54.0591 44.1096 54.0963 44.1941 54.1371C44.3786 54.2259 44.5618 54.3178 44.7434 54.4133C45.1078 54.6044 45.4663 54.8092 45.8162 55.0297C46.1499 55.2399 46.4759 55.4644 46.7912 55.7056C46.866 55.7629 46.9396 55.822 47.0137 55.8803C47.2454 56.0628 46.753 55.6518 46.9741 55.847C47.1255 55.9805 47.2757 56.1151 47.4207 56.2567C47.7045 56.5336 47.9726 56.8298 48.2175 57.1472C48.2589 57.2008 48.453 57.4639 48.2799 57.2265C48.1079 56.9908 48.2918 57.2549 48.3286 57.314C48.4322 57.4802 48.5298 57.6504 48.6194 57.8259C48.7012 57.9858 48.7597 58.1653 48.8463 58.3207C48.8563 58.3388 48.7118 57.9356 48.763 58.1103C48.7757 58.1538 48.7939 58.1963 48.8085 58.2391C48.8428 58.3403 48.8744 58.4424 48.9032 58.5455C48.9532 58.7241 48.995 58.9052 49.0283 59.0882C49.0556 59.2387 49.0627 59.5992 49.0305 59.0346C49.0368 59.1466 49.0515 59.2582 49.0574 59.3705C49.0677 59.5637 49.0689 59.7575 49.061 59.9508C49.0572 60.0452 49.0494 60.139 49.043 60.2333C49.017 60.6218 49.1056 59.8894 49.0522 60.1671C48.9801 60.5417 48.8764 60.8898 48.7714 61.2538C48.7175 61.4414 48.8694 60.9869 48.8623 61.0255C48.8552 61.0641 48.8272 61.1121 48.8112 61.1474C48.7748 61.2277 48.7397 61.3086 48.7016 61.3879C48.6121 61.5736 48.5137 61.7543 48.4076 61.9296C48.3618 62.0054 48.3146 62.0799 48.2661 62.1536C48.2255 62.2152 48.0383 62.4818 48.2227 62.2219C48.4071 61.9621 48.2148 62.2256 48.169 62.2835C48.1044 62.3652 48.0385 62.4455 47.971 62.5244C47.7251 62.8117 47.4601 63.0796 47.1824 63.3306C47.1145 63.392 47.0447 63.451 46.9762 63.5116C46.8345 63.637 47.173 63.3498 47.1501 63.3665C47.1133 63.3934 47.0784 63.4245 47.0427 63.4529C46.8735 63.5874 46.7007 63.7164 46.5248 63.8404C45.8832 64.293 45.2028 64.6795 44.5028 65.0149C44.4365 65.0466 44.1274 65.1893 44.4171 65.0569C44.7066 64.9246 44.3977 65.0638 44.3305 65.0929C44.1323 65.1785 43.9326 65.2602 43.7318 65.3384C43.3795 65.4754 43.0234 65.601 42.6644 65.7158C41.7283 66.0151 40.7804 66.2823 39.8319 66.5312C38.8726 66.783 37.907 67.0064 36.9366 67.2016C36.4322 67.303 35.9265 67.3968 35.4197 67.4829C35.1859 67.5227 34.9517 67.5608 34.7174 67.5972C34.6003 67.6154 34.4829 67.6326 34.3658 67.6507C34.1614 67.6822 34.5578 67.6232 34.5493 67.6243C34.4709 67.6336 34.3927 67.6465 34.3144 67.6572C32.3377 67.9301 30.3474 68.0876 28.3551 68.1302C26.3433 68.1732 24.3294 68.0991 22.325 67.9087C21.8337 67.8619 21.343 67.8083 20.853 67.7476C20.6178 67.7185 20.3827 67.6877 20.1479 67.6554C20.0892 67.6473 20.0306 67.6387 19.9719 67.6308C19.7695 67.6035 20.1545 67.6578 20.148 67.6567C20.0115 67.6339 19.8742 67.6158 19.7375 67.5946C18.7409 67.4398 17.748 67.2562 16.7605 67.0435C14.8036 66.6221 12.8677 66.087 10.9645 65.4395C10.0024 65.1122 9.04853 64.7562 8.10477 64.3716C7.8825 64.2812 7.66087 64.1889 7.43977 64.0953C7.32922 64.0484 7.21877 64.0012 7.10843 63.9535C7.05777 63.9316 7.00753 63.9086 6.95665 63.8874C6.75908 63.805 7.31522 64.0627 7.12126 63.9611C6.76533 63.7747 6.41439 63.5899 6.08306 63.3543C6.01543 63.3062 5.71823 63.0659 5.95162 63.265C6.18502 63.464 5.92746 63.2394 5.87563 63.19C5.76031 63.0803 5.52235 62.8979 5.4684 62.7384C5.45558 62.7004 5.69332 63.1092 5.60895 62.9308C5.59008 62.8909 5.55977 62.8534 5.53762 62.8152C5.51578 62.7775 5.40311 62.6176 5.41477 62.5758C5.42685 62.5323 5.54588 63.0091 5.50868 62.8161C5.50052 62.7736 5.48059 62.7302 5.46925 62.6884C5.45833 62.6484 5.45452 62.5951 5.43841 62.5578C5.37269 62.4054 5.45102 62.958 5.46257 62.7874C5.46808 62.7061 5.4702 62.5892 5.45982 62.5089C5.433 62.3019 5.45229 62.8125 5.42378 62.7672C5.41138 62.7473 5.45441 62.6187 5.46024 62.5949C5.46957 62.5566 5.5126 62.4645 5.50677 62.427C5.50836 62.4374 5.34587 62.7711 5.43703 62.6047C5.50168 62.4866 5.55585 62.3635 5.6257 62.2481C5.65559 62.1986 5.68961 62.1517 5.71897 62.102C5.84023 61.897 5.50317 62.3799 5.65103 62.1954C5.72279 62.1058 5.79147 62.0134 5.86333 61.9238C6.01458 61.7356 6.16838 61.5498 6.32355 61.3654C7.52202 59.9421 8.82637 58.6233 10.2173 57.422C10.2997 57.3509 10.3823 57.2802 10.4653 57.2099C10.5068 57.1748 10.5494 57.1409 10.59 57.1047C10.5934 57.1016 10.3245 57.3235 10.4685 57.2067C10.6516 57.0581 10.8336 56.9082 11.0182 56.7618C11.3869 56.4695 11.7611 56.185 12.1403 55.9087C12.8682 55.3783 13.6147 54.8775 14.3775 54.4079C15.1538 53.93 15.947 53.4842 16.7549 53.072C17.148 52.8713 17.5663 52.7083 17.951 52.491C17.9505 52.4914 17.6698 52.6176 17.8286 52.5468C17.8772 52.5252 17.9257 52.5031 17.9742 52.4814C18.0876 52.4308 18.2012 52.381 18.3151 52.3316C18.5264 52.2401 18.7386 52.1509 18.9516 52.0638C20.5984 51.391 22.2993 50.8419 24.0155 50.4181C24.8798 50.2047 25.7518 50.028 26.629 49.8896C26.7314 49.8734 26.8351 49.8517 26.9382 49.8424C26.701 49.8637 26.8776 49.8518 27.0034 49.835C27.2289 49.8048 27.4545 49.7773 27.6805 49.7523C28.1147 49.7042 28.5497 49.6653 28.9853 49.636C29.8555 49.5775 30.7274 49.5583 31.5991 49.5751C32.2133 49.5869 32.8009 48.9832 32.7728 48.3066C32.7425 47.5762 32.2559 47.0922 31.5986 47.0381Z" fill="#0B3335"/>
<path d="M4.55145 64.992C4.75845 68.8265 6.70809 72.3166 9.36099 74.7894C12.4044 77.626 16.442 78.9663 20.3082 79.8332C22.3933 80.3008 24.5004 80.681 26.6124 80.9744C28.6866 81.2626 30.7865 81.4184 32.8741 81.2148C35.0223 81.0054 37.081 80.4544 39.0353 79.4606C40.6914 78.6185 42.1987 77.4565 43.5727 76.1565C44.9189 74.8828 46.1348 73.4462 47.2433 71.9303C47.8622 71.0839 48.462 70.2215 49.0414 69.3429C49.5627 68.5525 50.1462 67.7572 50.5498 66.8889C50.7523 66.4531 50.9529 66.0162 51.1527 65.5789C51.4307 64.9702 51.3443 64.2671 50.8312 63.8387C50.3758 63.4584 49.5931 63.4281 49.1921 63.9442C48.5787 64.7337 47.9713 65.5062 47.4378 66.3624C46.9486 67.1474 46.4493 67.9254 45.9334 68.6902C45.7993 68.8889 45.664 69.0867 45.5276 69.2835C45.4647 69.3742 45.4015 69.4647 45.3381 69.5551C45.3064 69.6002 45.2745 69.6452 45.2428 69.6902C45.1101 69.8788 45.2332 69.6506 45.2758 69.645C45.1876 69.6565 44.9496 70.0939 44.8871 70.1782C44.7457 70.3691 44.6044 70.5603 44.4612 70.7496C43.9154 71.4717 43.3462 72.1735 42.7473 72.8448C42.1583 73.5051 41.5405 74.1359 40.8893 74.7243C40.7344 74.8641 40.5761 74.9991 40.4192 75.1364C40.2976 75.2429 40.4956 75.0755 40.4969 75.0725C40.4829 75.1044 40.403 75.1497 40.3764 75.1713C40.2826 75.2478 40.188 75.3233 40.0929 75.3979C39.7539 75.6635 39.4065 75.9169 39.051 76.156C38.6814 76.4046 38.3031 76.6379 37.9164 76.8538C37.7374 76.9538 37.5566 77.05 37.3742 77.1423C37.2827 77.1886 37.1909 77.234 37.0986 77.2783C37.0621 77.2958 36.9994 77.3412 36.9597 77.3442C37.0429 77.3379 37.1523 77.2593 36.9945 77.3278C36.0841 77.7235 35.1452 78.029 34.1834 78.2404C33.9501 78.2918 33.7158 78.3378 33.4807 78.3789C33.3631 78.3995 33.2453 78.4177 33.1275 78.437C33.3613 78.3987 33.0073 78.4523 32.9336 78.4615C32.4378 78.5228 31.94 78.5642 31.4414 78.5886C30.437 78.6379 29.4304 78.6252 28.4266 78.566C27.397 78.5053 26.3702 78.3971 25.3467 78.2645C25.1064 78.2333 24.8662 78.2009 24.6261 78.1674C24.5662 78.159 24.5062 78.1505 24.4464 78.142C24.4472 78.142 24.2508 78.1141 24.3593 78.1298C24.468 78.1454 24.2711 78.1168 24.2721 78.117C24.1922 78.1052 24.1124 78.0934 24.0324 78.0815C23.5456 78.0087 23.0591 77.9334 22.573 77.8547C18.7861 77.2414 14.9226 76.3905 11.6677 74.1948C8.94349 72.3569 6.54115 69.6742 5.70381 66.1787C5.59962 65.744 5.52213 65.3032 5.46649 64.8582C5.39643 64.2979 4.52103 64.4291 4.55145 64.992Z" fill="#0B3335"/>
<path d="M67.564 51.2546C67.045 51.2284 66.5248 51.266 66.0146 51.376C61.3152 52.3896 56.7339 54.0767 52.4207 56.3835C50.089 57.6305 47.6413 59.3139 46.8871 62.0633C46.2943 64.2245 46.9098 66.5894 47.9133 68.5544C50.0333 72.706 53.8161 75.6028 57.9013 77.0838C61.9864 78.5648 66.3702 78.7408 70.6567 78.4038C73.3676 78.1906 76.1119 77.7633 78.5833 76.5075C81.1399 75.2083 83.2891 73.077 85.1345 70.721C87.1956 68.0893 88.9719 65.0354 89.1658 61.4508C89.225 60.3588 89.0897 59.2542 88.7769 58.217C86.7078 51.3556 80.5759 53.9844 75.9401 52.2838C74.2042 51.647 69.4539 51.3501 67.564 51.2546Z" fill="#009345"/>
<path d="M73.2362 47.8223C69.4894 47.5141 65.6112 47.8699 61.9864 48.9574C58.3229 50.0564 54.7914 51.7905 51.6266 54.0681C49.9883 55.247 48.427 56.5694 46.9842 58.0165C46.2973 58.7055 45.6307 59.4231 45.0047 60.1771C44.5128 60.7696 44.1156 61.3675 43.8464 62.1084C43.601 62.7838 43.5965 63.5001 43.7079 64.2055C43.8904 65.3613 44.6518 66.306 45.4823 66.9995C46.3283 67.7058 47.2709 68.1361 48.2615 68.5576C50.212 69.3875 52.2071 70.0949 54.2328 70.6776C58.3852 71.8721 62.6815 72.5562 66.9751 72.7308C71.2755 72.9059 75.5932 72.5348 79.8218 71.676C81.7944 71.2755 83.7797 70.7961 85.6786 70.0854C87.3107 69.4745 88.9346 68.683 90.321 67.5559C91.8282 66.3305 93.0842 64.8421 93.6987 62.8791C94.3036 60.947 94.0505 58.7673 93.1563 56.9918C91.3753 53.4555 87.5987 51.7715 84.2486 50.5812C82.1458 49.8341 80.005 49.2119 77.8392 48.7179C76.6579 48.4485 75.4687 48.2007 74.2691 48.0479C73.1875 47.9101 72.0712 47.7344 70.9809 47.7516C70.4408 47.7601 69.9006 47.7766 69.3609 47.8009C68.7674 47.8276 68.1912 47.9598 67.6101 48.0862C67.2053 48.1742 66.9125 48.6488 66.9125 49.0764C66.9125 49.536 67.2095 49.9338 67.6101 50.0666C68.1006 50.2291 68.5792 50.4082 69.0833 50.5123C69.6082 50.6207 70.1317 50.7369 70.6536 50.8608C71.6634 51.1004 72.7033 51.2194 73.7197 51.4323C75.8126 51.8704 77.899 52.2729 79.9624 52.8629C81.8718 53.4088 83.7926 54.0186 85.6238 54.8239C85.6664 54.8427 85.7088 54.8621 85.7514 54.8806C85.9157 54.9522 85.56 54.7923 85.5769 54.8009C85.6608 54.8433 85.7472 54.8805 85.8318 54.9213C86.0163 55.01 86.1995 55.102 86.3811 55.1974C86.7455 55.3886 87.104 55.5934 87.4539 55.8139C87.7876 56.0241 88.1136 56.2486 88.4289 56.4898C88.5037 56.5471 88.5773 56.6062 88.6513 56.6645C88.883 56.8469 88.3907 56.436 88.6118 56.6311C88.7632 56.7647 88.9134 56.8993 89.0584 57.0408C89.3422 57.3178 89.6103 57.614 89.8552 57.9314C89.8966 57.985 90.0907 58.2481 89.9175 58.0107C89.7456 57.7749 89.9295 58.0391 89.9663 58.0982C90.0699 58.2644 90.1675 58.4346 90.2571 58.6101C90.3389 58.77 90.3974 58.9494 90.484 59.1049C90.494 59.123 90.3495 58.7198 90.4007 58.8945C90.4134 58.938 90.4316 58.9805 90.4462 59.0233C90.4805 59.1245 90.5121 59.2266 90.5409 59.3297C90.5909 59.5083 90.6327 59.6894 90.666 59.8724C90.6933 60.0229 90.7004 60.3834 90.6682 59.8188C90.6745 59.9308 90.6892 60.0424 90.6951 60.1546C90.7054 60.3479 90.7066 60.5417 90.6987 60.735C90.6949 60.8294 90.687 60.9232 90.6807 61.0175C90.6547 61.406 90.7433 60.6736 90.6899 60.9513C90.6178 61.3259 90.5141 61.674 90.4091 62.038C90.3552 62.2255 90.5071 61.771 90.5 61.8096C90.4929 61.8482 90.4649 61.8962 90.4489 61.9316C90.4125 62.0119 90.3774 62.0928 90.3393 62.172C90.2498 62.3578 90.1514 62.5385 90.0453 62.7138C89.9995 62.7895 89.9523 62.8641 89.9038 62.9377C89.8632 62.9994 89.676 63.266 89.8604 63.0061C90.0448 62.7462 89.8525 63.0098 89.8067 63.0676C89.7421 63.1494 89.6762 63.2297 89.6087 63.3086C89.3628 63.5959 89.0978 63.8638 88.8201 64.1148C88.7521 64.1762 88.6824 64.2351 88.6139 64.2957C88.4722 64.4212 88.8107 64.134 88.7878 64.1507C88.751 64.1775 88.7161 64.2087 88.6804 64.2371C88.5112 64.3716 88.3384 64.5005 88.1625 64.6246C87.5209 65.0771 86.8405 65.4637 86.1405 65.7991C86.0742 65.8308 85.7651 65.9735 86.0548 65.8411C86.3443 65.7088 86.0354 65.848 85.9682 65.8771C85.77 65.9626 85.5703 66.0444 85.3695 66.1225C85.0172 66.2595 84.6611 66.3852 84.3021 66.5C83.366 66.7992 82.4181 67.0665 81.4696 67.3154C80.5103 67.5671 79.5447 67.7906 78.5743 67.9858C78.0698 68.0871 77.5642 68.181 77.0574 68.2671C76.8236 68.3068 76.5894 68.345 76.3551 68.3814C76.238 68.3996 76.1206 68.4168 76.0035 68.4349C75.799 68.4664 76.1955 68.4074 76.187 68.4084C76.1086 68.4178 76.0304 68.4306 75.9521 68.4414C73.9754 68.7143 71.9851 68.8717 69.9928 68.9144C67.981 68.9574 65.9671 68.8833 63.9627 68.6928C63.4714 68.6461 62.9807 68.5925 62.4907 68.5318C62.2555 68.5027 62.0204 68.4719 61.7856 68.4396C61.7269 68.4315 61.6683 68.4229 61.6096 68.415C61.4072 68.3877 61.7922 68.442 61.7857 68.4408C61.6492 68.418 61.5119 68.4 61.3752 68.3788C60.3785 68.224 59.3857 68.0404 58.3982 67.8277C56.4413 67.4063 54.5054 66.8712 52.6022 66.2237C51.6401 65.8963 50.6862 65.5403 49.7425 65.1558C49.5202 65.0653 49.2986 64.9731 49.0775 64.8794C48.9669 64.8326 48.8565 64.7854 48.7461 64.7376C48.6955 64.7158 48.6452 64.6927 48.5943 64.6715C48.3968 64.5892 48.9529 64.8469 48.759 64.7453C48.403 64.5588 48.0521 64.3741 47.7208 64.1385C47.6531 64.0904 47.3559 63.8501 47.5893 64.0491C47.8227 64.2482 47.5652 64.0236 47.5133 63.9742C47.398 63.8645 47.16 63.682 47.1061 63.5226C47.0933 63.4846 47.331 63.8934 47.2466 63.715C47.2278 63.675 47.1975 63.6376 47.1753 63.5993C47.1535 63.5616 47.0408 63.4017 47.0525 63.3599C47.0645 63.3165 47.1836 63.7932 47.1464 63.6002C47.1382 63.5577 47.1183 63.5143 47.1069 63.4725C47.096 63.4326 47.0922 63.3793 47.0761 63.342C47.0104 63.1896 47.0887 63.7422 47.1003 63.5716C47.1058 63.4903 47.1079 63.3733 47.0975 63.293C47.0707 63.0861 47.09 63.5967 47.0615 63.5513C47.0491 63.5315 47.0921 63.4029 47.0979 63.3791C47.1073 63.3408 47.1503 63.2487 47.1445 63.2112C47.1461 63.2216 46.9836 63.5552 47.0747 63.3889C47.1394 63.2708 47.1935 63.1477 47.2634 63.0322C47.2933 62.9828 47.3273 62.9359 47.3567 62.8862C47.4779 62.6812 47.1409 63.1641 47.2887 62.9795C47.3605 62.89 47.4292 62.7975 47.501 62.708C47.6523 62.5198 47.8061 62.334 47.9612 62.1496C49.1597 60.7263 50.4641 59.4075 51.855 58.2062C51.9374 58.1351 52.02 58.0644 52.103 57.9941C52.1445 57.959 52.1871 57.9251 52.2277 57.8889C52.2311 57.8858 51.9622 58.1077 52.1062 57.9909C52.2893 57.8423 52.4713 57.6924 52.6559 57.546C53.0246 57.2537 53.3988 56.9691 53.778 56.6929C54.5059 56.1624 55.2524 55.6617 56.0152 55.1921C56.7915 54.7142 57.5847 54.2684 58.3926 53.8562C58.7857 53.6555 59.204 53.4925 59.5887 53.2752C59.5882 53.2756 59.3075 53.4018 59.4663 53.331C59.5149 53.3093 59.5634 53.2872 59.6119 53.2656C59.7253 53.215 59.8389 53.1651 59.9528 53.1158C60.1641 53.0243 60.3763 52.935 60.5893 52.848C62.2361 52.1752 63.9369 51.6261 65.6532 51.2023C66.5175 50.9889 67.3895 50.8121 68.2667 50.6738C68.369 50.6576 68.4728 50.6359 68.5759 50.6266C68.3387 50.6479 68.5153 50.636 68.6411 50.6191C68.8666 50.589 69.0922 50.5615 69.3182 50.5364C69.7524 50.4883 70.1874 50.4495 70.623 50.4202C71.4932 50.3616 72.3651 50.3425 73.2368 50.3592C73.851 50.371 74.4386 49.7674 74.4105 49.0908C74.3802 48.3604 73.8936 47.8763 73.2362 47.8223Z" fill="#0B3335"/>
<path d="M46.1891 65.7762C46.3962 69.6106 48.3458 73.1008 50.9987 75.5736C54.0421 78.4102 58.0797 79.7505 61.9459 80.6174C64.031 81.085 66.1381 81.4651 68.2501 81.7586C70.3243 82.0468 72.4242 82.2025 74.5118 81.999C76.66 81.7896 78.7187 81.2386 80.673 80.2448C82.3291 79.4027 83.8364 78.2407 85.2104 76.9407C86.5566 75.667 87.7724 74.2304 88.881 72.7145C89.4999 71.8681 90.0997 71.0056 90.6791 70.1271C91.2004 69.3367 91.7839 68.5414 92.1875 67.6731C92.39 67.2373 92.5906 66.8004 92.7904 66.3631C93.0684 65.7544 92.982 65.0512 92.4689 64.6229C92.0134 64.2426 91.2308 64.2122 90.8298 64.7284C90.2164 65.5179 89.609 66.2903 89.0755 67.1465C88.5863 67.9316 88.087 68.7096 87.5711 69.4743C87.437 69.6731 87.3017 69.8709 87.1653 70.0677C87.1024 70.1584 87.0392 70.2489 86.9758 70.3392C86.9441 70.3844 86.9122 70.4294 86.8805 70.4744C86.7478 70.6629 86.8709 70.4348 86.9135 70.4291C86.8253 70.4407 86.5873 70.878 86.5248 70.9623C86.3834 71.1533 86.2421 71.3444 86.0989 71.5338C85.5531 72.2558 84.9839 72.9576 84.385 73.629C83.796 74.2893 83.1782 74.9201 82.527 75.5084C82.3721 75.6483 82.2137 75.7832 82.0569 75.9206C81.9353 76.0271 82.1333 75.8596 82.1346 75.8567C82.1206 75.8886 82.0407 75.9339 82.0141 75.9555C81.9203 76.032 81.8257 76.1075 81.7306 76.1821C81.3916 76.4477 81.0442 76.701 80.6887 76.9402C80.3191 77.1888 79.9408 77.4221 79.5541 77.638C79.375 77.738 79.1943 77.8342 79.0119 77.9265C78.9204 77.9728 78.8285 78.0181 78.7363 78.0625C78.6998 78.08 78.6371 78.1254 78.5974 78.1283C78.6806 78.122 78.79 78.0435 78.6322 78.112C77.7218 78.5077 76.7829 78.8132 75.8211 79.0246C75.5878 79.0759 75.3535 79.122 75.1184 79.1631C75.0008 79.1837 74.883 79.2019 74.7652 79.2212C74.999 79.1829 74.645 79.2365 74.5713 79.2457C74.0755 79.307 73.5776 79.3484 73.0791 79.3728C72.0747 79.4221 71.068 79.4094 70.0643 79.3501C69.0347 79.2894 68.0079 79.1813 66.9844 79.0487C66.7441 79.0175 66.5039 78.9851 66.2638 78.9515C66.2039 78.9432 66.1439 78.9347 66.084 78.9262C66.0849 78.9262 65.8885 78.8983 65.997 78.914C66.1057 78.9295 65.9088 78.901 65.9098 78.9011C65.8299 78.8893 65.7501 78.8775 65.6701 78.8656C65.1833 78.7929 64.6968 78.7175 64.2107 78.6388C60.4238 78.0256 56.5602 77.1747 53.3054 74.9789C50.5812 73.1411 48.1788 70.4584 47.3415 66.9629C47.2373 66.5281 47.1598 66.0874 47.1042 65.6424C47.0341 65.0821 46.1587 65.2133 46.1891 65.7762Z" fill="#0B3335"/>
<path d="M47.8802 25.4923C47.3455 25.4632 46.8095 25.505 46.284 25.627C41.4424 26.7513 36.7224 28.6227 32.2787 31.1813C29.8766 32.5643 27.3547 34.4316 26.5776 37.4812C25.9668 39.8783 26.601 42.5014 27.6349 44.6811C29.8191 49.2859 33.7163 52.4991 37.925 54.1417C42.1338 55.7844 46.6502 55.9796 51.0664 55.6058C53.8593 55.3694 56.6868 54.8953 59.2328 53.5024C61.8669 52.0613 64.0812 49.6973 65.9823 47.0841C68.1058 44.165 69.9357 40.7777 70.1356 36.8017C70.1964 35.5905 70.0572 34.3654 69.7349 33.2148C67.6033 25.6042 61.2858 28.52 56.5098 26.6338C54.7212 25.9274 49.8273 25.5982 47.8802 25.4923Z" fill="#009345"/>
<path d="M52.4006 24.2554C48.6537 23.9472 44.7755 24.303 41.1507 25.3905C37.4872 26.4895 33.9557 28.2236 30.7909 30.5012C29.1526 31.6801 27.5913 33.0025 26.1485 34.4496C25.4616 35.1386 24.795 35.8562 24.169 36.6102C23.6771 37.2027 23.2799 37.8006 23.0107 38.5415C22.7653 39.2169 22.7608 39.9332 22.8722 40.6386C23.0547 41.7944 23.8161 42.7391 24.6466 43.4326C25.4926 44.1389 26.4352 44.5692 27.4258 44.9907C29.3763 45.8206 31.3714 46.528 33.3971 47.1107C37.5496 48.3052 41.8458 48.9893 46.1394 49.164C50.4398 49.339 54.7575 48.9679 58.9861 48.1091C60.9588 47.7086 62.944 47.2292 64.8429 46.5185C66.4751 45.9076 68.0989 45.1161 69.4853 43.989C70.9925 42.7637 72.2485 41.2752 72.863 39.3122C73.4679 37.3801 73.2148 35.2004 72.3206 33.4249C70.5396 29.8886 66.763 28.2046 63.4129 27.0143C61.3101 26.2672 59.1693 25.645 57.0035 25.151C55.8222 24.8816 54.633 24.6338 53.4335 24.481C52.3518 24.3432 51.2355 24.1675 50.1452 24.1847C49.6051 24.1932 49.065 24.2097 48.5252 24.234C47.9317 24.2607 47.3555 24.393 46.7744 24.5193C46.3697 24.6073 46.0768 25.0819 46.0768 25.5095C46.0768 25.9691 46.3738 26.3669 46.7744 26.4997C47.2649 26.6622 47.7435 26.8413 48.2476 26.9454C48.7725 27.0538 49.296 27.17 49.8179 27.2939C50.8277 27.5335 51.8676 27.6525 52.884 27.8654C54.9769 28.3035 57.0633 28.706 59.1267 29.296C61.0361 29.8419 62.9569 30.4517 64.7881 31.257C64.8307 31.2758 64.8731 31.2952 64.9157 31.3137C65.08 31.3853 64.7243 31.2254 64.7412 31.234C64.8251 31.2764 64.9116 31.3136 64.9961 31.3544C65.1806 31.4432 65.3638 31.5351 65.5454 31.6305C65.9098 31.8217 66.2683 32.0265 66.6183 32.247C66.9519 32.4572 67.278 32.6817 67.5932 32.9229C67.668 32.9802 67.7416 33.0393 67.8157 33.0976C68.0474 33.28 67.555 32.8691 67.7761 33.0642C67.9275 33.1978 68.0777 33.3324 68.2227 33.474C68.5065 33.7509 68.7746 34.0471 69.0195 34.3645C69.0609 34.4181 69.255 34.6812 69.0819 34.4438C68.9099 34.208 69.0938 34.4722 69.1306 34.5313C69.2342 34.6975 69.3318 34.8677 69.4215 35.0432C69.5032 35.2031 69.5617 35.3825 69.6483 35.538C69.6583 35.5561 69.5138 35.1529 69.565 35.3276C69.5777 35.3711 69.5959 35.4136 69.6105 35.4564C69.6448 35.5576 69.6764 35.6597 69.7052 35.7628C69.7552 35.9414 69.797 36.1225 69.8303 36.3055C69.8576 36.456 69.8647 36.8165 69.8325 36.2519C69.8389 36.3639 69.8535 36.4755 69.8594 36.5877C69.8697 36.781 69.8709 36.9748 69.863 37.1681C69.8592 37.2625 69.8514 37.3563 69.845 37.4506C69.819 37.8391 69.9076 37.1067 69.8542 37.3844C69.7821 37.759 69.6784 38.1071 69.5734 38.4711C69.5195 38.6586 69.6714 38.2041 69.6643 38.2427C69.6572 38.2813 69.6292 38.3293 69.6132 38.3647C69.5768 38.445 69.5418 38.5259 69.5036 38.6051C69.4141 38.7909 69.3157 38.9716 69.2096 39.1469C69.1638 39.2226 69.1166 39.2972 69.0681 39.3708C69.0275 39.4325 68.8403 39.6991 69.0247 39.4392C69.2091 39.1793 69.0168 39.4429 68.971 39.5007C68.9064 39.5825 68.8405 39.6628 68.773 39.7417C68.5271 40.029 68.2621 40.2969 67.9844 40.5479C67.9165 40.6093 67.8467 40.6682 67.7782 40.7288C67.6365 40.8543 67.975 40.5671 67.9521 40.5838C67.9153 40.6106 67.8804 40.6418 67.8447 40.6702C67.6755 40.8047 67.5027 40.9336 67.3268 41.0577C66.6852 41.5102 66.0048 41.8968 65.3048 42.2322C65.2385 42.2639 64.9294 42.4066 65.2191 42.2742C65.5086 42.1419 65.1997 42.2811 65.1325 42.3102C64.9343 42.3958 64.7346 42.4775 64.5338 42.5556C64.1815 42.6926 63.8254 42.8183 63.4664 42.9331C62.5303 43.2324 61.5824 43.4996 60.6339 43.7485C59.6746 44.0002 58.709 44.2237 57.7386 44.4189C57.2342 44.5202 56.7285 44.6141 56.2217 44.7002C55.9879 44.7399 55.7537 44.7781 55.5194 44.8145C55.4023 44.8327 55.2849 44.8499 55.1678 44.868C54.9634 44.8995 55.3598 44.8405 55.3513 44.8415C55.2729 44.8509 55.1947 44.8638 55.1164 44.8745C53.1397 45.1474 51.1494 45.3048 49.1571 45.3475C47.1453 45.3905 45.1314 45.3164 43.127 45.1259C42.6357 45.0792 42.145 45.0256 41.655 44.9649C41.4198 44.9358 41.1847 44.905 40.9499 44.8727C40.8912 44.8646 40.8326 44.856 40.7739 44.8481C40.5715 44.8208 40.9565 44.8751 40.95 44.874C40.8135 44.8512 40.6762 44.8331 40.5395 44.8119C39.5429 44.6571 38.55 44.4735 37.5625 44.2608C35.6056 43.8394 33.6697 43.3043 31.7665 42.6568C30.8044 42.3294 29.8505 41.9734 28.9068 41.5889C28.6845 41.4984 28.4629 41.4062 28.2418 41.3125C28.1312 41.2657 28.0208 41.2185 27.9104 41.1707C27.8598 41.1489 27.8095 41.1258 27.7587 41.1046C27.5611 41.0223 28.1172 41.28 27.9233 41.1784C27.5673 40.9919 27.2164 40.8072 26.8851 40.5716C26.8174 40.5235 26.5202 40.2832 26.7536 40.4822C26.987 40.6813 26.7295 40.4567 26.6776 40.4073C26.5623 40.2976 26.3244 40.1151 26.2704 39.9557C26.2576 39.9177 26.4953 40.3265 26.411 40.1481C26.3921 40.1081 26.3618 40.0707 26.3396 40.0324C26.3178 39.9947 26.2051 39.8349 26.2168 39.793C26.2289 39.7496 26.3479 40.2264 26.3107 40.0334C26.3025 39.9909 26.2826 39.9474 26.2713 39.9056C26.2603 39.8657 26.2565 39.8124 26.2404 39.7751C26.1747 39.6227 26.253 40.1753 26.2646 40.0047C26.2701 39.9234 26.2722 39.8064 26.2618 39.7262C26.235 39.5192 26.2543 40.0298 26.2258 39.9844C26.2134 39.9646 26.2564 39.836 26.2622 39.8122C26.2716 39.7739 26.3146 39.6818 26.3088 39.6443C26.3104 39.6547 26.1479 39.9883 26.239 39.822C26.3037 39.7039 26.3578 39.5808 26.4277 39.4653C26.4576 39.4159 26.4916 39.369 26.521 39.3193C26.6422 39.1143 26.3052 39.5972 26.453 39.4127C26.5248 39.3231 26.5935 39.2306 26.6653 39.1411C26.8166 38.9529 26.9704 38.7671 27.1256 38.5827C28.324 37.1594 29.6284 35.8406 31.0193 34.6393C31.1017 34.5682 31.1843 34.4975 31.2673 34.4272C31.3088 34.3921 31.3514 34.3582 31.392 34.322C31.3954 34.3189 31.1265 34.5408 31.2705 34.424C31.4536 34.2754 31.6356 34.1255 31.8202 33.9791C32.1889 33.6868 32.5631 33.4023 32.9423 33.126C33.6702 32.5955 34.4167 32.0948 35.1795 31.6252C35.9558 31.1473 36.749 30.7015 37.5569 30.2893C37.95 30.0886 38.3683 29.9256 38.753 29.7083C38.7525 29.7087 38.4718 29.8349 38.6306 29.7641C38.6792 29.7425 38.7277 29.7203 38.7762 29.6987C38.8896 29.6481 39.0032 29.5982 39.1171 29.5489C39.3284 29.4574 39.5406 29.3681 39.7536 29.2811C41.4004 28.6083 43.1013 28.0592 44.8175 27.6354C45.6818 27.422 46.5538 27.2452 47.431 27.1069C47.5334 27.0907 47.6371 27.069 47.7402 27.0597C47.503 27.081 47.6796 27.0691 47.8054 27.0522C48.0309 27.0221 48.2565 26.9946 48.4825 26.9695C48.9167 26.9214 49.3517 26.8826 49.7873 26.8533C50.6575 26.7948 51.5294 26.7756 52.4011 26.7923C53.0153 26.8041 53.6029 26.2005 53.5748 25.5239C53.5445 24.7935 53.0579 24.3095 52.4006 24.2554Z" fill="#0B3335"/>
<path d="M25.3536 42.2093C25.5606 46.0437 27.5102 49.5339 30.1631 52.0067C33.2065 54.8433 37.2441 56.1836 41.1103 57.0505C43.1954 57.5181 45.3025 57.8982 47.4145 58.1917C49.4887 58.4799 51.5887 58.6356 53.6762 58.4321C55.8245 58.2227 57.8832 57.6717 59.8375 56.6779C61.4935 55.8358 63.0008 54.6738 64.3748 53.3738C65.721 52.1001 66.9369 50.6635 68.0455 49.1476C68.6644 48.3012 69.2642 47.4387 69.8435 46.5602C70.3648 45.7698 70.9483 44.9745 71.3519 44.1062C71.5545 43.6704 71.755 43.2335 71.9548 42.7962C72.2328 42.1875 72.1464 41.4843 71.6333 41.056C71.1779 40.6757 70.3952 40.6453 69.9942 41.1615C69.3809 41.951 68.7734 42.7234 68.24 43.5796C67.7507 44.3647 67.2515 45.1427 66.7355 45.9074C66.6014 46.1062 66.4662 46.304 66.3298 46.5008C66.2668 46.5915 66.2036 46.682 66.1402 46.7723C66.1085 46.8175 66.0766 46.8625 66.0449 46.9075C65.9122 47.096 66.0353 46.8679 66.0779 46.8623C65.9897 46.8738 65.7518 47.3111 65.6892 47.3954C65.5478 47.5864 65.4066 47.7776 65.2634 47.9669C64.7175 48.6889 64.1483 49.3907 63.5495 50.0621C62.9604 50.7224 62.3426 51.3532 61.6914 51.9416C61.5365 52.0814 61.3782 52.2163 61.2213 52.3537C61.0997 52.4602 61.2977 52.2927 61.299 52.2898C61.285 52.3217 61.2051 52.367 61.1785 52.3886C61.0847 52.4651 60.9901 52.5406 60.8951 52.6152C60.556 52.8808 60.2087 53.1342 59.8532 53.3733C59.4836 53.6219 59.1053 53.8552 58.7185 54.0711C58.5395 54.1711 58.3588 54.2673 58.1763 54.3596C58.0849 54.4059 57.993 54.4513 57.9008 54.4956C57.8642 54.5131 57.8015 54.5585 57.7618 54.5614C57.845 54.5551 57.9544 54.4766 57.7967 54.5451C56.8862 54.9408 55.9473 55.2463 54.9855 55.4577C54.7522 55.509 54.5179 55.5551 54.2828 55.5962C54.1652 55.6168 54.0474 55.635 53.9296 55.6543C54.1634 55.616 53.8094 55.6696 53.7358 55.6788C53.2399 55.7401 52.7421 55.7815 52.2435 55.8059C51.2391 55.8552 50.2325 55.8425 49.2287 55.7832C48.1991 55.7225 47.1724 55.6144 46.1488 55.4818C45.9085 55.4506 45.6683 55.4182 45.4282 55.3846C45.3683 55.3763 45.3084 55.3678 45.2485 55.3593C45.2493 55.3593 45.0529 55.3314 45.1615 55.3471C45.2701 55.3627 45.0733 55.3341 45.0742 55.3342C44.9943 55.3224 44.9145 55.3107 44.8346 55.2987C44.3477 55.226 43.8612 55.1506 43.3752 55.0719C39.5882 54.4587 35.7247 53.6078 32.4698 51.412C29.7456 49.5742 27.3433 46.8915 26.5059 43.396C26.4017 42.9612 26.3243 42.5205 26.2686 42.0755C26.1986 41.5152 25.3232 41.6464 25.3536 42.2093Z" fill="#0B3335"/>
<path d="M10.1306 89.5056C14.5168 88.6558 18.9158 87.8829 23.3255 87.1896C24.4224 87.0171 25.5201 86.8495 26.6183 86.6869C26.8767 86.6486 27.1351 86.6107 27.3936 86.5728C27.4438 86.5655 27.6699 86.5326 27.4081 86.5706C27.4727 86.5612 27.5372 86.5519 27.6018 86.5425C27.7524 86.5208 27.903 86.4991 28.0536 86.4776C28.5916 86.4005 29.1298 86.3247 29.6681 86.25C31.8858 85.9422 34.1059 85.6545 36.3281 85.3866C40.7523 84.8533 45.181 84.369 49.6178 83.9747C54.0546 83.5803 58.4962 83.2654 62.9421 83.03C67.3659 82.7958 71.7934 82.6404 76.2218 82.5637C76.7863 82.554 77.3507 82.5456 77.9152 82.5383C78.6848 82.5284 79.4229 81.8138 79.3871 80.9477C79.3518 80.0951 78.7401 79.3456 77.9152 79.3571C73.4429 79.4193 68.9716 79.5605 64.5037 79.7829C60.0571 80.0042 55.6137 80.3051 51.1763 80.6853C46.7174 81.0673 42.2599 81.5122 37.8171 82.0734C33.29 82.6453 28.7713 83.2978 24.2642 84.0304C19.862 84.7459 15.4707 85.5401 11.0928 86.4127C10.5374 86.5233 9.98234 86.6354 9.42736 86.7485C8.74593 86.8874 8.29599 87.8143 8.50342 88.5069C8.74063 89.2992 9.39906 89.6473 10.1306 89.5056Z" fill="#0B3335"/>
<path d="M35.1274 95.9972C40.4019 95.6041 45.6625 95.0334 50.9318 94.5633C56.2039 94.0928 61.4795 93.6695 66.7581 93.2934C68.2475 93.1873 69.7371 93.085 71.227 92.9864C71.9499 92.9385 72.673 92.8915 73.3962 92.8455C73.7687 92.8218 74.1415 92.802 74.5138 92.7749C75.0186 92.7383 75.4632 92.6055 75.9422 92.4488C76.5174 92.2606 77.0098 91.6519 76.9817 90.9733C76.9558 90.3469 76.5662 89.6122 75.9422 89.4978C75.5456 89.4251 75.1101 89.2983 74.7111 89.3029C74.3832 89.3066 74.0521 89.3495 73.7249 89.3742C73.0456 89.4256 72.3663 89.4778 71.6871 89.5308C70.3724 89.6333 69.058 89.7387 67.7437 89.847C65.0931 90.0656 62.4435 90.2959 59.7948 90.5382C54.4966 91.0227 49.2021 91.5548 43.912 92.1343C42.4473 92.2948 40.9828 92.4588 39.5188 92.6266C37.9382 92.8077 36.3646 93.0686 34.7907 93.3081C34.1695 93.4026 33.8089 94.2124 33.8832 94.8103C33.9618 95.4425 34.4964 96.0443 35.1274 95.9972Z" fill="#0B3335"/>
<path d="M40.3032 37.0855C41.3485 37.7564 42.4812 38.1187 43.6805 38.2719C44.1534 38.3324 44.6301 38.3432 45.1045 38.2945C45.4562 38.2584 45.806 38.2167 46.1406 38.0909C46.6026 37.9173 46.9492 37.6449 47.2872 37.2778C47.6435 36.8907 47.7858 36.3167 47.6514 35.789C47.5301 35.3133 47.1348 34.8088 46.6623 34.7202C46.3304 34.6581 45.9972 34.5499 45.6587 34.5847C45.2943 34.6222 44.9344 34.6831 44.5724 34.7397L45.0186 34.6749C44.4158 34.7601 43.8114 34.7591 43.2089 34.6724L43.6416 34.7353C43.0678 34.6444 42.512 34.4791 41.9772 34.2362L42.3546 34.4082C42.1946 34.3329 42.0379 34.2519 41.8831 34.1647C41.1576 33.7564 40.1497 33.9372 39.7418 34.7714C39.3432 35.5869 39.5511 36.6028 40.3032 37.0855Z" fill="#0B3335"/>
<path d="M47.5732 34.4718C47.3886 34.499 47.6395 34.4688 47.6732 34.4664C47.7314 34.4623 47.7897 34.4595 47.848 34.4583C47.9971 34.455 48.1464 34.4608 48.295 34.4749C48.5911 34.5028 48.8866 34.4847 49.1834 34.5237L48.8856 34.4804C49.2712 34.5369 49.644 34.6466 50.0037 34.807L49.6984 34.6678C49.8819 34.753 50.0707 34.8784 50.2607 34.9296C50.4606 34.9835 50.6651 34.9868 50.8695 34.999C51.3537 35.028 51.8133 34.6414 51.9924 34.1827C52.1738 33.7182 52.1054 33.0839 51.7384 32.732C51.48 32.4843 51.215 32.2551 50.8674 32.1749C50.6175 32.1173 50.3581 32.0883 50.1031 32.0681C49.6938 32.0355 49.2905 32.0799 48.8856 32.1451C48.4991 32.2075 48.1177 32.3081 47.7754 32.5192C47.4604 32.7134 47.1657 32.9538 46.8963 33.2154C46.6768 33.4286 46.6278 33.8586 46.7876 34.1264C46.9708 34.4335 47.2519 34.5191 47.5732 34.4718Z" fill="#0B3335"/>
<path d="M47.8264 40.6627L55.7428 40.5019C56.6648 40.4831 57.5498 39.6386 57.5067 38.5958C57.4671 37.6431 56.7266 36.5897 55.7428 36.6897L47.8264 37.4948C47.0653 37.5722 46.323 38.1679 46.3608 39.0787C46.3957 39.9235 47.0051 40.6794 47.8264 40.6627Z" fill="#0B3335"/>
<path d="M18.9267 60.2529L23.2818 60.3603C24.1919 60.3828 25.0622 59.48 25.0207 58.4812C24.9793 57.4824 24.2561 56.578 23.2818 56.602L18.9267 56.7095C18.0698 56.7305 17.2468 57.5093 17.2871 58.4813C17.3276 59.4594 18.0073 60.2302 18.9267 60.2529Z" fill="#0B3335"/>
<path d="M22.1707 62.7712L23.5694 63.1666C23.8525 63.2467 24.1337 63.3393 24.4238 63.3814C24.8125 63.4379 25.2192 63.323 25.6068 63.2555L25.9094 63.1175L26.1658 62.9034C26.3639 62.6893 26.4774 62.4139 26.5143 62.1173C26.5455 61.8668 26.5187 61.6408 26.4278 61.4079C26.3268 61.1492 26.1491 60.883 25.9094 60.7532C25.6234 60.5982 25.3139 60.389 25.0076 60.3019C24.6763 60.2075 24.2838 60.2279 23.9397 60.2099L22.501 60.1347C22.2054 60.1193 21.8228 60.2924 21.6227 60.5279C21.4344 60.7496 21.3183 60.999 21.2811 61.2986C21.2008 61.9448 21.5687 62.601 22.1707 62.7712Z" fill="#0B3335"/>
<path d="M26.4493 58.7994L28.4289 58.9874C28.6615 58.9969 28.8784 58.9444 29.0797 58.8301C29.2892 58.7565 29.4704 58.6307 29.6234 58.4527C29.7881 58.2873 29.9046 58.0916 29.9726 57.8652C30.0784 57.6477 30.1268 57.4133 30.1181 57.162C30.0985 56.6898 29.955 56.2002 29.6234 55.8711C29.3098 55.5601 28.8701 55.2945 28.4288 55.3364L26.4492 55.5244C26.2406 55.5159 26.046 55.5629 25.8654 55.6654C25.6776 55.7315 25.515 55.8443 25.3777 56.0039C25.2299 56.1523 25.1254 56.328 25.0644 56.5309C24.9695 56.7261 24.926 56.9364 24.9339 57.1618C24.9515 57.5854 25.0802 58.0246 25.3777 58.3197L25.6844 58.5758C25.9208 58.7239 26.1757 58.7985 26.4493 58.7994Z" fill="#0B3335"/>
<path d="M74.9948 59.246L70.6396 59.1386C69.7296 59.1161 68.8593 60.019 68.9007 61.0177C68.9422 62.0165 69.6653 62.921 70.6396 62.8969L74.9948 62.7895C75.8516 62.7684 76.6747 61.9896 76.6344 61.0176C76.5939 60.0396 75.9142 59.2687 74.9948 59.246Z" fill="#0B3335"/>
<path d="M71.7506 56.7273L70.3519 56.3319C70.0688 56.2519 69.7876 56.1593 69.4975 56.1172C69.1088 56.0607 68.7021 56.1756 68.3145 56.2431L68.0119 56.3811L67.7555 56.5952C67.5574 56.8092 67.4439 57.0847 67.407 57.3813C67.3758 57.6318 67.4025 57.8577 67.4935 58.0907C67.5945 58.3493 67.7721 58.6155 68.0119 58.7454C68.2979 58.9004 68.6074 59.1096 68.9137 59.1967C69.245 59.2911 69.6375 59.2707 69.9816 59.2887L71.4203 59.3638C71.7159 59.3793 72.0985 59.2062 72.2986 58.9707C72.4869 58.749 72.603 58.4996 72.6402 58.2C72.7205 57.5538 72.3526 56.8975 71.7506 56.7273Z" fill="#0B3335"/>
<path d="M67.4722 60.6993L65.4926 60.5113C65.26 60.5018 65.0431 60.5543 64.8418 60.6686C64.6323 60.7423 64.4511 60.868 64.2981 61.046C64.1334 61.2114 64.0169 61.4072 63.9489 61.6335C63.8431 61.851 63.7947 62.0855 63.8034 62.3368C63.823 62.8089 63.9665 63.2986 64.2981 63.6277C64.6117 63.9386 65.0514 64.2042 65.4927 64.1623L67.4723 63.9744C67.6809 63.9828 67.8755 63.9359 68.0561 63.8334C68.2439 63.7673 68.4065 63.6545 68.5438 63.4948C68.6915 63.3465 68.7961 63.1708 68.8571 62.9678C68.952 62.7726 68.9955 62.5623 68.9876 62.3369C68.97 61.9133 68.8413 61.4742 68.5438 61.179L68.237 60.9229C68.0007 60.7748 67.7458 60.7002 67.4722 60.6993Z" fill="#0B3335"/>
</g>
<defs>
<clipPath id="clip0_2580_4432">
<rect width="95.2471" height="92" fill="white" transform="translate(2 4)"/>
</clipPath>
</defs>
</svg>
