<svg xmlns="http://www.w3.org/2000/svg" fill="none" viewBox="0 0 100 100"><g clip-path="url(#a)"><path fill="#0b3335" d="M69.107 52.325a27 27 0 0 0 3.322-2.821c1.033-1.03 1.924-2.243 2.767-3.455 1.687-2.426 3.005-5.098 4.083-7.895 2.375-6.163 3.221-12.943 3.13-19.587-.055-4.12-.454-8.22-.987-12.298-.039-.293-.276-.657-.465-.861a1.73 1.73 0 0 0-1.037-.537c-.68-.099-1.47.24-1.8.932-1.274 2.667-2.38 5.429-3.53 8.159a234 234 0 0 0-3.418 8.58c-2.049 5.448-4.098 11.033-4.927 16.878-.245 1.726-.442 3.482-.383 5.232q.039 1.194.18 2.38c.06.517.127 1.034.214 1.548.07.419.22.804.367 1.198.245.659.738 1.11 1.43 1.01.638-.093 1.128-.678 1.132-1.384.001-.35.03-.705.006-1.053-.024-.352-.06-.703-.08-1.056a27 27 0 0 1-.041-2.18 47 47 0 0 1 .278-4.232c.029-.257-.045.332-.01.076l.036-.264a41 41 0 0 1 .26-1.646q.19-1.056.427-2.099c.317-1.4.692-2.784 1.106-4.154.843-2.798 1.836-5.544 2.858-8.27a223 223 0 0 1 .97-2.545q.038-.095.075-.19c.093-.24-.116.294-.021.054l.424-1.075a221 221 0 0 1 1.646-4.022c1.28-3.044 2.73-5.99 4.12-8.975l-3.3-.466q.084.61.166 1.222l.088.68c.014.108.04.38-.013-.106q.024.204.05.41.155 1.297.281 2.6c.167 1.734.292 3.475.36 5.218.132 3.417.06 6.863-.322 10.26l-.04.339c-.031.285.06-.45.001-.002l-.072.543q-.095.678-.207 1.353a46 46 0 0 1-.427 2.231 43 43 0 0 1-1.104 4.097q-.33 1.02-.713 2.017c-.038.101-.1.355.011-.026-.02.07-.057.143-.083.209a38 38 0 0 1-.615 1.444 35 35 0 0 1-1.953 3.727 26 26 0 0 1-1.26 1.914 29 29 0 0 1-1.237 1.574c-.988 1.192-1.998 2.333-3.142 3.354-.443.395-.413 1.188-.09 1.639.332.465 1.007.667 1.49.32"/><path fill="#0b3335" d="M72.144 52.237c.98.247 2.013.447 3.022.474 1.007.027 2.026-.107 3.02-.267 1.936-.313 3.789-.973 5.573-1.83 3.44-1.655 6.455-4.272 8.976-7.27 1.47-1.747 2.809-3.625 4.075-5.549.167-.254.246-.68.246-.985 0-.434-.145-.843-.387-1.183-.429-.599-1.205-.931-1.9-.7-1.815.608-3.582 1.41-5.36 2.133a123 123 0 0 0-5.53 2.415c-3.091 1.437-6.13 2.98-8.792 5.232-.68.575-1.315 1.188-1.864 1.909-.336.44-.66.896-.96 1.368a4.9 4.9 0 0 0-.657 1.554c-.135.585.085 1.298.6 1.592.548.313 1.114.196 1.58-.22l.203-.18c.035-.03.162-.133-.01.007-.268.218.22-.185.218-.182.133-.144.244-.32.367-.474q.374-.467.783-.9a27 27 0 0 1 1.856-1.78l.105-.09c.208-.178-.11.088-.121.1.122-.145.32-.258.468-.373q.459-.354.932-.682a28 28 0 0 1 2.005-1.26c1.406-.81 2.861-1.513 4.323-2.192.201-.094.404-.184.604-.279l-.148.068.151-.068a141 141 0 0 1 1.67-.74q1.27-.55 2.552-1.07c1.971-.798 3.99-1.41 5.986-2.123l-2.04-2.867a66 66 0 0 1-1.931 2.877l.278-.39a43 43 0 0 1-3.102 3.883c-.541.596-1.096 1.18-1.67 1.74a29 29 0 0 1-1.25 1.15q-.113.098-.227.195l-.05.04a22.5 22.5 0 0 1-3.99 2.617q-.267.135-.535.262l-.09.042q-.226.105.095-.042c-.041-.014-.23.102-.273.12a20 20 0 0 1-1.107.438 18 18 0 0 1-2.946.793l-.29.048-.111.016c-.425.054-.85.084-1.276.113-.926.06-1.836.12-2.764.058-.573-.038-1.063.505-1.135 1.083-.073.588.265 1.228.828 1.37m-5.508-13.046c.648-2.056.912-4.163.843-6.332a27 27 0 0 0-.966-6.323c-1.126-4.07-3.146-7.714-5.64-10.97-1.314-1.715-2.753-3.313-4.25-4.841-.563-.575-1.506-.78-2.188-.305-.719.5-.977 1.313-.83 2.204.341 2.067.86 4.105 1.308 6.146q.671 3.061 1.471 6.087c.928 3.508 1.94 7.086 3.666 10.247.496.91 1.058 1.77 1.722 2.547.28.328.573.645.881.942.226.219.48.483.738.648.256.163.556.275.828.396.473.21 1.088-.11 1.37-.505.311-.435.38-1.084.103-1.566a9 9 0 0 0-.837-1.207q-.159-.194-.31-.393c-.052-.067-.115-.193-.181-.242q.218.308.07.097l-.114-.165a28 28 0 0 1-1.256-2.03c-.4-.711-.757-1.45-1.082-2.205a29 29 0 0 1-.246-.588c-.04-.098-.074-.202-.119-.298.013.028.155.407.05.128a46 46 0 0 1-.474-1.315c-1.214-3.565-2.09-7.286-2.893-10.98-.488-2.247-.805-4.52-1.212-6.782l-3.019 1.899a55 55 0 0 1 3.733 4.04 41 41 0 0 1 1.456 1.864c.045.062.294.407.123.168s.072.103.12.17l.189.275q.203.298.405.598.388.578.753 1.173.734 1.197 1.358 2.465.325.66.614 1.341c.09.21.167.427.26.634 0 .001-.123-.323-.057-.144l.061.162a26.5 26.5 0 0 1 .965 3.166 25 25 0 0 1 .416 2.185l.048.348c.025.184-.018-.124-.016-.129-.014.061.02.172.026.235.117 1.095.16 2.2.117 3.303-.022.569-.038 1.14-.074 1.708q-.026.412-.07.821c-.008.079-.054.426-.02.183q-.032.239-.068.476c-.099.642.155 1.375.807 1.536.64.157 1.212-.21 1.421-.872"/><path fill="#009345" d="M27.608 49.985a6 6 0 0 0-1.55.121c-4.7 1.014-9.28 2.7-13.594 5.008-2.331 1.247-4.78 2.93-5.533 5.68-.593 2.16.022 4.525 1.026 6.49 2.12 4.152 5.903 7.049 9.988 8.53s8.469 1.657 12.755 1.32c2.711-.213 5.455-.64 7.927-1.897 2.556-1.299 4.706-3.43 6.551-5.786 2.061-2.632 3.837-5.686 4.031-9.27a9.5 9.5 0 0 0-.389-3.234c-2.069-6.861-8.2-4.233-12.836-5.933-1.736-.637-6.487-.934-8.376-1.03"/><path fill="#0b3335" d="M31.599 47.038c-3.747-.308-7.625.048-11.25 1.135a35 35 0 0 0-10.36 5.11 37.5 37.5 0 0 0-4.642 3.95 32 32 0 0 0-1.98 2.16c-.492.592-.89 1.19-1.158 1.931-.246.676-.25 1.392-.139 2.097.183 1.156.944 2.1 1.775 2.794.846.707 1.788 1.137 2.779 1.558 1.95.83 3.945 1.538 5.971 2.12a54 54 0 0 0 12.742 2.054c4.3.175 8.619-.196 12.847-1.055 1.973-.4 3.958-.88 5.857-1.59 1.632-.612 3.256-1.403 4.642-2.53 1.508-1.226 2.764-2.714 3.378-4.677.605-1.932.352-4.112-.542-5.887-1.781-3.537-5.558-5.22-8.908-6.411a57 57 0 0 0-6.41-1.863c-1.18-.27-2.37-.518-3.57-.67-1.081-.138-2.197-.314-3.288-.297q-.81.013-1.62.05c-.593.026-1.17.159-1.75.285-.405.088-.698.563-.698.99 0 .46.297.858.697.99.49.163.97.342 1.474.446a55 55 0 0 1 1.57.349c1.01.24 2.05.358 3.066.571 2.093.438 4.18.84 6.243 1.43 1.91.547 3.83 1.156 5.661 1.962l.128.056c.164.072-.192-.088-.175-.08.084.043.17.08.255.121q.277.133.55.276.547.286 1.072.617.502.314.975.676.112.086.223.174c.231.183-.261-.228-.04-.033.152.134.302.268.447.41.283.277.552.573.796.89.042.054.236.317.063.08-.172-.236.012.028.049.087q.155.248.29.512c.082.16.14.34.227.495.01.018-.134-.385-.083-.21q.021.064.045.128a6 6 0 0 1 .22.85c.028.15.035.51.002-.054.007.112.021.223.027.336q.016.29.004.58-.007.141-.018.282c-.026.389.063-.344.01-.066-.073.375-.177.723-.282 1.087-.054.187.098-.267.091-.228s-.035.086-.05.121q-.054.122-.11.24a6.5 6.5 0 0 1-.436.767c-.04.061-.228.328-.043.068.184-.26-.008.004-.054.061q-.097.123-.198.241a9 9 0 0 1-.789.807q-.102.09-.206.18c-.142.126.197-.161.174-.145q-.055.042-.107.087-.255.201-.518.387c-.642.453-1.322.84-2.022 1.175-.067.032-.376.174-.086.042s-.02.007-.087.036a18 18 0 0 1-1.666.623 56 56 0 0 1-5.727 1.486 51 51 0 0 1-2.22.395l-.351.054.183-.027-.235.033a52.02 52.02 0 0 1-14.167-.002l-.175-.024c-.203-.028.182.027.176.026-.137-.023-.274-.041-.41-.062a52 52 0 0 1-8.774-2.156 52 52 0 0 1-3.856-1.486l-.151-.066c-.198-.082.358.176.164.074a9 9 0 0 1-1.038-.607c-.068-.048-.365-.288-.131-.089s-.025-.026-.076-.075c-.116-.11-.354-.292-.408-.452-.012-.038.225.371.14.193-.018-.04-.048-.078-.07-.116s-.135-.197-.123-.24.13.434.094.241c-.008-.042-.028-.086-.04-.128-.01-.04-.014-.093-.03-.13-.066-.153.012.4.024.23a1.6 1.6 0 0 0-.003-.28c-.027-.206-.008.304-.036.26-.013-.02.03-.15.036-.173.01-.038.053-.13.047-.168.001.01-.161.344-.07.178.065-.118.119-.242.189-.357.03-.05.064-.096.093-.146.121-.205-.216.278-.068.093.072-.09.14-.182.212-.271q.228-.282.46-.559a35 35 0 0 1 4.142-4.155l.125-.105c.003-.003-.266.218-.122.102q.275-.225.55-.445a34.7 34.7 0 0 1 5.737-3.69c.393-.2.811-.364 1.196-.581 0 0-.281.127-.122.056l.145-.066a36 36 0 0 1 .978-.417 37 37 0 0 1 5.064-1.646q1.297-.32 2.613-.528c.102-.017.206-.038.31-.048-.238.022-.061.01.064-.007a30 30 0 0 1 1.982-.199q1.305-.088 2.614-.06c.614.01 1.202-.593 1.174-1.27-.03-.73-.517-1.214-1.174-1.268"/><path fill="#0b3335" d="M4.551 64.992c.207 3.835 2.157 7.325 4.81 9.797 3.043 2.837 7.081 4.177 10.947 5.044a78 78 0 0 0 6.304 1.141c2.075.289 4.175.444 6.262.24 2.148-.209 4.207-.76 6.161-1.753 1.656-.842 3.164-2.004 4.538-3.304 1.346-1.274 2.562-2.71 3.67-4.227a65 65 0 0 0 1.798-2.587c.522-.79 1.105-1.586 1.509-2.454q.303-.654.603-1.31c.278-.609.191-1.312-.322-1.74-.455-.38-1.238-.41-1.639.105-.613.79-1.22 1.562-1.754 2.418a77 77 0 0 1-1.91 2.921l-.19.272-.095.135c-.133.189-.01-.04.033-.045-.088.012-.326.449-.389.533q-.212.287-.426.572a33 33 0 0 1-1.714 2.095 25 25 0 0 1-1.858 1.88c-.155.14-.313.274-.47.411-.121.107.077-.06.078-.064-.014.032-.094.078-.12.1l-.284.226a18 18 0 0 1-1.042.758 16 16 0 0 1-1.952 1.122c-.037.018-.1.063-.14.066.084-.006.193-.085.036-.016a15.3 15.3 0 0 1-3.514 1.05q-.177.031-.354.059c.234-.038-.12.015-.193.024a20 20 0 0 1-1.493.128c-1.004.049-2.01.036-3.014-.023a44 44 0 0 1-3.08-.302 76 76 0 0 1-2.774-.41c-3.787-.613-7.65-1.464-10.905-3.66-2.725-1.837-5.127-4.52-5.964-8.015a12 12 0 0 1-.238-1.32c-.07-.561-.945-.43-.915.133"/><path fill="#009345" d="M67.564 51.255a6 6 0 0 0-1.55.121c-4.699 1.014-9.28 2.7-13.593 5.008-2.332 1.247-4.78 2.93-5.534 5.68-.593 2.16.023 4.525 1.026 6.49 2.12 4.152 5.903 7.049 9.988 8.53s8.47 1.657 12.756 1.32c2.71-.213 5.455-.64 7.926-1.897 2.557-1.299 4.706-3.43 6.551-5.786 2.062-2.632 3.838-5.686 4.032-9.27a9.5 9.5 0 0 0-.39-3.234c-2.068-6.861-8.2-4.233-12.836-5.933-1.736-.637-6.486-.934-8.376-1.03"/><path fill="#0b3335" d="M73.236 47.822c-3.747-.308-7.625.048-11.25 1.135a35 35 0 0 0-10.36 5.111 37.5 37.5 0 0 0-4.642 3.949 32 32 0 0 0-1.98 2.16c-.491.593-.888 1.19-1.158 1.931-.245.676-.25 1.392-.138 2.098.182 1.155.944 2.1 1.774 2.793.846.707 1.789 1.137 2.78 1.559a52 52 0 0 0 5.97 2.12 54 54 0 0 0 12.743 2.053c4.3.175 8.618-.196 12.847-1.055 1.972-.4 3.958-.88 5.857-1.59 1.632-.611 3.256-1.403 4.642-2.53 1.507-1.225 2.763-2.714 3.378-4.677.605-1.932.351-4.112-.543-5.887-1.78-3.536-5.557-5.22-8.907-6.41a57 57 0 0 0-6.41-1.864c-1.181-.27-2.37-.517-3.57-.67-1.082-.138-2.198-.314-3.288-.296q-.81.013-1.62.049c-.594.027-1.17.159-1.75.285-.406.088-.699.563-.699.99 0 .46.297.858.698.99.49.163.97.342 1.473.446a55 55 0 0 1 1.57.349c1.01.24 2.05.358 3.067.571 2.093.438 4.179.84 6.242 1.43 1.91.547 3.83 1.157 5.662 1.962l.127.057c.165.071-.191-.089-.174-.08q.127.062.255.12.276.133.55.276.546.287 1.072.617.502.315.975.676.112.086.222.175c.232.182-.26-.229-.04-.034q.229.199.447.41.428.415.797.89c.042.054.236.317.062.08-.171-.236.012.028.05.087q.155.25.29.512c.082.16.14.34.227.495.01.018-.134-.385-.083-.21.012.043.03.085.045.128a6 6 0 0 1 .22.85c.027.15.034.51.002-.054.007.112.021.223.027.336q.015.29.004.58-.008.141-.018.282c-.026.389.062-.343.009-.066-.072.375-.176.723-.28 1.087-.055.187.097-.267.09-.228s-.035.086-.051.122q-.054.12-.11.24a6.5 6.5 0 0 1-.435.766c-.04.061-.228.328-.044.068s-.007.004-.053.062q-.097.122-.198.24a9 9 0 0 1-.789.807q-.103.09-.206.18c-.142.126.197-.161.174-.144-.037.026-.072.058-.108.086q-.254.202-.517.388c-.642.452-1.322.839-2.022 1.174-.067.032-.376.174-.086.042s-.02.007-.087.036a18 18 0 0 1-1.666.623 56 56 0 0 1-5.728 1.486 52 52 0 0 1-2.219.395l-.351.054.183-.027-.235.033a51.7 51.7 0 0 1-11.99.252 52 52 0 0 1-2.176-.253l-.176-.025c-.203-.027.182.027.176.026-.137-.023-.274-.041-.41-.062a52 52 0 0 1-8.774-2.155 52 52 0 0 1-3.856-1.486l-.152-.067c-.197-.082.359.176.165.074a9 9 0 0 1-1.038-.607c-.068-.048-.365-.288-.132-.089.234.2-.024-.025-.076-.075-.115-.11-.353-.292-.407-.451-.013-.038.225.37.14.192-.018-.04-.048-.077-.07-.116-.022-.037-.135-.197-.123-.24s.13.434.093.241c-.008-.042-.028-.086-.04-.128-.01-.04-.014-.093-.03-.13-.066-.152.013.4.024.23a1.6 1.6 0 0 0-.002-.279c-.027-.207-.008.304-.036.258-.013-.02.03-.148.036-.172.01-.038.052-.13.047-.168.001.01-.161.344-.07.178.064-.118.119-.241.188-.357.03-.05.064-.096.094-.146.12-.205-.216.278-.068.093.072-.089.14-.182.212-.271q.227-.282.46-.558a35 35 0 0 1 4.142-4.156q.063-.052.125-.105c.003-.003-.266.219-.122.102q.274-.225.55-.445a34.6 34.6 0 0 1 5.737-3.69c.393-.2.811-.364 1.196-.58l-.123.055.146-.065a33 33 0 0 1 .977-.418 37 37 0 0 1 5.064-1.646q1.298-.32 2.614-.528c.102-.016.206-.038.309-.047-.237.02-.06.009.065-.008a31 31 0 0 1 1.982-.199q1.306-.087 2.614-.06c.614.011 1.202-.593 1.174-1.27-.03-.73-.517-1.214-1.175-1.268"/><path fill="#0b3335" d="M46.19 65.776c.206 3.835 2.156 7.325 4.809 9.798 3.043 2.836 7.08 4.177 10.947 5.043 2.085.468 4.192.848 6.304 1.142 2.074.288 4.174.444 6.262.24 2.148-.21 4.207-.76 6.161-1.754 1.656-.842 3.163-2.004 4.537-3.304 1.347-1.274 2.562-2.71 3.671-4.227a65 65 0 0 0 1.798-2.587c.521-.79 1.105-1.586 1.509-2.454q.303-.654.602-1.31c.278-.609.192-1.312-.321-1.74-.456-.38-1.238-.41-1.64.105-.613.79-1.22 1.562-1.753 2.418a77 77 0 0 1-1.91 2.922l-.19.271-.095.135c-.133.189-.01-.04.033-.045-.089.012-.327.449-.39.533q-.21.287-.425.572a33 33 0 0 1-1.714 2.095 25 25 0 0 1-1.858 1.88c-.155.14-.313.274-.47.412-.122.106.076-.061.078-.064-.014.032-.094.077-.12.098l-.284.227q-.51.4-1.042.758a16 16 0 0 1-1.953 1.122c-.036.018-.099.063-.139.066.084-.006.193-.085.035-.016a15.3 15.3 0 0 1-3.514 1.051l-.353.058c.234-.038-.12.015-.194.025q-.743.09-1.492.127c-1.004.05-2.011.036-3.015-.023a44 44 0 0 1-3.08-.301q-.36-.047-.72-.098l-.267-.037c.109.015-.088-.013-.087-.013l-.24-.035q-.73-.11-1.46-.227c-3.786-.613-7.65-1.464-10.905-3.66-2.724-1.838-5.126-4.52-5.963-8.016a12 12 0 0 1-.238-1.32c-.07-.56-.945-.43-.915.133"/><path fill="#009345" d="M47.88 25.492a5.7 5.7 0 0 0-1.596.135c-4.842 1.124-9.562 2.996-14.005 5.554-2.402 1.383-4.924 3.25-5.701 6.3-.611 2.397.023 5.02 1.057 7.2 2.184 4.605 6.081 7.818 10.29 9.46s8.725 1.839 13.141 1.465c2.793-.237 5.62-.71 8.167-2.104 2.634-1.44 4.848-3.805 6.75-6.418 2.123-2.919 3.953-6.306 4.153-10.282a11.3 11.3 0 0 0-.401-3.587c-2.132-7.61-8.45-4.695-13.225-6.581-1.789-.707-6.683-1.036-8.63-1.142"/><path fill="#0b3335" d="M52.4 24.255c-3.746-.308-7.625.048-11.25 1.136a35 35 0 0 0-10.36 5.11 37.5 37.5 0 0 0-4.641 3.949 32 32 0 0 0-1.98 2.16c-.492.593-.89 1.19-1.158 1.932-.246.675-.25 1.391-.139 2.097.183 1.155.944 2.1 1.775 2.794.846.706 1.788 1.136 2.779 1.558a52 52 0 0 0 5.971 2.12 54.1 54.1 0 0 0 12.742 2.053c4.3.175 8.618-.196 12.847-1.055 1.973-.4 3.958-.88 5.857-1.59 1.632-.611 3.256-1.403 4.642-2.53 1.507-1.225 2.763-2.714 3.378-4.677.605-1.932.352-4.112-.542-5.887-1.781-3.536-5.558-5.22-8.908-6.41a57 57 0 0 0-6.41-1.864c-1.18-.27-2.37-.517-3.57-.67-1.081-.138-2.198-.314-3.288-.296q-.81.012-1.62.049c-.593.027-1.17.159-1.75.285-.405.088-.698.563-.698.99 0 .46.297.858.697.99.49.163.97.342 1.474.446a55 55 0 0 1 1.57.349c1.01.24 2.05.358 3.066.571 2.093.438 4.18.841 6.243 1.431 1.91.546 3.83 1.156 5.661 1.961l.128.057c.164.071-.192-.089-.175-.08q.127.062.255.12.277.134.55.276.546.287 1.072.617.502.315.975.676.112.086.223.175c.231.182-.261-.229-.04-.034q.229.199.447.41.428.415.797.89c.04.054.235.317.062.08-.172-.236.012.028.049.087q.155.25.29.512c.082.16.14.34.227.495.01.018-.134-.385-.083-.21q.02.065.046.128a6 6 0 0 1 .22.85c.027.15.034.51.002-.054.006.112.02.223.026.336q.016.29.004.58-.008.14-.018.283c-.026.388.063-.344.01-.067-.073.375-.177.723-.282 1.087-.053.188.098-.267.091-.228s-.035.086-.05.122q-.054.12-.11.24a6.5 6.5 0 0 1-.436.766c-.04.061-.228.328-.043.068s-.008.004-.054.062q-.097.122-.198.24a9 9 0 0 1-.789.807q-.102.09-.206.18c-.141.126.197-.16.174-.144q-.055.042-.107.086-.255.202-.518.388c-.642.452-1.322.839-2.022 1.174-.066.032-.376.175-.086.042s-.02.007-.086.036a18 18 0 0 1-1.667.623 56 56 0 0 1-5.727 1.486 52 52 0 0 1-2.22.395l-.351.054.183-.027q-.117.016-.235.033a51.7 51.7 0 0 1-11.989.252 52 52 0 0 1-2.177-.253l-.176-.025c-.202-.027.183.027.176.026-.136-.023-.274-.04-.41-.062a52 52 0 0 1-8.773-2.155 52 52 0 0 1-3.857-1.486q-.075-.034-.151-.066c-.198-.083.358.175.164.073a9 9 0 0 1-1.038-.606c-.068-.049-.365-.289-.131-.09.233.2-.024-.025-.076-.075-.116-.11-.354-.292-.408-.451-.012-.038.225.37.141.192-.019-.04-.05-.077-.071-.116-.022-.037-.135-.197-.123-.239.012-.043.13.433.094.24-.008-.042-.028-.086-.04-.127-.01-.04-.014-.094-.03-.13-.066-.153.012.4.024.229a1.6 1.6 0 0 0-.003-.279c-.027-.207-.008.304-.036.258-.013-.02.03-.148.036-.172.01-.038.053-.13.047-.168.001.01-.161.344-.07.178.065-.118.119-.241.189-.357.03-.05.064-.096.093-.146.121-.205-.216.278-.068.094.072-.09.14-.182.212-.272q.228-.282.46-.558a35 35 0 0 1 4.142-4.156q.063-.052.125-.105c.003-.003-.265.219-.121.102q.273-.225.55-.445a34.7 34.7 0 0 1 5.736-3.69c.393-.2.811-.363 1.196-.58l-.122.055.145-.065a33 33 0 0 1 .978-.418 37 37 0 0 1 5.064-1.646q1.297-.32 2.613-.528c.102-.016.206-.038.31-.047-.238.021-.061.01.064-.008a31 31 0 0 1 1.982-.199q1.306-.086 2.614-.06c.614.011 1.202-.593 1.174-1.27-.03-.73-.517-1.214-1.174-1.268"/><path fill="#0b3335" d="M25.354 42.21c.207 3.834 2.156 7.324 4.81 9.797 3.042 2.836 7.08 4.177 10.946 5.043 2.085.468 4.193.848 6.305 1.142 2.074.288 4.174.444 6.261.24 2.148-.21 4.207-.76 6.161-1.754 1.656-.842 3.164-2.004 4.538-3.304 1.346-1.274 2.562-2.71 3.67-4.226a65 65 0 0 0 1.798-2.588c.522-.79 1.105-1.586 1.509-2.454q.303-.654.603-1.31c.278-.609.191-1.312-.322-1.74-.455-.38-1.238-.41-1.639.105-.613.79-1.22 1.562-1.754 2.419a77 77 0 0 1-1.91 2.92l-.19.272-.095.136c-.133.188-.01-.04.033-.046-.088.012-.326.45-.389.533q-.21.288-.426.572a34 34 0 0 1-1.713 2.095c-.59.66-1.207 1.291-1.859 1.88-.154.14-.313.274-.47.412-.121.106.077-.061.078-.064-.014.032-.094.077-.12.099q-.141.115-.284.226-.508.4-1.042.758a16 16 0 0 1-1.952 1.123c-.037.017-.1.062-.14.065.084-.006.193-.084.036-.016a15.3 15.3 0 0 1-3.514 1.051l-.353.058c.233-.038-.12.016-.194.025q-.745.091-1.492.127a28 28 0 0 1-3.015-.023 44 44 0 0 1-3.08-.301q-.36-.047-.72-.097l-.267-.038-.088-.013-.24-.035q-.73-.109-1.459-.227c-3.787-.613-7.65-1.464-10.905-3.66-2.724-1.838-5.127-4.52-5.964-8.016a12 12 0 0 1-.237-1.32c-.07-.56-.946-.43-.915.133M10.13 89.506a378 378 0 0 1 17.277-2.935q.098-.016.194-.028a351 351 0 0 1 2.066-.293 375 375 0 0 1 6.66-.863 427 427 0 0 1 13.29-1.412 374 374 0 0 1 28.297-1.437c.77-.01 1.508-.724 1.472-1.59-.035-.853-.647-1.602-1.472-1.59a375 375 0 0 0-26.739 1.327c-4.459.382-8.916.827-13.359 1.388a386 386 0 0 0-13.553 1.957A376 376 0 0 0 9.427 86.75c-.681.138-1.131 1.065-.924 1.758.238.792.896 1.14 1.628.999m24.996 6.491c5.275-.393 10.535-.964 15.805-1.434a888 888 0 0 1 22.464-1.718c.373-.023.746-.043 1.118-.07.505-.037.95-.17 1.428-.326.575-.188 1.068-.797 1.04-1.476-.026-.626-.416-1.36-1.04-1.475-.396-.073-.832-.2-1.23-.195-.329.004-.66.047-.987.071a869 869 0 0 0-5.981.473 893 893 0 0 0-28.225 2.78c-1.58.18-3.154.442-4.728.681-.621.095-.982.904-.908 1.502.079.632.613 1.234 1.244 1.187m5.176-58.912c1.046.671 2.178 1.034 3.378 1.187.472.06.95.071 1.424.022.351-.036.701-.077 1.036-.203.462-.174.808-.446 1.146-.813a1.63 1.63 0 0 0 .364-1.489c-.12-.476-.516-.98-.989-1.069-.332-.062-.665-.17-1.003-.135-.365.037-.725.098-1.087.155l.447-.065a6.4 6.4 0 0 1-1.81-.003l.433.063a6.5 6.5 0 0 1-1.665-.499l.378.172a7 7 0 0 1-.472-.243c-.725-.409-1.733-.228-2.141.606-.399.816-.19 1.832.561 2.314m7.27-2.613c-.184.027.066-.003.1-.006a3.5 3.5 0 0 1 .622.009c.296.028.592.01.888.049l-.297-.044q.578.086 1.118.327l-.306-.14c.184.086.373.211.563.263.2.053.404.057.608.069.485.029.944-.358 1.123-.816.182-.465.113-1.1-.254-1.451-.258-.248-.523-.477-.87-.557a5 5 0 0 0-.765-.107c-.41-.033-.813.012-1.217.077-.387.062-.768.163-1.11.374a5.2 5.2 0 0 0-.88.696c-.22.214-.268.644-.108.911.183.307.464.393.785.346m.253 6.19 7.917-.16c.922-.019 1.807-.863 1.764-1.906-.04-.953-.78-2.006-1.764-1.906l-7.917.805c-.76.077-1.503.673-1.465 1.584.035.844.644 1.6 1.465 1.584m-28.9 19.59 4.356.107c.91.023 1.78-.88 1.739-1.879-.042-.999-.765-1.903-1.74-1.879l-4.354.108c-.857.02-1.68.8-1.64 1.771.04.978.72 1.75 1.64 1.772"/><path fill="#0b3335" d="m22.17 62.771 1.4.396c.283.08.564.172.854.214.389.057.795-.058 1.183-.126l.302-.138.257-.214c.198-.214.311-.49.348-.786.031-.25.005-.476-.086-.71-.101-.258-.279-.524-.519-.654-.286-.155-.595-.364-.901-.451-.332-.095-.724-.074-1.068-.092l-1.439-.075c-.296-.016-.678.157-.878.393a1.43 1.43 0 0 0-.342.77c-.08.647.288 1.303.89 1.473m4.278-3.972 1.98.188q.35.014.65-.157.315-.111.544-.377.248-.248.35-.588.158-.326.145-.703c-.02-.472-.163-.962-.495-1.29-.313-.312-.753-.578-1.194-.536l-1.98.188q-.313-.012-.584.141-.281.1-.487.339a1.24 1.24 0 0 0-.314.527q-.142.293-.13.63c.017.424.146.864.444 1.159l.306.256q.355.222.765.223m48.546.447-4.355-.107c-.91-.023-1.78.88-1.74 1.879.042.998.765 1.903 1.74 1.879l4.355-.108c.857-.02 1.68-.8 1.64-1.771-.041-.978-.72-1.75-1.64-1.772"/><path fill="#0b3335" d="m71.75 56.727-1.398-.395c-.283-.08-.564-.173-.855-.215-.388-.056-.795.059-1.182.126l-.303.138-.257.214c-.198.214-.311.49-.348.786-.031.25-.004.477.087.71.1.258.278.524.518.654.286.155.595.365.902.452.331.094.723.074 1.068.092l1.438.075c.296.015.678-.158.879-.393.188-.222.304-.471.341-.771.08-.646-.287-1.302-.89-1.473M67.473 60.7l-1.98-.188q-.348-.015-.65.158-.314.11-.544.377a1.4 1.4 0 0 0-.35.588 1.47 1.47 0 0 0-.145.703c.02.472.163.962.495 1.29.314.312.753.577 1.195.535l1.98-.188q.312.013.583-.14.281-.1.488-.34.221-.221.313-.526.142-.293.13-.631c-.017-.424-.146-.863-.443-1.158l-.307-.256a1.4 1.4 0 0 0-.765-.224"/></g><defs><clipPath id="a"><path fill="#fff" d="M2 4h95.247v92H2z"/></clipPath></defs></svg>