<svg xmlns="http://www.w3.org/2000/svg" width="100" height="100" fill="none" viewBox="0 0 100 100"><g clip-path="url(#a)"><path fill="#009345" d="M39.602 22.078c.431-4.716-.83-9.99-4.744-12.726-3.915-2.735-10.656-1.189-11.623 3.45-1.212 5.815 6.553 10.42 5.995 16.332-.37 3.919-4.163 6.457-7.104 9.115-4.954 4.478-8.219 10.737-9.034 17.32-.442 3.567.664 8.215 4.264 8.75a31.05 31.05 0 0 1 5.205-11.705c5.021 4.603 6.84 11.78 11.544 16.699 2.09 2.187 4.759 3.941 6.144 6.62 1.612 3.12 1.182 6.922 2.515 10.168 1.332 3.246 6.31 5.465 8.24 2.526 1.378-2.095-.089-4.93.516-7.356.855-3.432 5.114-4.5 8.171-6.339 3.83-2.303 6.15-6.36 9.19-9.615s7.811-5.863 11.892-4.026c2.968 1.337 6.11 4.812 8.685 2.835.79-.606 1.174-1.594 1.366-2.563 1.424-7.167-6.045-13.386-13.361-14.466-2.31-.34-4.79-.4-6.718-1.7-1.198-.809-2.048-2.017-2.87-3.197l-6.704-9.617c-1.44-2.066-2.931-4.699-1.764-6.927C61.863 20.97 75.5 27.5 79 21.28c.785-1.98-6.094-5.251-8.008-6.227s-4.184-.93-6.33-.732c-2.595.24-5.215.683-7.555 1.815-2.784 1.348-5.018 3.593-7.692 5.144-2.673 1.55-7.281 2.566-9.813.798"/><path fill="#0b3335" d="M36.795 22.426c-2.324.357-4.577 1.155-6.474 2.545-1.874 1.375-3.303 3.15-4.491 5.118-1.487 2.464-2.636 5.11-3.28 7.91-.7 3.037-.915 6.18-.857 9.289.1 5.482.78 11.012 2.992 16.087 1.063 2.438 2.53 4.717 4.435 6.606 2.24 2.222 4.987 3.725 7.918 4.879 2.62 1.032 5.373 1.75 8.138 2.299 2.768.549 5.612.93 8.44.913 5.593-.03 11.4-1.734 15.062-6.122 3.813-4.57 4.88-10.627 4.206-16.38-.662-5.653-2.465-11.244-5.207-16.257-2.682-4.905-6.443-9.25-11.186-12.324-2.277-1.475-4.84-2.535-7.435-3.347a32 32 0 0 0-8.119-1.44c-1.402-.06-2.747.03-4.126.282-1.052.192-.82 1.918.254 1.845 2.525-.17 5.095-.278 7.602.14a23.6 23.6 0 0 1 7.312 2.505c4.531 2.464 8.503 5.688 11.355 9.981 2.83 4.262 4.474 9.344 4.748 14.416.138 2.547.024 5.081-.263 7.614-.035.311.002-.02.01-.07q-.037.247-.078.493-.07.432-.158.862c-.123.613-.265 1.224-.405 1.834q-.194.852-.459 1.685-.15.473-.324.937c-.043.116-.094.23-.135.346-.105.308.178-.354-.051.123a19 19 0 0 1-.796 1.52 15 15 0 0 1-.743 1.123c-.067.092-.423.543-.07.111a14 14 0 0 1-1.176 1.275q-.305.29-.627.559c-.09.076-.185.149-.276.225.44-.37.021-.02-.084.054a14 14 0 0 1-2.124 1.22q-.211.099-.425.19c.362-.156.176-.074-.082.021a18.3 18.3 0 0 1-3.312.865q-.237.04-.475.074c.106-.016.576-.063.029-.007q-.424.045-.848.08-.92.068-1.84.075a34 34 0 0 1-3.74-.188c-.291-.03-.582-.066-.873-.1-.328-.037.067.009.11.016l-.497-.073a50 50 0 0 1-1.855-.316 64 64 0 0 1-3.734-.831c-1.325-.335-2.646-.663-3.943-1.092a30 30 0 0 1-1.059-.372l-.392-.15c-.43-.166.27.12-.155-.061a20 20 0 0 1-1.881-.918 22 22 0 0 1-1.653-1.035c-.401-.27-.17-.118-.08-.05q-.143-.111-.285-.227a17 17 0 0 1-1.988-1.898 21 21 0 0 1-.542-.628q-.115-.136-.225-.276c.21.268-.097-.14-.132-.187-2.819-3.861-4.082-8.401-4.764-13.176-.745-5.216-.793-10.947 1.063-16.008 1.373-3.746 3.7-7.686 7.415-9.558 1.005-.506 2.08-.84 3.175-1.098 1.299-.305.722-2.122-.54-1.928"/><path fill="#0b3335" d="M28.594 27.109c-2.637-1.281-4.478-3.62-5.51-6.294a16.9 16.9 0 0 1-1.035-4.146c-.172-1.527-.159-3.369.768-4.68.698-.988 1.96-1.739 2.982-2.081a9 9 0 0 1 1.356-.336c-.329.051.15-.012.229-.017.346-.024.694-.04 1.041-.032.165.003.328.016.493.026.48.028-.028-.04.4.055 2.865.634 5.728 1.922 7.681 4.362.98 1.224 2.012 2.831 1.99 4.43-.024 1.677-1.13 3.004-1.348 4.604-.062.454.445.85.863.848 2.12-.011 3.218-2.432 3.493-4.195.301-1.927.064-4.216-.752-6.002-.835-1.83-2.185-3.517-3.602-4.946-1.503-1.516-3.413-2.842-5.526-3.37C28.066 4.323 23.673 5.62 21.194 9c-2.295 3.129-1.732 7.204-.66 10.69 1.148 3.727 3.48 7.243 7.173 8.911 1.013.457 1.91-.994.887-1.491M23.797 33.484c-4.442-.03-7.536 3.865-9.646 7.241-2.254 3.605-3.944 7.74-4.635 11.927-.669 4.047-.902 8.497.643 12.39.76 1.913 1.899 4.046 3.863 4.98.973.462 2.044.701 3.105.374 1.238-.383 2.023-1.47 2.121-2.722.09-1.158-.244-2.342-.22-3.513.025-1.284.095-2.581.321-3.848.228-1.27.52-2.537.849-3.785.328-1.245.8-2.442 1.124-3.689.146-.564-.61-.848-.93-.385-1.093 1.587-1.84 3.497-2.437 5.32a48 48 0 0 0-1.431 5.46c-.192.958-.391 1.915-.573 2.875-.03.16-.093.36-.095.519-.007.396-.15.219.092.132.136-.048.327-.171.474-.23l.188.015a2.5 2.5 0 0 1-.373-.107c.324.138-.013-.032-.047-.064-.478-.443.19.318-.217-.185-.085-.104-.46-.53-.396-.447a9 9 0 0 1-.685-1.046c-.183-.319-.412-.792-.47-.939-1.172-2.94-1.122-6.295-.684-9.39.497-3.519 1.495-6.986 3.12-10.165.881-1.723 1.912-3.411 3.101-4.947.925-1.194 2.23-2.5 3.838-2.65 1.996-.188 2.08-3.108 0-3.121M39.923 74.876a20.6 20.6 0 0 0-.378 8.17c.397 2.601 1.123 5.408 2.69 7.584 1.82 2.526 4.535 4.955 7.778 5.333 1.632.19 3.354-.35 4.52-1.517 1.274-1.274 1.554-3.201.988-4.855-.6-1.758-1.805-3.207-2.277-5.02-.475-1.825-.7-3.885-.104-5.7.091-.277-.34-.458-.478-.199-.639 1.194-1.243 2.385-1.463 3.727a9.95 9.95 0 0 0 .2 4.275c.338 1.255 1.004 2.539 1.017 3.856.004.469-.118.807-.441 1.078-.244.206-.714.373-.927.402-2.254.31-4.37-1.634-5.7-3.18-1.404-1.63-2.592-3.579-3.111-5.684a17.64 17.64 0 0 1-.146-7.682c.28-1.382-1.817-1.983-2.168-.588M48.812 24.153c1.644-2.898 4.81-4.627 7.884-5.73 3.77-1.354 7.774-2.12 11.797-1.886 1.975.116 3.947.526 5.785 1.254 1.373.544 3.021 1.312 3.658 2.72.608 1.345.32 2.939-.761 3.926-1.165 1.064-2.488 1.084-4.022.636-1.162-.339-2.288-.808-3.483-1.032-1.387-.26-2.582-.171-3.966.043-2.471.382-5.057.214-7.485.833-.67.17-.767 1.328 0 1.431 2.516.338 5.028-.14 7.485.642 1.17.372 2.291.727 3.492 1.003 1.274.292 2.495.786 3.781 1.026 2.453.457 4.849-.113 6.71-1.784 1.618-1.452 2.445-3.666 2.208-5.8-.562-5.075-5.924-7.221-10.454-7.908-4.696-.712-9.475-.03-13.934 1.518-4.164 1.447-9.26 3.756-10.159 8.501-.158.835.996 1.433 1.464.607M70.82 47.561c3.502-.586 7.49-.211 10.646 1.458 2.834 1.5 5.088 4.02 6.23 6.984.562 1.461.91 3.022.847 4.59-.026.63-.125 1.256-.374 1.856-.207.5-.614 1.04-.958 1.28-.867.607-2.082.566-2.776.038-.61-.465-.857-1.213-1.254-1.84a8.3 8.3 0 0 0-1.67-1.898c-1.44-1.2-3.16-2.004-5.032-2.273-1.824-.262-3.595.157-5.23.97-.862.43-.237 1.646.63 1.468 1.535-.317 3.288.047 4.694.705 1.53.717 2.433 1.756 3.216 3.128 1.04 1.822 2.302 3.377 4.487 3.855 2.07.453 4.29-.047 5.745-1.624 2.618-2.836 2.292-7.304 1.01-10.653-1.378-3.6-3.969-6.755-7.41-8.635-4.131-2.258-9.04-2.681-13.336-.655-.758.358-.184 1.367.534 1.246"/></g><defs><clipPath id="a"><path fill="#fff" d="M9 5h83v91H9z"/></clipPath></defs></svg>