<svg width="100" height="100" viewBox="0 0 100 100" fill="none" xmlns="http://www.w3.org/2000/svg">
<g clip-path="url(#clip0_2579_4140)">
<path d="M16.7067 25.274C16.8132 22.0039 16.9912 18.5326 19.7719 15.9719C21.1907 14.6653 23.2708 13.8819 25.4214 14.0146C29.2235 14.2491 30.0355 17.0167 32.198 18.7053C35.1317 20.9962 39.7603 20.8485 43.8413 20.6404C55.9771 20.0215 68.1753 20.1972 80.2759 21.1633C85.1258 21.5506 88.6394 25.0468 88.0796 28.9404C87.7449 31.2676 87.2417 33.6448 87.6881 35.9125C87.9911 37.4518 88.7325 38.9183 89.0369 40.4573C90.2346 46.5132 84.5767 52.6287 86.5656 58.5484C87.009 59.868 87.8266 61.1265 87.9014 62.4921C88.0202 64.6633 86.2424 66.677 86.3133 68.8497C86.4351 72.5826 91.9023 75.3872 89.2972 79.5791C88.6101 80.6848 87.4927 81.5853 86.1721 82.2176C83.0539 83.7105 79.3884 83.7514 75.8479 83.7724C63.5187 83.8456 51.1894 83.9189 38.8601 83.9921C34.6578 84.017 30.3958 84.0362 26.3348 83.1669C22.2737 82.2977 18.3675 80.416 16.3229 77.4633C14.577 74.9422 14.3532 71.9427 14.2245 69.0589C13.6956 57.2099 14.1016 45.334 15.4395 33.5262C15.4395 33.5262 16.5381 30.4504 16.7067 25.274Z" fill="#009345"/>
<path d="M12.5358 36.2415C12.1325 37.8149 12.0933 39.4541 12.0476 41.0667C11.9991 42.7719 12.1075 44.4782 12.1887 46.181C12.2759 48.0103 12.3637 49.8395 12.4558 51.6684C12.5479 53.4974 12.7456 55.3259 12.8146 57.1558C12.952 60.8022 12.9483 64.4569 13.0049 68.105C13.0323 69.8739 13.0812 71.6428 13.1803 73.4096C13.2311 74.3165 13.2948 75.2228 13.3761 76.1277C13.4041 76.4384 13.4338 76.7489 13.4679 77.059C13.4877 77.2397 13.5091 77.4201 13.5318 77.6005C13.5452 77.7092 13.5594 77.8178 13.5743 77.9262C13.5432 77.7066 13.5405 77.6817 13.5662 77.8516C13.8162 79.2218 14.0874 80.5728 14.6001 81.8812C14.6388 81.98 14.8264 82.4149 14.6495 82.024C14.7084 82.1541 14.7714 82.2832 14.8357 82.4108C14.9797 82.6964 15.1359 82.9763 15.305 83.2491C15.4732 83.5206 15.6566 83.7805 15.8471 84.038C15.6104 83.7181 15.8176 84.0052 15.8736 84.066C16.019 84.2237 16.1611 84.3836 16.3138 84.5352C16.5695 84.7892 16.8427 85.0323 17.133 85.2507C16.763 84.9725 17.426 85.4168 17.5434 85.4818C17.6751 85.5547 18.4415 85.8876 17.9145 85.6907C18.21 85.8011 18.5103 85.898 18.8174 85.9753C18.952 86.0092 19.9223 86.1658 19.3128 86.0985C19.5666 86.1265 19.8215 86.1451 20.077 86.1524C20.3968 86.1616 20.7175 86.154 21.0364 86.1302C21.1641 86.1207 21.2918 86.1085 21.4189 86.094C20.8512 86.1588 21.4313 86.0796 21.5586 86.0544C21.8716 85.9926 22.1851 85.9174 22.4887 85.8217C22.6105 85.7833 22.7286 85.7353 22.8497 85.6957C22.4213 85.8358 22.7254 85.7498 22.8237 85.702C23.1085 85.5634 23.3915 85.4309 23.6647 85.2717C23.773 85.2086 23.88 85.143 23.9851 85.0753C24.0738 85.018 24.4916 84.6561 24.1196 84.9898C24.3269 84.8039 24.5465 84.6351 24.7453 84.4394C24.8637 84.323 25.3345 83.7292 25.0463 84.1328C25.2262 83.8808 25.4 83.6308 25.5497 83.3609C25.6098 83.2525 25.6615 83.1407 25.7199 83.0316C25.4731 83.4922 25.7248 82.9892 25.7579 82.8925C25.8467 82.6333 25.905 82.3702 25.9714 82.1054C26.0075 81.9617 26.0226 81.5602 25.9836 82.0855C25.9926 81.9654 26.0061 81.8464 26.0126 81.726C26.0274 81.4551 26.0254 81.1837 26.0091 80.913C26 80.7618 25.9847 80.6117 25.9684 80.4612C26.0114 80.8591 25.9847 80.5935 25.9319 80.3532C25.8728 80.085 25.7985 79.8214 25.7077 79.5613C25.6571 79.4163 25.5993 79.2743 25.5423 79.1316C25.5733 79.2092 25.7627 79.5643 25.5592 79.1858C25.4279 78.9415 25.2997 78.6984 25.1508 78.4627C25.0684 78.3322 24.9828 78.2038 24.893 78.0777C24.8121 77.9641 24.4384 77.5425 24.8294 77.9769C24.6227 77.7473 24.4153 77.5205 24.1871 77.3096C24.0963 77.2256 24.0032 77.1434 23.9083 77.0636C23.8134 76.9837 23.7164 76.9061 23.6175 76.8307C23.8655 77.01 23.9132 77.0476 23.7607 76.9436C23.4575 76.817 23.1695 76.5809 22.8707 76.4336C22.7584 76.3783 22.644 76.327 22.5308 76.2735C21.9786 76.0122 23.0481 76.4104 22.4509 76.2524C22.1315 76.1679 21.8162 76.0878 21.4928 76.0167C22.0769 76.1451 21.6627 76.0273 21.4784 76.023C21.2744 76.0183 21.0718 76.0053 20.8674 76.0093C20.6975 76.0127 20.529 76.0298 20.3596 76.0364C20.7999 76.0191 20.5573 76.0026 20.2534 76.0624C19.92 76.1279 19.5914 76.2151 19.2699 76.3214C19.2434 76.3302 18.6474 76.5845 19.0124 76.4107C19.3489 76.2504 18.7457 76.5482 18.6791 76.5824C18.344 76.7545 18.0335 76.9523 17.719 77.1551C17.7946 77.1063 18.1275 76.8253 17.7639 77.1251C17.6078 77.2539 17.4527 77.3816 17.3039 77.5182C17.0566 77.745 16.8296 77.988 16.6083 78.2375C16.4988 78.361 16.3911 78.4857 16.281 78.6088C16.2144 78.681 16.1497 78.7547 16.087 78.83C16.2609 78.6151 16.2939 78.5795 16.1856 78.7231C16.0529 79.0302 15.7867 79.3328 15.6171 79.6318C15.4073 80.0022 15.5807 79.6973 15.6156 79.6104C15.5447 79.7867 15.5033 79.9881 15.4188 80.1582C15.1708 80.6577 15.4148 79.9206 15.3562 80.2395C15.3153 80.4626 15.3208 80.6983 15.318 80.9238C15.3035 82.0899 14.2837 83.0821 13.0452 83.0821C11.7802 83.0821 10.8128 82.0935 10.7724 80.9238C10.7132 79.2126 11.1104 77.5461 11.9247 76.0215C12.7075 74.5557 14.1174 73.36 15.5737 72.5071C18.5723 70.7509 22.6079 70.4472 25.6735 72.2364C31.292 75.5155 32.824 83.8736 27.5089 88.0811C24.9393 90.1152 21.5938 90.9213 18.3058 90.4556C14.9052 89.9739 12.108 87.6201 10.6351 84.7425C8.98531 81.5195 8.57938 77.9428 8.31943 74.4115C8.01676 70.3031 7.99564 66.1822 8.00056 62.0657C8.0061 57.4379 8.23527 52.8282 8.37035 48.2027C8.43334 46.0452 8.44264 43.8781 8.62039 41.7255C8.71053 40.6337 8.81163 39.5142 9.14706 38.4638C9.48329 37.4109 9.92703 36.3856 10.4785 35.4178C11.0983 34.3299 12.8322 35.0849 12.5358 36.2415Z" fill="#0B3335"/>
<path d="M19.6313 87.161C27.8668 87.0513 36.1069 86.9126 44.3427 87.0197C52.7159 87.1286 61.0868 87.3744 69.4605 87.4431C74.0945 87.481 78.7291 87.4601 83.3618 87.3442L81.4987 89.1135C81.0813 74.5353 80.9782 59.9484 80.677 45.3675C80.5339 38.4402 80.3797 31.5127 80.1409 24.5877C80.1151 23.8396 80.0453 23.0815 80.0598 22.3332C80.0695 21.8352 80.0054 22.2485 80.1222 22.3308C80.2913 22.4498 80.5797 22.6588 80.7179 22.8218L80.9019 22.85C80.7784 22.8441 80.6549 22.8394 80.5312 22.8359C80.1733 22.8231 79.8153 22.8126 79.4574 22.8009C77.3099 22.731 75.1623 22.6611 73.0147 22.5912C68.6723 22.4499 64.3204 22.4592 59.9759 22.4053C50.2095 22.2843 40.4431 22.1632 30.6768 22.0422C29.5307 22.028 28.5555 21.1265 28.5555 20.0278C28.5555 18.9467 29.5263 17.9991 30.6768 18.0133C39.625 18.1243 48.5733 18.2351 57.5215 18.346C61.9701 18.4012 66.4186 18.4563 70.8671 18.5114C73.1163 18.5393 75.3673 18.4955 77.6166 18.4781C79.8705 18.4606 82.8673 17.9424 84.218 20.1421C84.7615 21.0272 84.7626 22.016 84.7768 23.0043C84.7889 23.8372 84.7994 24.6702 84.8087 25.5032C84.8279 27.2247 84.8419 28.9463 84.8521 30.6679C84.8738 34.2911 84.8794 37.9144 84.8771 41.5377C84.8723 49.0803 84.8163 56.623 84.8264 64.1656C84.8376 72.4805 85.0004 80.8016 85.2249 89.1135C85.2512 90.0869 84.3495 90.8595 83.3618 90.8827C66.7491 91.2739 50.1039 90.6375 33.522 89.711C28.8907 89.4523 24.2704 89.2978 19.6312 89.2576C18.2102 89.2454 18.2089 87.1799 19.6313 87.161Z" fill="#0B3335"/>
<path d="M9.269 32.4513C9.03984 30.5297 8.94878 28.6221 8.87021 26.6897C8.79676 24.8835 8.69591 23.0738 8.76124 21.2659C8.88832 17.7493 9.85681 14.3006 12.2363 11.5456C14.3746 9.06963 17.6566 7.65661 21.031 8.07192C24.4076 8.48746 27.3002 10.4216 29.3236 12.9606C31.5248 15.7228 32.3401 19.2153 32.6703 22.6008C33.0217 26.2048 32.8667 29.8642 32.8723 33.4791C32.8841 41.2246 32.8954 48.97 32.9069 56.7154C32.9133 61.0509 32.9197 65.3865 32.9261 69.722C32.9292 71.8654 32.9324 74.0088 32.9356 76.1522C32.9389 78.4551 33.0798 80.7788 32.7052 83.0578C32.424 84.768 29.3607 84.763 29.0733 83.0578C28.7523 81.1532 28.8251 79.2462 28.8203 77.3213C28.8157 75.4702 28.8112 73.6191 28.8065 71.768C28.7976 68.1632 28.7886 64.5584 28.7797 60.9536C28.7615 53.6466 28.7434 46.3395 28.7252 39.0325C28.7162 35.3854 28.709 31.7382 28.6985 28.0911C28.6896 24.9729 28.6842 21.8799 27.7745 18.905C27.369 17.5789 26.7986 16.352 25.9227 15.2261C25.2931 14.417 24.2192 13.4915 23.2289 12.9306C21.0049 11.6709 18.6984 11.5494 16.5647 13.0495C16.6401 12.9964 16.7852 12.8642 16.4602 13.1319C16.29 13.2721 16.1228 13.4142 15.9619 13.5642C15.693 13.8149 15.4343 14.0799 15.2008 14.3609C15.3663 14.1617 15.0821 14.5208 15.0497 14.565C14.9189 14.7438 14.7941 14.9261 14.6748 15.1121C14.4756 15.4226 14.2929 15.7419 14.126 16.0691C13.8929 16.5259 13.5824 17.3958 13.3944 18.1232C13.1812 18.9489 13.0521 19.7628 12.9582 20.602C12.5177 24.5359 12.8609 28.5112 12.5159 32.4513C12.3405 34.4541 9.50266 34.411 9.269 32.4513Z" fill="#0B3335"/>
<path d="M82.8204 19.4487L89.5476 19.4487C90.5062 19.4487 91.4246 20.2492 91.3803 21.1891C91.3358 22.1321 90.575 22.9295 89.5476 22.9295L82.8204 22.9295C81.8618 22.9295 80.9434 22.129 80.9877 21.1891C81.0322 20.2462 81.793 19.4487 82.8204 19.4487Z" fill="#0B3335"/>
<path d="M83.8372 28.6278C83.9974 28.658 84.1584 28.6827 84.3189 28.711C84.6861 28.7756 83.9149 28.6736 84.3166 28.713C84.601 28.7409 84.8845 28.7672 85.1703 28.7799C85.7002 28.8034 86.2318 28.7942 86.7603 28.7518C86.8824 28.742 87.004 28.7293 87.1257 28.7174C87.5073 28.68 86.7048 28.7813 87.1842 28.7083C87.4462 28.6684 87.7066 28.6205 87.9652 28.5645C88.5227 28.4439 89.0685 28.283 89.6029 28.0903C90.501 27.7665 91.6517 28.4487 91.8573 29.3059C92.0953 30.298 91.5388 31.1 90.5773 31.4467C88.1194 32.333 85.4304 32.4666 82.8628 31.9842C81.9206 31.8072 81.2936 30.6922 81.5828 29.8434C81.9071 28.892 82.8277 28.4382 83.8372 28.6278Z" fill="#0B3335"/>
<path d="M83.8561 37.9667C85.511 37.8322 87.2379 38.0483 88.8007 38.5822C89.2563 38.7379 89.6449 38.9747 89.896 39.382C90.1259 39.7551 90.2232 40.3048 90.0807 40.7231C89.9372 41.1442 89.6624 41.5505 89.2385 41.7632C88.8215 41.9724 88.2871 42.096 87.8264 41.9386C87.127 41.6997 86.4066 41.5319 85.6705 41.4349L86.1577 41.4971C85.3934 41.4022 84.6242 41.385 83.8562 41.4474C83.412 41.4835 82.8653 41.2274 82.5603 40.9377C82.2424 40.6358 82.0031 40.1406 82.0236 39.7071C82.0448 39.257 82.2004 38.7902 82.5603 38.4765C82.9357 38.1493 83.3481 38.0079 83.8561 37.9667Z" fill="#0B3335"/>
<path d="M83.9774 47.5832C84.2883 47.6745 84.6039 47.7419 84.9259 47.7865L84.4387 47.7244C84.9856 47.7936 85.5344 47.7938 86.0815 47.7266L85.5943 47.7888C86.1154 47.7184 86.6208 47.5884 87.1069 47.3963L86.6691 47.5718C86.7379 47.5436 86.8062 47.5146 86.8743 47.4847C87.332 47.2834 87.7828 47.1775 88.2864 47.3092C88.7115 47.4203 89.1722 47.7325 89.3817 48.109C89.6064 48.5129 89.719 49.0022 89.5665 49.45C89.4276 49.8577 89.1504 50.3028 88.7242 50.4902C87.7451 50.9207 86.7881 51.1692 85.7091 51.2442C84.8084 51.3068 83.8641 51.1924 83.0032 50.9397C82.5538 50.8078 82.148 50.5296 81.9079 50.1399C81.678 49.7668 81.5806 49.217 81.7231 48.7988C81.8666 48.3777 82.1414 47.9714 82.5653 47.7587C82.994 47.5437 83.5016 47.4436 83.9774 47.5832Z" fill="#0B3335"/>
<path d="M84.3187 54.9587C84.9186 55.152 85.533 55.2901 86.1602 55.374L85.673 55.3118C86.53 55.4191 87.3929 55.4222 88.2505 55.3189L87.7633 55.3811C87.8487 55.37 87.934 55.3583 88.0192 55.3458C88.5236 55.2718 88.9734 55.2668 89.4313 55.5213C89.8115 55.7325 90.1741 56.1465 90.2736 56.5614C90.3804 57.0069 90.3573 57.507 90.0888 57.9024C89.8474 58.258 89.454 58.6347 88.9935 58.7022C88.0446 58.8414 87.1027 58.9218 86.144 58.8424C85.1927 58.7637 84.2495 58.6069 83.3443 58.3152C82.8911 58.1691 82.4957 57.9156 82.2491 57.5154C82.0192 57.1423 81.9218 56.5925 82.0643 56.1743C82.2078 55.7532 82.4826 55.3469 82.9065 55.1342C83.3282 54.9226 83.8519 54.8083 84.3187 54.9587Z" fill="#0B3335"/>
<path d="M84.1263 62.5398C84.9159 62.8145 85.7301 63.008 86.5626 63.1206L86.0754 63.0585C86.9398 63.1687 87.8101 63.1901 88.6792 63.1204C89.1236 63.0848 89.6696 63.3401 89.975 63.6301C90.2929 63.932 90.5322 64.4272 90.5118 64.8607C90.4906 65.3108 90.3349 65.7776 89.975 66.0913C89.5999 66.4183 89.1871 66.5604 88.6792 66.601C86.8262 66.7496 84.8978 66.5036 83.1518 65.8962C82.6955 65.7375 82.3089 65.506 82.0566 65.0964C81.8267 64.7234 81.7293 64.1736 81.8718 63.7554C82.0153 63.3343 82.2901 62.928 82.714 62.7152C83.1295 62.5067 83.6675 62.3803 84.1263 62.5398Z" fill="#0B3335"/>
<path d="M84.522 70.5806C85.0015 70.6556 85.4819 70.724 85.9634 70.7861L85.4762 70.724C86.8844 70.9024 88.2995 71.0227 89.7187 71.0846C90.675 71.1263 91.5971 71.8552 91.5514 72.825C91.5086 73.7321 90.7445 74.6101 89.7187 74.5653C87.6504 74.4751 85.5903 74.2563 83.5476 73.937C83.1218 73.8705 82.6612 73.4761 82.4523 73.1372C82.2224 72.7642 82.1251 72.2144 82.2675 71.7962C82.4111 71.3751 82.6859 70.9688 83.1098 70.7561C83.571 70.5246 84.0095 70.5005 84.522 70.5806Z" fill="#0B3335"/>
<path d="M84.507 78.6931C84.6025 78.7071 84.6981 78.7204 84.7938 78.733L84.3066 78.6708C85.4273 78.8101 86.5574 78.8093 87.6781 78.6701L87.1909 78.7323C87.7019 78.6651 88.2069 78.5703 88.7064 78.4475C89.6332 78.2198 90.7387 78.737 90.9608 79.6631C91.1785 80.571 90.6737 81.5599 89.6808 81.8039C87.6503 82.3029 85.5968 82.3525 83.5327 82.0494C83.1088 81.9872 82.6442 81.5851 82.4374 81.2496C82.2075 80.8766 82.1102 80.3268 82.2527 79.9086C82.3962 79.4875 82.671 79.0812 83.0949 78.8685L83.5326 78.693C83.8574 78.6101 84.1823 78.6102 84.507 78.6931Z" fill="#0B3335"/>
<path d="M83.5871 86.8351C85.7799 86.8345 87.973 86.7977 90.1657 86.8351C91.1237 86.8514 92.0433 87.6239 91.9984 88.5755C91.9546 89.5045 91.1927 90.3334 90.1657 90.3159C87.973 90.2785 85.7799 90.3153 83.5871 90.3159C82.6285 90.3162 81.7101 89.5152 81.7544 88.5755C81.7989 87.6323 82.5596 86.8354 83.5871 86.8351Z" fill="#0B3335"/>
<path d="M37.9291 69.1212C38.3662 69.1208 38.8032 69.1224 39.2404 69.1244C39.5774 69.1259 40.6673 68.9363 40.3894 69.2685C40.0568 69.666 40.2361 68.5345 40.2382 68.3272C40.2434 67.822 40.2485 67.3169 40.2537 66.8119C40.2604 66.1571 40.7973 65.7383 41.4456 65.68C42.7522 65.5627 44.0361 65.5722 45.3458 65.6007C45.9662 65.6142 46.634 65.5492 47.2037 65.8213C47.5906 66.0061 47.7839 66.4241 47.803 66.8136C47.8588 67.9507 47.9374 69.1093 47.8405 70.2455L46.6177 69.0842C48.1494 69.1217 49.6817 69.126 51.2134 69.1634L49.9744 70.3401C50.1214 69.1235 50.1794 67.9124 50.1493 66.688C50.1379 66.2252 50.5427 65.6091 51.0689 65.541C53.2471 65.2589 55.4896 65.3465 57.6822 65.4071C58.3799 65.4264 58.9162 65.9395 58.9405 66.602C58.9841 67.793 59.0233 68.9852 59.0975 70.1749L57.8555 68.9954C58.5254 69.028 59.192 69.0338 59.8624 69.0335C60.5155 69.0332 61.3401 69.2076 61.9524 68.9786L61.2215 69.5123C61.6017 68.998 61.2144 67.1061 61.1893 66.498C61.1641 65.8889 61.7624 65.3389 62.3957 65.3524C63.9956 65.3864 65.5915 65.4351 67.1911 65.3808C67.9029 65.3567 68.3685 65.941 68.4276 66.555L68.7834 70.2538L67.4427 68.9806C68.706 68.9773 69.9683 69.013 71.2313 69.0413L69.8636 70.3401C69.86 68.4468 69.9375 66.5519 69.9841 64.6591C69.9896 64.4327 69.8968 61.2453 70.0693 61.1895C70.9783 61.7199 71.0448 61.9323 70.2688 61.8265C69.9356 61.8283 69.6024 61.8301 69.2692 61.8319C68.6027 61.8355 67.9363 61.8391 67.2699 61.8426C66.5146 61.8467 65.9149 61.2417 65.8971 60.539C65.8634 59.2066 65.278 56.7264 66.4571 55.6929C67.0743 55.152 67.8961 55.1474 68.6851 55.1419C69.8465 55.1339 71.0097 55.1616 72.1711 55.1714L70.7951 56.4782C70.7562 54.6111 70.7174 52.7439 70.6785 50.8767C70.6706 50.4992 70.5749 50.0322 70.6532 49.659C70.5211 49.1301 70.5874 49.0312 70.8524 49.3623C71.209 49.6059 71.112 49.6577 70.5616 49.5176C69.6428 49.6303 68.4902 49.3718 67.5613 49.3063C66.825 49.2545 66.1695 48.7477 66.1806 47.9952C66.2006 46.6418 65.736 44.2664 66.8507 43.1969C67.9654 42.1275 70.5884 42.496 72.009 42.4318L70.6254 43.7458C70.4947 41.0252 70.3641 38.3046 70.2334 35.584L70.6396 36.5152L70.2507 36.2111L71.2314 36.5969L67.4427 36.6845L68.831 35.3661L68.5809 39.0649C68.5331 39.7721 67.983 40.3911 67.1913 40.3846C65.5926 40.3715 63.9942 40.4152 62.3958 40.4432C61.6673 40.4559 60.9725 39.8273 61.0045 39.1219C61.0321 38.5121 61.088 37.9054 61.1415 37.2972C61.1683 36.9931 61.1951 36.689 61.2219 36.3849C61.6733 36.5692 61.6104 36.6269 61.0333 36.5579C60.0393 36.7299 58.8686 36.5361 57.8557 36.5727L59.0432 35.445C58.9524 36.6345 58.8966 37.8267 58.8364 39.0179C58.8061 39.6168 58.332 40.1039 57.6824 40.1138C55.5052 40.1466 53.2709 40.2282 51.1102 39.9372C50.6522 39.8755 50.2917 39.3454 50.3042 38.9319C50.3412 37.708 50.2901 36.4969 50.15 35.2798L51.2136 36.2898C49.6804 36.3195 48.1501 36.335 46.6178 36.3998L47.6976 35.3744C47.8169 36.5087 47.7614 37.6684 47.7281 38.8063C47.7172 39.1757 47.5225 39.5587 47.1659 39.737C46.6233 40.0084 45.9418 39.9497 45.346 39.9861C44.0385 40.0662 42.7568 40.1271 41.4458 40.0615C40.705 40.0244 40.1641 39.5161 40.1258 38.808C40.1023 38.3751 40.0757 37.9421 40.0554 37.5091C40.033 37.2209 40.0216 36.9323 40.0213 36.6433C39.9039 36.1345 39.9909 36.0735 40.282 36.4604C41.0483 36.9333 39.5276 36.717 39.2413 36.7188L37.4065 36.7304L38.8345 35.3743C38.651 38.1581 38.7133 40.9584 38.607 43.7458L37.1201 42.3338C38.6066 42.3909 41.2117 42.0008 42.3726 43.1075C43.5199 44.2014 43.08 46.6111 43.1107 47.9952C43.1293 48.8337 42.3859 49.3972 41.5679 49.4603C40.6119 49.5341 39.5194 49.7806 38.5675 49.6918L38.0674 49.7267C38.5123 49.0422 38.695 48.9385 38.6155 49.4154C38.7619 49.7703 38.5634 50.4886 38.5445 50.8767C38.4538 52.7438 38.3751 54.6101 38.3099 56.4782L36.958 55.1944C38.037 55.199 39.116 55.2036 40.195 55.2081C41.0281 55.2117 41.9543 55.1634 42.6097 55.7521C43.7544 56.7804 43.1358 59.2405 43.0967 60.539C43.0777 61.169 42.5452 61.7208 41.8591 61.7142C41.5621 61.7113 38.3759 61.7687 38.3604 61.6802C38.8436 61.002 39.0278 61.0036 38.913 61.6852C38.9195 62.0157 38.9261 62.3461 38.9327 62.6765C38.9441 63.2548 38.9556 63.833 38.967 64.4114C39.0053 66.3496 39.0014 68.294 39.0971 70.2305C39.1677 71.6576 36.8316 71.6542 36.7613 70.2305C36.6288 67.5498 36.5845 64.8635 36.5037 62.1809C36.474 61.1932 36.3322 60.0202 37.4644 59.5391C38.681 59.0223 40.5544 59.3633 41.8592 59.3638L40.6217 60.5391C40.6333 59.9503 40.6426 59.3616 40.6491 58.7728C40.6521 58.4784 40.6552 58.184 40.6583 57.8896C40.5449 57.3831 40.6394 57.3116 40.942 57.675C40.5518 57.4834 39.4005 57.7086 38.95 57.7185C38.2859 57.733 37.622 57.7476 36.9579 57.7621C36.2302 57.778 35.602 57.161 35.606 56.4783C35.6137 55.1792 35.6257 53.8805 35.6134 52.5815C35.6015 51.3216 35.3807 49.8606 35.635 48.6226C36.1349 46.1893 39.6097 46.6563 41.5678 46.5302L40.025 47.9953C40.0202 47.4036 40.0154 46.812 40.0106 46.2204C40.0082 45.9246 40.0058 45.6287 40.0035 45.3329C39.8847 44.8281 39.9693 44.7538 40.2574 45.1103C40.6648 45.3668 40.5889 45.4322 40.03 45.3067L39.06 45.2571L37.12 45.1579C36.348 45.1185 35.5915 44.5426 35.6331 43.7459C35.7787 40.9589 35.7559 38.157 35.9785 35.3744C36.0367 34.6472 36.5855 34.0131 37.4065 34.0183C38.7632 34.027 41.1031 33.5908 42.1865 34.5827C43.2379 35.5454 42.7979 37.5826 42.7657 38.8081L41.4457 37.5546C42.674 37.7055 43.8781 37.7451 45.1132 37.7593C45.3051 37.7615 45.497 37.7693 45.6889 37.771C46.0733 37.7743 46.6922 37.5641 46.0201 37.8758L45.458 38.8065C45.5279 37.6699 45.6208 36.512 45.538 35.3746C45.4973 34.8157 46.0658 34.3565 46.6178 34.3492C48.1509 34.3288 49.681 34.3255 51.2136 34.2699C51.8401 34.2472 52.2068 34.7552 52.2771 35.2799C52.44 36.4955 52.514 37.7066 52.4999 38.932L51.402 37.8893C53.4625 38.1316 55.6118 37.9885 57.6823 37.9223L56.5283 39.0181C56.5661 37.8271 56.5996 36.635 56.668 35.4452C56.7046 34.8102 57.1838 34.3531 57.8555 34.3175C58.7098 34.2722 59.5598 34.281 60.4145 34.2663C61.2202 34.2525 62.1828 34.0289 62.9137 34.4881C64.316 35.3692 63.8486 37.7947 63.7871 39.1221L62.3958 37.8008C63.9942 37.7739 65.5926 37.7313 67.1912 37.7455L65.8016 39.0651L66.0545 35.3663C66.104 34.642 66.6508 34.0657 67.4428 34.0479L69.5947 33.9996C70.3199 33.9834 71.259 33.8145 71.9314 34.1427C73.3972 34.8581 73.0586 36.6758 73.1204 37.9847L73.3927 43.7459C73.4274 44.4794 72.7296 45.0279 72.009 45.0599L70.0691 45.1461L69.0991 45.1892C68.5713 45.3101 68.4723 45.2637 68.8021 45.05C69.1349 44.5482 68.9723 46.0372 68.9694 46.2204C68.9603 46.8121 68.9511 47.4037 68.9419 47.9953L67.5613 46.6842C69.416 46.8161 72.8431 46.3499 73.3455 48.6418C73.6006 49.8055 73.4404 51.152 73.4642 52.338C73.4918 53.7181 73.5195 55.0982 73.5472 56.4783C73.5612 57.1797 72.9054 57.7917 72.1711 57.7851C71.507 57.779 70.8431 57.7729 70.179 57.7668C69.597 57.7615 68.7456 57.6047 68.187 57.7486C68.5554 57.2975 68.6856 57.3445 68.5776 57.8895C68.5849 58.1839 68.5921 58.4783 68.5993 58.7727C68.6138 59.3615 68.6283 59.9503 68.6427 60.539L67.2699 59.2353C68.6081 59.229 70.5004 58.8794 71.7417 59.4141C73.0085 59.9598 72.8081 61.3322 72.7804 62.4287C72.7136 65.0643 72.596 67.7038 72.5992 70.3402C72.6 71.0297 71.9718 71.6562 71.2315 71.639C69.968 71.6098 68.7049 71.5879 67.4428 71.5271C66.6979 71.4912 66.1306 70.9721 66.1021 70.2539L65.9549 66.5551L67.1914 67.7293C65.5927 67.7023 63.9948 67.6647 62.3959 67.6438L63.6022 66.4982C63.6695 67.8339 64.3048 70.1926 62.8949 71.1014C62.2287 71.5308 61.3565 71.3838 60.6069 71.3743C59.6886 71.3626 58.774 71.3918 57.8556 71.3546C57.1501 71.326 56.6608 70.8357 56.6136 70.1751C56.5285 68.9855 56.4785 67.7933 56.4241 66.6022L57.6823 67.797C55.6111 67.7567 53.4606 67.6251 51.4021 67.8778L52.6547 66.6882C52.6757 67.9131 52.6087 69.1242 52.4527 70.3403C52.3737 70.9554 51.9489 71.5398 51.2136 71.5169C49.6819 71.4692 48.1495 71.4546 46.6178 71.4068C46.0012 71.3876 45.3353 70.8889 45.395 70.2456C45.5003 69.1101 45.4303 67.9511 45.383 66.8137L45.9823 67.806C46.6838 68.1468 46.1143 67.907 45.6889 67.8958C45.4971 67.8908 45.3052 67.8905 45.1132 67.8847C43.883 67.8477 42.675 67.8418 41.4458 67.944L42.6376 66.8121C42.6173 67.9603 43.0117 70.0012 42.0288 70.8878C41.0786 71.7448 39.1098 71.3463 37.9292 71.3397C36.4265 71.3313 36.4234 69.1229 37.9291 69.1212Z" fill="#0B3335"/>
<path d="M63.1989 54.4926L63.1989 51.4087C63.1989 50.6535 62.5523 50.0395 61.7576 50.0395L60.9712 50.0395L60.9712 48.9402C60.9712 48.1855 60.3246 47.5715 59.5294 47.5715L58.9662 47.5715L58.9662 46.6836C58.9662 45.929 58.3196 45.3149 57.5249 45.3149L51.8266 45.3149C51.0319 45.3149 50.3853 45.929 50.3853 46.6836L50.3853 47.6423L49.5243 47.6423C48.7297 47.6423 48.083 48.2564 48.083 49.011L48.083 49.9269L47.2226 50.0115C46.4854 50.0842 45.9294 50.6693 45.9294 51.3728L45.9294 54.1402C45.9294 54.8948 46.576 55.5093 47.3707 55.5093L47.7858 55.5093L47.7858 56.467C47.7858 57.2221 48.4325 57.8357 49.2271 57.8357L50.0135 57.8357L50.0135 59.0766C50.0135 59.8317 50.6601 60.4453 51.4548 60.4453L57.2277 60.4453C58.0224 60.4453 58.669 59.8317 58.669 59.0766L58.669 57.9773L59.3813 57.9773C60.176 57.9773 60.8226 57.3637 60.8226 56.6086L60.8226 55.8613L61.7576 55.8613C62.5523 55.8613 63.1989 55.2477 63.1989 54.4926ZM61.0783 52.0532L61.0783 53.8476L60.1434 53.8476C59.3487 53.8476 58.7021 54.4616 58.7021 55.2163L58.7021 55.9636L57.9897 55.9636C57.195 55.9636 56.5484 56.5772 56.5484 57.3323L56.5484 58.4316L52.134 58.4316L52.134 57.1907C52.134 56.4355 51.4874 55.822 50.6927 55.822L49.9063 55.822L49.9063 54.8638C49.9063 54.1091 49.2597 53.4951 48.465 53.4951L48.0499 53.4951L48.0499 51.9543L48.9103 51.8697C49.6465 51.7989 50.2035 51.2139 50.2035 50.5084L50.2035 49.6559L51.064 49.6559C51.8591 49.6559 52.5057 49.0419 52.5057 48.2868L52.5057 47.3286L56.8456 47.3286L56.8456 48.2164C56.8456 48.9711 57.4922 49.5851 58.2869 49.5851L58.8507 49.5851L58.8507 50.6844C58.8507 51.4391 59.4973 52.0531 60.292 52.0531L61.0783 52.0532ZM48.6914 49.8669C48.6924 49.8669 48.6934 49.8669 48.6944 49.8665L48.6914 49.8669Z" fill="#0B3335"/>
<path d="M52.1977 42.6864L52.9547 42.5473C53.3551 42.4737 53.7964 42.3559 54.1992 42.3626C54.7373 42.3715 55.2755 42.3924 55.8135 42.4072C56.3519 42.4222 56.8871 42.6155 57.2719 42.9809C57.6297 43.3207 57.899 43.878 57.8761 44.3659C57.8522 44.8725 57.6769 45.3978 57.2719 45.7509C56.8822 46.0906 56.3595 46.355 55.8135 46.3246C55.2756 46.2946 54.7366 46.2715 54.1992 46.2345C53.5149 46.1873 52.8543 45.9602 52.1977 45.7811C51.8418 45.684 51.5446 45.4821 51.3199 45.2061C51.0998 44.9354 50.9406 44.5852 50.9571 44.2338C50.9705 43.9489 51.0476 43.676 51.1878 43.4239C51.3666 43.1026 51.8169 42.7563 52.1977 42.6864Z" fill="#0B3335"/>
<path d="M51.9378 59.6592C52.0723 59.6183 52.2096 59.5642 52.3469 59.5334C52.4665 59.5065 52.5938 59.4999 52.7155 59.4835C53.1455 59.4256 53.5933 59.3094 54.0244 59.3436C54.5876 59.3882 55.1514 59.4239 55.7159 59.4516C56.2549 59.4781 56.7682 59.6494 57.1567 60.0184C57.5101 60.354 57.7763 60.9047 57.7535 61.3867C57.7299 61.8871 57.5568 62.4061 57.1567 62.755C56.7516 63.1081 56.2731 63.3066 55.7159 63.3217C55.1413 63.3373 54.5666 63.3446 53.9919 63.3425C53.5408 63.3408 53.1149 63.2282 52.6848 63.1195C52.2777 63.0167 51.8994 62.8544 51.5223 62.6784L51.1702 62.4201L50.8982 62.0858C50.7002 61.7646 50.6402 61.3968 50.6917 61.0325C50.7338 60.7353 50.841 60.4886 51.0341 60.2511C51.2709 59.9601 51.5634 59.7729 51.9378 59.6592Z" fill="#0B3335"/>
<path d="M38.1747 73.6337L42.1846 73.6337C42.4019 73.6259 42.6045 73.669 42.7926 73.7627C42.9882 73.8232 43.1575 73.9265 43.3004 74.0726C43.4543 74.2083 43.5631 74.3691 43.6267 74.5548C43.7255 74.7334 43.7707 74.9259 43.7625 75.1322L43.7062 75.5305C43.6312 75.7844 43.4959 76.0047 43.3004 76.1917L42.981 76.426C42.7349 76.5615 42.4694 76.6298 42.1846 76.6306L38.1747 76.6306C37.9574 76.6384 37.7548 76.5953 37.5667 76.5016C37.3711 76.4411 37.2018 76.3378 37.0589 76.1917C36.905 76.056 36.7963 75.8952 36.7327 75.7095C36.6338 75.5309 36.5886 75.3384 36.5968 75.1322L36.6531 74.7338C36.7281 74.4799 36.8634 74.2596 37.0589 74.0726L37.3783 73.8383C37.6244 73.7028 37.8899 73.6345 38.1747 73.6337Z" fill="#0B3335"/>
<path d="M47.8509 75.1322C47.8509 75.5873 47.4295 76.0234 46.9346 76.0024C46.4381 75.9812 46.0182 75.62 46.0182 75.1322C46.0182 74.677 46.4397 74.2409 46.9346 74.262C47.4311 74.2831 47.8509 74.6443 47.8509 75.1322Z" fill="#0B3335"/>
<path d="M51.6846 73.6337L56.7342 73.6337C56.9515 73.6259 57.1542 73.669 57.3422 73.7627C57.5378 73.8232 57.7071 73.9265 57.85 74.0726C58.0039 74.2083 58.1127 74.3691 58.1763 74.5548C58.2751 74.7334 58.3203 74.9259 58.3122 75.1322L58.2558 75.5305C58.1808 75.7844 58.0456 76.0047 57.85 76.1917L57.5307 76.426C57.2846 76.5615 57.0191 76.6298 56.7342 76.6306L51.6846 76.6306C51.4674 76.6384 51.2647 76.5953 51.0767 76.5016C50.8811 76.4411 50.7118 76.3378 50.5689 76.1917C50.415 76.056 50.3062 75.8952 50.2426 75.7095C50.1438 75.5309 50.0985 75.3384 50.1067 75.1322L50.1631 74.7338C50.238 74.4799 50.3733 74.2596 50.5689 74.0726L50.8882 73.8383C51.1343 73.7028 51.3998 73.6345 51.6846 73.6337Z" fill="#0B3335"/>
<path d="M62.4002 75.1322C62.4002 75.5873 61.9788 76.0234 61.4839 76.0024C60.9874 75.9812 60.5675 75.62 60.5675 75.1322C60.5675 74.677 60.989 74.2409 61.4839 74.262C61.9804 74.2831 62.4002 74.6443 62.4002 75.1322Z" fill="#0B3335"/>
<path d="M66.2339 73.6337L70.541 73.6337C70.7582 73.6259 70.9609 73.669 71.1489 73.7627C71.3445 73.8232 71.5138 73.9265 71.6567 74.0726C71.8106 74.2083 71.9194 74.3691 71.983 74.5548C72.0818 74.7334 72.1271 74.9259 72.1189 75.1322L72.0625 75.5305C71.9875 75.7844 71.8523 76.0047 71.6567 76.1917L71.3374 76.426C71.0913 76.5615 70.8258 76.6298 70.541 76.6306L66.2339 76.6306C66.0167 76.6384 65.814 76.5953 65.626 76.5016C65.4304 76.4411 65.2611 76.3378 65.1182 76.1917C64.9643 76.056 64.8555 75.8952 64.7919 75.7095C64.6931 75.5309 64.6478 75.3384 64.656 75.1322L64.7124 74.7338C64.7874 74.4799 64.9226 74.2596 65.1182 74.0726L65.4375 73.8383C65.6836 73.7028 65.9491 73.6345 66.2339 73.6337Z" fill="#0B3335"/>
<path d="M38.0265 28.9902L42.0364 28.9902C42.2537 28.9824 42.4563 29.0254 42.6444 29.1192C42.84 29.1796 43.0093 29.2829 43.1522 29.429C43.3061 29.5647 43.4149 29.7255 43.4785 29.9113C43.5773 30.0898 43.6225 30.2823 43.6143 30.4886L43.558 30.8869C43.483 31.1408 43.3477 31.3612 43.1522 31.5482L42.8328 31.7825C42.5867 31.918 42.3212 31.9862 42.0364 31.987L38.0265 31.987C37.8092 31.9948 37.6066 31.9518 37.4185 31.858C37.2229 31.7975 37.0536 31.6943 36.9107 31.5482C36.7569 31.4125 36.6481 31.2517 36.5845 31.0659C36.4856 30.8874 36.4404 30.6949 36.4486 30.4886L36.5049 30.0902C36.5799 29.8364 36.7152 29.616 36.9107 29.429L37.2301 29.1947C37.4762 29.0592 37.7417 28.991 38.0265 28.9902Z" fill="#0B3335"/>
<path d="M47.7026 30.4881C47.7026 30.9433 47.2812 31.3794 46.7863 31.3583C46.2898 31.3372 45.8699 30.976 45.8699 30.4881C45.8699 30.0329 46.2914 29.5969 46.7863 29.6179C47.2828 29.639 47.7026 30.0002 47.7026 30.4881Z" fill="#0B3335"/>
<path d="M51.5355 28.9902L56.5851 28.9902C56.8024 28.9824 57.005 29.0254 57.193 29.1192C57.3886 29.1796 57.5579 29.2829 57.7008 29.429C57.8547 29.5647 57.9635 29.7255 58.0271 29.9113C58.1259 30.0898 58.1712 30.2823 58.163 30.4886L58.1067 30.8869C58.0317 31.1408 57.8964 31.3612 57.7008 31.5482L57.3815 31.7825C57.1354 31.918 56.8699 31.9862 56.5851 31.987L51.5355 31.987C51.3182 31.9948 51.1156 31.9518 50.9275 31.858C50.7319 31.7975 50.5626 31.6943 50.4197 31.5482C50.2658 31.4125 50.157 31.2517 50.0934 31.0659C49.9946 30.8874 49.9494 30.6949 49.9575 30.4886L50.0139 30.0902C50.0889 29.8364 50.2241 29.616 50.4197 29.429L50.7391 29.1947C50.9852 29.0592 51.2506 28.991 51.5355 28.9902Z" fill="#0B3335"/>
<path d="M62.2515 30.4881C62.2515 30.9433 61.8301 31.3794 61.3352 31.3583C60.8387 31.3372 60.4188 30.976 60.4188 30.4881C60.4188 30.0329 60.8403 29.5969 61.3352 29.6179C61.8317 29.639 62.2515 30.0002 62.2515 30.4881Z" fill="#0B3335"/>
<path d="M66.0852 28.9902L70.3922 28.9902C70.6095 28.9824 70.8121 29.0254 71.0002 29.1192C71.1958 29.1796 71.3651 29.2829 71.508 29.429C71.6619 29.5647 71.7706 29.7255 71.8343 29.9113C71.9331 30.0898 71.9783 30.2823 71.9701 30.4886L71.9138 30.8869C71.8388 31.1408 71.7035 31.3612 71.508 31.5482L71.1886 31.7825C70.9425 31.918 70.677 31.9862 70.3922 31.987L66.0852 31.987C65.8679 31.9948 65.6653 31.9518 65.4773 31.858C65.2817 31.7975 65.1123 31.6943 64.9694 31.5482C64.8156 31.4125 64.7068 31.2517 64.6432 31.0659C64.5444 30.8874 64.4991 30.6949 64.5073 30.4886L64.5636 30.0902C64.6386 29.8364 64.7739 29.616 64.9694 29.429L65.2888 29.1947C65.5349 29.0592 65.8004 28.991 66.0852 28.9902Z" fill="#0B3335"/>
<path d="M17.0435 76.5559C16.992 76.5029 16.9406 76.4498 16.8473 76.5387C16.1922 77.1629 16.4584 78.4707 16.7474 79.3339C17.0391 80.2051 17.7232 81.0877 18.5054 81.9437C19.1603 82.6602 20.128 82.9176 21.1669 83.0567C21.6352 83.1195 22.2154 82.4598 22.864 81.728C23.2752 81.2642 23.1073 80.6624 22.9596 80.1833C22.8213 79.7348 22.4947 79.2817 22.1527 78.835C21.9702 78.6454 21.7696 78.531 21.5455 78.4863C21.3213 78.4416 21.0797 78.47 20.3945 78.6102" stroke="#0B3335" stroke-width="3" stroke-linecap="round"/>
</g>
<defs>
<clipPath id="clip0_2579_4140">
<rect width="83" height="84" fill="white" transform="matrix(-4.37114e-08 1 1 4.37114e-08 8 8)"/>
</clipPath>
</defs>
</svg>
