<svg xmlns="http://www.w3.org/2000/svg" fill="none" viewBox="0 0 100 100">
  <g clip-path="url(#a)">
    <path fill="#009345" d="M16.7067 25.274c.1065-3.2701.2845-6.7414 3.0652-9.3021 1.4188-1.3066 3.4989-2.09 5.6495-1.9573 3.8021.2345 4.6141 3.0021 6.7766 4.6907 2.9337 2.2909 7.5623 2.1432 11.6433 1.9351 12.1358-.6189 24.334-.4432 36.4346.5229 4.8499.3873 8.3635 3.8835 7.8037 7.7771-.3347 2.3272-.8379 4.7044-.3915 6.9721.303 1.5393 1.0444 3.0058 1.3488 4.5448 1.1977 6.0559-4.4602 12.1714-2.4713 18.0911.4434 1.3196 1.261 2.5781 1.3358 3.9437.1188 2.1712-1.659 4.1849-1.5881 6.3576.1218 3.7329 5.589 6.5375 2.9839 10.7294-.6871 1.1057-1.8045 2.0062-3.1251 2.6385-3.1182 1.4929-6.7837 1.5338-10.3242 1.5548-12.3292.0732-24.6585.1465-36.9878.2197-4.2023.0249-8.4643.0441-12.5253-.8252-4.0611-.8692-7.9673-2.7509-10.0119-5.7036-1.7459-2.5211-1.9697-5.5206-2.0984-8.4044-.5289-11.849-.1229-23.7249 1.215-35.5327 0 0 1.0986-3.0758 1.2672-8.2522"/>
    <path fill="#0b3335" d="M12.5358 36.2415c-.4033 1.5734-.4425 3.2126-.4882 4.8252-.0485 1.7052.0599 3.4115.1411 5.1143.0872 1.8293.175 3.6585.2671 5.4874.0921 1.829.2898 3.6575.3588 5.4874.1374 3.6464.1337 7.3011.1903 10.9492.0274 1.7689.0763 3.5378.1754 5.3046.0508.9069.1145 1.8132.1958 2.7181.028.3107.0577.6212.0918.9313.0198.1807.0412.3611.0639.5415.0134.1087.0276.2173.0425.3257-.0311-.2196-.0338-.2445-.0081-.0746.25 1.3702.5212 2.7212 1.0339 4.0296.0387.0988.2263.5337.0494.1428.0589.1301.1219.2592.1862.3868.144.2856.3002.5655.4693.8383.1682.2715.3516.5314.5421.7889-.2367-.3199-.0295-.0328.0265.028.1454.1577.2875.3176.4402.4692.2557.254.5289.4971.8192.7155-.37-.2782.293.1661.4104.2311.1317.0729.8981.4058.3711.2089.2955.1104.5958.2073.9029.2846.1346.0339 1.1049.1905.4954.1232.2538.028.5087.0466.7642.0539.3198.0092.6405.0016.9594-.0222.1277-.0095.2554-.0217.3825-.0362-.5677.0648.0124-.0144.1397-.0396.313-.0618.6265-.137.9301-.2327.1218-.0384.2399-.0864.361-.126-.4284.1401-.1243.0541-.026.0063.2848-.1386.5678-.2711.841-.4303.1083-.0631.2153-.1287.3204-.1964.0887-.0573.5065-.4192.1345-.0855.2073-.1859.4269-.3547.6257-.5504.1184-.1164.5892-.7102.301-.3066.1799-.252.3537-.502.5034-.7719.0601-.1084.1118-.2202.1702-.3293-.2468.4606.0049-.0424.038-.1391.0888-.2592.1471-.5223.2135-.7871.0361-.1437.0512-.5452.0122-.0199.009-.1201.0225-.2391.029-.3595.0148-.2709.0128-.5423-.0035-.813-.0091-.1512-.0244-.3013-.0407-.4518.043.3979.0163.1323-.0365-.108-.0591-.2682-.1334-.5318-.2242-.7919-.0506-.145-.1084-.287-.1654-.4297.031.0776.2204.4327.0169.0542-.1313-.2443-.2595-.4874-.4084-.7231-.0824-.1305-.168-.2589-.2578-.385-.0809-.1136-.4546-.5352-.0636-.1008-.2067-.2296-.4141-.4564-.6423-.6673-.0908-.084-.1839-.1662-.2788-.246-.0949-.0799-.1919-.1575-.2908-.2329.248.1793.2957.2169.1432.1129-.3032-.1266-.5912-.3627-.89-.51-.1123-.0553-.2267-.1066-.3399-.1601-.5522-.2613.5173.1369-.0799-.0211-.3194-.0845-.6347-.1646-.9581-.2357.5841.1284.1699.0106-.0144.0063-.204-.0047-.4066-.0177-.611-.0137-.1699.0034-.3384.0205-.5078.0271.4403-.0173.1977-.0338-.1062.026-.3334.0655-.662.1527-.9835.259-.0265.0088-.6225.2631-.2575.0893.3365-.1603-.2667.1375-.3333.1717-.3351.1721-.6456.3699-.9601.5727.0756-.0488.4085-.3298.0449-.03-.1561.1288-.3112.2565-.46.3931-.2473.2268-.4743.4698-.6956.7193-.1095.1235-.2172.2482-.3273.3713-.0666.0722-.1313.1459-.194.2212.1739-.2149.2069-.2505.0986-.1069-.1327.3071-.3989.6097-.5685.9087-.2098.3704-.0364.0655-.0015-.0214-.0709.1763-.1123.3777-.1968.5478-.248.4995-.004-.2376-.0626.0813-.0409.2231-.0354.4588-.0382.6843-.0145 1.1661-1.0343 2.1583-2.2728 2.1583-1.265 0-2.2324-.9886-2.2728-2.1583-.0592-1.7112.338-3.3777 1.1523-4.9023.7828-1.4658 2.1927-2.6615 3.649-3.5144 2.9986-1.7562 7.0342-2.0599 10.0998-.2707 5.6185 3.2791 7.1505 11.6372 1.8354 15.8447-2.5696 2.0341-5.9151 2.8402-9.2031 2.3745-3.4006-.4817-6.1978-2.8355-7.6707-5.7131-1.64979-3.223-2.05572-6.7997-2.31567-10.331-.30267-4.1084-.32379-8.2293-.31887-12.3458.00554-4.6278.23471-9.2375.36979-13.863.06299-2.1575.07229-4.3246.25004-6.4772.09014-1.0918.19124-2.2113.52667-3.2617.33623-1.0529.77997-2.0782 1.33144-3.046.6198-1.0879 2.3537-.3329 2.0573.8237"/>
    <path fill="#0b3335" d="M19.6313 87.161c8.2355-.1097 16.4756-.2484 24.7114-.1413 8.3732.1089 16.7441.3547 25.1178.4234 4.634.0379 9.2686.017 13.9013-.0989l-1.8631 1.7693c-.4174-14.5782-.5205-29.1651-.8217-43.746-.1431-6.9273-.2973-13.8548-.5361-20.7798-.0258-.7481-.0956-1.5062-.0811-2.2545.0097-.498-.0544-.0847.0624-.0024.1691.119.4575.328.5957.491l.184.0282c-.1235-.0059-.247-.0106-.3707-.0141-.3579-.0128-.7159-.0233-1.0738-.035-2.1475-.0699-4.2951-.1398-6.4427-.2097-4.3424-.1413-8.6943-.132-13.0388-.1859-9.7664-.121-19.5328-.2421-29.2991-.3631-1.1461-.0142-2.1213-.9157-2.1213-2.0144 0-1.0811.9708-2.0287 2.1213-2.0145 8.9482.111 17.8965.2218 26.8447.3327 4.4486.0552 8.8971.1103 13.3456.1654 2.2492.0279 4.5002-.0159 6.7495-.0333 2.2539-.0175 5.2507-.5357 6.6014 1.664.5435.8851.5446 1.8739.5588 2.8622.0121.8329.0226 1.6659.0319 2.4989.0192 1.7215.0332 3.4431.0434 5.1647.0217 3.6232.0273 7.2465.025 10.8698-.0048 7.5426-.0608 15.0853-.0507 22.6279.0112 8.3149.174 16.636.3985 24.9479.0263.9734-.8754 1.746-1.8631 1.7692-16.6127.3912-33.2579-.2452-49.8398-1.1717-4.6313-.2587-9.2516-.4132-13.8908-.4534-1.421-.0122-1.4223-2.0777.0001-2.0966"/>
    <path fill="#0b3335" d="M9.269 32.4513c-.22916-1.9216-.32022-3.8292-.39879-5.7616-.07345-1.8062-.1743-3.6159-.10897-5.4238.12708-3.5166 1.09557-6.9653 3.47506-9.7203 2.1383-2.47597 5.4203-3.88899 8.7947-3.47368 3.3766.41554 6.2692 2.34968 8.2926 4.88868 2.2012 2.7622 3.0165 6.2547 3.3467 9.6402.3514 3.604.1964 7.2634.202 10.8783.0118 7.7455.0231 15.4909.0346 23.2363.0064 4.3355.0128 8.6711.0192 13.0066.0031 2.1434.0063 4.2868.0095 6.4302.0033 2.3029.1442 4.6266-.2304 6.9056-.2812 1.7102-3.3445 1.7052-3.6319 0-.321-1.9046-.2482-3.8116-.253-5.7365-.0046-1.8511-.0091-3.7022-.0138-5.5533-.0089-3.6048-.0179-7.2096-.0268-10.8144-.0182-7.307-.0363-14.6141-.0545-21.9211-.009-3.6471-.0162-7.2943-.0267-10.9414-.0089-3.1182-.0143-6.2112-.924-9.1861-.4055-1.3261-.9759-2.553-1.8518-3.6789-.6296-.8091-1.7035-1.7346-2.6938-2.2955-2.224-1.2597-4.5305-1.3812-6.6642.1189.0754-.0531.2205-.1853-.1045.0824-.1702.1402-.3374.2823-.4983.4323-.2689.2507-.5276.5157-.7611.7967.1655-.1992-.1187.1599-.1511.2041-.1308.1788-.2556.3611-.3749.5471-.1992.3105-.3819.6298-.5488.957-.2331.4568-.5436 1.3267-.7316 2.0541-.2132.8257-.3423 1.6396-.4362 2.4788-.4405 3.9339-.0973 7.9092-.4423 11.8493-.1754 2.0028-3.01324 1.9597-3.2469 0m73.5514-13.0026h6.7272c.9586 0 1.877.8005 1.8327 1.7404-.0445.943-.8053 1.7404-1.8327 1.7404h-6.7272c-.9586 0-1.877-.8005-1.8327-1.7404.0445-.9429.8053-1.7404 1.8327-1.7404m1.0168 9.1791c.1602.0302.3212.0549.4817.0832.3672.0646-.404-.0374-.0023.002.2844.0279.5679.0542.8537.0669.5299.0235 1.0615.0143 1.59-.0281.1221-.0098.2437-.0225.3654-.0344.3816-.0374-.4209.0639.0585-.0091.262-.0399.5224-.0878.781-.1438.5575-.1206 1.1033-.2815 1.6377-.4742.8981-.3238 2.0488.3584 2.2544 1.2156.238.9921-.3185 1.7941-1.28 2.1408-2.4579.8863-5.1469 1.0199-7.7145.5375-.9422-.177-1.5692-1.292-1.28-2.1408.3243-.9514 1.2449-1.4052 2.2544-1.2156m.0189 9.3389c1.6549-.1345 3.3818.0816 4.9446.6155.4556.1557.8442.3925 1.0953.7998.2299.3731.3272.9228.1847 1.3411-.1435.4211-.4183.8274-.8422 1.0401-.417.2092-.9514.3328-1.4121.1754-.6994-.2389-1.4198-.4067-2.1559-.5037l.4872.0622c-.7643-.0949-1.5335-.1121-2.3015-.0497-.4442.0361-.9909-.22-1.2959-.5097-.3179-.3019-.5572-.7971-.5367-1.2306.0212-.4501.1768-.9169.5367-1.2306.3754-.3272.7878-.4686 1.2958-.5098m.1213 9.6165c.3109.0913.6265.1587.9485.2033l-.4872-.0621c.5469.0692 1.0957.0694 1.6428.0022l-.4872.0622c.5211-.0704 1.0265-.2004 1.5126-.3925l-.4378.1755c.0688-.0282.1371-.0572.2052-.0871.4577-.2013.9085-.3072 1.4121-.1755.4251.1111.8858.4233 1.0953.7998.2247.4039.3373.8932.1848 1.341-.1389.4077-.4161.8528-.8423 1.0402-.9791.4305-1.9361.679-3.0151.754-.9007.0626-1.845-.0518-2.7059-.3045-.4494-.1319-.8552-.4101-1.0953-.7998-.2299-.3731-.3273-.9229-.1848-1.3411.1435-.4211.4183-.8274.8422-1.0401.4287-.215.9363-.3151 1.4121-.1755m.3413 7.3755c.5999.1933 1.2143.3314 1.8415.4153l-.4872-.0622c.857.1073 1.7199.1104 2.5775.0071l-.4872.0622c.0854-.0111.1707-.0228.2559-.0353.5044-.074.9542-.079 1.4121.1755.3802.2112.7428.6252.8423 1.0401.1068.4455.0837.9456-.1848 1.341-.2414.3556-.6348.7323-1.0953.7998-.9489.1392-1.8908.2196-2.8495.1402-.9513-.0787-1.8945-.2355-2.7997-.5272-.4532-.1461-.8486-.3996-1.0952-.7998-.2299-.3731-.3273-.9229-.1848-1.3411.1435-.4211.4183-.8274.8422-1.0401.4217-.2116.9454-.3259 1.4122-.1755m-.1924 7.5811c.7896.2747 1.6038.4682 2.4363.5808l-.4872-.0621c.8644.1102 1.7347.1316 2.6038.0619.4444-.0356.9904.2197 1.2958.5097.3179.3019.5572.7971.5368 1.2306-.0212.4501-.1769.9169-.5368 1.2306-.3751.327-.7879.4691-1.2958.5097-1.853.1486-3.7814-.0974-5.5274-.7048-.4563-.1587-.8429-.3902-1.0952-.7998-.2299-.373-.3273-.9228-.1848-1.341.1435-.4211.4183-.8274.8422-1.0402.4155-.2085.9535-.3349 1.4123-.1754m.3957 8.0408c.4795.075.9599.1434 1.4414.2055l-.4872-.0621c1.4082.1784 2.8233.2987 4.2425.3606.9563.0417 1.8784.7706 1.8327 1.7404-.0428.9071-.8069 1.7851-1.8327 1.7403-2.0683-.0902-4.1284-.309-6.1711-.6283-.4258-.0665-.8864-.4609-1.0953-.7998-.2299-.373-.3272-.9228-.1848-1.341.1436-.4211.4184-.8274.8423-1.0401.4612-.2315.8997-.2556 1.4122-.1755m-.015 8.1125q.14325.021.2868.0399l-.4872-.0622c1.1207.1393 2.2508.1385 3.3715-.0007l-.4872.0622c.511-.0672 1.016-.162 1.5155-.2848.9268-.2277 2.0323.2895 2.2544 1.2156.2177.9079-.2871 1.8968-1.28 2.1408-2.0305.499-4.084.5486-6.1481.2455-.4239-.0622-.8885-.4643-1.0953-.7998-.2299-.373-.3272-.9228-.1847-1.341.1435-.4211.4183-.8274.8422-1.0401l.4377-.1755c.3248-.0829.6497-.0828.9744.0001m-.9199 8.142c2.1928-.0006 4.3859-.0374 6.5786 0 .958.0163 1.8776.7888 1.8327 1.7404-.0438.929-.8057 1.7579-1.8327 1.7404-2.1927-.0374-4.3858-.0006-6.5786 0-.9586.0003-1.877-.8007-1.8327-1.7404.0445-.9432.8052-1.7401 1.8327-1.7404m-45.658-17.7139c.4371-.0004.8741.0012 1.3113.0032.337.0015 1.4269-.1881 1.149.1441-.3326.3975-.1533-.734-.1512-.9413.0052-.5052.0103-1.0103.0155-1.5153.0067-.6548.5436-1.0736 1.1919-1.1319 1.3066-.1173 2.5905-.1078 3.9002-.0793.6204.0135 1.2882-.0515 1.8579.2206.3869.1848.5802.6028.5993.9923.0558 1.1371.1344 2.2957.0375 3.4319l-1.2228-1.1613c1.5317.0375 3.064.0418 4.5957.0792l-1.239 1.1767c.147-1.2166.205-2.4277.1749-3.6521-.0114-.4628.3934-1.0789.9196-1.147 2.1782-.2821 4.4207-.1945 6.6133-.1339.6977.0193 1.234.5324 1.2583 1.1949.0436 1.191.0828 2.3832.157 3.5729l-1.242-1.1795c.6699.0326 1.3365.0384 2.0069.0381.6531-.0003 1.4777.1741 2.09-.0549l-.7309.5337c.3802-.5143-.0071-2.4062-.0322-3.0143-.0252-.6091.5731-1.1591 1.2064-1.1456 1.5999.034 3.1958.0827 4.7954.0284.7118-.0241 1.1774.5602 1.2365 1.1742l.3558 3.6988-1.3407-1.2732c1.2633-.0033 2.5256.0324 3.7886.0607l-1.3677 1.2988c-.0036-1.8933.0739-3.7882.1205-5.681.0055-.2264-.0873-3.4138.0852-3.4696.909.5304.9755.7428.1995.637l-.9996.0054c-.6665.0036-1.3329.0072-1.9993.0107-.7553.0041-1.355-.6009-1.3728-1.3036-.0337-1.3324-.6191-3.8126.56-4.8461.6172-.5409 1.439-.5455 2.228-.551 1.1614-.008 2.3246.0197 3.486.0295l-1.376 1.3068c-.0389-1.8671-.0777-3.7343-.1166-5.6015-.0079-.3775-.1036-.8445-.0253-1.2177-.1321-.5289-.0658-.6278.1992-.2967.3566.2436.2596.2954-.2908.1553-.9188.1127-2.0714-.1458-3.0003-.2113-.7363-.0518-1.3918-.5586-1.3807-1.3111.02-1.3534-.4446-3.7288.6701-4.7983 1.1147-1.0694 3.7377-.7009 5.1583-.7651l-1.3836 1.314c-.1307-2.7206-.2613-5.4412-.392-8.1618l.4062.9312-.3889-.3041.9807.3858-3.7887.0876 1.3883-1.3184-.2501 3.6988c-.0478.7072-.5979 1.3262-1.3896 1.3197-1.5987-.0131-3.1971.0306-4.7955.0586-.7285.0127-1.4233-.6159-1.3913-1.3213.0276-.6098.0835-1.2165.137-1.8247l.0804-.9123c.4514.1843.3885.242-.1886.173-.994.172-2.1647-.0218-3.1776.0148l1.1875-1.1277c-.0908 1.1895-.1466 2.3817-.2068 3.5729-.0303.5989-.5044 1.086-1.154 1.0959-2.1772.0328-4.4115.1144-6.5722-.1766-.458-.0617-.8185-.5918-.806-1.0053.037-1.2239-.0141-2.435-.1542-3.6521l1.0636 1.01c-1.5332.0297-3.0635.0452-4.5958.11l1.0798-1.0254c.1193 1.1343.0638 2.294.0305 3.4319-.0109.3694-.2056.7524-.5622.9307-.5426.2714-1.2241.2127-1.8199.2491-1.3075.0801-2.5892.141-3.9002.0754-.7408-.0371-1.2817-.5454-1.32-1.2535-.0235-.4329-.0501-.8659-.0704-1.2989-.0224-.2882-.0338-.5768-.0341-.8658-.1174-.5088-.0304-.5698.2607-.1829.7663.4729-.7544.2566-1.0407.2584l-1.8348.0116 1.428-1.3561c-.1835 2.7838-.1212 5.5841-.2275 8.3715l-1.4869-1.412c1.4865.0571 4.0916-.333 5.2525.7737 1.1473 1.0939.7074 3.5036.7381 4.8877.0186.8385-.7248 1.402-1.5428 1.4651-.956.0738-2.0485.3203-3.0004.2315l-.5001.0349c.4449-.6845.6276-.7882.5481-.3113.1464.3549-.0521 1.0732-.071 1.4613-.0907 1.8671-.1694 3.7334-.2346 5.6015l-1.3519-1.2838c1.079.0046 2.158.0092 3.237.0137.8331.0036 1.7593-.0447 2.4147.544 1.1447 1.0283.5261 3.4884.487 4.7869-.019.63-.5515 1.1818-1.2376 1.1752-.297-.0029-3.4832.0545-3.4987-.034.4832-.6782.6674-.6766.5526.005.0065.3305.0131.6609.0197.9913.0114.5783.0229 1.1565.0343 1.7349.0383 1.9382.0344 3.8826.1301 5.8191.0706 1.4271-2.2655 1.4237-2.3358 0-.1325-2.6807-.1768-5.367-.2576-8.0496-.0297-.9877-.1715-2.1607.9607-2.6418 1.2166-.5168 3.09-.1758 4.3948-.1753l-1.2375 1.1753c.0116-.5888.0209-1.1775.0274-1.7663.003-.2944.0061-.5888.0092-.8832-.1134-.5065-.0189-.578.2837-.2146-.3902-.1916-1.5415.0336-1.992.0435-.6641.0145-1.328.0291-1.9921.0436-.7277.0159-1.3559-.6011-1.3519-1.2838.0077-1.2991.0197-2.5978.0074-3.8968-.0119-1.2599-.2327-2.7209.0216-3.9589.4999-2.4333 3.9747-1.9663 5.9328-2.0924l-1.5428 1.4651c-.0048-.5917-.0096-1.1833-.0144-1.7749-.0024-.2958-.0048-.5917-.0071-.8875-.1188-.5048-.0342-.5791.2539-.2226.4074.2565.3315.3219-.2274.1964l-.97-.0496-1.94-.0992c-.772-.0394-1.5285-.6153-1.4869-1.412.1456-2.787.1228-5.5889.3454-8.3715.0582-.7272.607-1.3613 1.428-1.3561 1.3567.0087 3.6966-.4275 4.78.5644 1.0514.9627.6114 2.9999.5792 4.2254l-1.32-1.2535c1.2283.1509 2.4324.1905 3.6675.2047.1919.0022.3838.01.5757.0117.3844.0033 1.0033-.2069.3312.1048l-.5621.9307c.0699-1.1366.1628-2.2945.08-3.4319-.0407-.5589.5278-1.0181 1.0798-1.0254 1.5331-.0204 3.0632-.0237 4.5958-.0793.6265-.0227.9932.4853 1.0635 1.01.1629 1.2156.2369 2.4267.2228 3.6521l-1.0979-1.0427c2.0605.2423 4.2098.0992 6.2803.033l-1.154 1.0958c.0378-1.191.0713-2.3831.1397-3.5729.0366-.635.5158-1.0921 1.1875-1.1277.8543-.0453 1.7043-.0365 2.559-.0512.8057-.0138 1.7683-.2374 2.4992.2218 1.4023.8811.9349 3.3066.8734 4.634l-1.3913-1.3213c1.5984-.0269 3.1968-.0695 4.7954-.0553l-1.3896 1.3196.2529-3.6988c.0495-.7243.5963-1.3006 1.3883-1.3184l2.1519-.0483c.7252-.0162 1.6643-.1851 2.3367.1431 1.4658.7154 1.1272 2.5331 1.189 3.842l.2723 5.7612c.0347.7335-.6631 1.282-1.3837 1.314l-1.9399.0862-.97.0431q-.7917.18135-.297-.1392c.3328-.5018.1702.9872.1673 1.1704-.0091.5917-.0183 1.1833-.0275 1.7749l-1.3806-1.3111c1.8547.1319 5.2818-.3343 5.7842 1.9576.2551 1.1637.0949 2.5102.1187 3.6962.0276 1.3801.0553 2.7602.083 4.1403.014.7014-.6418 1.3134-1.3761 1.3068-.6641-.0061-1.328-.0122-1.9921-.0183-.582-.0053-1.4334-.1621-1.992-.0182.3684-.4511.4986-.4041.3906.1409.0073.2944.0145.5888.0217.8832.0145.5888.029 1.1776.0434 1.7663l-1.3728-1.3037c1.3382-.0063 3.2305-.3559 4.4718.1788 1.2668.5457 1.0664 1.9181 1.0387 3.0146-.0668 2.6356-.1844 5.2751-.1812 7.9115.0008.6895-.6274 1.316-1.3677 1.2988-1.2635-.0292-2.5266-.0511-3.7887-.1119-.7449-.0359-1.3122-.555-1.3407-1.2732l-.1472-3.6988 1.2365 1.1742c-1.5987-.027-3.1966-.0646-4.7955-.0855l1.2063-1.1456c.0673 1.3357.7026 3.6944-.7073 4.6032-.6662.4294-1.5384.2824-2.288.2729-.9183-.0117-1.8329.0175-2.7513-.0197-.7055-.0286-1.1948-.5189-1.242-1.1795-.0851-1.1896-.1351-2.3818-.1895-3.5729l1.2582 1.1948c-2.0712-.0403-4.2217-.1719-6.2802.0808l1.2526-1.1896c.021 1.2249-.046 2.436-.202 3.6521-.079.6151-.5038 1.1995-1.2391 1.1766-1.5317-.0477-3.0641-.0623-4.5958-.1101-.6166-.0192-1.2825-.5179-1.2228-1.1612.1053-1.1355.0353-2.2945-.012-3.4319l.5993.9923c.7015.3408.132.101-.2934.0898-.1918-.005-.3837-.0053-.5757-.0111-1.2302-.037-2.4382-.0429-3.6674.0593l1.1918-1.1319c-.0203 1.1482.3741 3.1891-.6088 4.0757-.9502.857-2.919.4585-4.0996.4519-1.5027-.0084-1.5058-2.2168-.0001-2.2185"/>
    <path fill="#0b3335" d="M63.1989 54.4926v-3.0839c0-.7552-.6466-1.3692-1.4413-1.3692h-.7864v-1.0993c0-.7547-.6466-1.3687-1.4418-1.3687h-.5632v-.8879c0-.7546-.6466-1.3687-1.4413-1.3687h-5.6983c-.7947 0-1.4413.6141-1.4413 1.3687v.9587h-.861c-.7946 0-1.4413.6141-1.4413 1.3687v.9159l-.8604.0846c-.7372.0727-1.2932.6578-1.2932 1.3613v2.7674c0 .7546.6466 1.3691 1.4413 1.3691h.4151v.9577c0 .7551.6467 1.3687 1.4413 1.3687h.7864v1.2409c0 .7551.6466 1.3687 1.4413 1.3687h5.7729c.7947 0 1.4413-.6136 1.4413-1.3687v-1.0993h.7123c.7947 0 1.4413-.6136 1.4413-1.3687v-.7473h.935c.7947 0 1.4413-.6136 1.4413-1.3687m-2.1206-2.4394v1.7944h-.9349c-.7947 0-1.4413.614-1.4413 1.3687v.7473h-.7124c-.7947 0-1.4413.6136-1.4413 1.3687v1.0993H52.134v-1.2409c0-.7552-.6466-1.3687-1.4413-1.3687h-.7864v-.9582c0-.7547-.6466-1.3687-1.4413-1.3687h-.4151v-1.5408l.8604-.0846c.7362-.0708 1.2932-.6558 1.2932-1.3613v-.8525h.8605c.7951 0 1.4417-.614 1.4417-1.3691v-.9582h4.3399v.8878c0 .7547.6466 1.3687 1.4413 1.3687h.5638v1.0993c0 .7547.6466 1.3687 1.4413 1.3687zm-12.3869-2.1863c.001 0 .002 0 .003-.0004z"/>
    <path fill="#0b3335" d="m52.1977 42.6864.757-.1391c.4004-.0736.8417-.1914 1.2445-.1847.5381.0089 1.0763.0298 1.6143.0446.5384.015 1.0736.2083 1.4584.5737.3578.3398.6271.8971.6042 1.385-.0239.5066-.1992 1.0319-.6042 1.385-.3897.3397-.9124.6041-1.4584.5737-.5379-.03-1.0769-.0531-1.6143-.0901-.6843-.0472-1.3449-.2743-2.0015-.4534-.3559-.0971-.6531-.299-.8778-.575-.2201-.2707-.3793-.6209-.3628-.9723.0134-.2849.0905-.5578.2307-.8099.1788-.3213.6291-.6676 1.0099-.7375m-.2599 16.9728c.1345-.0409.2718-.095.4091-.1258.1196-.0269.2469-.0335.3686-.0499.43-.0579.8778-.1741 1.3089-.1399.5632.0446 1.127.0803 1.6915.108.539.0265 1.0523.1978 1.4408.5668.3534.3356.6196.8863.5968 1.3683-.0236.5004-.1967 1.0194-.5968 1.3683-.4051.3531-.8836.5516-1.4408.5667-.5746.0156-1.1493.0229-1.724.0208-.4511-.0017-.877-.1143-1.3071-.223-.4071-.1028-.7854-.2651-1.1625-.4411l-.3521-.2583-.272-.3343c-.198-.3212-.258-.689-.2065-1.0533.0421-.2972.1493-.5439.3424-.7814.2368-.291.5293-.4782.9037-.5919M38.1747 73.6337h4.0099c.2173-.0078.4199.0353.608.129.1956.0605.3649.1638.5078.3099.1539.1357.2627.2965.3263.4822.0988.1786.144.3711.1358.5774l-.0563.3983c-.075.2539-.2103.4742-.4058.6612l-.3194.2343c-.2461.1355-.5116.2038-.7964.2046h-4.0099c-.2173.0078-.4199-.0353-.608-.129-.1956-.0605-.3649-.1638-.5078-.3099-.1539-.1357-.2626-.2965-.3262-.4822-.0989-.1786-.1441-.3711-.1359-.5773l.0563-.3984c.075-.2539.2103-.4742.4058-.6612l.3194-.2343c.2461-.1355.5116-.2038.7964-.2046m9.6762 1.4985c0 .4551-.4214.8912-.9163.8702-.4965-.0212-.9164-.3824-.9164-.8702 0-.4552.4215-.8913.9164-.8702.4965.0211.9163.3823.9163.8702m3.8337-1.4985h5.0496c.2173-.0078.42.0353.608.129.1956.0605.3649.1638.5078.3099.1539.1357.2627.2965.3263.4822.0988.1786.144.3711.1359.5774l-.0564.3983c-.075.2539-.2102.4742-.4058.6612l-.3193.2343c-.2461.1355-.5116.2038-.7965.2046h-5.0496c-.2172.0078-.4199-.0353-.6079-.129-.1956-.0605-.3649-.1638-.5078-.3099-.1539-.1357-.2627-.2965-.3263-.4822-.0988-.1786-.1441-.3711-.1359-.5773l.0564-.3984c.0749-.2539.2102-.4742.4058-.6612l.3193-.2343c.2461-.1355.5116-.2038.7964-.2046m10.7156 1.4985c0 .4551-.4214.8912-.9163.8702-.4965-.0212-.9164-.3824-.9164-.8702 0-.4552.4215-.8913.9164-.8702.4965.0211.9163.3823.9163.8702m3.8337-1.4985h4.3071c.2172-.0078.4199.0353.6079.129.1956.0605.3649.1638.5078.3099.1539.1357.2627.2965.3263.4822.0988.1786.1441.3711.1359.5774l-.0564.3983c-.075.2539-.2102.4742-.4058.6612l-.3193.2343c-.2461.1355-.5116.2038-.7964.2046h-4.3071c-.2172.0078-.4199-.0353-.6079-.129-.1956-.0605-.3649-.1638-.5078-.3099-.1539-.1357-.2627-.2965-.3263-.4822-.0988-.1786-.1441-.3711-.1359-.5773l.0564-.3984c.075-.2539.2102-.4742.4058-.6612l.3193-.2343c.2461-.1355.5116-.2038.7964-.2046M38.0265 28.9902h4.0099c.2173-.0078.4199.0352.608.129.1956.0604.3649.1637.5078.3098.1539.1357.2627.2965.3263.4823.0988.1785.144.371.1358.5773l-.0563.3983c-.075.2539-.2103.4743-.4058.6613l-.3194.2343c-.2461.1355-.5116.2037-.7964.2045h-4.0099c-.2173.0078-.4199-.0352-.608-.129-.1956-.0605-.3649-.1637-.5078-.3098-.1538-.1357-.2626-.2965-.3262-.4823-.0989-.1785-.1441-.371-.1359-.5773l.0563-.3984c.075-.2538.2103-.4742.4058-.6612l.3194-.2343c.2461-.1355.5116-.2037.7964-.2045m9.6761 1.4979c0 .4552-.4214.8913-.9163.8702-.4965-.0211-.9164-.3823-.9164-.8702 0-.4552.4215-.8912.9164-.8702.4965.0211.9163.3823.9163.8702m3.8329-1.4979h5.0496c.2173-.0078.4199.0352.6079.129.1956.0604.3649.1637.5078.3098.1539.1357.2627.2965.3263.4823.0988.1785.1441.371.1359.5773l-.0563.3983c-.075.2539-.2103.4743-.4059.6613l-.3193.2343c-.2461.1355-.5116.2037-.7964.2045h-5.0496c-.2173.0078-.4199-.0352-.608-.129-.1956-.0605-.3649-.1637-.5078-.3098-.1539-.1357-.2627-.2965-.3263-.4823-.0988-.1785-.144-.371-.1359-.5773l.0564-.3984c.075-.2538.2102-.4742.4058-.6612l.3194-.2343c.2461-.1355.5115-.2037.7964-.2045m10.716 1.4979c0 .4552-.4214.8913-.9163.8702-.4965-.0211-.9164-.3823-.9164-.8702 0-.4552.4215-.8912.9164-.8702.4965.0211.9163.3823.9163.8702m3.8337-1.4979h4.307c.2173-.0078.4199.0352.608.129.1956.0604.3649.1637.5078.3098.1539.1357.2626.2965.3263.4823.0988.1785.144.371.1358.5773l-.0563.3983c-.075.2539-.2103.4743-.4058.6613l-.3194.2343c-.2461.1355-.5116.2037-.7964.2045h-4.307c-.2173.0078-.4199-.0352-.6079-.129-.1956-.0605-.365-.1637-.5079-.3098-.1538-.1357-.2626-.2965-.3262-.4823-.0988-.1785-.1441-.371-.1359-.5773l.0563-.3984c.075-.2538.2103-.4742.4058-.6612l.3194-.2343c.2461-.1355.5116-.2037.7964-.2045"/>
    <path stroke="#0b3335" stroke-linecap="round" stroke-width="3" d="M17.0435 76.5559c-.0515-.053-.1029-.1061-.1962-.0172-.6551.6242-.3889 1.932-.0999 2.7952.2917.8712.9758 1.7538 1.758 2.6098.6549.7165 1.6226.9739 2.6615 1.113.4683.0628 1.0485-.5969 1.6971-1.3287.4112-.4638.2433-1.0656.0956-1.5447-.1383-.4485-.4649-.9016-.8069-1.3483-.1825-.1896-.3831-.304-.6072-.3487-.2242-.0447-.4658-.0163-1.151.1239"/>
  </g>
  <defs>
    <clipPath id="a">
      <path fill="#fff" d="m8 8-.00000363 83 84 .00000367.00000363-83z"/>
    </clipPath>
  </defs>
</svg>
