<svg xmlns="http://www.w3.org/2000/svg" fill="none" viewBox="0 0 100 100"><g clip-path="url(#a)"><path fill="#009345" d="M16.707 25.274c.106-3.27.284-6.741 3.065-9.302 1.419-1.307 3.499-2.09 5.65-1.957 3.802.234 4.614 3.002 6.776 4.69 2.934 2.291 7.562 2.144 11.643 1.935a279.5 279.5 0 0 1 36.435.523c4.85.388 8.363 3.884 7.804 7.777-.335 2.328-.838 4.705-.392 6.972.303 1.54 1.045 3.006 1.349 4.545 1.198 6.056-4.46 12.172-2.471 18.091.443 1.32 1.26 2.578 1.335 3.944.12 2.171-1.659 4.185-1.588 6.358.122 3.733 5.59 6.537 2.984 10.73-.687 1.105-1.804 2.005-3.125 2.638-3.118 1.492-6.784 1.533-10.324 1.554l-36.988.22c-4.202.025-8.464.044-12.525-.825-4.061-.87-7.967-2.751-10.012-5.704-1.746-2.52-1.97-5.52-2.098-8.404a226 226 0 0 1 1.215-35.533s1.098-3.076 1.267-8.252"/><path fill="#0b3335" d="M12.536 36.242c-.403 1.573-.443 3.212-.488 4.825-.049 1.705.06 3.411.14 5.114q.131 2.745.268 5.487c.092 1.83.29 3.658.359 5.488.137 3.646.133 7.3.19 10.949.027 1.769.076 3.538.175 5.305q.076 1.36.196 2.718a48 48 0 0 0 .156 1.472l.034.252c.25 1.37.521 2.72 1.034 4.03.039.098.226.533.05.142q.088.196.186.387.216.428.469.838c.168.272.352.531.542.789-.237-.32-.03-.033.027.028.145.158.287.318.44.47.255.253.529.496.819.715-.37-.279.293.166.41.23.132.074.898.407.371.21q.443.167.903.284c.135.034 1.105.19.496.123a9.4 9.4 0 0 0 1.723.032q.192-.015.383-.036c-.568.065.012-.014.14-.04a9 9 0 0 0 .93-.232c.121-.039.24-.087.36-.126-.428.14-.124.054-.025.006.284-.139.567-.271.84-.43q.164-.095.321-.197c.089-.057.507-.419.135-.085.207-.186.426-.355.625-.55.119-.117.59-.71.301-.307.18-.252.354-.502.504-.772.06-.109.111-.22.17-.33-.247.461.005-.042.038-.139.089-.259.147-.522.213-.787.036-.143.052-.545.013-.02.009-.12.022-.239.029-.359a7 7 0 0 0-.045-1.265c.043.398.017.132-.036-.108a7 7 0 0 0-.224-.792c-.05-.145-.109-.287-.166-.43.031.078.22.433.017.055-.131-.245-.26-.488-.408-.723a8 8 0 0 0-.258-.385c-.08-.114-.455-.536-.064-.101a7.862 7.862 0 0 0-1.212-1.146q.372.269.144.113c-.304-.127-.592-.363-.89-.51q-.17-.082-.34-.16c-.552-.262.517.136-.08-.022-.32-.084-.635-.164-.958-.235.584.128.17.01-.015.006-.204-.005-.406-.018-.61-.014-.17.004-.339.02-.508.027.44-.017.197-.033-.107.026a8 8 0 0 0-.983.26c-.027.008-.623.262-.258.089.337-.16-.266.137-.333.171-.335.172-.646.37-.96.573.076-.049.408-.33.045-.03-.156.129-.311.257-.46.393-.247.227-.474.47-.696.72q-.163.186-.327.37a6 6 0 0 0-.194.222q.261-.322.099-.107c-.133.307-.4.61-.569.909-.21.37-.036.065-.001-.022-.071.177-.113.378-.197.548-.248.5-.004-.237-.063.081-.04.224-.035.46-.038.685-.015 1.166-1.034 2.158-2.273 2.158a2.253 2.253 0 0 1-2.273-2.158 9.63 9.63 0 0 1 1.153-4.903c.782-1.465 2.192-2.661 3.649-3.514 2.998-1.756 7.034-2.06 10.1-.27 5.618 3.278 7.15 11.637 1.835 15.844-2.57 2.034-5.915 2.84-9.203 2.375-3.4-.482-6.198-2.836-7.67-5.714-1.65-3.223-2.057-6.8-2.317-10.33-.302-4.109-.323-8.23-.318-12.346.005-4.628.234-9.238.37-13.863.062-2.158.072-4.325.25-6.478.09-1.091.19-2.21.526-3.261.336-1.053.78-2.078 1.331-3.046.62-1.088 2.354-.333 2.058.823"/><path fill="#0b3335" d="M19.631 87.161c8.236-.11 16.476-.248 24.712-.141 8.373.109 16.744.354 25.117.423 4.635.038 9.27.017 13.902-.099l-1.863 1.77c-.418-14.579-.52-29.166-.822-43.747-.143-6.927-.297-13.854-.536-20.78-.026-.747-.096-1.506-.081-2.254.01-.498-.055-.085.062-.002.17.119.458.328.596.49l.184.029q-.186-.009-.37-.014-.538-.018-1.075-.035l-6.442-.21c-4.343-.141-8.695-.132-13.04-.186l-29.298-.363c-1.146-.014-2.122-.916-2.122-2.014 0-1.081.971-2.029 2.122-2.015l26.844.333 13.346.165c2.25.028 4.5-.016 6.75-.033 2.253-.017 5.25-.536 6.601 1.664.543.885.545 1.874.559 2.862q.017 1.25.032 2.5.028 2.58.043 5.164c.022 3.623.027 7.246.025 10.87-.005 7.542-.06 15.085-.05 22.628.01 8.315.173 16.636.398 24.948.026.973-.876 1.745-1.863 1.769-16.613.39-33.258-.245-49.84-1.172a295 295 0 0 0-13.89-.453c-1.422-.013-1.423-2.078 0-2.097"/><path fill="#0b3335" d="M9.269 32.451c-.23-1.921-.32-3.829-.399-5.761-.073-1.806-.174-3.616-.109-5.424.127-3.517 1.096-6.965 3.475-9.72 2.139-2.476 5.42-3.89 8.795-3.474 3.377.415 6.27 2.35 8.293 4.889 2.2 2.762 3.016 6.254 3.346 9.64.352 3.604.197 7.263.202 10.878l.035 23.236.02 13.007q.003 3.215.009 6.43c.003 2.303.144 4.627-.23 6.906-.282 1.71-3.345 1.705-3.633 0-.32-1.905-.248-3.812-.253-5.737l-.014-5.553-.026-10.814-.055-21.921q-.012-5.472-.027-10.942c-.008-3.118-.014-6.211-.924-9.186-.405-1.326-.975-2.553-1.851-3.679-.63-.809-1.704-1.735-2.694-2.295-2.224-1.26-4.53-1.382-6.664.118.075-.053.22-.185-.105.083q-.256.209-.498.432c-.269.25-.528.516-.761.797.165-.2-.119.16-.151.204a11 11 0 0 0-.924 1.504c-.233.457-.544 1.327-.732 2.054-.213.826-.342 1.64-.436 2.479-.44 3.934-.097 7.91-.442 11.85-.176 2.002-3.013 1.959-3.247 0M82.82 19.448h6.728c.958 0 1.877.8 1.832 1.74a1.82 1.82 0 0 1-1.832 1.74H82.82c-.958 0-1.877-.8-1.832-1.74a1.82 1.82 0 0 1 1.832-1.74m1.017 9.179q.24.043.482.083c.367.065-.404-.037-.002.002a12.801 12.801 0 0 0 2.444.039q.182-.016.365-.035c.381-.037-.421.064.058-.009q.394-.06.781-.144c.558-.12 1.103-.281 1.638-.474.898-.324 2.049.359 2.254 1.216.238.992-.318 1.794-1.28 2.14-2.458.887-5.147 1.02-7.714.538-.942-.177-1.57-1.292-1.28-2.14.324-.952 1.245-1.406 2.254-1.216m.02 9.339a12.4 12.4 0 0 1 4.944.615c.455.156.844.393 1.095.8.23.373.327.923.185 1.341-.144.421-.419.827-.843 1.04-.417.21-.95.333-1.412.176q-1.05-.36-2.156-.504l.488.062a11.3 11.3 0 0 0-2.302-.05c-.444.036-.99-.22-1.296-.51-.318-.301-.557-.796-.536-1.23.02-.45.176-.917.536-1.23.376-.328.788-.47 1.296-.51m.121 9.616q.466.137.949.203l-.487-.062a6.6 6.6 0 0 0 1.642.003l-.487.062q.783-.104 1.513-.393l-.438.176.205-.087c.458-.202.909-.308 1.412-.176.425.111.886.423 1.096.8.224.404.337.893.184 1.341-.138.408-.416.853-.842 1.04-.979.43-1.936.68-3.015.754a7.8 7.8 0 0 1-2.706-.304c-.45-.132-.855-.41-1.095-.8-.23-.373-.327-.923-.185-1.341.144-.421.418-.828.842-1.04.429-.215.937-.315 1.412-.176m.342 7.376q.9.29 1.841.415l-.487-.062c.857.107 1.72.11 2.577.007l-.487.062.256-.035c.505-.074.954-.08 1.412.175.38.211.743.625.843 1.04.106.446.083.946-.185 1.341-.242.356-.635.733-1.096.8-.948.14-1.89.22-2.849.14-.951-.078-1.895-.235-2.8-.527-.453-.146-.848-.4-1.095-.8-.23-.373-.327-.923-.185-1.34.144-.422.419-.828.842-1.04.422-.212.946-.327 1.413-.176m-.193 7.58q1.186.413 2.437.582l-.488-.063q1.299.166 2.604.062c.445-.035.99.22 1.296.51.318.302.557.797.537 1.23-.021.45-.177.918-.537 1.231-.375.327-.788.47-1.296.51a13.7 13.7 0 0 1-5.527-.705c-.457-.159-.843-.39-1.095-.8-.23-.373-.328-.922-.185-1.34.143-.422.418-.828.842-1.04.415-.21.953-.336 1.412-.176m.396 8.04q.72.113 1.441.206l-.487-.062q2.112.268 4.243.36c.956.042 1.878.771 1.832 1.741-.042.907-.807 1.785-1.832 1.74a56 56 0 0 1-6.171-.628c-.426-.067-.887-.46-1.096-.8-.23-.373-.327-.923-.185-1.34.144-.422.419-.828.843-1.04.461-.232.9-.257 1.412-.176m-.015 8.112q.143.021.287.04l-.487-.062c1.12.14 2.25.138 3.371 0l-.487.061a14 14 0 0 0 1.515-.285c.927-.227 2.033.29 2.255 1.216.217.908-.287 1.897-1.28 2.14-2.03.5-4.084.55-6.148.246-.424-.062-.889-.464-1.096-.8-.23-.372-.327-.922-.184-1.34.143-.422.418-.828.842-1.04l.438-.176a1.94 1.94 0 0 1 .974 0m-.92 8.142c2.193 0 4.386-.037 6.579 0 .958.016 1.877.789 1.832 1.74-.043.93-.805 1.758-1.832 1.74-2.193-.037-4.386 0-6.579 0-.958.001-1.877-.8-1.833-1.74a1.82 1.82 0 0 1 1.833-1.74M37.93 69.121l1.311.003c.337.002 1.427-.188 1.15.145-.333.397-.154-.735-.152-.942l.016-1.515c.006-.655.543-1.074 1.192-1.132 1.306-.117 2.59-.108 3.9-.08.62.014 1.288-.05 1.858.221.387.185.58.603.599.993.056 1.137.134 2.295.038 3.432l-1.223-1.162c1.531.038 3.064.042 4.595.08l-1.239 1.176a25 25 0 0 0 .175-3.652c-.011-.463.394-1.079.92-1.147 2.178-.282 4.42-.194 6.613-.134.698.02 1.234.533 1.259 1.195.043 1.191.082 2.383.157 3.573l-1.242-1.18c.67.033 1.336.039 2.006.038.654 0 1.478.175 2.09-.054l-.73.533c.38-.514-.008-2.406-.033-3.014-.025-.61.573-1.16 1.207-1.146 1.6.034 3.196.083 4.795.029.712-.024 1.178.56 1.237 1.174l.355 3.699-1.34-1.273c1.263-.004 2.525.032 3.788.06l-1.367 1.3c-.004-1.894.074-3.79.12-5.682.006-.226-.087-3.414.085-3.47q1.364.796.2.637l-1 .006-2 .01c-.754.005-1.354-.6-1.372-1.303-.034-1.332-.619-3.813.56-4.846.617-.541 1.44-.546 2.228-.551 1.162-.008 2.325.02 3.486.03l-1.376 1.306-.116-5.601c-.008-.378-.104-.845-.026-1.218q-.199-.794.2-.297.534.366-.291.156c-.92.112-2.072-.146-3-.212-.737-.052-1.392-.558-1.381-1.31.02-1.354-.445-3.73.67-4.8s3.737-.7 5.158-.764l-1.384 1.314q-.195-4.08-.392-8.162l.407.931-.39-.304.981.386-3.788.087 1.388-1.318-.25 3.699c-.048.707-.598 1.326-1.39 1.32-1.598-.014-3.197.03-4.795.058-.729.013-1.423-.616-1.391-1.321.027-.61.083-1.217.136-1.825l.08-.912q.678.276-.188.173c-.994.172-2.164-.022-3.177.015l1.187-1.128c-.09 1.19-.146 2.382-.207 3.573a1.15 1.15 0 0 1-1.154 1.096c-2.177.033-4.411.114-6.572-.177-.458-.062-.818-.592-.806-1.005a25 25 0 0 0-.154-3.652l1.064 1.01c-1.534.03-3.064.045-4.596.11l1.08-1.026c.119 1.135.063 2.294.03 3.432-.01.37-.205.753-.562.931-.543.271-1.224.213-1.82.25-1.307.08-2.59.14-3.9.074-.741-.037-1.282-.545-1.32-1.253q-.038-.65-.07-1.299a11 11 0 0 1-.035-.866q-.175-.764.261-.183c.766.473-.754.257-1.04.259l-1.835.011 1.428-1.356c-.184 2.784-.122 5.584-.228 8.372l-1.487-1.412c1.487.057 4.092-.333 5.253.773 1.147 1.094.707 3.504.738 4.888.018.839-.725 1.402-1.543 1.465-.956.074-2.049.32-3 .232l-.5.035q.666-1.028.548-.312c.146.355-.053 1.074-.071 1.462q-.137 2.8-.235 5.601l-1.352-1.284 3.237.014c.833.004 1.76-.045 2.415.544 1.144 1.028.526 3.488.487 4.787a1.227 1.227 0 0 1-1.238 1.175c-.297-.003-3.483.055-3.499-.034q.726-1.017.553.005l.02.991.034 1.735c.038 1.939.034 3.883.13 5.82.07 1.427-2.265 1.423-2.336 0-.132-2.681-.176-5.367-.257-8.05-.03-.988-.172-2.16.96-2.642 1.217-.517 3.09-.176 4.395-.175l-1.237 1.175q.017-.883.027-1.766l.01-.883q-.171-.76.283-.215c-.39-.192-1.541.034-1.992.044l-1.992.043c-.728.016-1.356-.601-1.352-1.284.008-1.299.02-2.597.007-3.896-.011-1.26-.232-2.721.022-3.96.5-2.433 3.975-1.966 5.933-2.092l-1.543 1.465-.021-2.662q-.18-.758.253-.223.612.385-.227.197l-.97-.05-1.94-.1c-.772-.038-1.528-.614-1.487-1.411.146-2.787.123-5.589.346-8.372.058-.727.607-1.36 1.428-1.356 1.356.009 3.696-.427 4.78.565 1.05.962.61 3 .579 4.225l-1.32-1.253c1.228.15 2.432.19 3.667.204.192.003.384.01.576.012.384.003 1.003-.207.331.105l-.562.93c.07-1.136.163-2.294.08-3.431-.04-.56.528-1.018 1.08-1.026 1.533-.02 3.063-.023 4.596-.08.626-.022.993.486 1.063 1.01.163 1.216.237 2.428.223 3.653l-1.098-1.043c2.06.243 4.21.1 6.28.033l-1.154 1.096c.038-1.19.072-2.383.14-3.573.037-.635.516-1.092 1.188-1.128.854-.045 1.704-.036 2.558-.05.806-.015 1.769-.238 2.5.221 1.402.881.935 3.307.873 4.634l-1.391-1.321c1.598-.027 3.197-.07 4.795-.056l-1.39 1.32.253-3.699c.05-.724.597-1.3 1.389-1.318L69.595 34c.725-.017 1.664-.185 2.336.143 1.466.715 1.128 2.533 1.19 3.842l.272 5.76c.034.734-.663 1.283-1.384 1.315l-1.94.086-.97.043q-.792.182-.297-.139c.333-.502.17.987.167 1.17l-.027 1.775-1.38-1.31c1.854.131 5.281-.335 5.783 1.957.256 1.163.095 2.51.12 3.696l.082 4.14c.014.702-.642 1.314-1.376 1.307l-1.992-.018c-.582-.006-1.433-.162-1.992-.018q.553-.678.39.14l.066 2.65-1.373-1.304c1.338-.006 3.23-.356 4.472.18 1.267.545 1.066 1.917 1.038 3.014-.066 2.635-.184 5.275-.18 7.911 0 .69-.628 1.316-1.368 1.299-1.264-.03-2.527-.051-3.79-.112-.744-.036-1.311-.555-1.34-1.273l-.147-3.699 1.236 1.174c-1.598-.027-3.196-.064-4.795-.085l1.206-1.146c.068 1.336.703 3.695-.707 4.603-.666.43-1.538.283-2.288.273-.918-.011-1.833.018-2.751-.02-.706-.028-1.195-.518-1.242-1.179-.085-1.19-.135-2.382-.19-3.573l1.258 1.195c-2.07-.04-4.221-.172-6.28.08l1.253-1.189a25 25 0 0 1-.202 3.652c-.08.615-.504 1.2-1.24 1.177-1.531-.048-3.063-.062-4.595-.11-.617-.02-1.283-.518-1.223-1.161.105-1.136.035-2.295-.012-3.432l.6.992c.7.34.131.101-.294.09q-.288-.005-.576-.011c-1.23-.037-2.438-.043-3.667.059l1.192-1.132c-.02 1.148.374 3.19-.61 4.076-.95.857-2.918.458-4.099.452-1.502-.009-1.506-2.217 0-2.219"/><path fill="#0b3335" d="M63.199 54.493v-3.084c0-.755-.647-1.37-1.441-1.37h-.787V48.94c0-.754-.646-1.368-1.442-1.368h-.563v-.888c0-.755-.646-1.37-1.441-1.37h-5.698c-.795 0-1.442.615-1.442 1.37v.958h-.86c-.795 0-1.442.614-1.442 1.369v.916l-.86.085c-.738.072-1.294.657-1.294 1.36v2.768c0 .755.647 1.37 1.442 1.37h.415v.957c0 .755.647 1.369 1.441 1.369h.787v1.24c0 .756.646 1.37 1.44 1.37h5.774c.794 0 1.441-.614 1.441-1.37v-1.099h.712c.795 0 1.442-.613 1.442-1.368v-.748h.935c.794 0 1.44-.613 1.44-1.368m-2.12-2.44v1.795h-.935c-.794 0-1.44.614-1.44 1.368v.748h-.713c-.795 0-1.442.613-1.442 1.368v1.1h-4.414V57.19c0-.755-.647-1.369-1.441-1.369h-.787v-.958c0-.755-.646-1.369-1.441-1.369h-.415v-1.54l.86-.085c.737-.071 1.294-.656 1.294-1.362v-.852h.86c.795 0 1.442-.614 1.442-1.37v-.957h4.34v.887c0 .755.646 1.37 1.44 1.37h.565v1.098c0 .755.646 1.37 1.441 1.37zm-12.387-2.186h.003z"/><path fill="#0b3335" d="m52.198 42.686.757-.139c.4-.073.841-.191 1.244-.184.538.009 1.076.03 1.614.044.539.015 1.074.209 1.459.574.358.34.627.897.604 1.385-.024.507-.2 1.032-.604 1.385-.39.34-.913.604-1.459.574-.537-.03-1.076-.053-1.614-.09-.684-.048-1.345-.275-2.001-.454a1.7 1.7 0 0 1-.878-.575c-.22-.27-.38-.62-.363-.972a1.8 1.8 0 0 1 .23-.81c.18-.321.63-.668 1.01-.738m-.26 16.973c.135-.04.273-.095.41-.126.12-.026.247-.033.368-.05.43-.057.878-.174 1.31-.14q.844.066 1.69.109c.54.026 1.053.197 1.442.566.353.336.62.887.597 1.369-.024.5-.197 1.02-.597 1.368a2.23 2.23 0 0 1-1.441.567q-.863.024-1.724.02c-.451-.001-.877-.114-1.307-.222a6.5 6.5 0 0 1-1.163-.442l-.352-.258-.272-.334a1.57 1.57 0 0 1-.206-1.053c.042-.298.149-.544.342-.782a1.8 1.8 0 0 1 .904-.592M38.175 73.634h4.01q.326-.012.608.129.293.09.507.31.231.203.327.482.148.267.136.577l-.057.399q-.112.38-.406.66l-.319.235a1.64 1.64 0 0 1-.796.205h-4.01a1.24 1.24 0 0 1-.608-.13 1.2 1.2 0 0 1-.508-.31 1.1 1.1 0 0 1-.326-.481 1.1 1.1 0 0 1-.136-.578l.056-.398q.112-.38.406-.661l.32-.235q.367-.203.796-.204m9.676 1.498c0 .455-.421.891-.916.87-.497-.02-.917-.382-.917-.87 0-.455.422-.891.917-.87s.916.382.916.87m3.834-1.498h5.05q.326-.012.607.129.294.09.508.31.231.203.326.482.149.267.136.577l-.056.399q-.112.38-.406.66l-.32.235a1.64 1.64 0 0 1-.796.205h-5.05a1.24 1.24 0 0 1-.607-.13 1.2 1.2 0 0 1-.508-.31 1.1 1.1 0 0 1-.326-.481 1.1 1.1 0 0 1-.136-.578l.056-.398q.112-.38.406-.661l.32-.235q.367-.203.796-.204M62.4 75.132c0 .455-.421.891-.916.87-.497-.02-.916-.382-.916-.87 0-.455.421-.891.916-.87s.916.382.916.87m3.834-1.498h4.307q.326-.012.608.129.294.09.508.31.23.203.326.482.148.267.136.577l-.056.399q-.112.38-.406.66l-.32.235a1.64 1.64 0 0 1-.796.205h-4.307a1.24 1.24 0 0 1-.608-.13 1.2 1.2 0 0 1-.508-.31 1.1 1.1 0 0 1-.326-.481 1.1 1.1 0 0 1-.136-.578l.056-.398q.112-.38.406-.661l.32-.235q.369-.203.796-.204M38.027 28.99h4.01q.326-.012.607.13.294.09.508.309.231.204.326.482.15.268.136.578l-.056.398q-.112.38-.406.661l-.32.235a1.64 1.64 0 0 1-.796.204h-4.01a1.24 1.24 0 0 1-.607-.129 1.2 1.2 0 0 1-.508-.31 1.1 1.1 0 0 1-.326-.482 1.1 1.1 0 0 1-.136-.577l.056-.399q.112-.38.406-.661l.32-.234q.367-.204.796-.205m9.676 1.498c0 .455-.422.891-.917.87-.496-.02-.916-.382-.916-.87 0-.455.421-.891.916-.87.497.021.917.382.917.87m3.833-1.498h5.05q.324-.012.607.13.294.09.508.309.231.204.326.482.148.268.136.578l-.056.398q-.112.38-.406.661l-.32.235a1.64 1.64 0 0 1-.796.204h-5.05a1.24 1.24 0 0 1-.607-.129 1.2 1.2 0 0 1-.508-.31 1.1 1.1 0 0 1-.327-.482 1.1 1.1 0 0 1-.135-.577l.056-.399q.112-.38.406-.661l.32-.234q.367-.204.796-.205m10.716 1.498c0 .455-.422.891-.917.87-.496-.02-.916-.382-.916-.87 0-.455.421-.891.916-.87.497.021.917.382.917.87m3.833-1.498h4.307q.326-.012.608.13.294.09.508.309.231.204.326.482.149.268.136.578l-.056.398q-.112.38-.406.661l-.32.235a1.64 1.64 0 0 1-.796.204h-4.307a1.24 1.24 0 0 1-.608-.129 1.2 1.2 0 0 1-.508-.31 1.1 1.1 0 0 1-.326-.482 1.1 1.1 0 0 1-.136-.577l.057-.399q.112-.38.405-.661l.32-.234q.369-.204.796-.205"/><path stroke="#0b3335" stroke-linecap="round" stroke-width="3" d="M17.044 76.556c-.052-.053-.103-.106-.197-.017-.655.624-.389 1.932-.1 2.795.292.871.976 1.754 1.758 2.61.655.716 1.623.974 2.662 1.113.468.062 1.048-.597 1.697-1.329.411-.464.243-1.066.096-1.545-.139-.448-.465-.901-.807-1.348a1.14 1.14 0 0 0-.607-.349c-.225-.044-.466-.016-1.151.124"/></g><defs><clipPath id="a"><path fill="#fff" d="M8 8v83h84V8z"/></clipPath></defs></svg>